<?xml version="1.0" encoding="utf-8" standalone="no"?>
<!DOCTYPE svg PUBLIC "-//W3C//DTD SVG 1.1//EN" "http://www.w3.org/Graphics/SVG/1.1/DTD/svg11.dtd">
<svg width="3000px" height="3000px" version="1.1" xmlns="http://www.w3.org/2000/svg" xmlns:xlink="http://www.w3.org/1999/xlink">
<g id="ideograms">
<g id="highlighttrack_0">
</g>
<path d="M1500.000,275.000 A1225.000,1225.000 40.000 0,1 1724.574,2704.239 L1733.740,2753.392 A1275.000,1275.000 0.000 0,0 1500.000,225.000 Z" style="stroke-linecap:round;fill:rgb(251,106,74);"/>
<text x="2923.9" y="1368.4" font-size="46.8px" font-family="CMUBright-Roman" style="text-anchor:middle;fill:rgb(0,0,0);" transform="rotate(444.7,2923.9,1368.4)">gi|385215269|ref|NC_017366.1|</text>
<line x1='1500.0' y1='225.0' x2='1500.0' y2='205.0' style="stroke-width:4.0;stroke:rgb(0,0,0);stroke-linecap:round;fill:none;"/>
<text x="1507.5" y="195.0" font-size="19.5px" font-family="CMUBright-Roman" style="text-anchor:start;fill:rgb(0,0,0);" transform="rotate(270.0,1507.5,195.0)">0</text>
<line x1='1619.2' y1='230.6' x2='1621.1' y2='210.7' style="stroke-width:4.0;stroke:rgb(0,0,0);stroke-linecap:round;fill:none;"/>
<text x="1629.5" y="201.4" font-size="19.5px" font-family="CMUBright-Roman" style="text-anchor:start;fill:rgb(0,0,0);" transform="rotate(275.4,1629.5,201.4)">50</text>
<line x1='1737.4' y1='247.3' x2='1741.1' y2='227.7' style="stroke-width:4.0;stroke:rgb(0,0,0);stroke-linecap:round;fill:none;"/>
<text x="1750.4" y="219.2" font-size="19.5px" font-family="CMUBright-Roman" style="text-anchor:start;fill:rgb(0,0,0);" transform="rotate(280.7,1750.4,219.2)">100</text>
<line x1='1853.5' y1='275.0' x2='1859.1' y2='255.8' style="stroke-width:4.0;stroke:rgb(0,0,0);stroke-linecap:round;fill:none;"/>
<text x="1869.0" y="248.3" font-size="19.5px" font-family="CMUBright-Roman" style="text-anchor:start;fill:rgb(0,0,0);" transform="rotate(286.1,1869.0,248.3)">150</text>
<line x1='1966.5' y1='313.4' x2='1973.9' y2='294.8' style="stroke-width:4.0;stroke:rgb(0,0,0);stroke-linecap:round;fill:none;"/>
<text x="1984.5" y="288.3" font-size="19.5px" font-family="CMUBright-Roman" style="text-anchor:start;fill:rgb(0,0,0);" transform="rotate(291.5,1984.5,288.3)">200</text>
<line x1='2075.5' y1='362.2' x2='2084.5' y2='344.4' style="stroke-width:4.0;stroke:rgb(0,0,0);stroke-linecap:round;fill:none;"/>
<text x="2095.7" y="338.9" font-size="19.5px" font-family="CMUBright-Roman" style="text-anchor:start;fill:rgb(0,0,0);" transform="rotate(296.8,2095.7,338.9)">250</text>
<line x1='2179.3' y1='421.0' x2='2190.0' y2='404.1' style="stroke-width:4.0;stroke:rgb(0,0,0);stroke-linecap:round;fill:none;"/>
<text x="2201.7" y="399.7" font-size="19.5px" font-family="CMUBright-Roman" style="text-anchor:start;fill:rgb(0,0,0);" transform="rotate(302.2,2201.7,399.7)">300</text>
<line x1='2277.3' y1='489.3' x2='2289.4' y2='473.5' style="stroke-width:4.0;stroke:rgb(0,0,0);stroke-linecap:round;fill:none;"/>
<text x="2301.5" y="470.1" font-size="19.5px" font-family="CMUBright-Roman" style="text-anchor:start;fill:rgb(0,0,0);" transform="rotate(307.6,2301.5,470.1)">350</text>
<line x1='2368.4' y1='566.4' x2='2382.0' y2='551.8' style="stroke-width:4.0;stroke:rgb(0,0,0);stroke-linecap:round;fill:none;"/>
<text x="2394.3" y="549.6" font-size="19.5px" font-family="CMUBright-Roman" style="text-anchor:start;fill:rgb(0,0,0);" transform="rotate(312.9,2394.3,549.6)">400</text>
<line x1='2451.9' y1='651.7' x2='2466.8' y2='638.4' style="stroke-width:4.0;stroke:rgb(0,0,0);stroke-linecap:round;fill:none;"/>
<text x="2479.2" y="637.4" font-size="19.5px" font-family="CMUBright-Roman" style="text-anchor:start;fill:rgb(0,0,0);" transform="rotate(318.3,2479.2,637.4)">450</text>
<line x1='2527.0' y1='744.4' x2='2543.1' y2='732.6' style="stroke-width:4.0;stroke:rgb(0,0,0);stroke-linecap:round;fill:none;"/>
<text x="2555.6" y="732.7" font-size="19.5px" font-family="CMUBright-Roman" style="text-anchor:start;fill:rgb(0,0,0);" transform="rotate(323.7,2555.6,732.7)">500</text>
<line x1='2593.2' y1='843.8' x2='2610.3' y2='833.5' style="stroke-width:4.0;stroke:rgb(0,0,0);stroke-linecap:round;fill:none;"/>
<text x="2622.7" y="834.8" font-size="19.5px" font-family="CMUBright-Roman" style="text-anchor:start;fill:rgb(0,0,0);" transform="rotate(329.0,2622.7,834.8)">550</text>
<line x1='2649.7' y1='948.9' x2='2667.8' y2='940.3' style="stroke-width:4.0;stroke:rgb(0,0,0);stroke-linecap:round;fill:none;"/>
<text x="2680.0" y="942.7" font-size="19.5px" font-family="CMUBright-Roman" style="text-anchor:start;fill:rgb(0,0,0);" transform="rotate(334.4,2680.0,942.7)">600</text>
<line x1='2696.2' y1='1058.8' x2='2715.0' y2='1051.9' style="stroke-width:4.0;stroke:rgb(0,0,0);stroke-linecap:round;fill:none;"/>
<text x="2727.0" y="1055.5" font-size="19.5px" font-family="CMUBright-Roman" style="text-anchor:start;fill:rgb(0,0,0);" transform="rotate(339.8,2727.0,1055.5)">650</text>
<line x1='2732.3' y1='1172.6' x2='2751.6' y2='1167.5' style="stroke-width:4.0;stroke:rgb(0,0,0);stroke-linecap:round;fill:none;"/>
<text x="2763.2" y="1172.2" font-size="19.5px" font-family="CMUBright-Roman" style="text-anchor:start;fill:rgb(0,0,0);" transform="rotate(345.1,2763.2,1172.2)">700</text>
<line x1='2757.5' y1='1289.3' x2='2777.2' y2='1286.0' style="stroke-width:4.0;stroke:rgb(0,0,0);stroke-linecap:round;fill:none;"/>
<text x="2788.3" y="1291.8" font-size="19.5px" font-family="CMUBright-Roman" style="text-anchor:start;fill:rgb(0,0,0);" transform="rotate(350.5,2788.3,1291.8)">750</text>
<line x1='2771.7' y1='1407.8' x2='2791.6' y2='1406.4' style="stroke-width:4.0;stroke:rgb(0,0,0);stroke-linecap:round;fill:none;"/>
<text x="2802.1" y="1413.1" font-size="19.5px" font-family="CMUBright-Roman" style="text-anchor:start;fill:rgb(0,0,0);" transform="rotate(355.9,2802.1,1413.1)">800</text>
<line x1='2774.7' y1='1527.2' x2='2794.7' y2='1527.6' style="stroke-width:4.0;stroke:rgb(0,0,0);stroke-linecap:round;fill:none;"/>
<text x="2804.5" y="1535.3" font-size="19.5px" font-family="CMUBright-Roman" style="text-anchor:start;fill:rgb(0,0,0);" transform="rotate(1.2,2804.5,1535.3)">850</text>
<line x1='2766.6' y1='1646.2' x2='2786.5' y2='1648.5' style="stroke-width:4.0;stroke:rgb(0,0,0);stroke-linecap:round;fill:none;"/>
<text x="2795.5" y="1657.1" font-size="19.5px" font-family="CMUBright-Roman" style="text-anchor:start;fill:rgb(0,0,0);" transform="rotate(6.6,2795.5,1657.1)">900</text>
<line x1='2747.4' y1='1764.0' x2='2766.9' y2='1768.2' style="stroke-width:4.0;stroke:rgb(0,0,0);stroke-linecap:round;fill:none;"/>
<text x="2775.1" y="1777.6" font-size="19.5px" font-family="CMUBright-Roman" style="text-anchor:start;fill:rgb(0,0,0);" transform="rotate(12.0,2775.1,1777.6)">950</text>
<line x1='2717.2' y1='1879.5' x2='2736.3' y2='1885.5' style="stroke-width:4.0;stroke:rgb(0,0,0);stroke-linecap:round;fill:none;"/>
<text x="2743.6" y="1895.6" font-size="19.5px" font-family="CMUBright-Roman" style="text-anchor:start;fill:rgb(0,0,0);" transform="rotate(17.3,2743.6,1895.6)">1000</text>
<line x1='2676.4' y1='1991.7' x2='2694.8' y2='1999.4' style="stroke-width:4.0;stroke:rgb(0,0,0);stroke-linecap:round;fill:none;"/>
<text x="2701.1" y="2010.2" font-size="19.5px" font-family="CMUBright-Roman" style="text-anchor:start;fill:rgb(0,0,0);" transform="rotate(22.7,2701.1,2010.2)">1050</text>
<line x1='2625.2' y1='2099.6' x2='2642.9' y2='2109.0' style="stroke-width:4.0;stroke:rgb(0,0,0);stroke-linecap:round;fill:none;"/>
<text x="2648.2" y="2120.3" font-size="19.5px" font-family="CMUBright-Roman" style="text-anchor:start;fill:rgb(0,0,0);" transform="rotate(28.0,2648.2,2120.3)">1100</text>
<line x1='2564.2' y1='2202.2' x2='2580.9' y2='2213.2' style="stroke-width:4.0;stroke:rgb(0,0,0);stroke-linecap:round;fill:none;"/>
<text x="2585.1" y="2224.9" font-size="19.5px" font-family="CMUBright-Roman" style="text-anchor:start;fill:rgb(0,0,0);" transform="rotate(33.4,2585.1,2224.9)">1150</text>
<line x1='2493.9' y1='2298.6' x2='2509.5' y2='2311.1' style="stroke-width:4.0;stroke:rgb(0,0,0);stroke-linecap:round;fill:none;"/>
<text x="2512.6" y="2323.2" font-size="19.5px" font-family="CMUBright-Roman" style="text-anchor:start;fill:rgb(0,0,0);" transform="rotate(38.8,2512.6,2323.2)">1200</text>
<line x1='2414.9' y1='2388.1' x2='2429.2' y2='2402.0' style="stroke-width:4.0;stroke:rgb(0,0,0);stroke-linecap:round;fill:none;"/>
<text x="2431.2" y="2414.3" font-size="19.5px" font-family="CMUBright-Roman" style="text-anchor:start;fill:rgb(0,0,0);" transform="rotate(44.1,2431.2,2414.3)">1250</text>
<line x1='2327.8' y1='2469.7' x2='2340.8' y2='2484.9' style="stroke-width:4.0;stroke:rgb(0,0,0);stroke-linecap:round;fill:none;"/>
<text x="2341.6" y="2497.4" font-size="19.5px" font-family="CMUBright-Roman" style="text-anchor:start;fill:rgb(0,0,0);" transform="rotate(49.5,2341.6,2497.4)">1300</text>
<line x1='2233.5' y1='2542.9' x2='2245.0' y2='2559.2' style="stroke-width:4.0;stroke:rgb(0,0,0);stroke-linecap:round;fill:none;"/>
<text x="2244.6" y="2571.7" font-size="19.5px" font-family="CMUBright-Roman" style="text-anchor:start;fill:rgb(0,0,0);" transform="rotate(54.9,2244.6,2571.7)">1350</text>
<line x1='2132.8' y1='2606.9' x2='2142.7' y2='2624.3' style="stroke-width:4.0;stroke:rgb(0,0,0);stroke-linecap:round;fill:none;"/>
<text x="2141.1" y="2636.7" font-size="19.5px" font-family="CMUBright-Roman" style="text-anchor:start;fill:rgb(0,0,0);" transform="rotate(60.2,2141.1,2636.7)">1400</text>
<line x1='2026.5' y1='2661.2' x2='2034.7' y2='2679.4' style="stroke-width:4.0;stroke:rgb(0,0,0);stroke-linecap:round;fill:none;"/>
<text x="2032.0" y="2691.6" font-size="19.5px" font-family="CMUBright-Roman" style="text-anchor:start;fill:rgb(0,0,0);" transform="rotate(65.6,2032.0,2691.6)">1450</text>
<line x1='1915.6' y1='2705.4' x2='1922.1' y2='2724.3' style="stroke-width:4.0;stroke:rgb(0,0,0);stroke-linecap:round;fill:none;"/>
<text x="1918.3" y="2736.2" font-size="19.5px" font-family="CMUBright-Roman" style="text-anchor:start;fill:rgb(0,0,0);" transform="rotate(71.0,1918.3,2736.2)">1500</text>
<line x1='1801.0' y1='2739.0' x2='1805.8' y2='2758.4' style="stroke-width:4.0;stroke:rgb(0,0,0);stroke-linecap:round;fill:none;"/>
<text x="1800.8" y="2769.9" font-size="19.5px" font-family="CMUBright-Roman" style="text-anchor:start;fill:rgb(0,0,0);" transform="rotate(76.3,1800.8,2769.9)">1550</text>
<g id="highlighttrack_0">
<path d="M2664.129,1118.650 A1225.000,1225.000 40.000 0,1 2673.351,1148.045 L2721.243,1133.680 A1275.000,1275.000 0.000 0,0 2711.645,1103.085 Z" style="stroke-width:4.0;stroke:rgb(0,0,0);stroke-linecap:round;fill:rgb(107,174,214);fill-opacity:0.50;"/>
<path d="M2713.561,1667.020 A1225.000,1225.000 40.000 0,1 2623.344,1988.594 L2669.194,2008.536 A1275.000,1275.000 0.000 0,0 2763.094,1673.837 Z" style="stroke-width:4.0;stroke:rgb(0,0,0);stroke-linecap:round;fill:rgb(107,174,214);fill-opacity:0.50;"/>
<path d="M2116.147,2558.767 A1225.000,1225.000 40.000 0,1 1732.281,2702.776 L1741.762,2751.869 A1275.000,1275.000 0.000 0,0 2141.296,2601.982 Z" style="stroke-width:4.0;stroke:rgb(0,0,0);stroke-linecap:round;fill:rgb(107,174,214);fill-opacity:0.50;"/>
<path d="M1558.134,276.380 A1225.000,1225.000 40.000 0,1 1646.250,283.762 L1652.219,234.119 A1275.000,1275.000 0.000 0,0 1560.507,226.437 Z" style="stroke-width:4.0;stroke:rgb(0,0,0);stroke-linecap:round;fill:rgb(107,174,214);fill-opacity:0.50;"/>
<path d="M1965.888,367.051 A1225.000,1225.000 40.000 0,1 2206.876,499.525 L2235.728,458.689 A1275.000,1275.000 0.000 0,0 1984.904,320.808 Z" style="stroke-width:4.0;stroke:rgb(0,0,0);stroke-linecap:round;fill:rgb(107,174,214);fill-opacity:0.50;"/>
<path d="M2618.343,1999.935 A1225.000,1225.000 40.000 0,1 2605.340,2028.061 L2650.456,2049.615 A1275.000,1275.000 0.000 0,0 2663.989,2020.340 Z" style="stroke-width:4.0;stroke:rgb(0,0,0);stroke-linecap:round;fill:rgb(107,174,214);fill-opacity:0.50;"/>
<path d="M2680.468,1172.707 A1225.000,1225.000 40.000 0,1 2707.109,1291.404 L2756.379,1282.890 A1275.000,1275.000 0.000 0,0 2728.650,1159.348 Z" style="stroke-width:4.0;stroke:rgb(0,0,0);stroke-linecap:round;fill:rgb(107,174,214);fill-opacity:0.50;"/>
<path d="M2308.457,579.662 A1225.000,1225.000 40.000 0,1 2325.870,595.255 L2359.579,558.326 A1275.000,1275.000 0.000 0,0 2341.455,542.097 Z" style="stroke-width:4.0;stroke:rgb(0,0,0);stroke-linecap:round;fill:rgb(107,174,214);fill-opacity:0.50;"/>
<path d="M2598.260,2042.633 A1225.000,1225.000 40.000 0,1 2229.251,2484.285 L2259.016,2524.460 A1275.000,1275.000 0.000 0,0 2643.086,2064.782 Z" style="stroke-width:4.0;stroke:rgb(0,0,0);stroke-linecap:round;fill:rgb(107,174,214);fill-opacity:0.50;"/>
<path d="M2159.264,2532.471 A1225.000,1225.000 40.000 0,1 2133.137,2548.696 L2158.979,2591.500 A1275.000,1275.000 0.000 0,0 2186.172,2574.613 Z" style="stroke-width:4.0;stroke:rgb(0,0,0);stroke-linecap:round;fill:rgb(107,174,214);fill-opacity:0.50;"/>
<path d="M2470.765,752.845 A1225.000,1225.000 40.000 0,1 2488.277,776.167 L2528.615,746.623 A1275.000,1275.000 0.000 0,0 2510.388,722.349 Z" style="stroke-width:4.0;stroke:rgb(0,0,0);stroke-linecap:round;fill:rgb(107,174,214);fill-opacity:0.50;"/>
<path d="M1500.094,275.000 A1225.000,1225.000 40.000 0,1 1558.130,276.380 L1560.502,226.436 A1275.000,1275.000 0.000 0,0 1500.098,225.000 Z" style="stroke-width:4.0;stroke:rgb(0,0,0);stroke-linecap:round;fill:rgb(107,174,214);fill-opacity:0.50;"/>
<path d="M2673.857,1149.736 A1225.000,1225.000 40.000 0,1 2680.387,1172.417 L2728.567,1159.047 A1275.000,1275.000 0.000 0,0 2721.769,1135.439 Z" style="stroke-width:4.0;stroke:rgb(0,0,0);stroke-linecap:round;fill:rgb(107,174,214);fill-opacity:0.50;"/>
<path d="M2329.608,598.681 A1225.000,1225.000 40.000 0,1 2459.542,738.486 L2498.707,707.403 A1275.000,1275.000 0.000 0,0 2363.469,561.892 Z" style="stroke-width:4.0;stroke:rgb(0,0,0);stroke-linecap:round;fill:rgb(107,174,214);fill-opacity:0.50;"/>
<path d="M2492.276,781.659 A1225.000,1225.000 40.000 0,1 2544.566,860.072 L2587.201,833.952 A1275.000,1275.000 0.000 0,0 2532.777,752.339 Z" style="stroke-width:4.0;stroke:rgb(0,0,0);stroke-linecap:round;fill:rgb(107,174,214);fill-opacity:0.50;"/>
<path d="M2187.543,2513.859 A1225.000,1225.000 40.000 0,1 2159.262,2532.472 L2186.170,2574.614 A1275.000,1275.000 0.000 0,0 2215.606,2555.241 Z" style="stroke-width:4.0;stroke:rgb(0,0,0);stroke-linecap:round;fill:rgb(107,174,214);fill-opacity:0.50;"/>
<path d="M2228.281,2485.003 A1225.000,1225.000 40.000 0,1 2188.295,2513.349 L2216.388,2554.710 A1275.000,1275.000 0.000 0,0 2258.007,2525.208 Z" style="stroke-width:4.0;stroke:rgb(0,0,0);stroke-linecap:round;fill:rgb(107,174,214);fill-opacity:0.50;"/>
<path d="M1652.142,284.485 A1225.000,1225.000 40.000 0,1 1965.767,367.001 L1984.778,320.756 A1275.000,1275.000 0.000 0,0 1658.352,234.872 Z" style="stroke-width:4.0;stroke:rgb(0,0,0);stroke-linecap:round;fill:rgb(107,174,214);fill-opacity:0.50;"/>
<path d="M2132.803,2548.897 A1225.000,1225.000 40.000 0,1 2122.520,2555.033 L2147.929,2598.095 A1275.000,1275.000 0.000 0,0 2158.632,2591.709 Z" style="stroke-width:4.0;stroke:rgb(0,0,0);stroke-linecap:round;fill:rgb(107,174,214);fill-opacity:0.50;"/>
<path d="M2707.172,1291.768 A1225.000,1225.000 40.000 0,1 2714.612,1659.190 L2764.188,1665.688 A1275.000,1275.000 0.000 0,0 2756.444,1283.268 Z" style="stroke-width:4.0;stroke:rgb(0,0,0);stroke-linecap:round;fill:rgb(107,174,214);fill-opacity:0.50;"/>
<path d="M2217.874,507.386 A1225.000,1225.000 40.000 0,1 2308.285,579.511 L2341.276,541.940 A1275.000,1275.000 0.000 0,0 2247.175,466.872 Z" style="stroke-width:4.0;stroke:rgb(0,0,0);stroke-linecap:round;fill:rgb(107,174,214);fill-opacity:0.50;"/>
<path d="M2543.163,857.788 A1225.000,1225.000 40.000 0,1 2663.977,1118.186 L2711.487,1102.602 A1275.000,1275.000 0.000 0,0 2585.741,831.576 Z" style="stroke-width:4.0;stroke:rgb(0,0,0);stroke-linecap:round;fill:rgb(107,174,214);fill-opacity:0.50;"/>
</g>
<g id="highlighttrack_0">
</g>
<path d="M1650.012,2715.780 A1225.000,1225.000 40.000 1,1 1424.586,277.324 L1421.507,227.418 A1275.000,1275.000 0.000 1,0 1656.135,2765.404 Z" style="stroke-linecap:round;fill:rgb(116,196,118);"/>
<text x="26.3" y="1636.2" font-size="46.8px" font-family="CMUBright-Roman" style="text-anchor:middle;fill:rgb(0,0,0);" transform="rotate(84.7,26.3,1636.2)">gi|385218266|ref|NC_017371.1|</text>
<line x1='1656.1' y1='2765.4' x2='1658.6' y2='2785.3' style="stroke-width:4.0;stroke:rgb(0,0,0);stroke-linecap:round;fill:none;"/>
<text x="1652.4" y="2796.1" font-size="19.5px" font-family="CMUBright-Roman" style="text-anchor:start;fill:rgb(0,0,0);" transform="rotate(83.0,1652.4,2796.1)">0</text>
<line x1='1537.1' y1='2774.5' x2='1537.7' y2='2794.5' style="stroke-width:4.0;stroke:rgb(0,0,0);stroke-linecap:round;fill:none;"/>
<text x="1530.5" y="2804.6" font-size="19.5px" font-family="CMUBright-Roman" style="text-anchor:start;fill:rgb(0,0,0);" transform="rotate(88.3,1530.5,2804.6)">50</text>
<line x1='1417.8' y1='2772.3' x2='1416.5' y2='2792.3' style="stroke-width:4.0;stroke:rgb(0,0,0);stroke-linecap:round;fill:none;"/>
<text x="1423.3" y="2802.7" font-size="19.5px" font-family="CMUBright-Roman" style="text-anchor:end;fill:rgb(0,0,0);" transform="rotate(-86.3,1423.3,2802.7)">100</text>
<line x1='1299.1' y1='2759.1' x2='1296.0' y2='2778.8' style="stroke-width:4.0;stroke:rgb(0,0,0);stroke-linecap:round;fill:none;"/>
<text x="1301.8" y="2789.9" font-size="19.5px" font-family="CMUBright-Roman" style="text-anchor:end;fill:rgb(0,0,0);" transform="rotate(-80.9,1301.8,2789.9)">150</text>
<line x1='1182.3' y1='2734.8' x2='1177.3' y2='2754.1' style="stroke-width:4.0;stroke:rgb(0,0,0);stroke-linecap:round;fill:none;"/>
<text x="1182.1" y="2765.7" font-size="19.5px" font-family="CMUBright-Roman" style="text-anchor:end;fill:rgb(0,0,0);" transform="rotate(-75.6,1182.1,2765.7)">200</text>
<line x1='1068.2' y1='2699.7' x2='1061.4' y2='2718.5' style="stroke-width:4.0;stroke:rgb(0,0,0);stroke-linecap:round;fill:none;"/>
<text x="1065.1" y="2730.4" font-size="19.5px" font-family="CMUBright-Roman" style="text-anchor:end;fill:rgb(0,0,0);" transform="rotate(-70.2,1065.1,2730.4)">250</text>
<line x1='957.9' y1='2654.0' x2='949.4' y2='2672.1' style="stroke-width:4.0;stroke:rgb(0,0,0);stroke-linecap:round;fill:none;"/>
<text x="952.0" y="2684.3" font-size="19.5px" font-family="CMUBright-Roman" style="text-anchor:end;fill:rgb(0,0,0);" transform="rotate(-64.8,952.0,2684.3)">300</text>
<line x1='852.4' y1='2598.3' x2='842.2' y2='2615.5' style="stroke-width:4.0;stroke:rgb(0,0,0);stroke-linecap:round;fill:none;"/>
<text x="843.6" y="2627.9" font-size="19.5px" font-family="CMUBright-Roman" style="text-anchor:end;fill:rgb(0,0,0);" transform="rotate(-59.5,843.6,2627.9)">350</text>
<line x1='752.5' y1='2532.9' x2='740.8' y2='2549.1' style="stroke-width:4.0;stroke:rgb(0,0,0);stroke-linecap:round;fill:none;"/>
<text x="741.0" y="2561.6" font-size="19.5px" font-family="CMUBright-Roman" style="text-anchor:end;fill:rgb(0,0,0);" transform="rotate(-54.1,741.0,2561.6)">400</text>
<line x1='659.2' y1='2458.5' x2='646.0' y2='2473.5' style="stroke-width:4.0;stroke:rgb(0,0,0);stroke-linecap:round;fill:none;"/>
<text x="645.0" y="2485.9" font-size="19.5px" font-family="CMUBright-Roman" style="text-anchor:end;fill:rgb(0,0,0);" transform="rotate(-48.7,645.0,2485.9)">450</text>
<line x1='573.2' y1='2375.6' x2='558.7' y2='2389.4' style="stroke-width:4.0;stroke:rgb(0,0,0);stroke-linecap:round;fill:none;"/>
<text x="556.6" y="2401.7" font-size="19.5px" font-family="CMUBright-Roman" style="text-anchor:end;fill:rgb(0,0,0);" transform="rotate(-43.4,556.6,2401.7)">500</text>
<line x1='495.4' y1='2285.1' x2='479.7' y2='2297.4' style="stroke-width:4.0;stroke:rgb(0,0,0);stroke-linecap:round;fill:none;"/>
<text x="476.4" y="2309.5" font-size="19.5px" font-family="CMUBright-Roman" style="text-anchor:end;fill:rgb(0,0,0);" transform="rotate(-38.0,476.4,2309.5)">550</text>
<line x1='426.4' y1='2187.7' x2='409.5' y2='2198.5' style="stroke-width:4.0;stroke:rgb(0,0,0);stroke-linecap:round;fill:none;"/>
<text x="405.2" y="2210.2" font-size="19.5px" font-family="CMUBright-Roman" style="text-anchor:end;fill:rgb(0,0,0);" transform="rotate(-32.6,405.2,2210.2)">600</text>
<line x1='366.8' y1='2084.3' x2='349.0' y2='2093.5' style="stroke-width:4.0;stroke:rgb(0,0,0);stroke-linecap:round;fill:none;"/>
<text x="343.6" y="2104.7" font-size="19.5px" font-family="CMUBright-Roman" style="text-anchor:end;fill:rgb(0,0,0);" transform="rotate(-27.3,343.6,2104.7)">650</text>
<line x1='317.1' y1='1975.8' x2='298.5' y2='1983.3' style="stroke-width:4.0;stroke:rgb(0,0,0);stroke-linecap:round;fill:none;"/>
<text x="292.1" y="1993.9" font-size="19.5px" font-family="CMUBright-Roman" style="text-anchor:end;fill:rgb(0,0,0);" transform="rotate(-21.9,292.1,1993.9)">700</text>
<line x1='277.8' y1='1863.1' x2='258.6' y2='1868.8' style="stroke-width:4.0;stroke:rgb(0,0,0);stroke-linecap:round;fill:none;"/>
<text x="251.2" y="1878.8" font-size="19.5px" font-family="CMUBright-Roman" style="text-anchor:end;fill:rgb(0,0,0);" transform="rotate(-16.5,251.2,1878.8)">750</text>
<line x1='249.2' y1='1747.2' x2='229.6' y2='1751.1' style="stroke-width:4.0;stroke:rgb(0,0,0);stroke-linecap:round;fill:none;"/>
<text x="221.2" y="1760.4" font-size="19.5px" font-family="CMUBright-Roman" style="text-anchor:end;fill:rgb(0,0,0);" transform="rotate(-11.2,221.2,1760.4)">800</text>
<line x1='231.6' y1='1629.1' x2='211.7' y2='1631.2' style="stroke-width:4.0;stroke:rgb(0,0,0);stroke-linecap:round;fill:none;"/>
<text x="202.5" y="1639.6" font-size="19.5px" font-family="CMUBright-Roman" style="text-anchor:end;fill:rgb(0,0,0);" transform="rotate(-5.8,202.5,1639.6)">850</text>
<line x1='225.0' y1='1510.0' x2='205.0' y2='1510.1' style="stroke-width:4.0;stroke:rgb(0,0,0);stroke-linecap:round;fill:none;"/>
<text x="195.1" y="1517.7" font-size="19.5px" font-family="CMUBright-Roman" style="text-anchor:end;fill:rgb(0,0,0);" transform="rotate(-0.4,195.1,1517.7)">900</text>
<line x1='229.7' y1='1390.7' x2='209.8' y2='1389.0' style="stroke-width:4.0;stroke:rgb(0,0,0);stroke-linecap:round;fill:none;"/>
<text x="199.2" y="1395.6" font-size="19.5px" font-family="CMUBright-Roman" style="text-anchor:end;fill:rgb(0,0,0);" transform="rotate(4.9,199.2,1395.6)">950</text>
<line x1='245.5' y1='1272.4' x2='225.8' y2='1268.8' style="stroke-width:4.0;stroke:rgb(0,0,0);stroke-linecap:round;fill:none;"/>
<text x="214.6" y="1274.4" font-size="19.5px" font-family="CMUBright-Roman" style="text-anchor:end;fill:rgb(0,0,0);" transform="rotate(10.3,214.6,1274.4)">1000</text>
<line x1='272.3' y1='1156.1' x2='253.0' y2='1150.7' style="stroke-width:4.0;stroke:rgb(0,0,0);stroke-linecap:round;fill:none;"/>
<text x="241.4" y="1155.2" font-size="19.5px" font-family="CMUBright-Roman" style="text-anchor:end;fill:rgb(0,0,0);" transform="rotate(15.7,241.4,1155.2)">1050</text>
<line x1='309.8' y1='1042.7' x2='291.1' y2='1035.6' style="stroke-width:4.0;stroke:rgb(0,0,0);stroke-linecap:round;fill:none;"/>
<text x="279.1" y="1039.0" font-size="19.5px" font-family="CMUBright-Roman" style="text-anchor:end;fill:rgb(0,0,0);" transform="rotate(21.0,279.1,1039.0)">1100</text>
<line x1='357.8' y1='933.5' x2='339.9' y2='924.6' style="stroke-width:4.0;stroke:rgb(0,0,0);stroke-linecap:round;fill:none;"/>
<text x="327.6" y="926.8" font-size="19.5px" font-family="CMUBright-Roman" style="text-anchor:end;fill:rgb(0,0,0);" transform="rotate(26.4,327.6,926.8)">1150</text>
<line x1='415.8' y1='829.1' x2='398.8' y2='818.6' style="stroke-width:4.0;stroke:rgb(0,0,0);stroke-linecap:round;fill:none;"/>
<text x="386.3" y="819.7" font-size="19.5px" font-family="CMUBright-Roman" style="text-anchor:end;fill:rgb(0,0,0);" transform="rotate(31.7,386.3,819.7)">1200</text>
<line x1='483.3' y1='730.7' x2='467.3' y2='718.6' style="stroke-width:4.0;stroke:rgb(0,0,0);stroke-linecap:round;fill:none;"/>
<text x="454.8" y="718.6" font-size="19.5px" font-family="CMUBright-Roman" style="text-anchor:end;fill:rgb(0,0,0);" transform="rotate(37.1,454.8,718.6)">1250</text>
<line x1='559.7' y1='639.0' x2='544.9' y2='625.5' style="stroke-width:4.0;stroke:rgb(0,0,0);stroke-linecap:round;fill:none;"/>
<text x="532.5" y="624.2" font-size="19.5px" font-family="CMUBright-Roman" style="text-anchor:end;fill:rgb(0,0,0);" transform="rotate(42.5,532.5,624.2)">1300</text>
<line x1='644.3' y1='554.8' x2='630.9' y2='540.0' style="stroke-width:4.0;stroke:rgb(0,0,0);stroke-linecap:round;fill:none;"/>
<text x="618.6" y="537.6" font-size="19.5px" font-family="CMUBright-Roman" style="text-anchor:end;fill:rgb(0,0,0);" transform="rotate(47.8,618.6,537.6)">1350</text>
<line x1='736.4' y1='478.9' x2='724.5' y2='462.9' style="stroke-width:4.0;stroke:rgb(0,0,0);stroke-linecap:round;fill:none;"/>
<text x="712.5" y="459.4" font-size="19.5px" font-family="CMUBright-Roman" style="text-anchor:end;fill:rgb(0,0,0);" transform="rotate(53.2,712.5,459.4)">1400</text>
<line x1='835.3' y1='412.0' x2='824.9' y2='394.9' style="stroke-width:4.0;stroke:rgb(0,0,0);stroke-linecap:round;fill:none;"/>
<text x="813.3" y="390.3" font-size="19.5px" font-family="CMUBright-Roman" style="text-anchor:end;fill:rgb(0,0,0);" transform="rotate(58.6,813.3,390.3)">1450</text>
<line x1='939.9' y1='354.6' x2='931.2' y2='336.6' style="stroke-width:4.0;stroke:rgb(0,0,0);stroke-linecap:round;fill:none;"/>
<text x="920.0" y="331.0" font-size="19.5px" font-family="CMUBright-Roman" style="text-anchor:end;fill:rgb(0,0,0);" transform="rotate(63.9,920.0,331.0)">1500</text>
<line x1='1049.5' y1='307.2' x2='1042.4' y2='288.5' style="stroke-width:4.0;stroke:rgb(0,0,0);stroke-linecap:round;fill:none;"/>
<text x="1031.9" y="281.8" font-size="19.5px" font-family="CMUBright-Roman" style="text-anchor:end;fill:rgb(0,0,0);" transform="rotate(69.3,1031.9,281.8)">1550</text>
<line x1='1163.0' y1='270.3' x2='1157.7' y2='251.0' style="stroke-width:4.0;stroke:rgb(0,0,0);stroke-linecap:round;fill:none;"/>
<text x="1147.9" y="243.4" font-size="19.5px" font-family="CMUBright-Roman" style="text-anchor:end;fill:rgb(0,0,0);" transform="rotate(74.7,1147.9,243.4)">1600</text>
<line x1='1279.5' y1='244.2' x2='1276.0' y2='224.5' style="stroke-width:4.0;stroke:rgb(0,0,0);stroke-linecap:round;fill:none;"/>
<text x="1266.9" y="216.0" font-size="19.5px" font-family="CMUBright-Roman" style="text-anchor:end;fill:rgb(0,0,0);" transform="rotate(80.0,1266.9,216.0)">1650</text>
<line x1='1397.9' y1='229.1' x2='1396.3' y2='209.2' style="stroke-width:4.0;stroke:rgb(0,0,0);stroke-linecap:round;fill:none;"/>
<text x="1388.0" y="199.8" font-size="19.5px" font-family="CMUBright-Roman" style="text-anchor:end;fill:rgb(0,0,0);" transform="rotate(85.4,1388.0,199.8)">1700</text>
<g id="highlighttrack_0">
<path d="M335.593,1880.502 A1225.000,1225.000 40.000 0,1 324.787,1845.687 L276.819,1859.797 A1275.000,1275.000 0.000 0,0 288.067,1896.033 Z" style="stroke-width:4.0;stroke:rgb(0,0,0);stroke-linecap:round;fill:rgb(107,174,214);fill-opacity:0.50;"/>
<path d="M879.737,2556.361 A1225.000,1225.000 40.000 0,1 619.231,2351.393 L583.281,2386.144 A1275.000,1275.000 0.000 0,0 854.421,2599.478 Z" style="stroke-width:4.0;stroke:rgb(0,0,0);stroke-linecap:round;fill:rgb(107,174,214);fill-opacity:0.50;"/>
<path d="M1007.169,378.509 A1225.000,1225.000 40.000 0,1 1412.440,278.133 L1408.866,228.261 A1275.000,1275.000 0.000 0,0 987.054,332.733 Z" style="stroke-width:4.0;stroke:rgb(0,0,0);stroke-linecap:round;fill:rgb(107,174,214);fill-opacity:0.50;"/>
<path d="M755.619,527.107 A1225.000,1225.000 40.000 0,1 836.203,470.438 L809.109,428.415 A1275.000,1275.000 0.000 0,0 725.236,487.397 Z" style="stroke-width:4.0;stroke:rgb(0,0,0);stroke-linecap:round;fill:rgb(107,174,214);fill-opacity:0.50;"/>
<path d="M1154.348,2675.223 A1225.000,1225.000 40.000 0,1 884.381,2559.074 L859.254,2602.302 A1275.000,1275.000 0.000 0,0 1140.240,2723.191 Z" style="stroke-width:4.0;stroke:rgb(0,0,0);stroke-linecap:round;fill:rgb(107,174,214);fill-opacity:0.50;"/>
<path d="M933.154,414.040 A1225.000,1225.000 40.000 0,1 960.798,400.052 L938.790,355.156 A1275.000,1275.000 0.000 0,0 910.017,369.715 Z" style="stroke-width:4.0;stroke:rgb(0,0,0);stroke-linecap:round;fill:rgb(107,174,214);fill-opacity:0.50;"/>
<path d="M395.321,2029.442 A1225.000,1225.000 40.000 0,1 345.370,1909.211 L298.242,1925.914 A1275.000,1275.000 0.000 0,0 350.232,2051.052 Z" style="stroke-width:4.0;stroke:rgb(0,0,0);stroke-linecap:round;fill:rgb(107,174,214);fill-opacity:0.50;"/>
<path d="M850.243,461.520 A1225.000,1225.000 40.000 0,1 869.079,449.970 L843.327,407.111 A1275.000,1275.000 0.000 0,0 823.722,419.133 Z" style="stroke-width:4.0;stroke:rgb(0,0,0);stroke-linecap:round;fill:rgb(107,174,214);fill-opacity:0.50;"/>
<path d="M382.186,998.885 A1225.000,1225.000 40.000 0,1 749.697,531.666 L719.073,492.142 A1275.000,1275.000 0.000 0,0 336.561,978.431 Z" style="stroke-width:4.0;stroke:rgb(0,0,0);stroke-linecap:round;fill:rgb(107,174,214);fill-opacity:0.50;"/>
<path d="M860.736,455.028 A1225.000,1225.000 40.000 0,1 894.853,434.907 L870.154,391.434 A1275.000,1275.000 0.000 0,0 834.644,412.376 Z" style="stroke-width:4.0;stroke:rgb(0,0,0);stroke-linecap:round;fill:rgb(107,174,214);fill-opacity:0.50;"/>
<path d="M275.245,1475.488 A1225.000,1225.000 40.000 0,1 276.299,1443.602 L226.352,1441.300 A1275.000,1275.000 0.000 0,0 225.255,1474.488 Z" style="stroke-width:4.0;stroke:rgb(0,0,0);stroke-linecap:round;fill:rgb(107,174,214);fill-opacity:0.50;"/>
<path d="M1649.918,2715.792 A1225.000,1225.000 40.000 0,1 1590.912,2721.622 L1594.623,2771.484 A1275.000,1275.000 0.000 0,0 1656.037,2765.416 Z" style="stroke-width:4.0;stroke:rgb(0,0,0);stroke-linecap:round;fill:rgb(107,174,214);fill-opacity:0.50;"/>
<path d="M343.592,1904.160 A1225.000,1225.000 40.000 0,1 335.992,1881.719 L288.481,1897.300 A1275.000,1275.000 0.000 0,0 296.391,1920.656 Z" style="stroke-width:4.0;stroke:rgb(0,0,0);stroke-linecap:round;fill:rgb(107,174,214);fill-opacity:0.50;"/>
<path d="M954.852,402.987 A1225.000,1225.000 40.000 0,1 971.808,394.723 L950.249,349.609 A1275.000,1275.000 0.000 0,0 932.601,358.211 Z" style="stroke-width:4.0;stroke:rgb(0,0,0);stroke-linecap:round;fill:rgb(107,174,214);fill-opacity:0.50;"/>
<path d="M321.157,1166.903 A1225.000,1225.000 40.000 0,1 326.425,1148.791 L278.524,1134.456 A1275.000,1275.000 0.000 0,0 273.041,1153.307 Z" style="stroke-width:4.0;stroke:rgb(0,0,0);stroke-linecap:round;fill:rgb(107,174,214);fill-opacity:0.50;"/>
<path d="M277.819,1416.938 A1225.000,1225.000 40.000 0,1 309.381,1211.814 L260.784,1200.051 A1275.000,1275.000 0.000 0,0 227.934,1413.547 Z" style="stroke-width:4.0;stroke:rgb(0,0,0);stroke-linecap:round;fill:rgb(107,174,214);fill-opacity:0.50;"/>
<path d="M613.009,2344.910 A1225.000,1225.000 40.000 0,1 546.976,2269.656 L508.077,2301.071 A1275.000,1275.000 0.000 0,0 576.806,2379.396 Z" style="stroke-width:4.0;stroke:rgb(0,0,0);stroke-linecap:round;fill:rgb(107,174,214);fill-opacity:0.50;"/>
<path d="M836.238,470.415 A1225.000,1225.000 40.000 0,1 859.846,455.573 L833.717,412.943 A1275.000,1275.000 0.000 0,0 809.145,428.392 Z" style="stroke-width:4.0;stroke:rgb(0,0,0);stroke-linecap:round;fill:rgb(107,174,214);fill-opacity:0.50;"/>
<path d="M1589.935,2721.694 A1225.000,1225.000 40.000 0,1 1536.146,2724.467 L1537.621,2774.445 A1275.000,1275.000 0.000 0,0 1593.606,2771.559 Z" style="stroke-width:4.0;stroke:rgb(0,0,0);stroke-linecap:round;fill:rgb(107,174,214);fill-opacity:0.50;"/>
<path d="M1518.889,2724.854 A1225.000,1225.000 40.000 0,1 1189.922,2685.106 L1177.266,2733.478 A1275.000,1275.000 0.000 0,0 1519.660,2774.848 Z" style="stroke-width:4.0;stroke:rgb(0,0,0);stroke-linecap:round;fill:rgb(107,174,214);fill-opacity:0.50;"/>
<path d="M895.719,434.416 A1225.000,1225.000 40.000 0,1 906.205,428.537 L881.968,384.804 A1275.000,1275.000 0.000 0,0 871.055,390.922 Z" style="stroke-width:4.0;stroke:rgb(0,0,0);stroke-linecap:round;fill:rgb(107,174,214);fill-opacity:0.50;"/>
<path d="M324.243,1843.833 A1225.000,1225.000 40.000 0,1 275.160,1480.212 L225.166,1479.404 A1275.000,1275.000 0.000 0,0 276.253,1857.867 Z" style="stroke-width:4.0;stroke:rgb(0,0,0);stroke-linecap:round;fill:rgb(107,174,214);fill-opacity:0.50;"/>
<path d="M339.264,1108.444 A1225.000,1225.000 40.000 0,1 382.141,998.986 L336.514,978.536 A1275.000,1275.000 0.000 0,0 291.887,1092.462 Z" style="stroke-width:4.0;stroke:rgb(0,0,0);stroke-linecap:round;fill:rgb(107,174,214);fill-opacity:0.50;"/>
<path d="M550.192,2273.621 A1225.000,1225.000 40.000 0,1 394.056,2026.794 L348.915,2048.296 A1275.000,1275.000 0.000 0,0 511.424,2305.198 Z" style="stroke-width:4.0;stroke:rgb(0,0,0);stroke-linecap:round;fill:rgb(107,174,214);fill-opacity:0.50;"/>
</g>
</g>
<g id="track_0">
<path d="M 347.237,1876.697 A 1212.750,1212.750 0.00 0,1 336.5,1842.2 L 336.5,1842.2 417.5,1817.0 494.4,1790.4 567.4,1762.7 636.9,1734.4 703.2,1705.6 766.5,1676.8 827.1,1648.0 885.3,1619.6 941.3,1591.8 995.5,1564.7 1048.0,1538.5 1099.1,1513.4 1149.0,1489.5 1198.0,1466.8 1246.3,1445.4 1294.1,1425.5 1341.6,1407.0 1389.0,1389.9 1436.6,1374.3 1484.5,1360.1 1532.9,1347.2 1581.9,1335.6 1631.9,1325.2 1682.8,1315.8 1734.9,1307.3 1788.3,1299.5 1843.2,1292.4 1899.8,1285.5 1958.0,1278.8 2018.2,1271.9 2080.3,1264.7 2144.6,1256.7 2211.1,1247.7 2279.9,1237.3 2351.1,1225.2 2424.8,1211.0 2501.0,1194.3 2580.0,1174.6 2661.6,1151.6  A 1212.750,1212.750 0.00 0,0 2652.5,1122.5 L 2652.5,1122.5 2571.4,1147.6 2493.0,1169.2 2417.2,1187.9 2343.8,1203.9 2272.9,1217.8 2204.4,1229.9 2138.2,1240.6 2074.1,1250.2 2012.2,1259.1 1952.2,1267.5 1894.1,1275.7 1837.7,1284.0 1783.0,1292.7 1729.8,1301.8 1677.9,1311.7 1627.3,1322.4 1577.6,1334.2 1528.9,1347.1 1480.9,1361.3 1433.4,1376.8 1386.3,1393.8 1339.4,1412.2 1292.4,1432.0 1245.2,1453.3 1197.5,1476.0 1149.2,1500.1 1099.9,1525.4 1049.6,1552.0 997.8,1579.8 944.5,1608.4 889.3,1637.9 831.9,1668.0 772.2,1698.5 709.7,1729.3 644.3,1760.0 575.7,1790.3 503.5,1820.1 427.5,1849.0 347.2,1876.7  Z" style="stroke-width: 2.0;  stroke: rgb(82,82,82); fill: rgb(251,106,74); opacity: 0.333;"/>
<path d="M 885.940,2545.798 A 1212.750,1212.750 0.00 0,1 628.0,2342.9 L 628.0,2342.9 689.3,2285.3 748.4,2232.8 805.6,2185.0 860.8,2141.5 914.2,2102.0 965.9,2066.1 1016.1,2033.7 1064.7,2004.3 1112.0,1977.7 1158.0,1953.7 1202.9,1932.1 1246.8,1912.6 1289.8,1895.0 1332.1,1879.2 1373.8,1865.1 1415.0,1852.5 1455.9,1841.3 1496.6,1831.5 1537.3,1822.9 1578.2,1815.5 1619.4,1809.3 1661.0,1804.2 1703.2,1800.3 1746.2,1797.7 1790.2,1796.3 1835.3,1796.2 1881.8,1797.6 1929.7,1800.5 1979.4,1805.0 2030.9,1811.4 2084.5,1819.7 2140.3,1830.2 2198.6,1843.0 2259.6,1858.4 2323.5,1876.7 2390.5,1898.1 2460.8,1922.8 2534.6,1951.3 2612.1,1983.7  A 1212.750,1212.750 0.00 0,0 2701.4,1665.3 L 2701.4,1665.3 2618.0,1655.0 2539.2,1647.6 2464.9,1642.7 2394.6,1640.3 2328.2,1639.9 2265.3,1641.6 2205.6,1644.9 2149.0,1649.9 2095.2,1656.4 2043.8,1664.2 1994.8,1673.2 1947.8,1683.4 1902.7,1694.6 1859.2,1706.9 1817.2,1720.1 1776.5,1734.3 1736.8,1749.4 1698.1,1765.4 1660.1,1782.5 1622.7,1800.7 1585.8,1819.9 1549.2,1840.4 1512.7,1862.2 1476.4,1885.4 1440.0,1910.2 1403.5,1936.7 1366.7,1965.2 1329.7,1995.8 1292.2,2028.7 1254.3,2064.2 1215.9,2102.5 1176.9,2143.9 1137.3,2188.6 1097.1,2237.0 1056.2,2289.4 1014.6,2346.1 972.4,2407.5 929.5,2473.9 885.9,2545.8  Z" style="stroke-width: 2.0;  stroke: rgb(82,82,82); fill: rgb(251,106,74); opacity: 0.333;"/>
<path d="M 1012.098,389.724 A 1212.750,1212.750 0.00 0,1 1413.3,290.4 L 1413.3,290.4 1420.7,374.8 1430.4,455.3 1441.9,532.2 1454.8,605.7 1468.9,676.1 1483.8,743.5 1499.3,808.2 1515.0,870.4 1530.8,930.4 1546.4,988.4 1561.6,1044.5 1576.2,1099.1 1590.2,1152.3 1603.3,1204.4 1615.4,1255.5 1626.5,1305.9 1636.5,1355.8 1645.3,1405.3 1653.0,1454.7 1659.6,1504.1 1664.9,1553.8 1669.2,1603.9 1672.5,1654.6 1674.9,1706.2 1676.4,1758.7 1677.2,1812.4 1677.6,1867.4 1677.6,1923.9 1677.5,1982.1 1677.4,2042.1 1677.8,2104.2 1678.7,2168.4 1680.5,2234.8 1683.6,2303.8 1688.2,2375.4 1694.8,2449.7 1703.7,2527.0 1715.2,2607.3 1730.0,2690.7  A 1212.750,1212.750 0.00 0,0 2110.0,2548.2 L 2110.0,2548.2 2068.5,2474.2 2031.1,2402.2 1997.2,2332.2 1966.5,2264.2 1938.5,2198.1 1912.8,2134.0 1889.1,2071.8 1867.0,2011.5 1846.2,1953.1 1826.4,1896.4 1807.2,1841.4 1788.5,1788.0 1769.9,1736.2 1751.3,1685.8 1732.5,1636.8 1713.1,1588.9 1693.2,1542.1 1672.5,1496.3 1650.9,1451.2 1628.3,1406.8 1604.6,1362.8 1579.7,1319.0 1553.7,1275.4 1526.4,1231.6 1497.8,1187.4 1468.1,1142.7 1437.1,1097.2 1405.0,1050.6 1371.8,1002.8 1337.7,953.4 1302.7,902.1 1267.0,848.8 1230.7,793.0 1194.0,734.5 1157.1,672.9 1120.2,608.0 1083.6,539.4 1047.5,466.8 1012.1,389.7  Z" style="stroke-width: 2.0;  stroke: rgb(82,82,82); fill: rgb(251,106,74); opacity: 0.333;"/>
<path d="M 763.062,536.836 A 1212.750,1212.750 0.00 0,1 842.8,480.7 L 842.8,480.7 888.5,550.7 931.6,614.9 972.3,673.7 1010.7,727.5 1046.9,776.4 1081.1,820.8 1113.4,860.7 1143.9,896.6 1172.7,928.4 1199.9,956.5 1225.7,981.0 1250.1,1002.0 1273.2,1019.6 1295.1,1034.0 1315.9,1045.3 1335.7,1053.4 1354.6,1058.5 1372.6,1060.7 1389.9,1059.8 1406.4,1056.0 1422.2,1049.2 1437.5,1039.4 1452.2,1026.6 1466.5,1010.6 1480.3,991.4 1493.7,968.8 1506.8,942.8 1519.5,913.3 1531.9,880.0 1544.1,842.8 1556.1,801.6 1567.8,756.0 1579.4,705.9 1590.7,651.1 1601.9,591.3 1612.9,526.1 1623.7,455.4 1634.3,378.8 1644.8,295.9  A 1212.750,1212.750 0.00 0,0 1557.6,288.6 L 1557.6,288.6 1553.1,372.0 1548.0,449.2 1542.3,520.5 1536.0,586.3 1529.1,646.8 1521.7,702.4 1513.7,753.2 1505.2,799.5 1496.2,841.5 1486.7,879.5 1476.6,913.7 1465.9,944.1 1454.6,971.0 1442.8,994.6 1430.3,1014.8 1417.1,1031.9 1403.2,1045.9 1388.5,1056.9 1373.0,1064.9 1356.7,1070.0 1339.4,1072.2 1321.1,1071.5 1301.7,1067.9 1281.1,1061.4 1259.3,1051.9 1236.2,1039.3 1211.6,1023.6 1185.5,1004.6 1157.7,982.3 1128.3,956.5 1096.9,927.1 1063.5,893.8 1028.1,856.6 990.4,815.1 950.3,769.3 907.6,718.8 862.3,663.4 814.2,602.9 763.1,536.8  Z" style="stroke-width: 2.0;  stroke: rgb(82,82,82); fill: rgb(251,106,74); opacity: 0.333;"/>
<path d="M 1157.804,2663.471 A 1212.750,1212.750 0.00 0,1 890.5,2548.5 L 890.5,2548.5 934.3,2475.9 978.4,2407.7 1022.6,2343.6 1066.5,2283.1 1110.1,2226.0 1153.2,2171.9 1195.5,2120.4 1237.0,2071.2 1277.5,2024.0 1316.9,1978.5 1355.1,1934.5 1392.1,1891.6 1427.9,1849.6 1462.3,1808.2 1495.3,1767.3 1527.1,1726.6 1557.6,1685.8 1586.8,1644.8 1614.8,1603.4 1641.8,1561.4 1667.8,1518.7 1692.9,1475.0 1717.3,1430.4 1741.1,1384.5 1764.6,1337.4 1787.9,1288.9 1811.2,1239.0 1834.8,1187.5 1858.9,1134.4 1883.9,1079.6 1909.9,1023.2 1937.4,965.0 1966.6,905.1 1997.9,843.4 2031.8,780.0 2068.4,714.8 2108.4,648.0 2152.0,579.6 2199.8,509.5  A 1212.750,1212.750 0.00 0,0 1961.2,378.4 L 1961.2,378.4 1930.3,457.3 1903.0,533.7 1879.0,607.7 1857.8,679.4 1839.0,748.7 1822.3,815.7 1807.3,880.6 1793.6,943.4 1780.9,1004.2 1768.9,1063.1 1757.3,1120.2 1746.0,1175.6 1734.6,1229.5 1722.9,1281.9 1710.8,1333.1 1698.0,1383.1 1684.5,1432.2 1670.0,1480.4 1654.6,1527.9 1638.1,1575.0 1620.3,1621.7 1601.4,1668.4 1581.3,1715.1 1559.9,1762.1 1537.4,1809.6 1513.7,1857.8 1488.8,1907.0 1463.0,1957.3 1436.3,2009.1 1408.8,2062.5 1380.6,2117.9 1352.0,2175.4 1323.2,2235.4 1294.2,2298.2 1265.5,2364.0 1237.2,2433.1 1209.6,2505.9 1183.0,2582.5 1157.8,2663.5  Z" style="stroke-width: 2.0;  stroke: rgb(82,82,82); fill: rgb(251,106,74); opacity: 0.333;"/>
<path d="M 938.822,424.899 A 1212.750,1212.750 0.00 0,1 966.2,411.1 L 966.2,411.1 1004.5,486.2 1043.1,556.4 1081.7,621.9 1120.3,683.2 1158.8,740.6 1197.0,794.4 1235.0,845.1 1272.5,892.9 1309.7,938.2 1346.3,981.2 1382.5,1022.2 1418.3,1061.4 1453.5,1099.3 1488.3,1135.8 1522.7,1171.4 1556.8,1206.1 1590.6,1240.2 1624.2,1273.8 1657.7,1307.2 1691.2,1340.4 1724.9,1373.5 1758.9,1406.8 1793.3,1440.2 1828.4,1473.9 1864.3,1508.0 1901.2,1542.4 1939.4,1577.3 1979.0,1612.6 2020.4,1648.4 2063.7,1684.7 2109.3,1721.3 2157.5,1758.4 2208.6,1795.8 2262.8,1833.5 2320.6,1871.4 2382.3,1909.4 2448.2,1947.4 2518.7,1985.2 2594.3,2022.8  A 1212.750,1212.750 0.00 0,0 2607.2,1994.9 L 2607.2,1994.9 2530.7,1959.3 2459.2,1923.3 2392.3,1887.0 2329.7,1850.5 2271.0,1814.1 2215.8,1777.8 2163.8,1741.7 2114.7,1705.8 2068.2,1670.3 2023.9,1635.2 1981.7,1600.5 1941.2,1566.2 1902.1,1532.3 1864.4,1498.8 1827.6,1465.6 1791.7,1432.8 1756.4,1400.3 1721.6,1367.9 1687.1,1335.6 1652.8,1303.3 1618.4,1270.8 1584.0,1238.0 1549.4,1204.7 1514.4,1170.9 1479.1,1136.2 1443.4,1100.6 1407.2,1063.7 1370.5,1025.3 1333.3,985.2 1295.5,943.2 1257.2,898.9 1218.5,852.0 1179.3,802.3 1139.7,749.5 1099.8,693.1 1059.6,632.8 1019.3,568.3 979.0,499.1 938.8,424.9  Z" style="stroke-width: 2.0;  stroke: rgb(82,82,82); fill: rgb(251,106,74); opacity: 0.333;"/>
<path d="M 406.368,2024.148 A 1212.750,1212.750 0.00 0,1 356.9,1905.1 L 356.9,1905.1 437.2,1878.1 514.8,1854.7 589.7,1834.5 662.1,1817.0 732.0,1801.9 799.5,1788.7 864.7,1777.2 927.8,1766.9 988.9,1757.7 1048.1,1749.1 1105.5,1741.0 1161.2,1733.1 1215.4,1725.1 1268.3,1716.9 1320.0,1708.3 1370.6,1699.2 1420.4,1689.3 1469.4,1678.6 1518.0,1667.0 1566.1,1654.4 1614.1,1640.7 1662.1,1626.1 1710.3,1610.3 1759.0,1593.5 1808.2,1575.7 1858.4,1557.0 1909.5,1537.3 1962.0,1517.0 2016.0,1495.9 2071.8,1474.4 2129.6,1452.6 2189.6,1430.6 2252.2,1408.7 2317.5,1387.1 2385.8,1366.1 2457.5,1345.9 2532.7,1326.9 2611.8,1309.3 2695.0,1293.5  A 1212.750,1212.750 0.00 0,0 2668.7,1176.0 L 2668.7,1176.0 2587.4,1199.9 2510.4,1225.3 2437.5,1251.7 2368.2,1278.9 2302.3,1306.6 2239.5,1334.5 2179.5,1362.5 2122.0,1390.4 2066.7,1417.9 2013.4,1444.8 1961.8,1471.1 1911.7,1496.7 1862.7,1521.3 1814.8,1545.0 1767.6,1567.7 1720.9,1589.3 1674.6,1609.9 1628.3,1629.4 1582.0,1647.9 1535.4,1665.3 1488.4,1681.9 1440.7,1697.6 1392.3,1712.6 1342.9,1726.9 1292.4,1740.9 1240.7,1754.5 1187.6,1768.1 1133.0,1781.9 1076.8,1796.0 1018.9,1810.7 959.2,1826.3 897.6,1843.1 834.0,1861.5 768.3,1881.7 700.4,1904.2 630.3,1929.2 558.0,1957.3 483.4,1988.8 406.4,2024.1  Z" style="stroke-width: 2.0;  stroke: rgb(82,82,82); fill: rgb(251,106,74); opacity: 0.333;"/>
<path d="M 856.740,471.905 A 1212.750,1212.750 0.00 0,1 875.4,460.5 L 875.4,460.5 919.2,531.8 961.5,597.3 1002.3,657.5 1041.6,712.6 1079.7,762.8 1116.5,808.6 1152.1,850.2 1186.7,887.8 1220.4,921.7 1253.1,952.1 1285.1,979.2 1316.5,1003.1 1347.2,1024.0 1377.5,1042.1 1407.4,1057.4 1437.1,1070.2 1466.6,1080.4 1496.0,1088.2 1525.5,1093.5 1555.2,1096.5 1585.2,1097.1 1615.6,1095.3 1646.6,1091.1 1678.2,1084.5 1710.5,1075.3 1743.8,1063.5 1778.1,1049.1 1813.5,1031.9 1850.2,1011.7 1888.3,988.4 1928.0,961.8 1969.4,931.7 2012.5,898.0 2057.6,860.4 2104.9,818.6 2154.3,772.4 2206.2,721.5 2260.6,665.6 2317.6,604.3  A 1212.750,1212.750 0.00 0,0 2300.4,588.9 L 2300.4,588.9 2244.5,651.2 2191.2,708.1 2140.3,760.0 2091.8,807.2 2045.4,849.9 2001.0,888.3 1958.5,922.9 1917.7,953.7 1878.6,981.0 1840.9,1005.1 1804.6,1025.9 1769.5,1043.9 1735.5,1059.0 1702.5,1071.3 1670.3,1081.1 1638.9,1088.3 1608.1,1093.1 1577.7,1095.5 1547.7,1095.4 1518.0,1093.0 1488.4,1088.2 1458.8,1081.0 1429.2,1071.3 1399.3,1059.1 1369.1,1044.3 1338.6,1026.8 1307.4,1006.4 1275.7,983.1 1243.2,956.6 1209.9,926.9 1175.7,893.6 1140.4,856.6 1104.0,815.7 1066.4,770.5 1027.5,720.9 987.1,666.6 945.3,607.2 901.9,542.4 856.7,471.9  Z" style="stroke-width: 2.0;  stroke: rgb(82,82,82); fill: rgb(251,106,74); opacity: 0.333;"/>
<path d="M 393.364,1003.896 A 1212.750,1212.750 0.00 0,1 757.2,541.3 L 757.2,541.3 808.1,609.2 854.8,675.8 897.8,740.9 937.5,804.6 974.3,866.6 1008.6,927.0 1040.8,985.8 1071.3,1042.8 1100.3,1098.2 1128.2,1151.8 1155.3,1203.8 1181.8,1254.1 1208.1,1302.8 1234.3,1350.0 1260.8,1395.6 1287.6,1439.9 1315.0,1482.9 1343.2,1524.7 1372.3,1565.4 1402.5,1605.2 1433.8,1644.3 1466.4,1682.7 1500.4,1720.7 1535.7,1758.6 1572.6,1796.4 1610.8,1834.4 1650.6,1872.8 1691.9,1912.0 1734.6,1952.1 1778.7,1993.5 1824.1,2036.4 1870.8,2081.2 1918.7,2128.1 1967.6,2177.5 2017.3,2229.7 2067.8,2285.1 2118.9,2344.1 2170.4,2407.1 2222.0,2474.4  A 1212.750,1212.750 0.00 0,0 2587.3,2037.2 L 2587.3,2037.2 2510.6,2000.9 2436.1,1968.4 2363.8,1939.2 2293.6,1913.0 2225.5,1889.3 2159.5,1867.7 2095.6,1848.0 2033.7,1829.6 1973.7,1812.3 1915.6,1795.7 1859.3,1779.7 1804.7,1763.8 1751.8,1748.0 1700.3,1731.8 1650.2,1715.2 1601.4,1698.0 1553.8,1680.0 1507.1,1660.9 1461.3,1640.8 1416.1,1619.6 1371.4,1597.0 1327.0,1573.1 1282.7,1547.9 1238.4,1521.3 1193.7,1493.2 1148.5,1463.8 1102.5,1433.1 1055.6,1401.1 1007.3,1367.9 957.6,1333.7 906.0,1298.5 852.4,1262.4 796.4,1225.8 737.8,1188.6 676.2,1151.2 611.3,1113.8 542.7,1076.6 470.2,1039.8 393.4,1003.9  Z" style="stroke-width: 2.0;  stroke: rgb(82,82,82); fill: rgb(251,106,74); opacity: 0.333;"/>
<path d="M 867.129,465.477 A 1212.750,1212.750 0.00 0,1 900.9,445.6 L 900.9,445.6 944.0,518.6 987.5,587.3 1031.0,652.1 1074.5,713.2 1117.6,771.0 1160.1,825.9 1202.0,878.2 1242.9,928.2 1282.9,976.3 1321.7,1022.6 1359.3,1067.6 1395.5,1111.4 1430.4,1154.3 1463.9,1196.6 1495.9,1238.6 1526.5,1280.3 1555.7,1322.1 1583.5,1364.2 1610.0,1406.6 1635.2,1449.7 1659.3,1493.6 1682.4,1538.4 1704.6,1584.3 1726.0,1631.4 1746.9,1679.9 1767.5,1729.8 1787.9,1781.2 1808.4,1834.2 1829.2,1889.0 1850.7,1945.5 1873.0,2003.8 1896.6,2064.0 1921.8,2126.1 1948.9,2190.1 1978.3,2255.9 2010.3,2323.7 2045.5,2393.4 2084.1,2464.9 2126.8,2538.2  A 1212.750,1212.750 0.00 0,0 2152.7,2522.1 L 2152.7,2522.1 2108.2,2449.9 2067.7,2379.4 2030.8,2310.6 1997.0,2243.6 1966.0,2178.5 1937.3,2115.2 1910.5,2053.8 1885.4,1994.2 1861.5,1936.4 1838.6,1880.4 1816.3,1826.2 1794.4,1773.7 1772.6,1722.8 1750.8,1673.5 1728.5,1625.6 1705.8,1579.1 1682.4,1533.8 1658.0,1489.7 1632.7,1446.5 1606.2,1404.2 1578.5,1362.5 1549.5,1321.3 1519.1,1280.3 1487.2,1239.5 1453.9,1198.6 1419.2,1157.3 1382.9,1115.4 1345.3,1072.8 1306.4,1029.0 1266.1,983.9 1224.6,937.1 1182.1,888.4 1138.6,837.4 1094.3,783.8 1049.3,727.4 1003.9,667.7 958.2,604.4 912.6,537.1 867.1,465.5  Z" style="stroke-width: 2.0;  stroke: rgb(82,82,82); fill: rgb(251,106,74); opacity: 0.333;"/>
<path d="M 287.493,1475.733 A 1212.750,1212.750 0.00 0,1 288.5,1444.2 L 288.5,1444.2 372.9,1446.7 452.9,1446.7 528.9,1444.3 601.2,1440.0 670.0,1433.8 735.5,1426.2 798.1,1417.3 858.0,1407.4 915.5,1396.6 970.8,1385.1 1024.0,1373.0 1075.6,1360.5 1125.6,1347.7 1174.3,1334.7 1221.9,1321.6 1268.6,1308.3 1314.6,1295.0 1360.2,1281.5 1405.4,1268.1 1450.5,1254.4 1495.7,1240.7 1541.0,1226.7 1586.7,1212.3 1633.0,1197.5 1680.0,1182.2 1727.7,1166.1 1776.5,1149.0 1826.3,1130.9 1877.3,1111.5 1929.7,1090.5 1983.6,1067.8 2039.0,1042.9 2096.1,1015.7 2154.9,985.8 2215.6,952.8 2278.2,916.5 2342.8,876.4 2409.5,832.2 2478.4,783.4  A 1212.750,1212.750 0.00 0,0 2461.1,760.3 L 2461.1,760.3 2393.4,810.7 2327.8,856.5 2264.1,898.2 2202.4,936.0 2142.5,970.3 2084.3,1001.7 2027.9,1030.2 1973.1,1056.4 1919.8,1080.5 1867.9,1102.7 1817.3,1123.4 1767.9,1142.7 1719.6,1160.9 1672.2,1178.1 1625.6,1194.7 1579.7,1210.6 1534.3,1226.1 1489.3,1241.2 1444.5,1256.1 1399.8,1270.8 1354.9,1285.5 1309.7,1300.0 1264.0,1314.5 1217.6,1329.0 1170.3,1343.3 1121.9,1357.6 1072.2,1371.7 1021.0,1385.5 968.1,1398.9 913.1,1411.8 855.9,1424.1 796.3,1435.6 733.9,1446.1 668.5,1455.5 599.9,1463.4 527.8,1469.6 451.9,1474.0 371.9,1476.1 287.5,1475.7  Z" style="stroke-width: 2.0;  stroke: rgb(82,82,82); fill: rgb(251,106,74); opacity: 0.333;"/>
<path d="M 1648.419,2703.634 A 1212.750,1212.750 0.00 0,1 1590.0,2709.4 L 1590.0,2709.4 1585.1,2624.8 1582.9,2543.7 1583.1,2465.9 1585.2,2391.4 1588.9,2319.7 1593.9,2250.9 1599.8,2184.7 1606.4,2120.8 1613.3,2059.2 1620.3,1999.6 1627.2,1941.8 1633.8,1885.7 1639.9,1831.0 1645.3,1777.6 1649.9,1725.3 1653.6,1673.8 1656.3,1623.0 1657.9,1572.8 1658.4,1522.8 1657.7,1473.0 1655.9,1423.0 1652.9,1372.8 1648.9,1322.1 1643.8,1270.8 1637.8,1218.6 1630.9,1165.4 1623.4,1110.9 1615.3,1054.9 1606.9,997.4 1598.2,938.0 1589.7,876.6 1581.4,812.9 1573.8,746.9 1566.9,678.2 1561.3,606.7 1557.2,532.2 1554.9,454.5 1554.9,373.3 1557.5,288.6  A 1212.750,1212.750 0.00 0,0 1500.1,287.3 L 1500.1,287.3 1501.5,372.0 1505.3,453.0 1511.3,530.5 1518.9,604.8 1527.9,675.9 1538.0,744.2 1548.8,809.8 1560.1,873.0 1571.5,933.9 1582.9,992.8 1594.1,1049.9 1604.9,1105.4 1615.0,1159.5 1624.4,1212.3 1632.9,1264.2 1640.4,1315.2 1646.9,1365.6 1652.2,1415.6 1656.4,1465.4 1659.5,1515.2 1661.4,1565.1 1662.2,1615.4 1661.9,1666.2 1660.7,1717.8 1658.6,1770.3 1655.8,1823.9 1652.3,1878.8 1648.5,1935.2 1644.4,1993.2 1640.2,2053.1 1636.3,2115.0 1632.8,2179.0 1630.1,2245.5 1628.5,2314.5 1628.3,2386.2 1629.7,2460.8 1633.3,2538.5 1639.4,2619.3 1648.4,2703.6  Z" style="stroke-width: 2.0;  stroke: rgb(82,82,82); fill: rgb(251,106,74); opacity: 0.333;"/>
<path d="M 355.156,1900.118 A 1212.750,1212.750 0.00 0,1 347.6,1877.9 L 347.6,1877.9 428.6,1852.8 507.0,1831.1 582.7,1812.5 655.9,1796.5 726.6,1782.8 794.9,1770.8 861.0,1760.3 924.8,1750.9 986.6,1742.3 1046.5,1734.2 1104.4,1726.4 1160.7,1718.5 1215.3,1710.4 1268.6,1701.8 1320.5,1692.6 1371.2,1682.6 1421.0,1671.6 1469.9,1659.6 1518.2,1646.4 1566.0,1631.9 1613.5,1616.2 1660.9,1599.1 1708.4,1580.6 1756.2,1560.8 1804.5,1539.7 1853.5,1517.3 1903.5,1493.8 1954.7,1469.1 2007.3,1443.5 2061.6,1417.1 2117.8,1390.0 2176.1,1362.4 2236.9,1334.5 2300.4,1306.6 2366.9,1278.9 2436.7,1251.6 2510.0,1225.1 2587.2,1199.7 2668.6,1175.7  A 1212.750,1212.750 0.00 0,0 2662.1,1153.2 L 2662.1,1153.2 2581.2,1178.8 2504.6,1205.7 2431.8,1233.6 2362.5,1262.2 2296.6,1291.2 2233.6,1320.3 2173.4,1349.4 2115.5,1378.1 2059.9,1406.3 2006.1,1433.7 1954.0,1460.4 1903.3,1486.0 1853.8,1510.5 1805.2,1533.8 1757.3,1555.9 1709.9,1576.6 1662.8,1595.9 1615.7,1614.0 1568.5,1630.6 1521.0,1646.0 1473.0,1660.2 1424.3,1673.1 1374.8,1685.1 1324.2,1696.1 1272.5,1706.3 1219.5,1715.9 1165.0,1725.0 1108.9,1734.0 1051.1,1742.9 991.4,1752.2 929.8,1762.0 866.1,1772.6 800.3,1784.4 732.2,1797.7 661.8,1812.8 588.9,1830.2 513.6,1850.3 435.7,1873.4 355.2,1900.1  Z" style="stroke-width: 2.0;  stroke: rgb(82,82,82); fill: rgb(251,106,74); opacity: 0.333;"/>
<path d="M 332.946,1170.232 A 1212.750,1212.750 0.00 0,1 338.2,1152.3 L 338.2,1152.3 418.4,1175.7 493.1,1196.3 562.5,1214.2 627.1,1229.7 687.0,1242.7 742.5,1253.5 793.9,1262.1 841.3,1268.6 885.0,1273.2 925.2,1275.8 962.1,1276.5 995.8,1275.5 1026.6,1272.6 1054.5,1268.0 1079.7,1261.7 1102.3,1253.5 1122.4,1243.7 1140.1,1232.0 1155.5,1218.5 1168.7,1203.1 1179.6,1185.8 1188.4,1166.5 1195.1,1145.1 1199.6,1121.5 1202.0,1095.6 1202.3,1067.4 1200.3,1036.5 1196.2,1003.1 1189.7,966.7 1180.9,927.4 1169.7,884.9 1155.9,839.1 1139.5,789.7 1120.3,736.5 1098.1,679.3 1072.9,617.9 1044.5,552.0 1012.6,481.4 977.1,405.8  A 1212.750,1212.750 0.00 0,0 960.3,414.0 L 960.3,414.0 997.0,489.0 1029.9,559.1 1059.4,624.6 1085.6,685.6 1108.6,742.4 1128.6,795.3 1145.8,844.5 1160.3,890.1 1172.2,932.4 1181.6,971.6 1188.6,1007.8 1193.2,1041.2 1195.6,1072.0 1195.8,1100.3 1193.8,1126.2 1189.7,1149.8 1183.3,1171.3 1174.8,1190.8 1164.1,1208.2 1151.2,1223.8 1136.0,1237.6 1118.5,1249.5 1098.5,1259.7 1076.0,1268.2 1051.0,1274.9 1023.1,1279.9 992.4,1283.3 958.7,1284.9 921.8,1284.7 881.6,1282.7 837.8,1278.8 790.3,1273.0 738.8,1265.2 683.1,1255.3 623.0,1243.1 558.3,1228.7 488.5,1211.8 413.5,1192.4 332.9,1170.2  Z" style="stroke-width: 2.0;  stroke: rgb(82,82,82); fill: rgb(251,106,74); opacity: 0.333;"/>
<path d="M 290.041,1417.768 A 1212.750,1212.750 0.00 0,1 321.3,1214.7 L 321.3,1214.7 403.4,1233.3 481.6,1248.5 555.9,1260.7 626.7,1270.1 694.2,1277.0 758.6,1281.8 820.3,1284.6 879.3,1285.6 935.9,1285.1 990.3,1283.3 1042.8,1280.3 1093.6,1276.3 1142.8,1271.3 1190.7,1265.5 1237.4,1259.0 1283.2,1251.8 1328.3,1243.9 1372.7,1235.5 1416.8,1226.5 1460.6,1216.8 1504.4,1206.5 1548.3,1195.5 1592.5,1183.7 1637.1,1171.0 1682.2,1157.3 1728.1,1142.4 1774.9,1126.3 1822.7,1108.6 1871.6,1089.3 1921.8,1068.1 1973.3,1044.8 2026.4,1019.0 2081.2,990.6 2137.7,959.3 2196.0,924.6 2256.3,886.3 2318.7,844.1 2383.2,797.5 2449.9,746.1  A 1212.750,1212.750 0.00 0,0 2321.3,607.7 L 2321.3,607.7 2263.3,668.8 2206.8,724.9 2151.7,776.4 2098.1,823.6 2045.8,866.9 1994.8,906.7 1945.0,943.3 1896.5,977.1 1849.1,1008.3 1802.7,1037.1 1757.3,1063.9 1712.8,1088.9 1669.1,1112.3 1626.0,1134.3 1583.4,1155.1 1541.3,1174.8 1499.5,1193.6 1457.8,1211.5 1416.1,1228.8 1374.3,1245.5 1332.1,1261.7 1289.5,1277.3 1246.2,1292.5 1202.1,1307.1 1156.9,1321.3 1110.5,1335.0 1062.7,1348.2 1013.2,1360.7 961.8,1372.5 908.3,1383.4 852.5,1393.5 794.0,1402.4 732.7,1410.0 668.3,1416.2 600.6,1420.8 529.1,1423.5 453.8,1424.0 374.2,1422.2 290.0,1417.8  Z" style="stroke-width: 2.0;  stroke: rgb(82,82,82); fill: rgb(251,106,74); opacity: 0.333;"/>
<path d="M 621.879,2336.461 A 1212.750,1212.750 0.00 0,1 556.5,2262.0 L 556.5,2262.0 623.3,2209.8 688.8,2161.9 752.8,2117.8 815.3,2077.2 876.3,2039.5 935.7,2004.5 993.6,1971.7 1049.8,1940.8 1104.4,1911.5 1157.4,1883.4 1208.8,1856.3 1258.7,1829.9 1307.2,1803.9 1354.2,1778.1 1399.9,1752.2 1444.4,1726.1 1487.7,1699.6 1530.1,1672.5 1571.5,1644.6 1612.3,1615.9 1652.4,1586.2 1692.2,1555.4 1731.7,1523.4 1771.2,1490.3 1810.9,1455.9 1851.0,1420.2 1891.7,1383.3 1933.3,1345.1 1976.1,1305.7 2020.3,1265.2 2066.2,1223.6 2114.2,1181.0 2164.4,1137.5 2217.4,1093.2 2273.3,1048.4 2332.5,1003.1 2395.5,957.5 2462.6,911.9 2534.1,866.5  A 1212.750,1212.750 0.00 0,0 2482.4,788.8 L 2482.4,788.8 2414.5,839.7 2351.2,890.3 2291.9,940.5 2236.3,990.2 2184.0,1039.2 2134.7,1087.4 2087.9,1134.6 2043.5,1180.8 2000.9,1225.8 1960.0,1269.7 1920.4,1312.2 1881.9,1353.5 1844.2,1393.5 1807.0,1432.1 1770.1,1469.5 1733.4,1505.7 1696.5,1540.6 1659.3,1574.4 1621.6,1607.2 1583.3,1639.1 1544.2,1670.2 1504.2,1700.6 1463.1,1730.5 1420.8,1760.1 1377.4,1789.5 1332.6,1819.0 1286.4,1848.8 1238.8,1879.2 1189.8,1910.4 1139.2,1942.6 1087.2,1976.3 1033.7,2011.6 978.8,2049.0 922.4,2088.7 864.7,2131.2 805.7,2176.8 745.5,2225.9 684.2,2279.0 621.9,2336.5  Z" style="stroke-width: 2.0;  stroke: rgb(82,82,82); fill: rgb(251,106,74); opacity: 0.333;"/>
<path d="M 842.875,480.711 A 1212.750,1212.750 0.00 0,1 866.2,466.0 L 866.2,466.0 911.8,537.6 957.5,604.9 1003.2,668.1 1048.6,727.8 1093.6,784.2 1138.0,837.7 1181.6,888.7 1224.1,937.3 1265.7,984.1 1306.0,1029.2 1345.0,1072.9 1382.6,1115.6 1418.8,1157.4 1453.6,1198.7 1487.0,1239.6 1518.8,1280.4 1549.3,1321.3 1578.3,1362.5 1606.1,1404.2 1632.5,1446.5 1657.9,1489.7 1682.2,1533.8 1705.7,1579.1 1728.5,1625.6 1750.7,1673.5 1772.6,1722.8 1794.4,1773.7 1816.2,1826.2 1838.5,1880.4 1861.5,1936.4 1885.3,1994.2 1910.5,2053.7 1937.3,2115.2 1966.0,2178.5 1997.0,2243.6 2030.8,2310.6 2067.7,2379.4 2108.2,2449.9 2152.7,2522.1  A 1212.750,1212.750 0.00 0,0 2180.7,2503.7 L 2180.7,2503.7 2134.2,2432.7 2091.8,2363.4 2053.0,2295.6 2017.4,2229.6 1984.6,2165.4 1954.2,2102.9 1925.7,2042.3 1899.0,1983.4 1873.5,1926.3 1849.1,1871.0 1825.4,1817.4 1802.1,1765.5 1779.0,1715.3 1755.8,1666.6 1732.3,1619.3 1708.4,1573.4 1683.7,1528.8 1658.3,1485.3 1631.8,1442.8 1604.3,1401.1 1575.5,1360.1 1545.5,1319.7 1514.0,1279.5 1481.2,1239.5 1446.9,1199.4 1411.1,1159.0 1373.9,1118.1 1335.3,1076.3 1295.3,1033.5 1253.9,989.4 1211.4,943.6 1167.7,895.9 1123.0,846.0 1077.4,793.6 1031.2,738.2 984.4,679.6 937.2,617.4 890.0,551.3 842.9,480.7  Z" style="stroke-width: 2.0;  stroke: rgb(82,82,82); fill: rgb(251,106,74); opacity: 0.333;"/>
<path d="M 1589.036,2709.477 A 1212.750,1212.750 0.00 0,1 1535.8,2712.2 L 1535.8,2712.2 1533.7,2628.8 1532.6,2551.5 1532.4,2480.1 1533.1,2414.3 1534.5,2353.8 1536.8,2298.2 1539.9,2247.4 1543.7,2201.2 1548.2,2159.2 1553.5,2121.4 1559.5,2087.4 1566.2,2057.2 1573.7,2030.6 1581.9,2007.4 1590.9,1987.6 1600.7,1971.0 1611.3,1957.6 1622.7,1947.2 1635.1,1939.9 1648.4,1935.6 1662.7,1934.3 1678.0,1936.0 1694.5,1940.7 1712.1,1948.4 1731.0,1959.2 1751.2,1973.1 1772.9,1990.3 1796.0,2010.8 1820.8,2034.8 1847.2,2062.4 1875.5,2093.8 1905.7,2129.0 1938.0,2168.4 1972.3,2212.0 2009.0,2260.2 2048.1,2313.2 2089.8,2371.1 2134.2,2434.4 2181.4,2503.2  A 1212.750,1212.750 0.00 0,0 2221.0,2475.2 L 2221.0,2475.2 2171.1,2408.3 2124.2,2346.8 2080.3,2290.6 2039.1,2239.2 2000.5,2192.5 1964.4,2150.3 1930.7,2112.2 1899.1,2078.2 1869.7,2048.0 1842.2,2021.5 1816.5,1998.5 1792.6,1978.9 1770.4,1962.6 1749.6,1949.5 1730.4,1939.4 1712.5,1932.4 1696.0,1928.4 1680.7,1927.3 1666.5,1929.2 1653.5,1934.0 1641.6,1941.8 1630.7,1952.6 1620.7,1966.4 1611.8,1983.4 1603.7,2003.6 1596.6,2027.0 1590.3,2053.9 1585.0,2084.4 1580.5,2118.5 1577.0,2156.5 1574.3,2198.7 1572.6,2245.0 1571.8,2295.9 1572.0,2351.4 1573.2,2412.0 1575.4,2477.8 1578.8,2549.1 1583.3,2626.2 1589.0,2709.5  Z" style="stroke-width: 2.0;  stroke: rgb(82,82,82); fill: rgb(251,106,74); opacity: 0.333;"/>
<path d="M 1518.700,2712.606 A 1212.750,1212.750 0.00 0,1 1193.0,2673.3 L 1193.0,2673.3 1215.8,2591.6 1240.0,2514.2 1265.4,2440.8 1291.6,2371.0 1318.3,2304.5 1345.4,2241.0 1372.5,2180.3 1399.4,2122.2 1425.9,2066.2 1451.9,2012.2 1477.3,1959.9 1501.8,1909.0 1525.4,1859.4 1547.9,1810.7 1569.4,1762.8 1589.8,1715.4 1609.0,1668.4 1627.0,1621.5 1644.0,1574.5 1659.8,1527.2 1674.6,1479.5 1688.4,1431.2 1701.4,1382.0 1713.6,1331.9 1725.3,1280.8 1736.6,1228.3 1747.6,1174.5 1758.7,1119.1 1769.9,1062.1 1781.7,1003.3 1794.1,942.6 1807.7,879.9 1822.6,815.2 1839.2,748.3 1857.9,679.1 1879.0,607.5 1902.9,533.6 1930.2,457.2 1961.1,378.3  A 1212.750,1212.750 0.00 0,0 1650.6,296.6 L 1650.6,296.6 1641.5,380.9 1635.2,461.7 1631.5,539.3 1629.9,613.9 1630.1,685.5 1631.6,754.4 1634.3,820.8 1637.7,884.8 1641.6,946.6 1645.7,1006.4 1649.8,1064.3 1653.8,1120.6 1657.3,1175.4 1660.3,1229.0 1662.5,1281.4 1663.9,1332.9 1664.4,1383.7 1663.8,1434.0 1662.2,1483.9 1659.5,1533.7 1655.7,1583.5 1650.8,1633.5 1644.8,1683.9 1637.7,1735.0 1629.8,1786.9 1621.0,1839.8 1611.5,1893.9 1601.5,1949.4 1591.1,2006.6 1580.5,2065.5 1569.9,2126.5 1559.5,2189.8 1549.7,2255.5 1540.6,2323.8 1532.7,2395.0 1526.1,2469.3 1521.4,2546.8 1518.8,2627.9 1518.7,2712.6  Z" style="stroke-width: 2.0;  stroke: rgb(82,82,82); fill: rgb(251,106,74); opacity: 0.333;"/>
<path d="M 901.764,445.070 A 1212.750,1212.750 0.00 0,1 912.1,439.3 L 912.1,439.3 954.5,512.8 997.2,581.9 1040.1,647.1 1082.9,708.7 1125.3,767.0 1167.3,822.3 1208.6,875.1 1249.0,925.5 1288.5,974.0 1326.8,1020.7 1363.9,1066.1 1399.6,1110.3 1434.1,1153.6 1467.1,1196.2 1498.7,1238.5 1528.9,1280.6 1557.6,1322.7 1585.0,1365.0 1611.0,1407.7 1635.8,1451.1 1659.5,1495.2 1682.1,1540.3 1703.8,1586.4 1724.8,1633.7 1745.2,1682.4 1765.2,1732.5 1785.1,1784.1 1805.0,1837.3 1825.3,1892.3 1846.2,1949.0 1867.9,2007.6 1890.9,2068.0 1915.5,2130.3 1941.9,2194.6 1970.6,2260.7 2002.0,2328.8 2036.4,2398.8 2074.4,2470.7 2116.3,2544.5  A 1212.750,1212.750 0.00 0,0 2126.5,2538.4 L 2126.5,2538.4 2083.8,2465.1 2045.2,2393.5 2010.0,2323.9 1978.0,2256.1 1948.7,2190.2 1921.6,2126.2 1896.5,2064.1 1872.9,2004.0 1850.5,1945.6 1829.1,1889.1 1808.3,1834.3 1787.8,1781.3 1767.4,1729.8 1746.9,1680.0 1726.0,1631.5 1704.6,1584.4 1682.4,1538.5 1659.4,1493.7 1635.3,1449.8 1610.1,1406.7 1583.6,1364.2 1555.9,1322.1 1526.7,1280.3 1496.1,1238.5 1464.1,1196.6 1430.7,1154.2 1395.8,1111.3 1359.6,1067.4 1322.1,1022.5 1283.3,976.1 1243.4,928.0 1202.5,878.0 1160.7,825.6 1118.2,770.7 1075.1,712.8 1031.7,651.7 988.2,586.9 944.8,518.2 901.8,445.1  Z" style="stroke-width: 2.0;  stroke: rgb(82,82,82); fill: rgb(251,106,74); opacity: 0.333;"/>
<path d="M 336.001,1840.395 A 1212.750,1212.750 0.00 0,1 287.4,1480.4 L 287.4,1480.4 372.1,1483.2 453.1,1488.3 530.5,1495.5 604.7,1504.4 675.7,1514.5 743.8,1525.7 809.3,1537.5 872.4,1549.8 933.2,1562.2 991.9,1574.5 1048.9,1586.6 1104.2,1598.1 1158.2,1609.0 1210.9,1619.2 1262.7,1628.4 1313.6,1636.6 1364.0,1643.7 1413.9,1649.7 1463.7,1654.6 1513.4,1658.2 1563.3,1660.7 1613.6,1662.1 1664.5,1662.3 1716.1,1661.7 1768.6,1660.1 1822.2,1657.8 1877.2,1654.8 1933.6,1651.5 1991.8,1647.9 2051.7,1644.3 2113.7,1640.9 2177.8,1637.9 2244.3,1635.8 2313.4,1634.7 2385.1,1635.0 2459.7,1637.1 2537.4,1641.2 2618.2,1647.9 2702.5,1657.6  A 1212.750,1212.750 0.00 0,0 2695.1,1293.9 L 2695.1,1293.9 2611.8,1309.6 2532.6,1327.2 2457.2,1346.2 2385.3,1366.4 2316.7,1387.4 2251.1,1408.9 2188.2,1430.7 2127.8,1452.5 2069.6,1474.1 2013.5,1495.4 1959.0,1516.0 1906.1,1536.0 1854.5,1555.1 1804.0,1573.2 1754.2,1590.3 1705.2,1606.2 1656.5,1621.0 1608.1,1634.6 1559.7,1647.0 1511.1,1658.3 1462.1,1668.4 1412.7,1677.5 1362.5,1685.6 1311.4,1692.9 1259.2,1699.4 1205.8,1705.4 1151.1,1710.9 1094.8,1716.3 1036.8,1721.6 977.0,1727.3 915.3,1733.4 851.4,1740.4 785.4,1748.5 717.0,1758.0 646.1,1769.3 572.7,1782.8 496.6,1798.9 417.7,1817.9 336.0,1840.4  Z" style="stroke-width: 2.0;  stroke: rgb(82,82,82); fill: rgb(251,106,74); opacity: 0.333;"/>
<path d="M 350.871,1112.360 A 1212.750,1212.750 0.00 0,1 393.3,1004.0 L 393.3,1004.0 470.4,1037.3 543.7,1066.6 613.4,1092.2 679.8,1114.3 742.9,1133.2 803.1,1149.3 860.6,1162.7 915.6,1173.6 968.3,1182.3 1018.8,1188.9 1067.4,1193.6 1114.3,1196.5 1159.6,1197.7 1203.5,1197.4 1246.2,1195.7 1288.0,1192.5 1328.8,1188.0 1369.0,1182.1 1408.6,1174.9 1447.9,1166.3 1486.9,1156.4 1525.9,1145.0 1565.0,1132.2 1604.2,1117.7 1643.8,1101.5 1683.9,1083.5 1724.6,1063.6 1766.0,1041.4 1808.2,1016.9 1851.4,989.9 1895.7,960.1 1941.2,927.3 1987.9,891.3 2036.0,851.6 2085.6,808.1 2136.7,760.4 2189.4,708.2 2243.9,651.1 2300.2,588.7  A 1212.750,1212.750 0.00 0,0 2210.7,517.3 L 2210.7,517.3 2160.5,584.7 2111.7,646.7 2064.1,703.7 2017.7,756.0 1972.4,804.0 1928.3,848.0 1885.2,888.3 1843.0,925.3 1801.7,959.1 1761.2,990.1 1721.5,1018.4 1682.3,1044.4 1643.7,1068.1 1605.5,1089.9 1567.6,1109.7 1529.8,1127.8 1492.2,1144.4 1454.4,1159.4 1416.5,1173.0 1378.2,1185.2 1339.4,1196.2 1299.9,1205.9 1259.7,1214.3 1218.4,1221.4 1176.0,1227.3 1132.3,1231.8 1087.1,1234.9 1040.1,1236.4 991.3,1236.4 940.3,1234.7 887.1,1231.1 831.3,1225.5 772.8,1217.7 711.3,1207.5 646.6,1194.7 578.4,1179.0 506.6,1160.3 430.8,1138.1 350.9,1112.4  Z" style="stroke-width: 2.0;  stroke: rgb(82,82,82); fill: rgb(251,106,74); opacity: 0.333;"/>
<path d="M 559.690,2265.885 A 1212.750,1212.750 0.00 0,1 405.1,2021.5 L 405.1,2021.5 482.2,1986.3 557.0,1955.0 629.6,1927.0 699.8,1902.0 767.9,1879.6 833.9,1859.3 897.8,1840.9 959.6,1823.9 1019.5,1808.1 1077.6,1793.1 1134.0,1778.7 1188.7,1764.6 1241.8,1750.6 1293.6,1736.4 1344.1,1721.8 1393.4,1706.7 1441.7,1691.0 1489.2,1674.4 1536.0,1656.9 1582.2,1638.4 1628.2,1618.8 1674.0,1598.0 1719.8,1576.1 1765.9,1552.9 1812.5,1528.7 1859.8,1503.2 1907.9,1476.7 1957.2,1449.2 2008.0,1420.7 2060.3,1391.5 2114.6,1361.6 2171.1,1331.2 2230.1,1300.5 2291.8,1269.6 2356.6,1238.9 2424.7,1208.4 2496.5,1178.6 2572.2,1149.7 2652.3,1122.0  A 1212.750,1212.750 0.00 0,0 2532.7,864.2 L 2532.7,864.2 2461.3,909.8 2394.3,955.6 2331.5,1001.3 2272.3,1046.7 2216.5,1091.6 2163.7,1136.0 2113.5,1179.6 2065.7,1222.3 2019.9,1264.0 1975.8,1304.7 1933.1,1344.2 1891.6,1382.4 1850.9,1419.4 1810.9,1455.2 1771.4,1489.7 1732.0,1523.0 1692.5,1555.0 1652.9,1585.9 1612.8,1615.8 1572.2,1644.7 1530.8,1672.7 1488.6,1699.9 1445.3,1726.6 1401.0,1752.9 1355.3,1778.9 1308.4,1804.9 1260.1,1831.0 1210.3,1857.7 1158.9,1885.0 1106.1,1913.2 1051.6,1942.8 995.5,1973.9 937.8,2006.9 878.6,2042.1 817.7,2080.0 755.4,2120.9 691.5,2165.3 626.3,2213.4 559.7,2265.9  Z" style="stroke-width: 2.0;  stroke: rgb(82,82,82); fill: rgb(251,106,74); opacity: 0.333;"/>
</g>
</svg>
