<?xml version="1.0" encoding="utf-8" standalone="no"?>
<!DOCTYPE svg PUBLIC "-//W3C//DTD SVG 1.1//EN" "http://www.w3.org/Graphics/SVG/1.1/DTD/svg11.dtd">
<svg width="3000px" height="3000px" version="1.1" xmlns="http://www.w3.org/2000/svg" xmlns:xlink="http://www.w3.org/1999/xlink">
<g id="ideograms">
<g id="highlighttrack_0">
</g>
<path d="M1500.000,425.000 A1075.000,1075.000 40.000 0,1 1647.072,2564.892 L1653.912,2614.422 A1125.000,1125.000 0.000 0,0 1500.000,375.000 Z" style="stroke-linecap:round;fill:rgb(251,106,74);"/>
<text x="2712.8" y="1426.7" font-size="18.2px" font-family="CMUBright-Roman" style="text-anchor:start;fill:rgb(0,0,0);" transform="rotate(356.1,2712.8,1426.7)">gi|385215269|ref|NC_017366.1|</text>
<line x1='1500.0' y1='375.0' x2='1500.0' y2='355.0' style="stroke-width:4.0;stroke:rgb(0,0,0);stroke-linecap:round;fill:none;"/>
<text x="1506.5" y="345.0" font-size="18.2px" font-family="CMUBright-Roman" style="text-anchor:start;fill:rgb(0,0,0);" transform="rotate(270.0,1506.5,345.0)">0</text>
<line x1='1606.9' y1='380.1' x2='1608.8' y2='360.2' style="stroke-width:4.0;stroke:rgb(0,0,0);stroke-linecap:round;fill:none;"/>
<text x="1616.2" y="350.9" font-size="18.2px" font-family="CMUBright-Roman" style="text-anchor:start;fill:rgb(0,0,0);" transform="rotate(275.5,1616.2,350.9)">50</text>
<line x1='1712.8' y1='395.3' x2='1716.6' y2='375.7' style="stroke-width:4.0;stroke:rgb(0,0,0);stroke-linecap:round;fill:none;"/>
<text x="1724.8" y="367.1" font-size="18.2px" font-family="CMUBright-Roman" style="text-anchor:start;fill:rgb(0,0,0);" transform="rotate(280.9,1724.8,367.1)">100</text>
<line x1='1816.8' y1='420.5' x2='1822.4' y2='401.3' style="stroke-width:4.0;stroke:rgb(0,0,0);stroke-linecap:round;fill:none;"/>
<text x="1831.5" y="393.6" font-size="18.2px" font-family="CMUBright-Roman" style="text-anchor:start;fill:rgb(0,0,0);" transform="rotate(286.4,1831.5,393.6)">150</text>
<line x1='1917.9' y1='455.5' x2='1925.3' y2='436.9' style="stroke-width:4.0;stroke:rgb(0,0,0);stroke-linecap:round;fill:none;"/>
<text x="1935.1" y="430.1" font-size="18.2px" font-family="CMUBright-Roman" style="text-anchor:start;fill:rgb(0,0,0);" transform="rotate(291.8,1935.1,430.1)">200</text>
<line x1='2015.2' y1='499.9' x2='2024.4' y2='482.1' style="stroke-width:4.0;stroke:rgb(0,0,0);stroke-linecap:round;fill:none;"/>
<text x="2034.7" y="476.2" font-size="18.2px" font-family="CMUBright-Roman" style="text-anchor:start;fill:rgb(0,0,0);" transform="rotate(297.3,2034.7,476.2)">250</text>
<line x1='2107.9' y1='553.4' x2='2118.7' y2='536.6' style="stroke-width:4.0;stroke:rgb(0,0,0);stroke-linecap:round;fill:none;"/>
<text x="2129.6" y="531.7" font-size="18.2px" font-family="CMUBright-Roman" style="text-anchor:start;fill:rgb(0,0,0);" transform="rotate(302.7,2129.6,531.7)">300</text>
<line x1='2195.1' y1='615.4' x2='2207.4' y2='599.7' style="stroke-width:4.0;stroke:rgb(0,0,0);stroke-linecap:round;fill:none;"/>
<text x="2218.7" y="595.9" font-size="18.2px" font-family="CMUBright-Roman" style="text-anchor:start;fill:rgb(0,0,0);" transform="rotate(308.2,2218.7,595.9)">350</text>
<line x1='2276.0' y1='685.5' x2='2289.8' y2='671.0' style="stroke-width:4.0;stroke:rgb(0,0,0);stroke-linecap:round;fill:none;"/>
<text x="2301.4" y="668.2" font-size="18.2px" font-family="CMUBright-Roman" style="text-anchor:start;fill:rgb(0,0,0);" transform="rotate(313.6,2301.4,668.2)">400</text>
<line x1='2349.9' y1='762.9' x2='2365.0' y2='749.8' style="stroke-width:4.0;stroke:rgb(0,0,0);stroke-linecap:round;fill:none;"/>
<text x="2376.8" y="748.1" font-size="18.2px" font-family="CMUBright-Roman" style="text-anchor:start;fill:rgb(0,0,0);" transform="rotate(319.1,2376.8,748.1)">450</text>
<line x1='2416.0' y1='846.9' x2='2432.3' y2='835.3' style="stroke-width:4.0;stroke:rgb(0,0,0);stroke-linecap:round;fill:none;"/>
<text x="2444.2" y="834.8" font-size="18.2px" font-family="CMUBright-Roman" style="text-anchor:start;fill:rgb(0,0,0);" transform="rotate(324.5,2444.2,834.8)">500</text>
<line x1='2473.9' y1='936.9' x2='2491.3' y2='926.9' style="stroke-width:4.0;stroke:rgb(0,0,0);stroke-linecap:round;fill:none;"/>
<text x="2503.2" y="927.5" font-size="18.2px" font-family="CMUBright-Roman" style="text-anchor:start;fill:rgb(0,0,0);" transform="rotate(330.0,2503.2,927.5)">550</text>
<line x1='2523.0' y1='1032.0' x2='2541.2' y2='1023.7' style="stroke-width:4.0;stroke:rgb(0,0,0);stroke-linecap:round;fill:none;"/>
<text x="2553.0" y="1025.4" font-size="18.2px" font-family="CMUBright-Roman" style="text-anchor:start;fill:rgb(0,0,0);" transform="rotate(335.4,2553.0,1025.4)">600</text>
<line x1='2562.9' y1='1131.3' x2='2581.8' y2='1124.7' style="stroke-width:4.0;stroke:rgb(0,0,0);stroke-linecap:round;fill:none;"/>
<text x="2593.3" y="1127.6" font-size="18.2px" font-family="CMUBright-Roman" style="text-anchor:start;fill:rgb(0,0,0);" transform="rotate(340.9,2593.3,1127.6)">650</text>
<line x1='2593.1' y1='1233.9' x2='2612.5' y2='1229.2' style="stroke-width:4.0;stroke:rgb(0,0,0);stroke-linecap:round;fill:none;"/>
<text x="2623.8" y="1233.2" font-size="18.2px" font-family="CMUBright-Roman" style="text-anchor:start;fill:rgb(0,0,0);" transform="rotate(346.3,2623.8,1233.2)">700</text>
<line x1='2613.4' y1='1339.0' x2='2633.2' y2='1336.1' style="stroke-width:4.0;stroke:rgb(0,0,0);stroke-linecap:round;fill:none;"/>
<text x="2644.0" y="1341.1" font-size="18.2px" font-family="CMUBright-Roman" style="text-anchor:start;fill:rgb(0,0,0);" transform="rotate(351.8,2644.0,1341.1)">750</text>
<line x1='2623.7' y1='1445.5' x2='2643.7' y2='1444.5' style="stroke-width:4.0;stroke:rgb(0,0,0);stroke-linecap:round;fill:none;"/>
<text x="2653.9" y="1450.5" font-size="18.2px" font-family="CMUBright-Roman" style="text-anchor:start;fill:rgb(0,0,0);" transform="rotate(357.2,2653.9,1450.5)">800</text>
<line x1='2623.8' y1='1552.5' x2='2643.8' y2='1553.4' style="stroke-width:4.0;stroke:rgb(0,0,0);stroke-linecap:round;fill:none;"/>
<text x="2653.4" y="1560.4" font-size="18.2px" font-family="CMUBright-Roman" style="text-anchor:start;fill:rgb(0,0,0);" transform="rotate(2.7,2653.4,1560.4)">850</text>
<line x1='2613.7' y1='1659.0' x2='2633.5' y2='1661.8' style="stroke-width:4.0;stroke:rgb(0,0,0);stroke-linecap:round;fill:none;"/>
<text x="2642.5" y="1669.7" font-size="18.2px" font-family="CMUBright-Roman" style="text-anchor:start;fill:rgb(0,0,0);" transform="rotate(8.1,2642.5,1669.7)">900</text>
<line x1='2593.6' y1='1764.1' x2='2613.0' y2='1768.8' style="stroke-width:4.0;stroke:rgb(0,0,0);stroke-linecap:round;fill:none;"/>
<text x="2621.2" y="1777.5" font-size="18.2px" font-family="CMUBright-Roman" style="text-anchor:start;fill:rgb(0,0,0);" transform="rotate(13.6,2621.2,1777.5)">950</text>
<line x1='2563.5' y1='1866.8' x2='2582.4' y2='1873.3' style="stroke-width:4.0;stroke:rgb(0,0,0);stroke-linecap:round;fill:none;"/>
<text x="2589.8" y="1882.7" font-size="18.2px" font-family="CMUBright-Roman" style="text-anchor:start;fill:rgb(0,0,0);" transform="rotate(19.0,2589.8,1882.7)">1000</text>
<line x1='2523.9' y1='1966.2' x2='2542.1' y2='1974.5' style="stroke-width:4.0;stroke:rgb(0,0,0);stroke-linecap:round;fill:none;"/>
<text x="2548.5" y="1984.5" font-size="18.2px" font-family="CMUBright-Roman" style="text-anchor:start;fill:rgb(0,0,0);" transform="rotate(24.5,2548.5,1984.5)">1050</text>
<line x1='2475.0' y1='2061.3' x2='2492.3' y2='2071.3' style="stroke-width:4.0;stroke:rgb(0,0,0);stroke-linecap:round;fill:none;"/>
<text x="2497.7" y="2081.9" font-size="18.2px" font-family="CMUBright-Roman" style="text-anchor:start;fill:rgb(0,0,0);" transform="rotate(29.9,2497.7,2081.9)">1100</text>
<line x1='2417.2' y1='2151.4' x2='2433.5' y2='2163.0' style="stroke-width:4.0;stroke:rgb(0,0,0);stroke-linecap:round;fill:none;"/>
<text x="2437.9" y="2174.1" font-size="18.2px" font-family="CMUBright-Roman" style="text-anchor:start;fill:rgb(0,0,0);" transform="rotate(35.4,2437.9,2174.1)">1150</text>
<line x1='2351.2' y1='2235.6' x2='2366.3' y2='2248.7' style="stroke-width:4.0;stroke:rgb(0,0,0);stroke-linecap:round;fill:none;"/>
<text x="2369.6" y="2260.1" font-size="18.2px" font-family="CMUBright-Roman" style="text-anchor:start;fill:rgb(0,0,0);" transform="rotate(40.8,2369.6,2260.1)">1200</text>
<line x1='2277.4' y1='2313.1' x2='2291.3' y2='2327.6' style="stroke-width:4.0;stroke:rgb(0,0,0);stroke-linecap:round;fill:none;"/>
<text x="2293.5" y="2339.3" font-size="18.2px" font-family="CMUBright-Roman" style="text-anchor:start;fill:rgb(0,0,0);" transform="rotate(46.3,2293.5,2339.3)">1250</text>
<line x1='2196.7' y1='2383.3' x2='2209.1' y2='2399.0' style="stroke-width:4.0;stroke:rgb(0,0,0);stroke-linecap:round;fill:none;"/>
<text x="2210.1" y="2410.9" font-size="18.2px" font-family="CMUBright-Roman" style="text-anchor:start;fill:rgb(0,0,0);" transform="rotate(51.7,2210.1,2410.9)">1300</text>
<line x1='2109.6' y1='2445.5' x2='2120.5' y2='2462.3' style="stroke-width:4.0;stroke:rgb(0,0,0);stroke-linecap:round;fill:none;"/>
<text x="2120.4" y="2474.2" font-size="18.2px" font-family="CMUBright-Roman" style="text-anchor:start;fill:rgb(0,0,0);" transform="rotate(57.2,2120.4,2474.2)">1350</text>
<line x1='2017.0' y1='2499.2' x2='2026.2' y2='2516.9' style="stroke-width:4.0;stroke:rgb(0,0,0);stroke-linecap:round;fill:none;"/>
<text x="2025.0" y="2528.8" font-size="18.2px" font-family="CMUBright-Roman" style="text-anchor:start;fill:rgb(0,0,0);" transform="rotate(62.6,2025.0,2528.8)">1400</text>
<line x1='1919.8' y1='2543.8' x2='1927.2' y2='2562.3' style="stroke-width:4.0;stroke:rgb(0,0,0);stroke-linecap:round;fill:none;"/>
<text x="1924.9" y="2574.0" font-size="18.2px" font-family="CMUBright-Roman" style="text-anchor:start;fill:rgb(0,0,0);" transform="rotate(68.1,1924.9,2574.0)">1450</text>
<line x1='1818.7' y1='2578.9' x2='1824.4' y2='2598.1' style="stroke-width:4.0;stroke:rgb(0,0,0);stroke-linecap:round;fill:none;"/>
<text x="1821.0" y="2609.5" font-size="18.2px" font-family="CMUBright-Roman" style="text-anchor:start;fill:rgb(0,0,0);" transform="rotate(73.5,1821.0,2609.5)">1500</text>
<line x1='1714.8' y1='2604.3' x2='1718.6' y2='2623.9' style="stroke-width:4.0;stroke:rgb(0,0,0);stroke-linecap:round;fill:none;"/>
<text x="1714.1" y="2635.0" font-size="18.2px" font-family="CMUBright-Roman" style="text-anchor:start;fill:rgb(0,0,0);" transform="rotate(79.0,1714.1,2635.0)">1550</text>
<g id="highlighttrack_0">
<path d="M2447.874,2007.110 A1075.000,1075.000 40.000 0,1 2104.988,2388.603 L2133.127,2429.933 A1125.000,1125.000 0.000 0,0 2491.961,2030.696 Z" style="stroke-width:4.0;stroke:rgb(0,0,0);stroke-linecap:round;fill:rgb(107,174,214);fill-opacity:0.50;"/>
<path d="M2001.528,2450.839 A1075.000,1075.000 40.000 0,1 1653.997,2563.913 L1661.159,2613.397 A1125.000,1125.000 0.000 0,0 2024.855,2495.064 Z" style="stroke-width:4.0;stroke:rgb(0,0,0);stroke-linecap:round;fill:rgb(107,174,214);fill-opacity:0.50;"/>
<path d="M2563.168,1340.946 A1075.000,1075.000 40.000 0,1 2561.706,1668.538 L2611.088,1676.377 A1125.000,1125.000 0.000 0,0 2612.618,1333.548 Z" style="stroke-width:4.0;stroke:rgb(0,0,0);stroke-linecap:round;fill:rgb(107,174,214);fill-opacity:0.50;"/>
<path d="M2560.579,1675.493 A1075.000,1075.000 40.000 0,1 2471.766,1959.669 L2516.964,1981.049 A1125.000,1125.000 0.000 0,0 2609.908,1683.655 Z" style="stroke-width:4.0;stroke:rgb(0,0,0);stroke-linecap:round;fill:rgb(107,174,214);fill-opacity:0.50;"/>
<path d="M1635.631,433.590 A1075.000,1075.000 40.000 0,1 1914.906,508.296 L1934.204,462.170 A1125.000,1125.000 0.000 0,0 1641.939,383.990 Z" style="stroke-width:4.0;stroke:rgb(0,0,0);stroke-linecap:round;fill:rgb(107,174,214);fill-opacity:0.50;"/>
<path d="M2424.460,951.367 A1075.000,1075.000 40.000 0,1 2527.940,1185.414 L2575.751,1170.782 A1125.000,1125.000 0.000 0,0 2467.458,925.849 Z" style="stroke-width:4.0;stroke:rgb(0,0,0);stroke-linecap:round;fill:rgb(107,174,214);fill-opacity:0.50;"/>
<path d="M1915.016,508.341 A1075.000,1075.000 40.000 0,1 2128.896,628.154 L2158.147,587.604 A1125.000,1125.000 0.000 0,0 1934.319,462.218 Z" style="stroke-width:4.0;stroke:rgb(0,0,0);stroke-linecap:round;fill:rgb(107,174,214);fill-opacity:0.50;"/>
<path d="M2237.351,717.735 A1075.000,1075.000 40.000 0,1 2351.544,843.877 L2391.151,813.360 A1125.000,1125.000 0.000 0,0 2271.647,681.351 Z" style="stroke-width:4.0;stroke:rgb(0,0,0);stroke-linecap:round;fill:rgb(107,174,214);fill-opacity:0.50;"/>
<path d="M2541.650,1234.313 A1075.000,1075.000 40.000 0,1 2563.119,1340.618 L2612.567,1333.205 A1125.000,1125.000 0.000 0,0 2590.099,1221.955 Z" style="stroke-width:4.0;stroke:rgb(0,0,0);stroke-linecap:round;fill:rgb(107,174,214);fill-opacity:0.50;"/>
<path d="M2138.633,635.261 A1075.000,1075.000 40.000 0,1 2218.540,700.422 L2251.961,663.232 A1125.000,1125.000 0.000 0,0 2168.337,595.041 Z" style="stroke-width:4.0;stroke:rgb(0,0,0);stroke-linecap:round;fill:rgb(107,174,214);fill-opacity:0.50;"/>
<path d="M2380.160,882.794 A1075.000,1075.000 40.000 0,1 2425.676,953.421 L2468.731,927.999 A1125.000,1125.000 0.000 0,0 2421.098,854.087 Z" style="stroke-width:4.0;stroke:rgb(0,0,0);stroke-linecap:round;fill:rgb(107,174,214);fill-opacity:0.50;"/>
<path d="M1551.830,426.250 A1075.000,1075.000 40.000 0,1 1630.377,432.935 L1636.441,383.305 A1125.000,1125.000 0.000 0,0 1554.241,376.308 Z" style="stroke-width:4.0;stroke:rgb(0,0,0);stroke-linecap:round;fill:rgb(107,174,214);fill-opacity:0.50;"/>
<path d="M1500.086,425.000 A1075.000,1075.000 40.000 0,1 1551.824,426.250 L1554.235,376.308 A1125.000,1125.000 0.000 0,0 1500.090,375.000 Z" style="stroke-width:4.0;stroke:rgb(0,0,0);stroke-linecap:round;fill:rgb(107,174,214);fill-opacity:0.50;"/>
<path d="M2104.096,2389.209 A1075.000,1075.000 40.000 0,1 2067.461,2413.024 L2093.854,2455.490 A1125.000,1125.000 0.000 0,0 2132.194,2430.568 Z" style="stroke-width:4.0;stroke:rgb(0,0,0);stroke-linecap:round;fill:rgb(107,174,214);fill-opacity:0.50;"/>
<path d="M2040.904,2429.004 A1075.000,1075.000 40.000 0,1 2017.036,2442.496 L2041.085,2486.333 A1125.000,1125.000 0.000 0,0 2066.062,2472.213 Z" style="stroke-width:4.0;stroke:rgb(0,0,0);stroke-linecap:round;fill:rgb(107,174,214);fill-opacity:0.50;"/>
<path d="M2528.068,1185.833 A1075.000,1075.000 40.000 0,1 2535.758,1212.198 L2583.933,1198.812 A1125.000,1125.000 0.000 0,0 2575.885,1171.220 Z" style="stroke-width:4.0;stroke:rgb(0,0,0);stroke-linecap:round;fill:rgb(107,174,214);fill-opacity:0.50;"/>
<path d="M2466.989,1969.636 A1075.000,1075.000 40.000 0,1 2454.603,1994.327 L2499.003,2017.319 A1125.000,1125.000 0.000 0,0 2511.965,1991.479 Z" style="stroke-width:4.0;stroke:rgb(0,0,0);stroke-linecap:round;fill:rgb(107,174,214);fill-opacity:0.50;"/>
<path d="M2066.771,2413.453 A1075.000,1075.000 40.000 0,1 2040.904,2429.004 L2066.062,2472.213 A1125.000,1125.000 0.000 0,0 2093.132,2455.939 Z" style="stroke-width:4.0;stroke:rgb(0,0,0);stroke-linecap:round;fill:rgb(107,174,214);fill-opacity:0.50;"/>
<path d="M2361.365,856.824 A1075.000,1075.000 40.000 0,1 2376.668,877.843 L2417.443,848.906 A1125.000,1125.000 0.000 0,0 2401.429,826.909 Z" style="stroke-width:4.0;stroke:rgb(0,0,0);stroke-linecap:round;fill:rgb(107,174,214);fill-opacity:0.50;"/>
<path d="M2536.179,1213.716 A1075.000,1075.000 40.000 0,1 2541.583,1234.051 L2590.029,1221.681 A1125.000,1125.000 0.000 0,0 2584.373,1200.400 Z" style="stroke-width:4.0;stroke:rgb(0,0,0);stroke-linecap:round;fill:rgb(107,174,214);fill-opacity:0.50;"/>
<path d="M2218.694,700.560 A1075.000,1075.000 40.000 0,1 2234.053,714.640 L2268.195,678.111 A1125.000,1125.000 0.000 0,0 2252.121,663.377 Z" style="stroke-width:4.0;stroke:rgb(0,0,0);stroke-linecap:round;fill:rgb(107,174,214);fill-opacity:0.50;"/>
<path d="M2016.730,2442.664 A1075.000,1075.000 40.000 0,1 2007.344,2447.748 L2030.942,2491.830 A1125.000,1125.000 0.000 0,0 2040.764,2486.509 Z" style="stroke-width:4.0;stroke:rgb(0,0,0);stroke-linecap:round;fill:rgb(107,174,214);fill-opacity:0.50;"/>
</g>
<g id="highlighttrack_0">
</g>
<path d="M1633.730,2566.650 A1075.000,1075.000 40.000 1,1 1486.543,425.084 L1485.917,375.088 A1125.000,1125.000 0.000 1,0 1639.950,2616.261 Z" style="stroke-linecap:round;fill:rgb(116,196,118);"/>
<text x="288.6" y="1593.3" font-size="18.2px" font-family="CMUBright-Roman" style="text-anchor:end;fill:rgb(0,0,0);" transform="rotate(-3.9,288.6,1593.3)">gi|385218266|ref|NC_017371.1|</text>
<line x1='1639.9' y1='2616.3' x2='1642.4' y2='2636.1' style="stroke-width:4.0;stroke:rgb(0,0,0);stroke-linecap:round;fill:none;"/>
<text x="1637.2" y="2646.8" font-size="18.2px" font-family="CMUBright-Roman" style="text-anchor:start;fill:rgb(0,0,0);" transform="rotate(82.9,1637.2,2646.8)">0</text>
<line x1='1533.3' y1='2624.5' x2='1533.9' y2='2644.5' style="stroke-width:4.0;stroke:rgb(0,0,0);stroke-linecap:round;fill:none;"/>
<text x="1527.7" y="2654.7" font-size="18.2px" font-family="CMUBright-Roman" style="text-anchor:start;fill:rgb(0,0,0);" transform="rotate(88.3,1527.7,2654.7)">50</text>
<line x1='1426.3' y1='2622.6' x2='1425.0' y2='2642.5' style="stroke-width:4.0;stroke:rgb(0,0,0);stroke-linecap:round;fill:none;"/>
<text x="1430.8" y="2652.9" font-size="18.2px" font-family="CMUBright-Roman" style="text-anchor:end;fill:rgb(0,0,0);" transform="rotate(-86.2,1430.8,2652.9)">100</text>
<line x1='1320.0' y1='2610.5' x2='1316.8' y2='2630.2' style="stroke-width:4.0;stroke:rgb(0,0,0);stroke-linecap:round;fill:none;"/>
<text x="1321.6" y="2641.1" font-size="18.2px" font-family="CMUBright-Roman" style="text-anchor:end;fill:rgb(0,0,0);" transform="rotate(-80.8,1321.6,2641.1)">150</text>
<line x1='1215.3' y1='2588.4' x2='1210.2' y2='2607.7' style="stroke-width:4.0;stroke:rgb(0,0,0);stroke-linecap:round;fill:none;"/>
<text x="1214.0" y="2619.0" font-size="18.2px" font-family="CMUBright-Roman" style="text-anchor:end;fill:rgb(0,0,0);" transform="rotate(-75.3,1214.0,2619.0)">200</text>
<line x1='1113.2' y1='2556.4' x2='1106.3' y2='2575.2' style="stroke-width:4.0;stroke:rgb(0,0,0);stroke-linecap:round;fill:none;"/>
<text x="1109.0" y="2586.8" font-size="18.2px" font-family="CMUBright-Roman" style="text-anchor:end;fill:rgb(0,0,0);" transform="rotate(-69.9,1109.0,2586.8)">250</text>
<line x1='1014.6' y1='2514.9' x2='1005.9' y2='2532.9' style="stroke-width:4.0;stroke:rgb(0,0,0);stroke-linecap:round;fill:none;"/>
<text x="1007.5" y="2544.7" font-size="18.2px" font-family="CMUBright-Roman" style="text-anchor:end;fill:rgb(0,0,0);" transform="rotate(-64.4,1007.5,2544.7)">300</text>
<line x1='920.3' y1='2464.2' x2='910.0' y2='2481.3' style="stroke-width:4.0;stroke:rgb(0,0,0);stroke-linecap:round;fill:none;"/>
<text x="910.5" y="2493.2" font-size="18.2px" font-family="CMUBright-Roman" style="text-anchor:end;fill:rgb(0,0,0);" transform="rotate(-59.0,910.5,2493.2)">350</text>
<line x1='831.4' y1='2404.7' x2='819.5' y2='2420.8' style="stroke-width:4.0;stroke:rgb(0,0,0);stroke-linecap:round;fill:none;"/>
<text x="818.8" y="2432.7" font-size="18.2px" font-family="CMUBright-Roman" style="text-anchor:end;fill:rgb(0,0,0);" transform="rotate(-53.5,818.8,2432.7)">400</text>
<line x1='748.4' y1='2337.1' x2='735.1' y2='2352.0' style="stroke-width:4.0;stroke:rgb(0,0,0);stroke-linecap:round;fill:none;"/>
<text x="733.3" y="2363.8" font-size="18.2px" font-family="CMUBright-Roman" style="text-anchor:end;fill:rgb(0,0,0);" transform="rotate(-48.1,733.3,2363.8)">450</text>
<line x1='672.3' y1='2261.9' x2='657.6' y2='2275.5' style="stroke-width:4.0;stroke:rgb(0,0,0);stroke-linecap:round;fill:none;"/>
<text x="654.7" y="2287.0" font-size="18.2px" font-family="CMUBright-Roman" style="text-anchor:end;fill:rgb(0,0,0);" transform="rotate(-42.6,654.7,2287.0)">500</text>
<line x1='603.7' y1='2179.9' x2='587.7' y2='2192.0' style="stroke-width:4.0;stroke:rgb(0,0,0);stroke-linecap:round;fill:none;"/>
<text x="583.7" y="2203.2" font-size="18.2px" font-family="CMUBright-Roman" style="text-anchor:end;fill:rgb(0,0,0);" transform="rotate(-37.2,583.7,2203.2)">550</text>
<line x1='543.1' y1='2091.6' x2='526.1' y2='2102.2' style="stroke-width:4.0;stroke:rgb(0,0,0);stroke-linecap:round;fill:none;"/>
<text x="521.1" y="2112.9" font-size="18.2px" font-family="CMUBright-Roman" style="text-anchor:end;fill:rgb(0,0,0);" transform="rotate(-31.7,521.1,2112.9)">600</text>
<line x1='491.3' y1='1998.1' x2='473.3' y2='2006.9' style="stroke-width:4.0;stroke:rgb(0,0,0);stroke-linecap:round;fill:none;"/>
<text x="467.3" y="2017.2" font-size="18.2px" font-family="CMUBright-Roman" style="text-anchor:end;fill:rgb(0,0,0);" transform="rotate(-26.3,467.3,2017.2)">650</text>
<line x1='448.5' y1='1900.0' x2='429.8' y2='1907.1' style="stroke-width:4.0;stroke:rgb(0,0,0);stroke-linecap:round;fill:none;"/>
<text x="422.8" y="1916.7" font-size="18.2px" font-family="CMUBright-Roman" style="text-anchor:end;fill:rgb(0,0,0);" transform="rotate(-20.8,422.8,1916.7)">700</text>
<line x1='415.3' y1='1798.3' x2='396.0' y2='1803.6' style="stroke-width:4.0;stroke:rgb(0,0,0);stroke-linecap:round;fill:none;"/>
<text x="388.1" y="1812.5" font-size="18.2px" font-family="CMUBright-Roman" style="text-anchor:end;fill:rgb(0,0,0);" transform="rotate(-15.4,388.1,1812.5)">750</text>
<line x1='391.8' y1='1693.9' x2='372.1' y2='1697.3' style="stroke-width:4.0;stroke:rgb(0,0,0);stroke-linecap:round;fill:none;"/>
<text x="363.4" y="1705.4" font-size="18.2px" font-family="CMUBright-Roman" style="text-anchor:end;fill:rgb(0,0,0);" transform="rotate(-9.9,363.4,1705.4)">800</text>
<line x1='378.4' y1='1587.7' x2='358.5' y2='1589.3' style="stroke-width:4.0;stroke:rgb(0,0,0);stroke-linecap:round;fill:none;"/>
<text x="349.0" y="1596.5" font-size="18.2px" font-family="CMUBright-Roman" style="text-anchor:end;fill:rgb(0,0,0);" transform="rotate(-4.5,349.0,1596.5)">850</text>
<line x1='375.2' y1='1480.8' x2='355.2' y2='1480.4' style="stroke-width:4.0;stroke:rgb(0,0,0);stroke-linecap:round;fill:none;"/>
<text x="345.1" y="1486.8" font-size="18.2px" font-family="CMUBright-Roman" style="text-anchor:end;fill:rgb(0,0,0);" transform="rotate(1.0,345.1,1486.8)">900</text>
<line x1='382.1' y1='1374.0' x2='362.2' y2='1371.8' style="stroke-width:4.0;stroke:rgb(0,0,0);stroke-linecap:round;fill:none;"/>
<text x="351.6" y="1377.1" font-size="18.2px" font-family="CMUBright-Roman" style="text-anchor:end;fill:rgb(0,0,0);" transform="rotate(6.4,351.6,1377.1)">950</text>
<line x1='399.1' y1='1268.4' x2='379.5' y2='1264.2' style="stroke-width:4.0;stroke:rgb(0,0,0);stroke-linecap:round;fill:none;"/>
<text x="368.4" y="1268.5" font-size="18.2px" font-family="CMUBright-Roman" style="text-anchor:end;fill:rgb(0,0,0);" transform="rotate(11.9,368.4,1268.5)">1000</text>
<line x1='426.1' y1='1164.8' x2='407.0' y2='1158.9' style="stroke-width:4.0;stroke:rgb(0,0,0);stroke-linecap:round;fill:none;"/>
<text x="395.5" y="1162.1" font-size="18.2px" font-family="CMUBright-Roman" style="text-anchor:end;fill:rgb(0,0,0);" transform="rotate(17.3,395.5,1162.1)">1050</text>
<line x1='462.8' y1='1064.3' x2='444.4' y2='1056.6' style="stroke-width:4.0;stroke:rgb(0,0,0);stroke-linecap:round;fill:none;"/>
<text x="432.6" y="1058.7" font-size="18.2px" font-family="CMUBright-Roman" style="text-anchor:end;fill:rgb(0,0,0);" transform="rotate(22.8,432.6,1058.7)">1100</text>
<line x1='508.9' y1='967.7' x2='491.3' y2='958.3' style="stroke-width:4.0;stroke:rgb(0,0,0);stroke-linecap:round;fill:none;"/>
<text x="479.4" y="959.3" font-size="18.2px" font-family="CMUBright-Roman" style="text-anchor:end;fill:rgb(0,0,0);" transform="rotate(28.2,479.4,959.3)">1150</text>
<line x1='563.9' y1='876.0' x2='547.3' y2='864.9' style="stroke-width:4.0;stroke:rgb(0,0,0);stroke-linecap:round;fill:none;"/>
<text x="535.4" y="864.8" font-size="18.2px" font-family="CMUBright-Roman" style="text-anchor:end;fill:rgb(0,0,0);" transform="rotate(33.7,535.4,864.8)">1200</text>
<line x1='627.4' y1='789.9' x2='611.9' y2='777.3' style="stroke-width:4.0;stroke:rgb(0,0,0);stroke-linecap:round;fill:none;"/>
<text x="600.1" y="776.0" font-size="18.2px" font-family="CMUBright-Roman" style="text-anchor:end;fill:rgb(0,0,0);" transform="rotate(39.1,600.1,776.0)">1250</text>
<line x1='698.8' y1='710.2' x2='684.6' y2='696.2' style="stroke-width:4.0;stroke:rgb(0,0,0);stroke-linecap:round;fill:none;"/>
<text x="672.9" y="693.8" font-size="18.2px" font-family="CMUBright-Roman" style="text-anchor:end;fill:rgb(0,0,0);" transform="rotate(44.6,672.9,693.8)">1300</text>
<line x1='777.5' y1='637.7' x2='764.7' y2='622.3' style="stroke-width:4.0;stroke:rgb(0,0,0);stroke-linecap:round;fill:none;"/>
<text x="753.3" y="618.9" font-size="18.2px" font-family="CMUBright-Roman" style="text-anchor:end;fill:rgb(0,0,0);" transform="rotate(50.0,753.3,618.9)">1350</text>
<line x1='862.7' y1='572.9' x2='851.4' y2='556.4' style="stroke-width:4.0;stroke:rgb(0,0,0);stroke-linecap:round;fill:none;"/>
<text x="840.3" y="551.9" font-size="18.2px" font-family="CMUBright-Roman" style="text-anchor:end;fill:rgb(0,0,0);" transform="rotate(55.5,840.3,551.9)">1400</text>
<line x1='953.6' y1='516.6' x2='943.9' y2='499.1' style="stroke-width:4.0;stroke:rgb(0,0,0);stroke-linecap:round;fill:none;"/>
<text x="933.4" y="493.5" font-size="18.2px" font-family="CMUBright-Roman" style="text-anchor:end;fill:rgb(0,0,0);" transform="rotate(60.9,933.4,493.5)">1450</text>
<line x1='1049.5' y1='469.1' x2='1041.5' y2='450.8' style="stroke-width:4.0;stroke:rgb(0,0,0);stroke-linecap:round;fill:none;"/>
<text x="1031.6" y="444.2" font-size="18.2px" font-family="CMUBright-Roman" style="text-anchor:end;fill:rgb(0,0,0);" transform="rotate(66.4,1031.6,444.2)">1500</text>
<line x1='1149.5' y1='431.0' x2='1143.3' y2='412.0' style="stroke-width:4.0;stroke:rgb(0,0,0);stroke-linecap:round;fill:none;"/>
<text x="1134.0" y="404.5" font-size="18.2px" font-family="CMUBright-Roman" style="text-anchor:end;fill:rgb(0,0,0);" transform="rotate(71.8,1134.0,404.5)">1550</text>
<line x1='1252.7' y1='402.5' x2='1248.3' y2='383.0' style="stroke-width:4.0;stroke:rgb(0,0,0);stroke-linecap:round;fill:none;"/>
<text x="1239.7" y="374.7" font-size="18.2px" font-family="CMUBright-Roman" style="text-anchor:end;fill:rgb(0,0,0);" transform="rotate(77.3,1239.7,374.7)">1600</text>
<line x1='1358.0' y1='384.0' x2='1355.5' y2='364.2' style="stroke-width:4.0;stroke:rgb(0,0,0);stroke-linecap:round;fill:none;"/>
<text x="1347.8" y="355.1" font-size="18.2px" font-family="CMUBright-Roman" style="text-anchor:end;fill:rgb(0,0,0);" transform="rotate(82.8,1347.8,355.1)">1650</text>
<line x1='1464.7' y1='375.6' x2='1464.1' y2='355.6' style="stroke-width:4.0;stroke:rgb(0,0,0);stroke-linecap:round;fill:none;"/>
<text x="1457.3" y="345.8" font-size="18.2px" font-family="CMUBright-Roman" style="text-anchor:end;fill:rgb(0,0,0);" transform="rotate(88.2,1457.3,345.8)">1700</text>
<g id="highlighttrack_0">
<path d="M533.515,1029.327 A1075.000,1075.000 40.000 0,1 875.694,624.862 L846.656,584.158 A1125.000,1125.000 0.000 0,0 488.563,1007.436 Z" style="stroke-width:4.0;stroke:rgb(0,0,0);stroke-linecap:round;fill:rgb(107,174,214);fill-opacity:0.50;"/>
<path d="M1110.692,497.970 A1075.000,1075.000 40.000 0,1 1475.693,425.275 L1474.562,375.288 A1125.000,1125.000 0.000 0,0 1092.584,451.364 Z" style="stroke-width:4.0;stroke:rgb(0,0,0);stroke-linecap:round;fill:rgb(107,174,214);fill-opacity:0.50;"/>
<path d="M462.245,1780.517 A1075.000,1075.000 40.000 0,1 425.923,1455.460 L375.966,1453.388 A1125.000,1125.000 0.000 0,0 413.978,1793.565 Z" style="stroke-width:4.0;stroke:rgb(0,0,0);stroke-linecap:round;fill:rgb(107,174,214);fill-opacity:0.50;"/>
<path d="M947.862,2422.371 A1075.000,1075.000 40.000 0,1 717.590,2237.197 L681.199,2271.485 A1125.000,1125.000 0.000 0,0 922.181,2465.272 Z" style="stroke-width:4.0;stroke:rgb(0,0,0);stroke-linecap:round;fill:rgb(107,174,214);fill-opacity:0.50;"/>
<path d="M1516.838,2574.868 A1075.000,1075.000 40.000 0,1 1223.652,2538.873 L1210.798,2587.192 A1125.000,1125.000 0.000 0,0 1517.621,2624.862 Z" style="stroke-width:4.0;stroke:rgb(0,0,0);stroke-linecap:round;fill:rgb(107,174,214);fill-opacity:0.50;"/>
<path d="M656.978,2167.037 A1075.000,1075.000 40.000 0,1 521.337,1944.796 L475.818,1965.484 A1125.000,1125.000 0.000 0,0 617.768,2198.062 Z" style="stroke-width:4.0;stroke:rgb(0,0,0);stroke-linecap:round;fill:rgb(107,174,214);fill-opacity:0.50;"/>
<path d="M1191.972,2529.924 A1075.000,1075.000 40.000 0,1 951.984,2424.826 L926.494,2467.841 A1125.000,1125.000 0.000 0,0 1177.646,2577.828 Z" style="stroke-width:4.0;stroke:rgb(0,0,0);stroke-linecap:round;fill:rgb(107,174,214);fill-opacity:0.50;"/>
<path d="M429.743,1399.127 A1075.000,1075.000 40.000 0,1 462.892,1217.102 L414.654,1203.944 A1125.000,1125.000 0.000 0,0 379.964,1394.435 Z" style="stroke-width:4.0;stroke:rgb(0,0,0);stroke-linecap:round;fill:rgb(107,174,214);fill-opacity:0.50;"/>
<path d="M522.422,1947.175 A1075.000,1075.000 40.000 0,1 479.908,1839.172 L432.462,1854.947 A1125.000,1125.000 0.000 0,0 476.953,1967.974 Z" style="stroke-width:4.0;stroke:rgb(0,0,0);stroke-linecap:round;fill:rgb(107,174,214);fill-opacity:0.50;"/>
<path d="M492.242,1125.770 A1075.000,1075.000 40.000 0,1 533.472,1029.418 L488.517,1007.530 A1125.000,1125.000 0.000 0,0 445.369,1108.364 Z" style="stroke-width:4.0;stroke:rgb(0,0,0);stroke-linecap:round;fill:rgb(107,174,214);fill-opacity:0.50;"/>
<path d="M712.117,2231.345 A1075.000,1075.000 40.000 0,1 654.163,2163.464 L614.821,2194.322 A1125.000,1125.000 0.000 0,0 675.471,2265.361 Z" style="stroke-width:4.0;stroke:rgb(0,0,0);stroke-linecap:round;fill:rgb(107,174,214);fill-opacity:0.50;"/>
<path d="M881.131,621.008 A1075.000,1075.000 40.000 0,1 954.950,573.423 L929.599,530.326 A1125.000,1125.000 0.000 0,0 852.347,580.125 Z" style="stroke-width:4.0;stroke:rgb(0,0,0);stroke-linecap:round;fill:rgb(107,174,214);fill-opacity:0.50;"/>
<path d="M1633.645,2566.660 A1075.000,1075.000 40.000 0,1 1581.049,2571.940 L1584.819,2621.798 A1125.000,1125.000 0.000 0,0 1639.861,2616.272 Z" style="stroke-width:4.0;stroke:rgb(0,0,0);stroke-linecap:round;fill:rgb(107,174,214);fill-opacity:0.50;"/>
<path d="M1580.176,2572.006 A1075.000,1075.000 40.000 0,1 1532.225,2574.517 L1533.724,2624.494 A1125.000,1125.000 0.000 0,0 1583.905,2621.867 Z" style="stroke-width:4.0;stroke:rgb(0,0,0);stroke-linecap:round;fill:rgb(107,174,214);fill-opacity:0.50;"/>
<path d="M977.371,560.594 A1075.000,1075.000 40.000 0,1 1008.505,543.936 L985.645,499.468 A1125.000,1125.000 0.000 0,0 953.062,516.901 Z" style="stroke-width:4.0;stroke:rgb(0,0,0);stroke-linecap:round;fill:rgb(107,174,214);fill-opacity:0.50;"/>
<path d="M471.700,1813.407 A1075.000,1075.000 40.000 0,1 462.696,1782.182 L414.450,1795.306 A1125.000,1125.000 0.000 0,0 423.872,1827.984 Z" style="stroke-width:4.0;stroke:rgb(0,0,0);stroke-linecap:round;fill:rgb(107,174,214);fill-opacity:0.50;"/>
<path d="M1043.405,526.786 A1075.000,1075.000 40.000 0,1 1068.558,515.377 L1048.491,469.580 A1125.000,1125.000 0.000 0,0 1022.168,481.520 Z" style="stroke-width:4.0;stroke:rgb(0,0,0);stroke-linecap:round;fill:rgb(107,174,214);fill-opacity:0.50;"/>
<path d="M954.984,573.403 A1075.000,1075.000 40.000 0,1 976.556,561.048 L952.210,517.376 A1125.000,1125.000 0.000 0,0 929.634,530.305 Z" style="stroke-width:4.0;stroke:rgb(0,0,0);stroke-linecap:round;fill:rgb(107,174,214);fill-opacity:0.50;"/>
<path d="M426.106,1451.250 A1075.000,1075.000 40.000 0,1 427.771,1422.857 L377.900,1419.269 A1125.000,1125.000 0.000 0,0 376.157,1448.983 Z" style="stroke-width:4.0;stroke:rgb(0,0,0);stroke-linecap:round;fill:rgb(107,174,214);fill-opacity:0.50;"/>
<path d="M478.411,1834.636 A1075.000,1075.000 40.000 0,1 472.034,1814.501 L424.222,1829.129 A1125.000,1125.000 0.000 0,0 430.895,1850.200 Z" style="stroke-width:4.0;stroke:rgb(0,0,0);stroke-linecap:round;fill:rgb(107,174,214);fill-opacity:0.50;"/>
<path d="M967.785,565.992 A1075.000,1075.000 40.000 0,1 984.987,556.397 L961.033,512.509 A1125.000,1125.000 0.000 0,0 943.030,522.549 Z" style="stroke-width:4.0;stroke:rgb(0,0,0);stroke-linecap:round;fill:rgb(107,174,214);fill-opacity:0.50;"/>
<path d="M1063.152,517.763 A1075.000,1075.000 40.000 0,1 1078.569,511.051 L1058.967,465.053 A1125.000,1125.000 0.000 0,0 1042.833,472.078 Z" style="stroke-width:4.0;stroke:rgb(0,0,0);stroke-linecap:round;fill:rgb(107,174,214);fill-opacity:0.50;"/>
<path d="M474.552,1177.383 A1075.000,1075.000 40.000 0,1 479.724,1161.384 L432.269,1145.634 A1125.000,1125.000 0.000 0,0 426.857,1162.378 Z" style="stroke-width:4.0;stroke:rgb(0,0,0);stroke-linecap:round;fill:rgb(107,174,214);fill-opacity:0.50;"/>
<path d="M1009.296,543.530 A1075.000,1075.000 40.000 0,1 1018.854,538.687 L996.475,493.974 A1125.000,1125.000 0.000 0,0 986.473,499.043 Z" style="stroke-width:4.0;stroke:rgb(0,0,0);stroke-linecap:round;fill:rgb(107,174,214);fill-opacity:0.50;"/>
</g>
</g>
<g id="track_0">
<path d="M 543.180,1034.034 A 1064.250,1064.250 0.00 0,1 881.9,633.6 L 881.9,633.6 924.2,694.9 962.8,754.9 998.3,813.5 1030.9,870.7 1061.0,926.4 1089.0,980.5 1115.2,1033.2 1139.9,1084.2 1163.4,1133.8 1186.0,1181.8 1208.0,1228.3 1229.5,1273.4 1250.8,1317.0 1272.2,1359.2 1293.8,1400.2 1315.8,1439.9 1338.4,1478.6 1361.6,1516.2 1385.7,1552.9 1410.8,1588.9 1436.9,1624.2 1464.2,1659.1 1492.6,1693.6 1522.3,1728.0 1553.2,1762.4 1585.5,1797.1 1619.0,1832.2 1653.8,1868.0 1689.9,1904.7 1727.1,1942.5 1765.4,1981.7 1804.8,2022.6 1845.1,2065.4 1886.3,2110.4 1928.1,2157.9 1970.4,2208.3 2013.1,2261.8 2056.0,2318.9 2098.9,2379.7  A 1064.250,1064.250 0.00 0,0 2438.4,2002.0 L 2438.4,2002.0 2372.2,1968.0 2307.8,1937.4 2245.2,1909.7 2184.3,1884.8 2125.3,1862.1 2068.0,1841.3 2012.5,1822.1 1958.7,1804.2 1906.6,1787.3 1856.1,1771.2 1807.2,1755.5 1759.8,1740.1 1713.8,1724.7 1669.1,1709.1 1625.7,1693.1 1583.4,1676.6 1542.1,1659.4 1501.7,1641.4 1462.0,1622.5 1423.0,1602.6 1384.4,1581.6 1346.2,1559.4 1308.0,1536.0 1269.9,1511.4 1231.5,1485.5 1192.7,1458.5 1153.2,1430.3 1112.9,1400.9 1071.5,1370.4 1028.8,1339.0 984.6,1306.7 938.6,1273.6 890.5,1239.9 840.1,1205.6 787.1,1171.1 731.2,1136.5 672.1,1101.9 609.6,1067.7 543.2,1034.0  Z" style="stroke-width: 2.0;  stroke: rgb(82,82,82); fill: rgb(251,106,74); opacity: 0.667;"/>
<path d="M 1114.585,507.990 A 1064.250,1064.250 0.00 0,1 1475.9,436.0 L 1475.9,436.0 1478.8,510.4 1483.8,581.4 1490.6,649.3 1498.8,714.2 1508.1,776.5 1518.3,836.2 1529.1,893.5 1540.2,948.8 1551.5,1002.0 1562.6,1053.5 1573.6,1103.3 1584.1,1151.8 1594.0,1199.0 1603.3,1245.2 1611.8,1290.6 1619.4,1335.2 1626.0,1379.3 1631.7,1423.1 1636.3,1466.7 1640.0,1510.3 1642.6,1554.1 1644.3,1598.2 1645.0,1642.8 1644.9,1688.0 1644.1,1734.1 1642.6,1781.2 1640.6,1829.5 1638.2,1879.0 1635.7,1930.0 1633.2,1982.6 1630.9,2037.0 1629.1,2093.3 1628.0,2151.6 1627.8,2212.2 1628.9,2275.1 1631.6,2340.6 1636.2,2408.6 1643.0,2479.5 1652.5,2553.3  A 1064.250,1064.250 0.00 0,0 1996.5,2441.3 L 1996.5,2441.3 1962.9,2375.0 1932.7,2310.5 1905.6,2247.9 1881.1,2187.1 1859.0,2128.2 1838.8,2071.0 1820.3,2015.6 1803.1,1962.0 1787.0,1909.9 1771.7,1859.5 1757.0,1810.6 1742.5,1763.2 1728.2,1717.0 1713.7,1672.2 1699.0,1628.5 1683.8,1585.8 1668.1,1544.0 1651.6,1503.1 1634.4,1462.8 1616.2,1422.9 1597.1,1383.5 1576.9,1344.2 1555.7,1304.9 1533.4,1265.5 1510.1,1225.7 1485.7,1185.4 1460.2,1144.4 1433.9,1102.3 1406.6,1059.1 1378.6,1014.5 1349.8,968.3 1320.5,920.1 1290.9,869.8 1260.9,817.2 1230.9,761.8 1201.1,703.5 1171.6,642.0 1142.6,576.9 1114.6,508.0  Z" style="stroke-width: 2.0;  stroke: rgb(82,82,82); fill: rgb(116,196,118); opacity: 0.667;"/>
<path d="M 472.623,1777.712 A 1064.250,1064.250 0.00 0,1 436.7,1455.9 L 436.7,1455.9 510.9,1460.2 581.8,1466.5 649.6,1474.6 714.4,1484.0 776.5,1494.5 836.0,1505.8 893.2,1517.6 948.2,1529.8 1001.3,1542.0 1052.6,1554.1 1102.3,1566.0 1150.5,1577.4 1197.6,1588.1 1243.6,1598.2 1288.8,1607.5 1333.3,1615.8 1377.3,1623.2 1421.0,1629.6 1464.5,1635.0 1508.1,1639.4 1551.8,1642.7 1595.9,1645.0 1640.5,1646.5 1685.8,1647.1 1731.9,1646.9 1779.0,1646.2 1827.3,1644.9 1876.9,1643.3 1927.9,1641.5 1980.6,1639.7 2035.0,1638.2 2091.3,1637.1 2149.7,1636.8 2210.3,1637.5 2273.2,1639.5 2338.7,1643.1 2406.7,1648.6 2477.4,1656.4 2551.1,1666.9  A 1064.250,1064.250 0.00 0,0 2552.5,1342.5 L 2552.5,1342.5 2479.2,1354.7 2409.3,1368.6 2342.8,1383.8 2279.3,1400.1 2218.7,1417.2 2160.8,1434.8 2105.2,1452.7 2051.8,1470.6 2000.3,1488.5 1950.6,1506.0 1902.5,1523.1 1855.7,1539.6 1810.1,1555.3 1765.4,1570.2 1721.4,1584.3 1678.1,1597.3 1635.1,1609.4 1592.3,1620.4 1549.6,1630.4 1506.8,1639.4 1463.7,1647.3 1420.1,1654.4 1375.9,1660.6 1330.9,1666.0 1285.1,1670.7 1238.1,1675.0 1190.0,1678.8 1140.5,1682.5 1089.6,1686.2 1037.0,1690.0 982.7,1694.3 926.6,1699.3 868.5,1705.2 808.3,1712.3 746.0,1720.9 681.3,1731.5 614.3,1744.2 544.7,1759.5 472.6,1777.7  Z" style="stroke-width: 2.0;  stroke: rgb(82,82,82); fill: rgb(107,174,214); opacity: 0.667;"/>
<path d="M 953.384,2413.148 A 1064.250,1064.250 0.00 0,1 725.4,2229.8 L 725.4,2229.8 779.8,2180.0 832.3,2134.6 882.9,2093.3 931.8,2055.8 979.0,2021.7 1024.7,1990.9 1068.9,1963.0 1111.8,1937.9 1153.5,1915.2 1194.0,1894.7 1233.5,1876.4 1272.1,1859.9 1309.9,1845.2 1347.0,1832.0 1383.6,1820.3 1419.7,1810.0 1455.6,1800.9 1491.3,1793.0 1527.0,1786.2 1562.7,1780.6 1598.7,1776.0 1635.1,1772.5 1672.0,1770.0 1709.6,1768.7 1748.0,1768.5 1787.4,1769.6 1827.9,1772.0 1869.7,1775.7 1912.9,1781.0 1957.8,1787.9 2004.4,1796.7 2053.0,1807.4 2103.7,1820.2 2156.6,1835.4 2212.1,1853.2 2270.1,1873.8 2331.0,1897.5 2394.9,1924.5 2462.0,1955.1  A 1064.250,1064.250 0.00 0,0 2550.0,1673.7 L 2550.0,1673.7 2477.0,1662.7 2408.2,1654.3 2343.1,1648.2 2281.6,1644.4 2223.4,1642.5 2168.3,1642.4 2116.0,1643.9 2066.4,1646.9 2019.1,1651.3 1974.1,1657.0 1931.0,1663.8 1889.8,1671.6 1850.1,1680.4 1812.0,1690.2 1775.0,1700.9 1739.2,1712.5 1704.4,1724.9 1670.3,1738.3 1636.9,1752.5 1604.0,1767.7 1571.5,1784.0 1539.3,1801.3 1507.3,1819.9 1475.3,1839.7 1443.3,1860.9 1411.1,1883.7 1378.8,1908.3 1346.1,1934.6 1313.1,1963.1 1279.7,1993.8 1245.7,2027.0 1211.3,2062.9 1176.3,2101.8 1140.7,2143.9 1104.6,2189.5 1067.7,2238.9 1030.3,2292.4 992.1,2350.4 953.4,2413.1  Z" style="stroke-width: 2.0;  stroke: rgb(82,82,82); fill: rgb(253,141,60); opacity: 0.667;"/>
<path d="M 1516.669,2564.119 A 1064.250,1064.250 0.00 0,1 1226.4,2528.5 L 1226.4,2528.5 1246.7,2456.9 1268.2,2389.1 1290.8,2324.7 1314.0,2263.6 1337.7,2205.3 1361.7,2149.8 1385.6,2096.6 1409.5,2045.7 1433.0,1996.7 1456.0,1949.4 1478.4,1903.6 1500.1,1859.0 1521.0,1815.6 1541.0,1773.0 1560.1,1731.0 1578.1,1689.5 1595.2,1648.3 1611.2,1607.3 1626.3,1566.1 1640.4,1524.7 1653.6,1482.9 1665.9,1440.5 1677.6,1397.5 1688.6,1353.6 1699.1,1308.8 1709.2,1262.8 1719.2,1215.6 1729.1,1167.1 1739.3,1117.1 1749.9,1065.6 1761.2,1012.4 1773.4,957.5 1786.8,900.8 1801.8,842.1 1818.5,781.5 1837.4,718.9 1858.9,654.2 1883.2,587.3 1910.8,518.2  A 1064.250,1064.250 0.00 0,0 1634.3,444.3 L 1634.3,444.3 1626.1,518.2 1620.5,589.1 1617.1,657.2 1615.6,722.6 1615.6,785.4 1616.8,845.9 1619.0,904.1 1621.9,960.3 1625.2,1014.5 1628.8,1067.0 1632.3,1117.8 1635.7,1167.2 1638.7,1215.3 1641.2,1262.3 1643.2,1308.3 1644.3,1353.6 1644.7,1398.1 1644.2,1442.2 1642.7,1486.0 1640.3,1529.7 1636.9,1573.4 1632.5,1617.3 1627.2,1661.5 1621.1,1706.3 1614.1,1751.8 1606.4,1798.3 1598.0,1845.7 1589.2,1894.5 1580.1,1944.6 1570.8,1996.3 1561.5,2049.9 1552.4,2105.4 1543.7,2163.0 1535.8,2222.9 1528.9,2285.4 1523.1,2350.6 1519.0,2418.6 1516.7,2489.7 1516.7,2564.1  Z" style="stroke-width: 2.0;  stroke: rgb(82,82,82); fill: rgb(255,0,0); opacity: 0.667;"/>
<path d="M 665.408,2160.367 A 1064.250,1064.250 0.00 0,1 531.1,1940.3 L 531.1,1940.3 599.3,1910.7 665.5,1884.3 729.5,1861.0 791.6,1840.1 851.7,1821.5 909.9,1804.8 966.2,1789.6 1020.7,1775.7 1073.5,1762.8 1124.7,1750.6 1174.4,1738.9 1222.6,1727.4 1269.5,1715.9 1315.1,1704.3 1359.6,1692.3 1403.1,1679.9 1445.8,1666.9 1487.7,1653.1 1529.1,1638.6 1570.0,1623.1 1610.6,1606.6 1651.1,1589.2 1691.7,1570.7 1732.6,1551.2 1773.8,1530.7 1815.7,1509.2 1858.4,1486.7 1902.2,1463.4 1947.2,1439.4 1993.6,1414.6 2041.8,1389.3 2091.8,1363.7 2144.1,1337.7 2198.8,1311.7 2256.1,1285.9 2316.4,1260.4 2379.9,1235.5 2446.9,1211.5 2517.7,1188.6  A 1064.250,1064.250 0.00 0,0 2415.2,956.9 L 2415.2,956.9 2351.9,995.8 2292.5,1035.0 2236.7,1074.2 2184.1,1113.2 2134.5,1151.9 2087.6,1190.1 2042.9,1227.6 2000.4,1264.4 1959.6,1300.4 1920.3,1335.4 1882.3,1369.4 1845.4,1402.4 1809.2,1434.3 1773.6,1465.2 1738.4,1494.9 1703.4,1523.5 1668.4,1551.1 1633.2,1577.7 1597.6,1603.4 1561.6,1628.1 1524.9,1652.2 1487.5,1675.5 1449.2,1698.4 1409.9,1720.8 1369.6,1743.1 1328.1,1765.3 1285.3,1787.6 1241.3,1810.3 1195.9,1833.6 1149.2,1857.8 1101.0,1883.0 1051.4,1909.6 1000.4,1937.8 948.0,1968.0 894.1,2000.5 838.9,2035.6 782.3,2073.7 724.5,2115.2 665.4,2160.4  Z" style="stroke-width: 2.0;  stroke: rgb(82,82,82); fill: rgb(255,0,204); opacity: 0.667;"/>
<path d="M 1195.053,2519.625 A 1064.250,1064.250 0.00 0,1 957.5,2415.6 L 957.5,2415.6 996.4,2352.2 1035.6,2292.7 1074.8,2236.8 1113.8,2184.0 1152.5,2134.2 1190.7,2087.0 1228.2,2042.2 1265.0,1999.3 1300.9,1958.2 1335.8,1918.6 1369.7,1880.3 1402.5,1842.9 1434.1,1806.3 1464.6,1770.3 1494.0,1734.7 1522.2,1699.2 1549.2,1663.6 1575.2,1627.9 1600.1,1591.8 1624.1,1555.1 1647.3,1517.8 1669.6,1479.8 1691.4,1440.8 1712.7,1400.7 1733.7,1359.6 1754.5,1317.2 1775.4,1273.6 1796.5,1228.6 1818.2,1182.2 1840.5,1134.4 1863.8,1085.1 1888.4,1034.3 1914.6,981.9 1942.6,928.1 1972.8,872.7 2005.6,815.9 2041.2,757.6 2080.1,697.9 2122.6,636.9  A 1064.250,1064.250 0.00 0,0 1910.9,518.3 L 1910.9,518.3 1883.3,587.3 1858.9,654.3 1837.4,719.1 1818.5,781.8 1801.6,842.5 1786.6,901.2 1773.1,958.1 1760.7,1013.1 1749.2,1066.4 1738.4,1118.0 1728.0,1168.0 1717.7,1216.6 1707.4,1263.8 1696.9,1309.8 1686.0,1354.6 1674.6,1398.5 1662.5,1441.4 1649.5,1483.7 1635.8,1525.3 1621.0,1566.5 1605.3,1607.5 1588.5,1648.3 1570.6,1689.2 1551.6,1730.4 1531.6,1771.9 1510.6,1814.1 1488.6,1857.2 1465.7,1901.2 1442.1,1946.5 1417.7,1993.3 1392.8,2041.8 1367.4,2092.2 1341.9,2144.7 1316.2,2199.7 1290.8,2257.3 1265.6,2317.8 1241.1,2381.5 1217.5,2448.7 1195.1,2519.6  Z" style="stroke-width: 2.0;  stroke: rgb(82,82,82); fill: rgb(255,204,204); opacity: 0.667;"/>
<path d="M 440.446,1400.135 A 1064.250,1064.250 0.00 0,1 473.3,1219.9 L 473.3,1219.9 544.9,1238.3 613.0,1253.6 677.8,1266.2 739.6,1276.2 798.6,1284.0 854.9,1289.8 908.8,1293.8 960.4,1296.2 1010.0,1297.2 1057.7,1296.9 1103.7,1295.5 1148.2,1293.2 1191.4,1289.9 1233.4,1286.0 1274.4,1281.3 1314.6,1276.0 1354.2,1270.1 1393.2,1263.6 1431.9,1256.6 1470.4,1249.0 1508.9,1240.7 1547.4,1231.9 1586.2,1222.3 1625.4,1211.9 1665.2,1200.6 1705.5,1188.3 1746.7,1174.9 1788.7,1160.2 1831.8,1143.9 1876.0,1126.0 1921.5,1106.3 1968.3,1084.4 2016.6,1060.3 2066.5,1033.5 2118.1,1003.8 2171.4,971.0 2226.6,934.8 2283.8,894.7 2343.0,850.4  A 1064.250,1064.250 0.00 0,0 2230.0,725.6 L 2230.0,725.6 2178.5,778.6 2128.3,827.2 2079.5,871.8 2032.0,912.6 1985.7,950.0 1940.6,984.4 1896.6,1016.0 1853.7,1045.0 1811.9,1071.8 1771.0,1096.5 1730.9,1119.4 1691.7,1140.8 1653.1,1160.7 1615.1,1179.4 1577.6,1196.9 1540.5,1213.6 1503.6,1229.4 1466.9,1244.5 1430.2,1258.9 1393.3,1272.8 1356.2,1286.2 1318.6,1299.1 1280.5,1311.6 1241.6,1323.6 1201.9,1335.1 1161.0,1346.2 1118.9,1356.7 1075.3,1366.6 1030.1,1375.8 983.0,1384.2 933.9,1391.7 882.6,1398.2 828.7,1403.5 772.2,1407.5 712.7,1409.9 650.0,1410.6 583.9,1409.4 514.1,1406.0 440.4,1400.1  Z" style="stroke-width: 2.0;  stroke: rgb(82,82,82); fill: rgb(255,153,0); opacity: 0.667;"/>
<path d="M 532.197,1942.703 A 1064.250,1064.250 0.00 0,1 490.1,1835.8 L 490.1,1835.8 561.0,1813.5 629.5,1794.3 695.6,1777.8 759.4,1763.7 820.9,1751.6 880.4,1741.3 937.8,1732.3 993.3,1724.4 1047.1,1717.4 1099.1,1710.9 1149.6,1704.8 1198.6,1698.8 1246.3,1692.8 1292.9,1686.5 1338.4,1679.9 1383.0,1672.8 1426.8,1665.0 1470.0,1656.5 1512.8,1647.2 1555.2,1637.0 1597.6,1626.0 1640.0,1614.0 1682.6,1601.1 1725.6,1587.2 1769.1,1572.6 1813.4,1557.1 1858.7,1540.8 1905.2,1524.0 1952.9,1506.6 2002.3,1488.8 2053.4,1470.7 2106.4,1452.6 2161.7,1434.6 2219.4,1417.0 2279.8,1399.8 2343.0,1383.5 2409.4,1368.3 2479.1,1354.4 2552.5,1342.2  A 1064.250,1064.250 0.00 0,0 2531.2,1237.0 L 2531.2,1237.0 2459.5,1256.5 2391.5,1277.3 2327.0,1299.2 2265.8,1321.8 2207.5,1344.9 2151.9,1368.3 2098.7,1391.7 2047.8,1415.1 1998.8,1438.2 1951.6,1460.9 1905.8,1483.1 1861.4,1504.6 1818.1,1525.4 1775.6,1545.3 1733.8,1564.4 1692.4,1582.6 1651.4,1599.8 1610.5,1616.1 1569.6,1631.5 1528.4,1646.0 1486.9,1659.8 1444.8,1672.7 1402.0,1685.1 1358.5,1696.9 1314.0,1708.3 1268.4,1719.4 1221.6,1730.5 1173.5,1741.7 1124.0,1753.1 1073.0,1765.1 1020.3,1777.9 966.0,1791.6 909.9,1806.7 851.9,1823.4 792.0,1842.1 730.2,1862.9 666.3,1886.4 600.3,1912.9 532.2,1942.7  Z" style="stroke-width: 2.0;  stroke: rgb(82,82,82); fill: rgb(255,204,0); opacity: 0.667;"/>
<path d="M 502.319,1129.512 A 1064.250,1064.250 0.00 0,1 543.1,1034.1 L 543.1,1034.1 609.8,1065.5 673.3,1093.2 733.6,1117.6 791.1,1138.8 845.9,1157.2 898.2,1173.0 948.1,1186.3 995.9,1197.4 1041.6,1206.4 1085.6,1213.5 1127.9,1218.9 1168.7,1222.7 1208.2,1225.0 1246.5,1225.8 1283.8,1225.3 1320.2,1223.5 1355.9,1220.4 1391.0,1216.1 1425.7,1210.7 1460.0,1203.9 1494.2,1196.0 1528.3,1186.7 1562.6,1176.1 1597.0,1164.1 1631.7,1150.6 1666.9,1135.4 1702.7,1118.5 1739.1,1099.6 1776.2,1078.7 1814.3,1055.6 1853.3,1030.0 1893.4,1001.7 1934.6,970.6 1977.1,936.4 2021.0,898.7 2066.2,857.4 2113.0,812.1 2161.4,762.6 2211.4,708.4  A 1064.250,1064.250 0.00 0,0 2132.2,643.9 L 2132.2,643.9 2087.7,702.6 2044.3,756.6 2002.1,806.1 1961.0,851.6 1920.9,893.2 1881.9,931.4 1843.8,966.4 1806.6,998.3 1770.2,1027.5 1734.5,1054.2 1699.5,1078.6 1665.1,1100.9 1631.1,1121.2 1597.5,1139.7 1564.2,1156.5 1531.1,1171.8 1498.1,1185.6 1465.0,1198.1 1431.7,1209.4 1398.1,1219.4 1364.1,1228.2 1329.6,1235.8 1294.3,1242.3 1258.2,1247.7 1221.2,1251.8 1182.9,1254.7 1143.4,1256.3 1102.4,1256.5 1059.7,1255.3 1015.3,1252.4 968.8,1247.9 920.2,1241.5 869.2,1233.1 815.6,1222.5 759.3,1209.6 700.1,1194.0 637.6,1175.7 571.8,1154.2 502.3,1129.5  Z" style="stroke-width: 2.0;  stroke: rgb(82,82,82); fill: rgb(255,255,0); opacity: 0.667;"/>
<path d="M 719.996,2224.031 A 1064.250,1064.250 0.00 0,1 662.6,2156.8 L 662.6,2156.8 721.9,2111.9 779.9,2070.7 836.6,2032.8 892.0,1997.9 946.0,1965.7 998.6,1935.7 1049.7,1907.6 1099.4,1881.2 1147.7,1856.2 1194.5,1832.3 1240.0,1809.1 1284.1,1786.6 1327.0,1764.4 1368.6,1742.4 1409.0,1720.3 1448.4,1697.9 1486.8,1675.2 1524.3,1652.0 1561.0,1628.1 1597.1,1603.4 1632.8,1577.9 1668.0,1551.4 1703.2,1523.9 1738.3,1495.4 1773.6,1465.7 1809.2,1435.0 1845.5,1403.2 1882.5,1370.3 1920.6,1336.3 1960.0,1301.4 2000.8,1265.5 2043.5,1228.8 2088.2,1191.4 2135.3,1153.3 2185.0,1114.8 2237.6,1075.9 2293.5,1036.8 2353.0,997.7 2416.4,958.9  A 1064.250,1064.250 0.00 0,0 2371.4,889.0 L 2371.4,889.0 2311.2,932.7 2254.9,976.2 2202.2,1019.5 2152.8,1062.4 2106.3,1104.7 2062.4,1146.3 2020.8,1187.2 1981.1,1227.1 1943.2,1266.0 1906.7,1303.9 1871.5,1340.8 1837.1,1376.5 1803.5,1411.1 1770.4,1444.5 1737.6,1476.9 1704.9,1508.1 1672.1,1538.3 1639.0,1567.5 1605.6,1595.8 1571.6,1623.3 1536.9,1650.1 1501.4,1676.3 1465.0,1702.0 1427.6,1727.5 1389.1,1752.8 1349.5,1778.2 1308.6,1803.8 1266.5,1829.9 1223.1,1856.7 1178.4,1884.4 1132.4,1913.3 1085.0,1943.7 1036.4,1975.8 986.5,2010.1 935.4,2046.7 883.1,2086.0 829.7,2128.4 775.3,2174.3 720.0,2224.0  Z" style="stroke-width: 2.0;  stroke: rgb(82,82,82); fill: rgb(204,255,0); opacity: 0.667;"/>
<path d="M 887.320,629.798 A 1064.250,1064.250 0.00 0,1 960.4,582.7 L 960.4,582.7 997.9,645.6 1033.3,703.5 1066.7,756.6 1098.3,805.1 1128.1,849.4 1156.3,889.5 1182.9,925.7 1208.0,958.2 1231.8,987.2 1254.3,1012.8 1275.5,1035.2 1295.7,1054.5 1314.8,1070.8 1333.0,1084.1 1350.2,1094.7 1366.7,1102.5 1382.3,1107.6 1397.3,1110.0 1411.7,1109.8 1425.4,1107.0 1438.7,1101.4 1451.4,1093.2 1463.8,1082.3 1475.8,1068.6 1487.4,1052.0 1498.7,1032.5 1509.7,1010.0 1520.5,984.3 1531.1,955.3 1541.5,922.8 1551.7,886.8 1561.8,846.9 1571.8,803.1 1581.6,755.1 1591.3,702.6 1600.9,645.5 1610.4,583.5 1619.8,516.3 1629.1,443.6  A 1064.250,1064.250 0.00 0,0 1551.3,437.0 L 1551.3,437.0 1547.4,510.2 1542.9,577.9 1538.0,640.4 1532.5,698.1 1526.7,751.1 1520.3,799.8 1513.6,844.2 1506.4,884.7 1498.7,921.5 1490.7,954.6 1482.2,984.4 1473.2,1010.9 1463.7,1034.2 1453.8,1054.6 1443.3,1072.0 1432.3,1086.6 1420.6,1098.5 1408.4,1107.7 1395.4,1114.3 1381.7,1118.2 1367.3,1119.6 1352.0,1118.4 1335.8,1114.6 1318.6,1108.2 1300.5,1099.1 1281.2,1087.2 1260.7,1072.6 1238.9,1055.0 1215.8,1034.5 1191.2,1010.8 1165.1,983.8 1137.3,953.5 1107.8,919.5 1076.4,881.9 1043.0,840.2 1007.6,794.4 969.9,744.3 929.8,689.5 887.3,629.8  Z" style="stroke-width: 2.0;  stroke: rgb(82,82,82); fill: rgb(0,255,0); opacity: 0.667;"/>
<path d="M 1632.308,2555.994 A 1064.250,1064.250 0.00 0,1 1580.2,2561.2 L 1580.2,2561.2 1575.8,2487.0 1573.9,2415.8 1573.9,2347.6 1575.7,2282.1 1578.9,2219.3 1583.2,2158.9 1588.3,2100.8 1594.0,2044.7 1600.0,1990.7 1606.1,1938.3 1612.1,1887.7 1617.9,1838.4 1623.2,1790.4 1627.9,1743.6 1631.9,1697.6 1635.1,1652.5 1637.5,1607.9 1638.9,1563.8 1639.3,1520.0 1638.7,1476.2 1637.1,1432.4 1634.5,1388.4 1630.9,1343.9 1626.5,1298.8 1621.2,1253.0 1615.2,1206.3 1608.6,1158.5 1601.5,1109.4 1594.1,1058.9 1586.6,1006.8 1579.1,952.9 1571.9,897.1 1565.2,839.1 1559.3,778.8 1554.4,716.1 1550.8,650.7 1548.9,582.5 1548.9,511.3 1551.3,437.0  A 1064.250,1064.250 0.00 0,0 1500.1,435.8 L 1500.1,435.8 1501.3,510.1 1504.7,581.2 1509.9,649.2 1516.6,714.4 1524.5,776.8 1533.3,836.7 1542.8,894.3 1552.7,949.7 1562.8,1003.2 1572.8,1054.9 1582.6,1105.0 1592.1,1153.6 1601.0,1201.1 1609.2,1247.4 1616.7,1292.9 1623.3,1337.7 1629.1,1381.9 1633.8,1425.8 1637.5,1469.5 1640.2,1513.2 1642.0,1557.0 1642.7,1601.1 1642.6,1645.7 1641.5,1691.0 1639.8,1737.0 1637.3,1784.1 1634.4,1832.2 1631.1,1881.7 1627.6,1932.6 1624.0,1985.2 1620.7,2039.5 1617.8,2095.7 1615.5,2154.0 1614.2,2214.6 1614.1,2277.5 1615.5,2342.9 1618.8,2411.1 1624.3,2482.0 1632.3,2556.0  Z" style="stroke-width: 2.0;  stroke: rgb(82,82,82); fill: rgb(53,128,0); opacity: 0.667;"/>
<path d="M 1579.375,2561.286 A 1064.250,1064.250 0.00 0,1 1531.9,2563.8 L 1531.9,2563.8 1530.0,2490.6 1529.0,2422.8 1528.6,2360.2 1529.0,2302.5 1530.1,2249.4 1531.8,2200.8 1534.2,2156.3 1537.2,2115.9 1540.9,2079.2 1545.1,2046.1 1550.0,2016.6 1555.4,1990.3 1561.5,1967.2 1568.2,1947.1 1575.5,1930.1 1583.5,1915.8 1592.1,1904.4 1601.5,1895.8 1611.7,1889.8 1622.6,1886.5 1634.3,1885.9 1646.9,1887.9 1660.5,1892.6 1675.0,1900.0 1690.5,1910.2 1707.2,1923.2 1725.0,1939.1 1744.1,1958.0 1764.5,1980.0 1786.3,2005.1 1809.6,2033.7 1834.5,2065.7 1861.1,2101.4 1889.4,2141.0 1919.7,2184.6 1951.9,2232.5 1986.3,2284.8 2022.8,2341.9 2061.8,2403.9  A 1064.250,1064.250 0.00 0,0 2098.1,2380.3 L 2098.1,2380.3 2056.6,2319.9 2017.8,2264.4 1981.3,2213.5 1947.2,2167.0 1915.2,2124.6 1885.3,2086.2 1857.3,2051.6 1831.2,2020.6 1806.8,1993.0 1784.0,1968.8 1762.8,1947.6 1743.0,1929.5 1724.6,1914.4 1707.5,1902.0 1691.6,1892.5 1676.8,1885.7 1663.2,1881.5 1650.6,1880.0 1639.0,1881.1 1628.3,1884.8 1618.5,1891.2 1609.6,1900.2 1601.5,1912.0 1594.2,1926.5 1587.7,1943.8 1581.9,1964.1 1577.0,1987.4 1572.7,2013.9 1569.3,2043.7 1566.5,2076.9 1564.6,2113.6 1563.4,2154.2 1563.0,2198.7 1563.5,2247.3 1564.8,2300.4 1567.0,2358.0 1570.1,2420.6 1574.2,2488.2 1579.4,2561.3  Z" style="stroke-width: 2.0;  stroke: rgb(82,82,82); fill: rgb(0,0,204); opacity: 0.667;"/>
<path d="M 982.597,569.988 A 1064.250,1064.250 0.00 0,1 1013.4,553.5 L 1013.4,553.5 1048.5,619.1 1084.1,681.0 1119.9,739.3 1155.8,794.5 1191.5,846.8 1226.8,896.5 1261.5,943.9 1295.6,989.2 1328.8,1032.8 1361.2,1074.9 1392.5,1115.7 1422.6,1155.4 1451.7,1194.3 1479.5,1232.7 1506.0,1270.6 1531.3,1308.3 1555.4,1346.0 1578.2,1383.9 1599.9,1422.1 1620.4,1460.8 1640.0,1500.2 1658.6,1540.3 1676.4,1581.4 1693.5,1623.5 1710.0,1666.7 1726.2,1711.2 1742.2,1757.0 1758.2,1804.3 1774.5,1853.0 1791.3,1903.4 1808.8,1955.3 1827.3,2008.9 1847.1,2064.3 1868.5,2121.4 1891.9,2180.2 1917.5,2240.8 1945.8,2303.1 1977.1,2367.2 2011.9,2433.1  A 1064.250,1064.250 0.00 0,0 2035.5,2419.7 L 2035.5,2419.7 1999.1,2354.8 1966.1,2291.5 1936.3,2229.9 1909.1,2169.9 1884.2,2111.7 1861.3,2055.2 1840.0,2000.3 1820.1,1947.2 1801.3,1895.7 1783.2,1845.8 1765.6,1797.4 1748.3,1750.6 1731.1,1705.2 1713.7,1661.1 1695.9,1618.4 1677.6,1576.8 1658.7,1536.2 1639.0,1496.6 1618.3,1457.9 1596.6,1419.8 1573.8,1382.2 1549.9,1345.0 1524.7,1308.1 1498.2,1271.1 1470.5,1234.0 1441.5,1196.6 1411.3,1158.6 1379.9,1119.8 1347.3,1080.0 1313.6,1039.0 1279.0,996.4 1243.4,952.2 1207.1,905.9 1170.2,857.4 1132.8,806.2 1095.2,752.3 1057.4,695.1 1019.8,634.5 982.6,570.0  Z" style="stroke-width: 2.0;  stroke: rgb(82,82,82); fill: rgb(102,153,255); opacity: 0.667;"/>
<path d="M 481.983,1810.273 A 1064.250,1064.250 0.00 0,1 473.1,1779.4 L 473.1,1779.4 544.6,1758.7 612.5,1736.7 677.1,1713.7 738.6,1690.1 797.2,1666.1 853.3,1641.9 907.0,1617.8 958.5,1593.9 1008.2,1570.5 1056.2,1547.7 1102.7,1525.7 1148.0,1504.6 1192.2,1484.4 1235.6,1465.4 1278.4,1447.6 1320.7,1430.9 1362.7,1415.6 1404.6,1401.4 1446.6,1388.6 1488.9,1377.0 1531.6,1366.5 1574.8,1357.2 1618.8,1349.0 1663.7,1341.6 1709.5,1335.1 1756.6,1329.3 1804.9,1324.0 1854.6,1319.0 1905.8,1314.1 1958.7,1309.2 2013.4,1303.9 2069.9,1298.0 2128.4,1291.3 2188.9,1283.5 2251.6,1274.1 2316.5,1263.0 2383.7,1249.7 2453.3,1233.8 2525.4,1215.1  A 1064.250,1064.250 0.00 0,0 2517.8,1189.0 L 2517.8,1189.0 2446.2,1209.6 2377.0,1227.2 2310.2,1242.2 2245.6,1255.0 2183.1,1266.0 2122.8,1275.4 2064.5,1283.6 2008.1,1290.9 1953.6,1297.6 1900.8,1303.9 1849.7,1310.1 1800.1,1316.4 1752.0,1323.1 1705.1,1330.1 1659.4,1337.9 1614.8,1346.4 1571.0,1355.9 1528.1,1366.4 1485.7,1378.0 1443.8,1390.8 1402.1,1404.8 1360.6,1420.1 1319.0,1436.7 1277.2,1454.5 1235.0,1473.6 1192.2,1493.9 1148.5,1515.3 1103.9,1537.8 1058.0,1561.2 1010.7,1585.4 961.7,1610.3 910.9,1635.7 857.9,1661.4 802.6,1687.3 744.7,1713.1 683.9,1738.5 620.1,1763.4 552.8,1787.4 482.0,1810.3  Z" style="stroke-width: 2.0;  stroke: rgb(82,82,82); fill: rgb(153,204,255); opacity: 0.667;"/>
<path d="M 1047.971,536.518 A 1064.250,1064.250 0.00 0,1 1072.9,525.2 L 1072.9,525.2 1103.6,592.6 1134.8,655.5 1166.2,714.4 1197.7,769.5 1229.3,821.3 1260.8,869.9 1292.1,915.7 1323.2,958.9 1354.1,999.9 1384.6,1038.9 1414.8,1076.1 1444.7,1111.8 1474.2,1146.1 1503.3,1179.3 1532.2,1211.7 1560.8,1243.2 1589.2,1274.2 1617.5,1304.8 1645.7,1335.1 1674.0,1365.3 1702.4,1395.4 1731.1,1425.6 1760.2,1455.9 1789.8,1486.5 1820.2,1517.4 1851.5,1548.7 1883.8,1580.4 1917.5,1612.5 1952.7,1645.0 1989.6,1678.0 2028.5,1711.5 2069.7,1745.3 2113.3,1779.5 2159.8,1814.1 2209.3,1849.0 2262.3,1884.0 2319.0,1919.1 2379.8,1954.3 2445.1,1989.4  A 1064.250,1064.250 0.00 0,0 2457.3,1964.9 L 2457.3,1964.9 2391.2,1931.6 2329.5,1898.0 2271.9,1864.3 2218.1,1830.6 2167.6,1797.1 2120.3,1763.7 2075.8,1730.6 2033.8,1697.8 1994.0,1665.4 1956.3,1633.3 1920.3,1601.7 1885.8,1570.5 1852.6,1539.7 1820.5,1509.2 1789.4,1479.1 1759.0,1449.3 1729.1,1419.7 1699.6,1390.2 1670.5,1360.8 1641.4,1331.4 1612.5,1301.8 1583.4,1272.0 1554.2,1241.7 1524.8,1210.9 1495.1,1179.4 1465.1,1146.9 1434.7,1113.3 1403.9,1078.4 1372.8,1042.0 1341.3,1003.8 1309.4,963.6 1277.2,921.2 1244.7,876.2 1211.9,828.4 1179.1,777.5 1146.1,723.2 1113.2,665.2 1080.5,603.1 1048.0,536.5  Z" style="stroke-width: 2.0;  stroke: rgb(82,82,82); fill: rgb(0,255,255); opacity: 0.667;"/>
<path d="M 960.434,582.669 A 1064.250,1064.250 0.00 0,1 981.8,570.4 L 981.8,570.4 1019.1,634.9 1056.7,695.5 1094.5,752.6 1132.2,806.6 1169.6,857.7 1206.6,906.2 1242.9,952.4 1278.5,996.7 1313.2,1039.1 1346.9,1080.1 1379.5,1119.9 1411.0,1158.7 1441.3,1196.7 1470.3,1234.1 1498.0,1271.2 1524.5,1308.1 1549.7,1345.1 1573.7,1382.3 1596.5,1419.8 1618.2,1457.9 1638.9,1496.6 1658.6,1536.2 1677.6,1576.8 1695.8,1618.4 1713.6,1661.1 1731.0,1705.2 1748.3,1750.6 1765.6,1797.4 1783.1,1845.7 1801.2,1895.6 1820.1,1947.1 1840.0,2000.3 1861.3,2055.1 1884.2,2111.7 1909.0,2169.9 1936.2,2229.8 1966.1,2291.5 1999.1,2354.8 2035.5,2419.7  A 1064.250,1064.250 0.00 0,0 2061.1,2404.3 L 2061.1,2404.3 2022.9,2340.4 1988.2,2278.1 1956.6,2217.3 1927.7,2158.2 1901.2,2100.7 1876.8,2044.8 1854.0,1990.6 1832.6,1938.1 1812.4,1887.1 1792.9,1837.8 1774.0,1789.9 1755.5,1743.6 1737.0,1698.7 1718.4,1655.1 1699.5,1612.9 1680.1,1571.8 1660.1,1531.8 1639.4,1492.7 1617.7,1454.5 1595.0,1417.0 1571.3,1380.0 1546.4,1343.5 1520.2,1307.1 1492.9,1270.9 1464.2,1234.5 1434.3,1197.8 1403.2,1160.6 1370.8,1122.6 1337.2,1083.6 1302.6,1043.4 1266.9,1001.8 1230.3,958.4 1192.9,913.0 1154.9,865.4 1116.3,815.2 1077.3,762.2 1038.3,705.9 999.2,646.2 960.4,582.7  Z" style="stroke-width: 2.0;  stroke: rgb(82,82,82); fill: rgb(204,255,255); opacity: 0.667;"/>
<path d="M 436.845,1451.738 A 1064.250,1064.250 0.00 0,1 438.5,1423.6 L 438.5,1423.6 512.4,1427.8 582.6,1429.6 649.3,1429.2 712.8,1427.0 773.2,1423.2 830.8,1418.0 885.9,1411.6 938.6,1404.2 989.2,1396.0 1037.8,1387.1 1084.7,1377.7 1130.1,1367.9 1174.2,1357.7 1217.1,1347.3 1259.1,1336.7 1300.2,1326.0 1340.8,1315.2 1380.9,1304.3 1420.8,1293.4 1460.5,1282.2 1500.3,1271.0 1540.3,1259.5 1580.5,1247.7 1621.3,1235.4 1662.6,1222.7 1704.7,1209.3 1747.7,1195.2 1791.6,1180.0 1836.6,1163.8 1882.8,1146.1 1930.3,1126.9 1979.2,1105.9 2029.6,1082.8 2081.5,1057.3 2135.2,1029.2 2190.6,998.2 2247.8,963.9 2306.9,926.0 2367.9,884.1  A 1064.250,1064.250 0.00 0,0 2352.8,863.3 L 2352.8,863.3 2292.7,906.6 2234.6,946.0 2178.2,981.7 2123.6,1014.0 2070.6,1043.4 2019.3,1070.1 1969.5,1094.4 1921.1,1116.6 1874.0,1137.0 1828.3,1155.8 1783.7,1173.2 1740.1,1189.4 1697.5,1204.6 1655.8,1219.0 1614.7,1232.8 1574.3,1246.0 1534.3,1258.8 1494.6,1271.3 1455.1,1283.6 1415.7,1295.7 1376.1,1307.7 1336.2,1319.7 1295.9,1331.5 1255.0,1343.3 1213.4,1354.9 1170.7,1366.4 1126.9,1377.7 1081.8,1388.8 1035.1,1399.4 986.7,1409.6 936.3,1419.1 883.8,1427.9 828.9,1435.7 771.4,1442.5 711.1,1447.9 647.8,1451.7 581.1,1453.9 510.9,1453.9 436.8,1451.7  Z" style="stroke-width: 2.0;  stroke: rgb(82,82,82); fill: rgb(153,0,204); opacity: 0.667;"/>
<path d="M 488.627,1831.289 A 1064.250,1064.250 0.00 0,1 482.3,1811.4 L 482.3,1811.4 553.8,1790.7 622.9,1773.1 689.7,1758.1 754.2,1745.4 816.5,1734.5 876.6,1725.2 934.8,1717.2 991.0,1710.0 1045.3,1703.6 1097.9,1697.6 1148.9,1691.7 1198.4,1685.8 1246.5,1679.7 1293.4,1673.1 1339.1,1665.9 1383.8,1658.0 1427.6,1649.3 1470.8,1639.6 1513.4,1628.9 1555.6,1617.0 1597.5,1604.0 1639.4,1589.9 1681.4,1574.5 1723.7,1558.0 1766.5,1540.4 1809.9,1521.6 1854.2,1501.9 1899.5,1481.2 1946.2,1459.7 1994.2,1437.5 2044.0,1414.7 2095.7,1391.5 2149.6,1368.2 2205.8,1344.9 2264.6,1321.7 2326.4,1299.1 2391.2,1277.2 2459.4,1256.3 2531.2,1236.7  A 1064.250,1064.250 0.00 0,0 2525.8,1216.6 L 2525.8,1216.6 2454.4,1237.6 2386.6,1259.8 2322.3,1283.0 2261.0,1306.8 2202.6,1331.1 2146.9,1355.5 2093.5,1379.9 2042.3,1404.1 1992.9,1427.8 1945.3,1450.9 1899.1,1473.4 1854.2,1494.9 1810.3,1515.6 1767.2,1535.2 1724.8,1553.6 1682.9,1571.0 1641.2,1587.1 1599.6,1602.1 1557.9,1615.9 1515.9,1628.6 1473.5,1640.2 1430.6,1650.7 1386.9,1660.3 1342.4,1669.1 1296.8,1677.1 1250.1,1684.6 1202.1,1691.7 1152.8,1698.6 1101.9,1705.4 1049.4,1712.5 995.2,1720.0 939.1,1728.2 881.2,1737.4 821.2,1747.9 759.1,1760.0 694.9,1774.0 628.5,1790.3 559.7,1809.3 488.6,1831.3  Z" style="stroke-width: 2.0;  stroke: rgb(82,82,82); fill: rgb(204,51,255); opacity: 0.667;"/>
<path d="M 973.107,575.332 A 1064.250,1064.250 0.00 0,1 990.1,565.8 L 990.1,565.8 1026.0,630.0 1060.6,689.0 1094.1,743.2 1126.5,792.8 1157.8,838.3 1188.3,879.7 1217.8,917.4 1246.6,951.6 1274.6,982.4 1302.0,1010.1 1328.8,1034.8 1355.1,1056.7 1381.0,1076.0 1406.5,1092.7 1431.9,1107.0 1457.0,1118.9 1482.1,1128.6 1507.2,1136.1 1532.5,1141.5 1557.9,1144.7 1583.7,1145.8 1609.9,1144.8 1636.7,1141.7 1664.0,1136.4 1692.1,1128.9 1721.0,1119.0 1750.9,1106.9 1781.8,1092.2 1813.9,1074.9 1847.3,1054.9 1882.2,1032.1 1918.5,1006.2 1956.6,977.1 1996.4,944.5 2038.1,908.3 2081.9,868.3 2127.8,824.2 2176.0,775.7 2226.7,722.5  A 1064.250,1064.250 0.00 0,0 2211.5,708.6 L 2211.5,708.6 2161.9,762.7 2114.6,812.1 2069.5,857.1 2026.5,898.0 1985.5,935.0 1946.4,968.3 1908.9,998.2 1873.1,1024.8 1838.7,1048.3 1805.7,1068.9 1773.9,1086.8 1743.3,1102.1 1713.7,1114.8 1685.0,1125.2 1657.0,1133.3 1629.8,1139.1 1603.2,1142.7 1577.0,1144.2 1551.2,1143.6 1525.7,1140.9 1500.4,1136.0 1475.2,1129.0 1449.9,1119.7 1424.6,1108.2 1399.0,1094.4 1373.1,1078.2 1346.9,1059.4 1320.2,1038.0 1293.0,1013.8 1265.1,986.6 1236.6,956.3 1207.2,922.7 1176.9,885.5 1145.8,844.7 1113.6,799.8 1080.3,750.7 1045.8,697.1 1010.1,638.8 973.1,575.3  Z" style="stroke-width: 2.0;  stroke: rgb(82,82,82); fill: rgb(204,153,255); opacity: 0.667;"/>
<path d="M 484.807,1180.608 A 1064.250,1064.250 0.00 0,1 489.9,1164.8 L 489.9,1164.8 559.7,1187.4 624.7,1207.4 685.2,1224.9 741.5,1240.1 793.7,1253.0 842.2,1263.9 887.1,1272.7 928.6,1279.6 966.9,1284.6 1002.2,1287.9 1034.7,1289.5 1064.4,1289.3 1091.6,1287.5 1116.4,1284.1 1138.8,1279.1 1159.1,1272.5 1177.2,1264.2 1193.2,1254.3 1207.4,1242.8 1219.6,1229.5 1229.9,1214.5 1238.5,1197.7 1245.2,1178.9 1250.1,1158.2 1253.3,1135.5 1254.6,1110.5 1254.2,1083.3 1251.9,1053.6 1247.7,1021.4 1241.5,986.5 1233.3,948.7 1223.0,907.9 1210.5,863.9 1195.7,816.4 1178.5,765.4 1158.8,710.6 1136.3,651.7 1111.1,588.6 1082.8,520.9  A 1064.250,1064.250 0.00 0,0 1067.5,527.6 L 1067.5,527.6 1096.8,594.8 1123.1,657.5 1146.5,716.0 1167.1,770.5 1185.1,821.3 1200.6,868.5 1213.8,912.3 1224.7,952.9 1233.5,990.6 1240.2,1025.4 1244.9,1057.5 1247.7,1087.1 1248.6,1114.4 1247.6,1139.4 1244.8,1162.2 1240.2,1183.0 1233.8,1201.8 1225.5,1218.8 1215.4,1233.9 1203.4,1247.4 1189.4,1259.2 1173.5,1269.3 1155.5,1277.8 1135.4,1284.8 1113.1,1290.1 1088.4,1293.9 1061.2,1296.2 1031.4,1296.8 999.0,1295.7 963.6,1293.0 925.2,1288.6 883.6,1282.3 838.6,1274.2 789.9,1264.1 737.5,1252.0 681.0,1237.7 620.2,1221.1 554.9,1202.1 484.8,1180.6  Z" style="stroke-width: 2.0;  stroke: rgb(82,82,82); fill: rgb(102,102,102); opacity: 0.667;"/>
<path d="M 1014.205,553.094 A 1064.250,1064.250 0.00 0,1 1023.7,548.3 L 1023.7,548.3 1058.1,614.3 1093.0,676.5 1128.2,735.3 1163.4,790.8 1198.5,843.5 1233.3,893.6 1267.5,941.3 1301.1,987.1 1333.9,1031.0 1365.8,1073.4 1396.6,1114.5 1426.4,1154.6 1455.0,1193.8 1482.4,1232.4 1508.5,1270.6 1533.4,1308.6 1557.1,1346.6 1579.5,1384.7 1600.8,1423.1 1620.9,1462.1 1640.0,1501.6 1658.2,1541.9 1675.6,1583.2 1692.2,1625.4 1708.3,1668.8 1724.1,1713.5 1739.6,1759.5 1755.1,1806.9 1770.9,1855.8 1787.1,1906.3 1804.1,1958.5 1822.1,2012.3 1841.3,2067.8 1862.1,2125.1 1884.9,2184.2 1909.9,2245.0 1937.6,2307.7 1968.2,2372.1 2002.3,2438.3  A 1064.250,1064.250 0.00 0,0 2011.6,2433.2 L 2011.6,2433.2 1976.8,2367.4 1945.5,2303.3 1917.3,2240.9 1891.7,2180.3 1868.3,2121.5 1846.9,2064.4 1827.1,2009.1 1808.6,1955.4 1791.2,1903.5 1774.4,1853.1 1758.2,1804.4 1742.2,1757.1 1726.2,1711.3 1710.0,1666.8 1693.5,1623.5 1676.4,1581.4 1658.6,1540.4 1640.0,1500.2 1620.5,1460.9 1600.0,1422.1 1578.3,1383.9 1555.5,1346.0 1531.5,1308.3 1506.2,1270.6 1479.7,1232.6 1451.9,1194.3 1422.9,1155.3 1392.8,1115.6 1361.5,1074.8 1329.2,1032.7 1296.0,989.1 1262.0,943.7 1227.3,896.3 1192.0,846.5 1156.4,794.2 1120.6,739.0 1084.8,680.6 1049.3,618.8 1014.2,553.1  Z" style="stroke-width: 2.0;  stroke: rgb(82,82,82); fill: rgb(153,153,153); opacity: 0.667;"/>
</g>
</svg>
