<?xml version="1.0" encoding="utf-8" standalone="no"?>
<!DOCTYPE svg PUBLIC "-//W3C//DTD SVG 1.1//EN" "http://www.w3.org/Graphics/SVG/1.1/DTD/svg11.dtd">
<svg width="3000px" height="3000px" version="1.1" xmlns="http://www.w3.org/2000/svg" xmlns:xlink="http://www.w3.org/1999/xlink">
<g id="ideograms">
<g id="highlighttrack_0">
</g>
<path d="M1500.000,200.000 A1300.000,1300.000 40.000 0,1 1738.323,2777.968 L1747.490,2827.121 A1350.000,1350.000 0.000 0,0 1500.000,150.000 Z" style="stroke-linecap:round;fill:rgb(251,106,74);"/>
<text x="2914.0" y="1369.3" font-size="104.0px" font-family="CMUBright-Roman" style="text-anchor:middle;fill:rgb(0,0,0);" transform="rotate(444.7,2914.0,1369.3)">1</text>
<line x1='1500.0' y1='150.0' x2='1500.0' y2='130.0' style="stroke-width:4.0;stroke:rgb(0,0,0);stroke-linecap:round;fill:none;"/>
<text x="1507.5" y="120.0" font-size="19.5px" font-family="CMUBright-Roman" style="text-anchor:start;fill:rgb(0,0,0);" transform="rotate(270.0,1507.5,120.0)">0</text>
<line x1='1626.2' y1='155.9' x2='1628.1' y2='136.0' style="stroke-width:4.0;stroke:rgb(0,0,0);stroke-linecap:round;fill:none;"/>
<text x="1636.5" y="126.8" font-size="19.5px" font-family="CMUBright-Roman" style="text-anchor:start;fill:rgb(0,0,0);" transform="rotate(275.4,1636.5,126.8)">50</text>
<line x1='1751.4' y1='173.6' x2='1755.1' y2='154.0' style="stroke-width:4.0;stroke:rgb(0,0,0);stroke-linecap:round;fill:none;"/>
<text x="1764.3" y="145.6" font-size="19.5px" font-family="CMUBright-Roman" style="text-anchor:start;fill:rgb(0,0,0);" transform="rotate(280.7,1764.3,145.6)">100</text>
<line x1='1874.3' y1='202.9' x2='1879.9' y2='183.7' style="stroke-width:4.0;stroke:rgb(0,0,0);stroke-linecap:round;fill:none;"/>
<text x="1889.8" y="176.2" font-size="19.5px" font-family="CMUBright-Roman" style="text-anchor:start;fill:rgb(0,0,0);" transform="rotate(286.1,1889.8,176.2)">150</text>
<line x1='1994.0' y1='243.6' x2='2001.3' y2='225.0' style="stroke-width:4.0;stroke:rgb(0,0,0);stroke-linecap:round;fill:none;"/>
<text x="2011.9" y="218.5" font-size="19.5px" font-family="CMUBright-Roman" style="text-anchor:start;fill:rgb(0,0,0);" transform="rotate(291.5,2011.9,218.5)">200</text>
<line x1='2109.3' y1='295.3' x2='2118.3' y2='277.5' style="stroke-width:4.0;stroke:rgb(0,0,0);stroke-linecap:round;fill:none;"/>
<text x="2129.5" y="272.0" font-size="19.5px" font-family="CMUBright-Roman" style="text-anchor:start;fill:rgb(0,0,0);" transform="rotate(296.8,2129.5,272.0)">250</text>
<line x1='2219.3' y1='357.6' x2='2229.9' y2='340.7' style="stroke-width:4.0;stroke:rgb(0,0,0);stroke-linecap:round;fill:none;"/>
<text x="2241.6" y="336.2" font-size="19.5px" font-family="CMUBright-Roman" style="text-anchor:start;fill:rgb(0,0,0);" transform="rotate(302.2,2241.6,336.2)">300</text>
<line x1='2323.0' y1='429.9' x2='2335.2' y2='414.0' style="stroke-width:4.0;stroke:rgb(0,0,0);stroke-linecap:round;fill:none;"/>
<text x="2347.2" y="410.7" font-size="19.5px" font-family="CMUBright-Roman" style="text-anchor:start;fill:rgb(0,0,0);" transform="rotate(307.6,2347.2,410.7)">350</text>
<line x1='2419.4' y1='511.5' x2='2433.1' y2='496.9' style="stroke-width:4.0;stroke:rgb(0,0,0);stroke-linecap:round;fill:none;"/>
<text x="2445.4" y="494.7" font-size="19.5px" font-family="CMUBright-Roman" style="text-anchor:start;fill:rgb(0,0,0);" transform="rotate(312.9,2445.4,494.7)">400</text>
<line x1='2507.9' y1='601.8' x2='2522.8' y2='588.5' style="stroke-width:4.0;stroke:rgb(0,0,0);stroke-linecap:round;fill:none;"/>
<text x="2535.2" y="587.5" font-size="19.5px" font-family="CMUBright-Roman" style="text-anchor:start;fill:rgb(0,0,0);" transform="rotate(318.3,2535.2,587.5)">450</text>
<line x1='2587.4' y1='700.0' x2='2603.5' y2='688.2' style="stroke-width:4.0;stroke:rgb(0,0,0);stroke-linecap:round;fill:none;"/>
<text x="2616.0" y="688.3" font-size="19.5px" font-family="CMUBright-Roman" style="text-anchor:start;fill:rgb(0,0,0);" transform="rotate(323.7,2616.0,688.3)">500</text>
<line x1='2657.5' y1='805.2' x2='2674.6' y2='794.9' style="stroke-width:4.0;stroke:rgb(0,0,0);stroke-linecap:round;fill:none;"/>
<text x="2687.0" y="796.2" font-size="19.5px" font-family="CMUBright-Roman" style="text-anchor:start;fill:rgb(0,0,0);" transform="rotate(329.0,2687.0,796.2)">550</text>
<line x1='2717.4' y1='916.5' x2='2735.4' y2='907.8' style="stroke-width:4.0;stroke:rgb(0,0,0);stroke-linecap:round;fill:none;"/>
<text x="2747.7" y="910.3" font-size="19.5px" font-family="CMUBright-Roman" style="text-anchor:start;fill:rgb(0,0,0);" transform="rotate(334.4,2747.7,910.3)">600</text>
<line x1='2766.6' y1='1032.9' x2='2785.4' y2='1026.0' style="stroke-width:4.0;stroke:rgb(0,0,0);stroke-linecap:round;fill:none;"/>
<text x="2797.3" y="1029.6" font-size="19.5px" font-family="CMUBright-Roman" style="text-anchor:start;fill:rgb(0,0,0);" transform="rotate(339.8,2797.3,1029.6)">650</text>
<line x1='2804.7' y1='1153.4' x2='2824.1' y2='1148.3' style="stroke-width:4.0;stroke:rgb(0,0,0);stroke-linecap:round;fill:none;"/>
<text x="2835.6" y="1152.9" font-size="19.5px" font-family="CMUBright-Roman" style="text-anchor:start;fill:rgb(0,0,0);" transform="rotate(345.1,2835.6,1152.9)">700</text>
<line x1='2831.4' y1='1276.9' x2='2851.2' y2='1273.6' style="stroke-width:4.0;stroke:rgb(0,0,0);stroke-linecap:round;fill:none;"/>
<text x="2862.2" y="1279.4" font-size="19.5px" font-family="CMUBright-Roman" style="text-anchor:start;fill:rgb(0,0,0);" transform="rotate(350.5,2862.2,1279.4)">750</text>
<line x1='2846.5' y1='1402.4' x2='2866.4' y2='1401.0' style="stroke-width:4.0;stroke:rgb(0,0,0);stroke-linecap:round;fill:none;"/>
<text x="2876.9" y="1407.7" font-size="19.5px" font-family="CMUBright-Roman" style="text-anchor:start;fill:rgb(0,0,0);" transform="rotate(355.9,2876.9,1407.7)">800</text>
<line x1='2849.7' y1='1528.8' x2='2869.7' y2='1529.2' style="stroke-width:4.0;stroke:rgb(0,0,0);stroke-linecap:round;fill:none;"/>
<text x="2879.5" y="1536.9" font-size="19.5px" font-family="CMUBright-Roman" style="text-anchor:start;fill:rgb(0,0,0);" transform="rotate(1.2,2879.5,1536.9)">850</text>
<line x1='2841.1' y1='1654.8' x2='2861.0' y2='1657.1' style="stroke-width:4.0;stroke:rgb(0,0,0);stroke-linecap:round;fill:none;"/>
<text x="2870.0" y="1665.7" font-size="19.5px" font-family="CMUBright-Roman" style="text-anchor:start;fill:rgb(0,0,0);" transform="rotate(6.6,2870.0,1665.7)">900</text>
<line x1='2820.7' y1='1779.6' x2='2840.3' y2='1783.7' style="stroke-width:4.0;stroke:rgb(0,0,0);stroke-linecap:round;fill:none;"/>
<text x="2848.5" y="1793.1" font-size="19.5px" font-family="CMUBright-Roman" style="text-anchor:start;fill:rgb(0,0,0);" transform="rotate(12.0,2848.5,1793.1)">950</text>
<line x1='2788.8' y1='1901.9' x2='2807.9' y2='1907.8' style="stroke-width:4.0;stroke:rgb(0,0,0);stroke-linecap:round;fill:none;"/>
<text x="2815.2" y="1917.9" font-size="19.5px" font-family="CMUBright-Roman" style="text-anchor:start;fill:rgb(0,0,0);" transform="rotate(17.3,2815.2,1917.9)">1000</text>
<line x1='2745.6' y1='2020.6' x2='2764.0' y2='2028.3' style="stroke-width:4.0;stroke:rgb(0,0,0);stroke-linecap:round;fill:none;"/>
<text x="2770.3" y="2039.1" font-size="19.5px" font-family="CMUBright-Roman" style="text-anchor:start;fill:rgb(0,0,0);" transform="rotate(22.7,2770.3,2039.1)">1050</text>
<line x1='2691.4' y1='2134.8' x2='2709.1' y2='2144.2' style="stroke-width:4.0;stroke:rgb(0,0,0);stroke-linecap:round;fill:none;"/>
<text x="2714.4" y="2155.5" font-size="19.5px" font-family="CMUBright-Roman" style="text-anchor:start;fill:rgb(0,0,0);" transform="rotate(28.0,2714.4,2155.5)">1100</text>
<line x1='2626.8' y1='2243.5' x2='2643.5' y2='2254.5' style="stroke-width:4.0;stroke:rgb(0,0,0);stroke-linecap:round;fill:none;"/>
<text x="2647.7" y="2266.2" font-size="19.5px" font-family="CMUBright-Roman" style="text-anchor:start;fill:rgb(0,0,0);" transform="rotate(33.4,2647.7,2266.2)">1150</text>
<line x1='2552.4' y1='2345.6' x2='2568.0' y2='2358.1' style="stroke-width:4.0;stroke:rgb(0,0,0);stroke-linecap:round;fill:none;"/>
<text x="2571.0" y="2370.2" font-size="19.5px" font-family="CMUBright-Roman" style="text-anchor:start;fill:rgb(0,0,0);" transform="rotate(38.8,2571.0,2370.2)">1200</text>
<line x1='2468.7' y1='2440.3' x2='2483.0' y2='2454.2' style="stroke-width:4.0;stroke:rgb(0,0,0);stroke-linecap:round;fill:none;"/>
<text x="2485.0" y="2466.6" font-size="19.5px" font-family="CMUBright-Roman" style="text-anchor:start;fill:rgb(0,0,0);" transform="rotate(44.1,2485.0,2466.6)">1250</text>
<line x1='2376.5' y1='2526.8' x2='2389.5' y2='2542.0' style="stroke-width:4.0;stroke:rgb(0,0,0);stroke-linecap:round;fill:none;"/>
<text x="2390.3" y="2554.4" font-size="19.5px" font-family="CMUBright-Roman" style="text-anchor:start;fill:rgb(0,0,0);" transform="rotate(49.5,2390.3,2554.4)">1300</text>
<line x1='2276.7' y1='2604.2' x2='2288.2' y2='2620.6' style="stroke-width:4.0;stroke:rgb(0,0,0);stroke-linecap:round;fill:none;"/>
<text x="2287.8" y="2633.1" font-size="19.5px" font-family="CMUBright-Roman" style="text-anchor:start;fill:rgb(0,0,0);" transform="rotate(54.9,2287.8,2633.1)">1350</text>
<line x1='2170.0' y1='2672.0' x2='2179.9' y2='2689.4' style="stroke-width:4.0;stroke:rgb(0,0,0);stroke-linecap:round;fill:none;"/>
<text x="2178.4" y="2701.8" font-size="19.5px" font-family="CMUBright-Roman" style="text-anchor:start;fill:rgb(0,0,0);" transform="rotate(60.2,2178.4,2701.8)">1400</text>
<line x1='2057.4' y1='2729.5' x2='2065.7' y2='2747.7' style="stroke-width:4.0;stroke:rgb(0,0,0);stroke-linecap:round;fill:none;"/>
<text x="2063.0" y="2759.9" font-size="19.5px" font-family="CMUBright-Roman" style="text-anchor:start;fill:rgb(0,0,0);" transform="rotate(65.6,2063.0,2759.9)">1450</text>
<line x1='1940.0' y1='2776.3' x2='1946.5' y2='2795.2' style="stroke-width:4.0;stroke:rgb(0,0,0);stroke-linecap:round;fill:none;"/>
<text x="1942.7" y="2807.1" font-size="19.5px" font-family="CMUBright-Roman" style="text-anchor:start;fill:rgb(0,0,0);" transform="rotate(71.0,1942.7,2807.1)">1500</text>
<line x1='1818.7' y1='2811.8' x2='1823.5' y2='2831.3' style="stroke-width:4.0;stroke:rgb(0,0,0);stroke-linecap:round;fill:none;"/>
<text x="1818.5" y="2842.7" font-size="19.5px" font-family="CMUBright-Roman" style="text-anchor:start;fill:rgb(0,0,0);" transform="rotate(76.3,1818.5,2842.7)">1550</text>
<g id="highlighttrack_0">
<path d="M2735.403,1095.302 A1300.000,1300.000 40.000 0,1 2745.189,1126.497 L2793.081,1112.131 A1350.000,1350.000 0.000 0,0 2782.918,1079.737 Z" style="stroke-width:4.0;stroke:rgb(0,0,0);stroke-linecap:round;fill:rgb(107,174,214);fill-opacity:0.50;"/>
<path d="M2787.860,1677.246 A1300.000,1300.000 40.000 0,1 2692.120,2018.508 L2737.971,2038.450 A1350.000,1350.000 0.000 0,0 2837.393,1684.063 Z" style="stroke-width:4.0;stroke:rgb(0,0,0);stroke-linecap:round;fill:rgb(107,174,214);fill-opacity:0.50;"/>
<path d="M2153.870,2623.590 A1300.000,1300.000 40.000 0,1 1746.502,2776.416 L1755.983,2825.508 A1350.000,1350.000 0.000 0,0 2179.019,2666.805 Z" style="stroke-width:4.0;stroke:rgb(0,0,0);stroke-linecap:round;fill:rgb(107,174,214);fill-opacity:0.50;"/>
<path d="M2203.266,2593.351 A1300.000,1300.000 40.000 0,1 2171.901,2612.901 L2197.743,2655.705 A1350.000,1350.000 0.000 0,0 2230.314,2635.403 Z" style="stroke-width:4.0;stroke:rgb(0,0,0);stroke-linecap:round;fill:rgb(107,174,214);fill-opacity:0.50;"/>
<path d="M1561.694,201.465 A1300.000,1300.000 40.000 0,1 1655.204,209.298 L1661.174,159.656 A1350.000,1350.000 0.000 0,0 1564.066,151.521 Z" style="stroke-width:4.0;stroke:rgb(0,0,0);stroke-linecap:round;fill:rgb(107,174,214);fill-opacity:0.50;"/>
<path d="M1994.412,297.687 A1300.000,1300.000 40.000 0,1 2250.154,438.271 L2279.006,397.435 A1350.000,1350.000 0.000 0,0 2013.427,251.444 Z" style="stroke-width:4.0;stroke:rgb(0,0,0);stroke-linecap:round;fill:rgb(107,174,214);fill-opacity:0.50;"/>
<path d="M2686.813,2030.543 A1300.000,1300.000 40.000 0,1 2673.014,2060.391 L2718.130,2081.945 A1350.000,1350.000 0.000 0,0 2732.459,2050.949 Z" style="stroke-width:4.0;stroke:rgb(0,0,0);stroke-linecap:round;fill:rgb(107,174,214);fill-opacity:0.50;"/>
<path d="M2752.741,1152.669 A1300.000,1300.000 40.000 0,1 2781.014,1278.632 L2830.284,1270.118 A1350.000,1350.000 0.000 0,0 2800.924,1139.310 Z" style="stroke-width:4.0;stroke:rgb(0,0,0);stroke-linecap:round;fill:rgb(107,174,214);fill-opacity:0.50;"/>
<path d="M2212.971,2587.047 A1300.000,1300.000 40.000 0,1 2198.904,2596.145 L2225.785,2638.304 A1350.000,1350.000 0.000 0,0 2240.393,2628.857 Z" style="stroke-width:4.0;stroke:rgb(0,0,0);stroke-linecap:round;fill:rgb(107,174,214);fill-opacity:0.50;"/>
<path d="M2665.500,2075.856 A1300.000,1300.000 40.000 0,1 2273.899,2544.548 L2303.664,2584.723 A1350.000,1350.000 0.000 0,0 2710.327,2098.004 Z" style="stroke-width:4.0;stroke:rgb(0,0,0);stroke-linecap:round;fill:rgb(107,174,214);fill-opacity:0.50;"/>
<path d="M2530.200,707.101 A1300.000,1300.000 40.000 0,1 2548.784,731.851 L2589.121,702.307 A1350.000,1350.000 0.000 0,0 2569.823,676.605 Z" style="stroke-width:4.0;stroke:rgb(0,0,0);stroke-linecap:round;fill:rgb(107,174,214);fill-opacity:0.50;"/>
<path d="M1500.100,200.000 A1300.000,1300.000 40.000 0,1 1561.689,201.464 L1564.061,151.521 A1350.000,1350.000 0.000 0,0 1500.104,150.000 Z" style="stroke-width:4.0;stroke:rgb(0,0,0);stroke-linecap:round;fill:rgb(107,174,214);fill-opacity:0.50;"/>
<path d="M2745.726,1128.291 A1300.000,1300.000 40.000 0,1 2752.656,1152.361 L2800.835,1138.990 A1350.000,1350.000 0.000 0,0 2793.638,1113.994 Z" style="stroke-width:4.0;stroke:rgb(0,0,0);stroke-linecap:round;fill:rgb(107,174,214);fill-opacity:0.50;"/>
<path d="M2380.400,543.498 A1300.000,1300.000 40.000 0,1 2518.290,691.862 L2557.455,660.780 A1350.000,1350.000 0.000 0,0 2414.262,506.710 Z" style="stroke-width:4.0;stroke:rgb(0,0,0);stroke-linecap:round;fill:rgb(107,174,214);fill-opacity:0.50;"/>
<path d="M2553.028,737.679 A1300.000,1300.000 40.000 0,1 2607.947,819.961 L2650.560,793.805 A1350.000,1350.000 0.000 0,0 2593.529,708.359 Z" style="stroke-width:4.0;stroke:rgb(0,0,0);stroke-linecap:round;fill:rgb(107,174,214);fill-opacity:0.50;"/>
<path d="M2229.637,2575.932 A1300.000,1300.000 40.000 0,1 2203.264,2593.353 L2230.312,2635.405 A1350.000,1350.000 0.000 0,0 2257.700,2617.314 Z" style="stroke-width:4.0;stroke:rgb(0,0,0);stroke-linecap:round;fill:rgb(107,174,214);fill-opacity:0.50;"/>
<path d="M2272.870,2545.310 A1300.000,1300.000 40.000 0,1 2230.435,2575.390 L2258.529,2616.752 A1350.000,1350.000 0.000 0,0 2302.595,2585.514 Z" style="stroke-width:4.0;stroke:rgb(0,0,0);stroke-linecap:round;fill:rgb(107,174,214);fill-opacity:0.50;"/>
<path d="M1661.456,210.065 A1300.000,1300.000 40.000 0,1 1994.283,297.634 L2013.294,251.389 A1350.000,1350.000 0.000 0,0 1667.666,160.452 Z" style="stroke-width:4.0;stroke:rgb(0,0,0);stroke-linecap:round;fill:rgb(107,174,214);fill-opacity:0.50;"/>
<path d="M2171.546,2613.115 A1300.000,1300.000 40.000 0,1 2160.633,2619.627 L2186.042,2662.689 A1350.000,1350.000 0.000 0,0 2197.375,2655.927 Z" style="stroke-width:4.0;stroke:rgb(0,0,0);stroke-linecap:round;fill:rgb(107,174,214);fill-opacity:0.50;"/>
<path d="M2607.357,819.000 A1300.000,1300.000 40.000 0,1 2735.241,1094.810 L2782.750,1079.225 A1350.000,1350.000 0.000 0,0 2649.947,792.808 Z" style="stroke-width:4.0;stroke:rgb(0,0,0);stroke-linecap:round;fill:rgb(107,174,214);fill-opacity:0.50;"/>
<path d="M2781.081,1279.019 A1300.000,1300.000 40.000 0,1 2788.977,1668.937 L2838.553,1675.434 A1350.000,1350.000 0.000 0,0 2830.353,1270.520 Z" style="stroke-width:4.0;stroke:rgb(0,0,0);stroke-linecap:round;fill:rgb(107,174,214);fill-opacity:0.50;"/>
<path d="M2261.826,446.614 A1300.000,1300.000 40.000 0,1 2357.772,523.154 L2390.763,485.583 A1350.000,1350.000 0.000 0,0 2291.127,406.099 Z" style="stroke-width:4.0;stroke:rgb(0,0,0);stroke-linecap:round;fill:rgb(107,174,214);fill-opacity:0.50;"/>
</g>
<g id="highlighttrack_0">
</g>
<path d="M1659.196,2790.216 A1300.000,1300.000 40.000 1,1 1419.968,202.466 L1416.890,152.561 A1350.000,1350.000 0.000 1,0 1665.319,2839.839 Z" style="stroke-linecap:round;fill:rgb(116,196,118);"/>
<text x="14.3" y="1637.3" font-size="104.0px" font-family="CMUBright-Roman" style="text-anchor:middle;fill:rgb(0,0,0);" transform="rotate(84.7,14.3,1637.3)">2</text>
<line x1='1665.3' y1='2839.8' x2='1667.8' y2='2859.7' style="stroke-width:4.0;stroke:rgb(0,0,0);stroke-linecap:round;fill:none;"/>
<text x="1661.5" y="2870.5" font-size="19.5px" font-family="CMUBright-Roman" style="text-anchor:start;fill:rgb(0,0,0);" transform="rotate(83.0,1661.5,2870.5)">0</text>
<line x1='1539.3' y1='2849.4' x2='1539.9' y2='2869.4' style="stroke-width:4.0;stroke:rgb(0,0,0);stroke-linecap:round;fill:none;"/>
<text x="1532.7" y="2879.6" font-size="19.5px" font-family="CMUBright-Roman" style="text-anchor:start;fill:rgb(0,0,0);" transform="rotate(88.3,1532.7,2879.6)">50</text>
<line x1='1412.9' y1='2847.2' x2='1411.6' y2='2867.1' style="stroke-width:4.0;stroke:rgb(0,0,0);stroke-linecap:round;fill:none;"/>
<text x="1418.5" y="2877.6" font-size="19.5px" font-family="CMUBright-Roman" style="text-anchor:end;fill:rgb(0,0,0);" transform="rotate(-86.3,1418.5,2877.6)">100</text>
<line x1='1287.3' y1='2833.1' x2='1284.2' y2='2852.9' style="stroke-width:4.0;stroke:rgb(0,0,0);stroke-linecap:round;fill:none;"/>
<text x="1290.0" y="2863.9" font-size="19.5px" font-family="CMUBright-Roman" style="text-anchor:end;fill:rgb(0,0,0);" transform="rotate(-80.9,1290.0,2863.9)">150</text>
<line x1='1163.6' y1='2807.4' x2='1158.6' y2='2826.8' style="stroke-width:4.0;stroke:rgb(0,0,0);stroke-linecap:round;fill:none;"/>
<text x="1163.4" y="2838.3" font-size="19.5px" font-family="CMUBright-Roman" style="text-anchor:end;fill:rgb(0,0,0);" transform="rotate(-75.6,1163.4,2838.3)">200</text>
<line x1='1042.8' y1='2770.2' x2='1036.0' y2='2789.0' style="stroke-width:4.0;stroke:rgb(0,0,0);stroke-linecap:round;fill:none;"/>
<text x="1039.7" y="2801.0" font-size="19.5px" font-family="CMUBright-Roman" style="text-anchor:end;fill:rgb(0,0,0);" transform="rotate(-70.2,1039.7,2801.0)">250</text>
<line x1='926.0' y1='2721.9' x2='917.5' y2='2740.0' style="stroke-width:4.0;stroke:rgb(0,0,0);stroke-linecap:round;fill:none;"/>
<text x="920.1" y="2752.2" font-size="19.5px" font-family="CMUBright-Roman" style="text-anchor:end;fill:rgb(0,0,0);" transform="rotate(-64.8,920.1,2752.2)">300</text>
<line x1='814.3' y1='2662.9' x2='804.1' y2='2680.1' style="stroke-width:4.0;stroke:rgb(0,0,0);stroke-linecap:round;fill:none;"/>
<text x="805.5" y="2692.5" font-size="19.5px" font-family="CMUBright-Roman" style="text-anchor:end;fill:rgb(0,0,0);" transform="rotate(-59.5,805.5,2692.5)">350</text>
<line x1='708.5' y1='2593.6' x2='696.8' y2='2609.9' style="stroke-width:4.0;stroke:rgb(0,0,0);stroke-linecap:round;fill:none;"/>
<text x="697.0" y="2622.3" font-size="19.5px" font-family="CMUBright-Roman" style="text-anchor:end;fill:rgb(0,0,0);" transform="rotate(-54.1,697.0,2622.3)">400</text>
<line x1='609.7' y1='2514.8' x2='596.5' y2='2529.9' style="stroke-width:4.0;stroke:rgb(0,0,0);stroke-linecap:round;fill:none;"/>
<text x="595.6" y="2542.3" font-size="19.5px" font-family="CMUBright-Roman" style="text-anchor:end;fill:rgb(0,0,0);" transform="rotate(-48.7,595.6,2542.3)">450</text>
<line x1='518.7' y1='2427.1' x2='504.2' y2='2440.9' style="stroke-width:4.0;stroke:rgb(0,0,0);stroke-linecap:round;fill:none;"/>
<text x="502.1" y="2453.2" font-size="19.5px" font-family="CMUBright-Roman" style="text-anchor:end;fill:rgb(0,0,0);" transform="rotate(-43.4,502.1,2453.2)">500</text>
<line x1='436.3' y1='2331.3' x2='420.6' y2='2343.6' style="stroke-width:4.0;stroke:rgb(0,0,0);stroke-linecap:round;fill:none;"/>
<text x="417.3" y="2355.7" font-size="19.5px" font-family="CMUBright-Roman" style="text-anchor:end;fill:rgb(0,0,0);" transform="rotate(-38.0,417.3,2355.7)">550</text>
<line x1='363.2' y1='2228.2' x2='346.4' y2='2239.0' style="stroke-width:4.0;stroke:rgb(0,0,0);stroke-linecap:round;fill:none;"/>
<text x="342.0" y="2250.7" font-size="19.5px" font-family="CMUBright-Roman" style="text-anchor:end;fill:rgb(0,0,0);" transform="rotate(-32.6,342.0,2250.7)">600</text>
<line x1='300.1' y1='2118.7' x2='282.3' y2='2127.9' style="stroke-width:4.0;stroke:rgb(0,0,0);stroke-linecap:round;fill:none;"/>
<text x="276.9" y="2139.1" font-size="19.5px" font-family="CMUBright-Roman" style="text-anchor:end;fill:rgb(0,0,0);" transform="rotate(-27.3,276.9,2139.1)">650</text>
<line x1='247.5' y1='2003.8' x2='229.0' y2='2011.2' style="stroke-width:4.0;stroke:rgb(0,0,0);stroke-linecap:round;fill:none;"/>
<text x="222.5" y="2021.9" font-size="19.5px" font-family="CMUBright-Roman" style="text-anchor:end;fill:rgb(0,0,0);" transform="rotate(-21.9,222.5,2021.9)">700</text>
<line x1='205.9' y1='1884.4' x2='186.7' y2='1890.1' style="stroke-width:4.0;stroke:rgb(0,0,0);stroke-linecap:round;fill:none;"/>
<text x="179.3" y="1900.2" font-size="19.5px" font-family="CMUBright-Roman" style="text-anchor:end;fill:rgb(0,0,0);" transform="rotate(-16.5,179.3,1900.2)">750</text>
<line x1='175.6' y1='1761.7' x2='156.0' y2='1765.6' style="stroke-width:4.0;stroke:rgb(0,0,0);stroke-linecap:round;fill:none;"/>
<text x="147.7" y="1774.9" font-size="19.5px" font-family="CMUBright-Roman" style="text-anchor:end;fill:rgb(0,0,0);" transform="rotate(-11.2,147.7,1774.9)">800</text>
<line x1='156.9' y1='1636.7' x2='137.0' y2='1638.8' style="stroke-width:4.0;stroke:rgb(0,0,0);stroke-linecap:round;fill:none;"/>
<text x="127.9" y="1647.2" font-size="19.5px" font-family="CMUBright-Roman" style="text-anchor:end;fill:rgb(0,0,0);" transform="rotate(-5.8,127.9,1647.2)">850</text>
<line x1='150.0' y1='1510.5' x2='130.0' y2='1510.7' style="stroke-width:4.0;stroke:rgb(0,0,0);stroke-linecap:round;fill:none;"/>
<text x="120.1" y="1518.3" font-size="19.5px" font-family="CMUBright-Roman" style="text-anchor:end;fill:rgb(0,0,0);" transform="rotate(-0.4,120.1,1518.3)">900</text>
<line x1='155.0' y1='1384.3' x2='135.0' y2='1382.5' style="stroke-width:4.0;stroke:rgb(0,0,0);stroke-linecap:round;fill:none;"/>
<text x="124.5" y="1389.2" font-size="19.5px" font-family="CMUBright-Roman" style="text-anchor:end;fill:rgb(0,0,0);" transform="rotate(4.9,124.5,1389.2)">950</text>
<line x1='171.7' y1='1259.0' x2='152.0' y2='1255.4' style="stroke-width:4.0;stroke:rgb(0,0,0);stroke-linecap:round;fill:none;"/>
<text x="140.9" y="1261.0" font-size="19.5px" font-family="CMUBright-Roman" style="text-anchor:end;fill:rgb(0,0,0);" transform="rotate(10.3,140.9,1261.0)">1000</text>
<line x1='200.0' y1='1135.8' x2='180.8' y2='1130.4' style="stroke-width:4.0;stroke:rgb(0,0,0);stroke-linecap:round;fill:none;"/>
<text x="169.2" y="1135.0" font-size="19.5px" font-family="CMUBright-Roman" style="text-anchor:end;fill:rgb(0,0,0);" transform="rotate(15.7,169.2,1135.0)">1050</text>
<line x1='239.8' y1='1015.9' x2='221.1' y2='1008.7' style="stroke-width:4.0;stroke:rgb(0,0,0);stroke-linecap:round;fill:none;"/>
<text x="209.1" y="1012.1" font-size="19.5px" font-family="CMUBright-Roman" style="text-anchor:end;fill:rgb(0,0,0);" transform="rotate(21.0,209.1,1012.1)">1100</text>
<line x1='290.6' y1='900.1' x2='272.7' y2='891.2' style="stroke-width:4.0;stroke:rgb(0,0,0);stroke-linecap:round;fill:none;"/>
<text x="260.4" y="893.5" font-size="19.5px" font-family="CMUBright-Roman" style="text-anchor:end;fill:rgb(0,0,0);" transform="rotate(26.4,260.4,893.5)">1150</text>
<line x1='352.0' y1='789.7' x2='335.0' y2='779.1' style="stroke-width:4.0;stroke:rgb(0,0,0);stroke-linecap:round;fill:none;"/>
<text x="322.6" y="780.3" font-size="19.5px" font-family="CMUBright-Roman" style="text-anchor:end;fill:rgb(0,0,0);" transform="rotate(31.7,322.6,780.3)">1200</text>
<line x1='423.5' y1='685.4' x2='407.5' y2='673.3' style="stroke-width:4.0;stroke:rgb(0,0,0);stroke-linecap:round;fill:none;"/>
<text x="395.0" y="673.3" font-size="19.5px" font-family="CMUBright-Roman" style="text-anchor:end;fill:rgb(0,0,0);" transform="rotate(37.1,395.0,673.3)">1250</text>
<line x1='504.4' y1='588.3' x2='489.6' y2='574.8' style="stroke-width:4.0;stroke:rgb(0,0,0);stroke-linecap:round;fill:none;"/>
<text x="477.2" y="573.6" font-size="19.5px" font-family="CMUBright-Roman" style="text-anchor:end;fill:rgb(0,0,0);" transform="rotate(42.5,477.2,573.6)">1300</text>
<line x1='594.0' y1='499.2' x2='580.5' y2='484.4' style="stroke-width:4.0;stroke:rgb(0,0,0);stroke-linecap:round;fill:none;"/>
<text x="568.3" y="482.0" font-size="19.5px" font-family="CMUBright-Roman" style="text-anchor:end;fill:rgb(0,0,0);" transform="rotate(47.8,568.3,482.0)">1350</text>
<line x1='691.5' y1='418.9' x2='679.6' y2='402.8' style="stroke-width:4.0;stroke:rgb(0,0,0);stroke-linecap:round;fill:none;"/>
<text x="667.6" y="399.3" font-size="19.5px" font-family="CMUBright-Roman" style="text-anchor:end;fill:rgb(0,0,0);" transform="rotate(53.2,667.6,399.3)">1400</text>
<line x1='796.2' y1='348.0' x2='785.8' y2='330.9' style="stroke-width:4.0;stroke:rgb(0,0,0);stroke-linecap:round;fill:none;"/>
<text x="774.2" y="326.3" font-size="19.5px" font-family="CMUBright-Roman" style="text-anchor:end;fill:rgb(0,0,0);" transform="rotate(58.6,774.2,326.3)">1450</text>
<line x1='907.0' y1='287.2' x2='898.2' y2='269.2' style="stroke-width:4.0;stroke:rgb(0,0,0);stroke-linecap:round;fill:none;"/>
<text x="887.1" y="263.6" font-size="19.5px" font-family="CMUBright-Roman" style="text-anchor:end;fill:rgb(0,0,0);" transform="rotate(63.9,887.1,263.6)">1500</text>
<line x1='1023.0' y1='237.1' x2='1015.9' y2='218.4' style="stroke-width:4.0;stroke:rgb(0,0,0);stroke-linecap:round;fill:none;"/>
<text x="1005.4" y="211.7" font-size="19.5px" font-family="CMUBright-Roman" style="text-anchor:end;fill:rgb(0,0,0);" transform="rotate(69.3,1005.4,211.7)">1550</text>
<line x1='1143.2' y1='198.0' x2='1137.9' y2='178.7' style="stroke-width:4.0;stroke:rgb(0,0,0);stroke-linecap:round;fill:none;"/>
<text x="1128.0" y="171.1" font-size="19.5px" font-family="CMUBright-Roman" style="text-anchor:end;fill:rgb(0,0,0);" transform="rotate(74.7,1128.0,171.1)">1600</text>
<line x1='1266.5' y1='170.3' x2='1263.1' y2='150.6' style="stroke-width:4.0;stroke:rgb(0,0,0);stroke-linecap:round;fill:none;"/>
<text x="1254.0" y="142.1" font-size="19.5px" font-family="CMUBright-Roman" style="text-anchor:end;fill:rgb(0,0,0);" transform="rotate(80.0,1254.0,142.1)">1650</text>
<line x1='1391.9' y1='154.3' x2='1390.3' y2='134.4' style="stroke-width:4.0;stroke:rgb(0,0,0);stroke-linecap:round;fill:none;"/>
<text x="1382.0" y="125.1" font-size="19.5px" font-family="CMUBright-Roman" style="text-anchor:end;fill:rgb(0,0,0);" transform="rotate(85.4,1382.0,125.1)">1700</text>
<g id="highlighttrack_0">
<path d="M264.303,1903.798 A1300.000,1300.000 40.000 0,1 252.835,1866.852 L204.867,1880.962 A1350.000,1350.000 0.000 0,0 216.776,1919.329 Z" style="stroke-width:4.0;stroke:rgb(0,0,0);stroke-linecap:round;fill:rgb(107,174,214);fill-opacity:0.50;"/>
<path d="M841.762,2621.037 A1300.000,1300.000 40.000 0,1 565.306,2403.519 L529.356,2438.270 A1350.000,1350.000 0.000 0,0 816.445,2664.153 Z" style="stroke-width:4.0;stroke:rgb(0,0,0);stroke-linecap:round;fill:rgb(107,174,214);fill-opacity:0.50;"/>
<path d="M976.996,309.846 A1300.000,1300.000 40.000 0,1 1407.080,203.325 L1403.506,153.453 A1350.000,1350.000 0.000 0,0 956.880,264.071 Z" style="stroke-width:4.0;stroke:rgb(0,0,0);stroke-linecap:round;fill:rgb(107,174,214);fill-opacity:0.50;"/>
<path d="M816.605,394.120 A1300.000,1300.000 40.000 0,1 857.804,369.697 L833.104,326.224 A1350.000,1350.000 0.000 0,0 790.321,351.586 Z" style="stroke-width:4.0;stroke:rgb(0,0,0);stroke-linecap:round;fill:rgb(107,174,214);fill-opacity:0.50;"/>
<path d="M710.044,467.542 A1300.000,1300.000 40.000 0,1 795.562,407.403 L768.468,365.380 A1350.000,1350.000 0.000 0,0 679.661,427.832 Z" style="stroke-width:4.0;stroke:rgb(0,0,0);stroke-linecap:round;fill:rgb(107,174,214);fill-opacity:0.50;"/>
<path d="M1133.185,2747.176 A1300.000,1300.000 40.000 0,1 846.690,2623.916 L821.563,2667.143 A1350.000,1350.000 0.000 0,0 1119.077,2795.144 Z" style="stroke-width:4.0;stroke:rgb(0,0,0);stroke-linecap:round;fill:rgb(107,174,214);fill-opacity:0.50;"/>
<path d="M898.449,347.552 A1300.000,1300.000 40.000 0,1 927.785,332.708 L905.777,287.812 A1350.000,1350.000 0.000 0,0 875.312,303.227 Z" style="stroke-width:4.0;stroke:rgb(0,0,0);stroke-linecap:round;fill:rgb(107,174,214);fill-opacity:0.50;"/>
<path d="M327.688,2061.857 A1300.000,1300.000 40.000 0,1 274.678,1934.265 L227.550,1950.968 A1350.000,1350.000 0.000 0,0 282.599,2083.467 Z" style="stroke-width:4.0;stroke:rgb(0,0,0);stroke-linecap:round;fill:rgb(107,174,214);fill-opacity:0.50;"/>
<path d="M261.892,1103.657 A1300.000,1300.000 40.000 0,1 267.751,1085.800 L220.356,1069.870 A1350.000,1350.000 0.000 0,0 214.272,1088.413 Z" style="stroke-width:4.0;stroke:rgb(0,0,0);stroke-linecap:round;fill:rgb(107,174,214);fill-opacity:0.50;"/>
<path d="M313.748,968.204 A1300.000,1300.000 40.000 0,1 703.760,472.380 L673.136,432.856 A1350.000,1350.000 0.000 0,0 268.123,947.751 Z" style="stroke-width:4.0;stroke:rgb(0,0,0);stroke-linecap:round;fill:rgb(107,174,214);fill-opacity:0.50;"/>
<path d="M200.260,1473.988 A1300.000,1300.000 40.000 0,1 201.378,1440.149 L151.432,1437.847 A1350.000,1350.000 0.000 0,0 150.270,1472.987 Z" style="stroke-width:4.0;stroke:rgb(0,0,0);stroke-linecap:round;fill:rgb(107,174,214);fill-opacity:0.50;"/>
<path d="M1659.097,2790.228 A1300.000,1300.000 40.000 0,1 1596.479,2796.415 L1600.189,2846.277 A1350.000,1350.000 0.000 0,0 1665.216,2839.852 Z" style="stroke-width:4.0;stroke:rgb(0,0,0);stroke-linecap:round;fill:rgb(107,174,214);fill-opacity:0.50;"/>
<path d="M272.791,1928.904 A1300.000,1300.000 40.000 0,1 264.726,1905.090 L217.215,1920.670 A1350.000,1350.000 0.000 0,0 225.591,1945.400 Z" style="stroke-width:4.0;stroke:rgb(0,0,0);stroke-linecap:round;fill:rgb(107,174,214);fill-opacity:0.50;"/>
<path d="M248.983,1146.510 A1300.000,1300.000 40.000 0,1 254.574,1127.289 L206.673,1112.953 A1350.000,1350.000 0.000 0,0 200.867,1132.914 Z" style="stroke-width:4.0;stroke:rgb(0,0,0);stroke-linecap:round;fill:rgb(107,174,214);fill-opacity:0.50;"/>
<path d="M921.475,335.823 A1300.000,1300.000 40.000 0,1 939.470,327.053 L917.911,281.939 A1350.000,1350.000 0.000 0,0 899.224,291.047 Z" style="stroke-width:4.0;stroke:rgb(0,0,0);stroke-linecap:round;fill:rgb(107,174,214);fill-opacity:0.50;"/>
<path d="M202.992,1411.852 A1300.000,1300.000 40.000 0,1 236.486,1194.170 L187.889,1182.407 A1350.000,1350.000 0.000 0,0 153.107,1408.462 Z" style="stroke-width:4.0;stroke:rgb(0,0,0);stroke-linecap:round;fill:rgb(107,174,214);fill-opacity:0.50;"/>
<path d="M558.704,2396.639 A1300.000,1300.000 40.000 0,1 489.718,2318.126 L450.861,2349.592 A1350.000,1350.000 0.000 0,0 522.500,2431.125 Z" style="stroke-width:4.0;stroke:rgb(0,0,0);stroke-linecap:round;fill:rgb(107,174,214);fill-opacity:0.50;"/>
<path d="M795.599,407.380 A1300.000,1300.000 40.000 0,1 819.657,392.240 L793.490,349.633 A1350.000,1350.000 0.000 0,0 768.507,365.356 Z" style="stroke-width:4.0;stroke:rgb(0,0,0);stroke-linecap:round;fill:rgb(107,174,214);fill-opacity:0.50;"/>
<path d="M1595.442,2796.492 A1300.000,1300.000 40.000 0,1 1538.359,2799.434 L1539.834,2849.412 A1350.000,1350.000 0.000 0,0 1599.112,2846.357 Z" style="stroke-width:4.0;stroke:rgb(0,0,0);stroke-linecap:round;fill:rgb(107,174,214);fill-opacity:0.50;"/>
<path d="M1520.045,2799.845 A1300.000,1300.000 40.000 0,1 1170.938,2757.664 L1158.281,2806.035 A1350.000,1350.000 0.000 0,0 1520.816,2849.840 Z" style="stroke-width:4.0;stroke:rgb(0,0,0);stroke-linecap:round;fill:rgb(107,174,214);fill-opacity:0.50;"/>
<path d="M858.723,369.176 A1300.000,1300.000 40.000 0,1 869.850,362.938 L845.614,319.204 A1350.000,1350.000 0.000 0,0 834.058,325.683 Z" style="stroke-width:4.0;stroke:rgb(0,0,0);stroke-linecap:round;fill:rgb(107,174,214);fill-opacity:0.50;"/>
<path d="M491.140,2319.879 A1300.000,1300.000 40.000 0,1 326.345,2059.047 L281.204,2080.549 A1350.000,1350.000 0.000 0,0 452.338,2351.413 Z" style="stroke-width:4.0;stroke:rgb(0,0,0);stroke-linecap:round;fill:rgb(107,174,214);fill-opacity:0.50;"/>
<path d="M252.258,1864.884 A1300.000,1300.000 40.000 0,1 200.170,1479.000 L150.176,1478.193 A1350.000,1350.000 0.000 0,0 204.268,1878.919 Z" style="stroke-width:4.0;stroke:rgb(0,0,0);stroke-linecap:round;fill:rgb(107,174,214);fill-opacity:0.50;"/>
<path d="M268.198,1084.471 A1300.000,1300.000 40.000 0,1 313.700,968.311 L268.073,947.862 A1350.000,1350.000 0.000 0,0 220.821,1068.489 Z" style="stroke-width:4.0;stroke:rgb(0,0,0);stroke-linecap:round;fill:rgb(107,174,214);fill-opacity:0.50;"/>
</g>
</g>
<g id="track_0">
<path d="M 276.660,1899.760 A 1287.000,1287.000 0.00 0,1 265.3,1863.2 L 265.3,1863.2 351.3,1836.4 432.8,1808.1 510.3,1778.8 584.1,1748.7 654.4,1718.2 721.6,1687.6 785.9,1657.1 847.7,1627.0 907.1,1597.4 964.6,1568.7 1020.3,1540.9 1074.5,1514.2 1127.5,1488.8 1179.5,1464.7 1230.8,1442.1 1281.5,1420.9 1331.9,1401.3 1382.3,1383.2 1432.7,1366.6 1483.5,1351.5 1534.9,1337.9 1587.0,1325.5 1639.9,1314.5 1694.0,1304.5 1749.3,1295.5 1806.0,1287.3 1864.3,1279.6 1924.2,1272.4 1986.1,1265.2 2049.9,1258.0 2115.9,1250.2 2184.1,1241.8 2254.6,1232.2 2327.6,1221.2 2403.2,1208.4 2481.4,1193.3 2562.3,1175.6 2646.1,1154.7 2732.7,1130.2  A 1287.000,1287.000 0.00 0,0 2723.0,1099.3 L 2723.0,1099.3 2637.0,1126.0 2553.8,1149.0 2473.3,1168.7 2395.5,1185.8 2320.3,1200.5 2247.6,1213.4 2177.3,1224.7 2109.3,1234.9 2043.5,1244.3 1979.9,1253.3 1918.2,1262.0 1858.4,1270.8 1800.4,1280.0 1743.9,1289.7 1688.8,1300.1 1635.1,1311.5 1582.4,1324.0 1530.7,1337.8 1479.7,1352.8 1429.4,1369.3 1379.3,1387.3 1329.5,1406.8 1279.7,1427.8 1229.6,1450.4 1179.0,1474.5 1127.7,1500.1 1075.4,1527.0 1022.0,1555.2 967.1,1584.6 910.5,1615.1 851.9,1646.3 791.0,1678.3 727.6,1710.7 661.4,1743.3 592.0,1775.9 519.1,1808.1 442.5,1839.7 361.8,1870.4 276.7,1899.8  Z" style="stroke-width: 2.0;  stroke: rgb(82,82,82); fill: rgb(251,106,74); opacity: 0.333;"/>
<path d="M 848.344,2609.826 A 1287.000,1287.000 0.00 0,1 574.7,2394.5 L 574.7,2394.5 639.7,2333.4 702.4,2277.6 763.1,2226.9 821.7,2180.8 878.4,2138.8 933.2,2100.8 986.4,2066.4 1038.0,2035.2 1088.2,2007.0 1137.0,1981.5 1184.7,1958.5 1231.3,1937.8 1276.9,1919.2 1321.8,1902.5 1366.0,1887.5 1409.8,1874.1 1453.2,1862.2 1496.4,1851.8 1539.6,1842.6 1583.0,1834.8 1626.7,1828.2 1670.8,1822.8 1715.6,1818.7 1761.3,1815.9 1808.0,1814.4 1855.9,1814.4 1905.2,1815.8 1956.1,1818.9 2008.7,1823.7 2063.4,1830.4 2120.3,1839.3 2179.5,1850.4 2241.4,1864.0 2306.1,1880.4 2373.9,1899.8 2445.0,1922.4 2519.6,1948.7 2597.9,1978.9 2680.2,2013.3  A 1287.000,1287.000 0.00 0,0 2775.0,1675.5 L 2775.0,1675.5 2686.4,1664.5 2602.9,1656.6 2524.0,1651.5 2449.4,1648.9 2378.9,1648.5 2312.1,1650.2 2248.8,1653.8 2188.8,1659.1 2131.6,1666.0 2077.1,1674.3 2025.1,1683.9 1975.2,1694.6 1927.4,1706.6 1881.2,1719.5 1836.7,1733.6 1793.4,1748.6 1751.3,1764.6 1710.2,1781.7 1669.9,1799.8 1630.2,1819.1 1591.0,1839.5 1552.2,1861.2 1513.5,1884.3 1475.0,1909.0 1436.3,1935.3 1397.6,1963.5 1358.6,1993.7 1319.3,2026.2 1279.5,2061.1 1239.3,2098.7 1198.5,2139.4 1157.1,2183.3 1115.1,2230.7 1072.4,2282.1 1029.0,2337.7 984.9,2397.9 940.1,2463.0 894.6,2533.5 848.3,2609.8  Z" style="stroke-width: 2.0;  stroke: rgb(82,82,82); fill: rgb(251,106,74); opacity: 0.333;"/>
<path d="M 2147.332,2612.354 A 1287.000,1287.000 0.00 0,1 1744.0,2763.7 L 1744.0,2763.7 1728.4,2675.1 1716.1,2589.8 1706.7,2507.9 1699.8,2429.0 1694.8,2353.0 1691.6,2279.8 1689.6,2209.3 1688.6,2141.2 1688.3,2075.3 1688.3,2011.6 1688.5,1949.9 1688.5,1889.9 1688.1,1831.5 1687.2,1774.5 1685.6,1718.8 1683.1,1664.1 1679.6,1610.3 1675.0,1557.1 1669.3,1504.4 1662.4,1451.9 1654.2,1399.5 1644.9,1346.9 1634.3,1294.0 1622.5,1240.6 1609.6,1186.3 1595.7,1131.1 1580.9,1074.6 1565.4,1016.6 1549.2,957.0 1532.7,895.5 1515.9,831.9 1499.2,765.8 1482.8,697.2 1467.0,625.6 1452.0,551.0 1438.3,473.0 1426.1,391.4 1415.9,305.9 1408.0,216.3  A 1287.000,1287.000 0.00 0,0 982.2,321.7 L 982.2,321.7 1019.8,403.5 1058.1,480.6 1097.0,553.4 1136.1,622.3 1175.3,687.6 1214.2,749.7 1252.7,808.9 1290.6,865.5 1327.8,919.9 1364.0,972.4 1399.2,1023.1 1433.2,1072.5 1466.1,1120.8 1497.7,1168.3 1528.0,1215.1 1556.9,1261.6 1584.6,1308.0 1611.0,1354.4 1636.1,1401.1 1660.1,1448.2 1683.1,1496.1 1705.0,1544.7 1726.2,1594.4 1746.7,1645.2 1766.7,1697.2 1786.5,1750.7 1806.2,1805.7 1826.0,1862.3 1846.3,1920.7 1867.4,1980.8 1889.5,2042.9 1912.9,2106.9 1938.1,2172.8 1965.3,2240.9 1995.1,2311.0 2027.7,2383.2 2063.6,2457.5 2103.4,2533.9 2147.3,2612.4  Z" style="stroke-width: 2.0;  stroke: rgb(82,82,82); fill: rgb(251,106,74); opacity: 0.333;"/>
<path d="M 823.439,405.178 A 1287.000,1287.000 0.00 0,1 864.2,381.0 L 864.2,381.0 910.0,458.5 956.1,531.5 1002.3,600.2 1048.4,665.0 1094.2,726.4 1139.3,784.6 1183.7,840.2 1227.2,893.2 1269.6,944.2 1310.8,993.4 1350.6,1041.1 1389.1,1087.6 1426.1,1133.2 1461.6,1178.1 1495.6,1222.6 1528.1,1266.9 1559.1,1311.2 1588.6,1355.8 1616.7,1400.9 1643.5,1446.7 1669.1,1493.2 1693.6,1540.8 1717.1,1589.5 1739.9,1639.5 1762.1,1690.9 1783.9,1743.8 1805.5,1798.4 1827.2,1854.7 1849.4,1912.8 1872.1,1972.8 1895.9,2034.7 1920.9,2098.5 1947.6,2164.4 1976.4,2232.3 2007.5,2302.2 2041.6,2374.1 2078.9,2448.1 2119.9,2524.0 2165.2,2601.8  A 1287.000,1287.000 0.00 0,0 2196.2,2582.4 L 2196.2,2582.4 2148.8,2505.9 2105.6,2431.2 2066.2,2358.4 2030.1,2287.4 1996.9,2218.4 1966.2,2151.3 1937.6,2086.2 1910.7,2023.0 1885.1,1961.8 1860.6,1902.5 1836.7,1845.0 1813.3,1789.4 1790.0,1735.5 1766.6,1683.2 1742.9,1632.5 1718.5,1583.2 1693.5,1535.3 1667.5,1488.5 1640.4,1442.8 1612.1,1398.0 1582.6,1353.8 1551.6,1310.2 1519.1,1266.9 1485.1,1223.7 1449.6,1180.5 1412.5,1136.8 1373.9,1092.5 1333.8,1047.4 1292.2,1001.1 1249.3,953.4 1205.1,904.0 1159.7,852.5 1113.3,798.6 1066.0,742.0 1018.0,682.3 969.5,619.1 920.8,552.2 872.0,481.0 823.4,405.2  Z" style="stroke-width: 2.0;  stroke: rgb(82,82,82); fill: rgb(251,106,74); opacity: 0.333;"/>
<path d="M 717.944,477.866 A 1287.000,1287.000 0.00 0,1 802.6,418.3 L 802.6,418.3 851.1,492.5 896.8,560.7 940.0,623.2 980.7,680.2 1019.2,732.1 1055.5,779.2 1089.7,821.6 1122.1,859.6 1152.7,893.4 1181.6,923.3 1208.9,949.2 1234.8,971.5 1259.3,990.2 1282.6,1005.5 1304.7,1017.4 1325.7,1026.1 1345.7,1031.5 1364.8,1033.8 1383.1,1032.9 1400.7,1028.9 1417.5,1021.7 1433.7,1011.2 1449.3,997.6 1464.4,980.6 1479.1,960.2 1493.3,936.3 1507.2,908.7 1520.7,877.4 1533.9,842.1 1546.8,802.6 1559.5,758.8 1572.0,710.5 1584.2,657.3 1596.3,599.1 1608.1,535.6 1619.8,466.5 1631.3,391.4 1642.6,310.1 1653.7,222.2  A 1287.000,1287.000 0.00 0,0 1561.1,214.5 L 1561.1,214.5 1556.4,302.9 1550.9,384.9 1544.9,460.6 1538.2,530.4 1530.9,594.6 1523.0,653.5 1514.6,707.4 1505.6,756.6 1496.0,801.2 1485.8,841.6 1475.1,877.8 1463.8,910.1 1451.9,938.7 1439.3,963.6 1426.0,985.1 1412.0,1003.2 1397.3,1018.1 1381.7,1029.7 1365.3,1038.3 1347.9,1043.7 1329.5,1046.0 1310.1,1045.3 1289.5,1041.5 1267.7,1034.5 1244.6,1024.4 1220.0,1011.1 1193.9,994.4 1166.2,974.3 1136.8,950.6 1105.5,923.2 1072.2,892.0 1036.8,856.7 999.2,817.2 959.2,773.2 916.6,724.6 871.4,671.0 823.3,612.2 772.2,547.9 717.9,477.9  Z" style="stroke-width: 2.0;  stroke: rgb(82,82,82); fill: rgb(251,106,74); opacity: 0.333;"/>
<path d="M 1136.854,2734.704 A 1287.000,1287.000 0.00 0,1 853.2,2612.7 L 853.2,2612.7 899.7,2535.6 946.5,2463.3 993.3,2395.2 1040.0,2331.1 1086.3,2270.5 1131.9,2213.0 1176.9,2158.3 1220.9,2106.1 1263.9,2056.1 1305.7,2007.8 1346.3,1961.1 1385.5,1915.6 1423.4,1871.0 1459.9,1827.1 1495.0,1783.7 1528.8,1740.4 1561.1,1697.2 1592.1,1653.7 1621.9,1609.7 1650.5,1565.2 1678.1,1519.8 1704.7,1473.5 1730.6,1426.1 1755.9,1377.5 1780.8,1327.5 1805.5,1276.0 1830.2,1223.0 1855.3,1168.4 1880.9,1112.0 1907.4,1053.9 1935.0,994.0 1964.2,932.2 1995.2,868.6 2028.4,803.2 2064.3,735.9 2103.2,666.8 2145.6,595.9 2191.9,523.2 2242.7,448.9  A 1287.000,1287.000 0.00 0,0 1989.5,309.7 L 1989.5,309.7 1956.6,393.5 1927.7,474.6 1902.2,553.1 1879.7,629.1 1859.8,702.7 1842.1,773.8 1826.1,842.7 1811.5,909.3 1798.1,973.8 1785.4,1036.3 1773.1,1096.9 1761.1,1155.7 1748.9,1212.9 1736.6,1268.6 1723.7,1322.9 1710.1,1376.0 1695.8,1428.0 1680.5,1479.2 1664.1,1529.6 1646.5,1579.6 1627.7,1629.2 1607.6,1678.7 1586.3,1728.3 1563.6,1778.1 1539.7,1828.5 1514.5,1879.7 1488.2,1931.9 1460.7,1985.3 1432.4,2040.2 1403.2,2096.9 1373.3,2155.7 1343.0,2216.8 1312.3,2280.5 1281.6,2347.1 1251.1,2416.9 1221.1,2490.2 1191.8,2567.4 1163.6,2648.8 1136.9,2734.7  Z" style="stroke-width: 2.0;  stroke: rgb(82,82,82); fill: rgb(251,106,74); opacity: 0.333;"/>
<path d="M 904.464,359.077 A 1287.000,1287.000 0.00 0,1 933.5,344.4 L 933.5,344.4 974.2,424.2 1015.1,498.6 1056.1,568.2 1097.1,633.2 1137.9,694.1 1178.5,751.3 1218.7,805.0 1258.6,855.8 1298.0,903.8 1336.9,949.4 1375.3,992.9 1413.3,1034.6 1450.7,1074.7 1487.6,1113.5 1524.1,1151.2 1560.3,1188.1 1596.1,1224.3 1631.8,1260.0 1667.3,1295.4 1702.9,1330.6 1738.7,1365.8 1774.7,1401.1 1811.3,1436.6 1848.5,1472.3 1886.6,1508.5 1925.8,1545.0 1966.3,1582.0 2008.3,1619.5 2052.2,1657.5 2098.2,1696.0 2146.6,1734.9 2197.8,1774.2 2252.0,1813.9 2309.5,1853.9 2370.8,1894.1 2436.3,1934.5 2506.2,1974.8 2581.1,2014.9 2661.3,2054.8  A 1287.000,1287.000 0.00 0,0 2674.9,2025.2 L 2674.9,2025.2 2593.8,1987.4 2517.9,1949.2 2447.0,1910.6 2380.5,1872.0 2318.2,1833.3 2259.7,1794.8 2204.5,1756.5 2152.4,1718.4 2103.0,1680.8 2056.0,1643.5 2011.2,1606.6 1968.2,1570.2 1926.8,1534.2 1886.7,1498.7 1847.7,1463.5 1809.6,1428.7 1772.1,1394.2 1735.2,1359.8 1698.6,1325.5 1662.1,1291.2 1625.7,1256.7 1589.1,1221.9 1552.4,1186.7 1515.3,1150.7 1477.8,1114.0 1439.9,1076.1 1401.5,1036.9 1362.6,996.2 1323.1,953.7 1283.0,909.1 1242.4,862.1 1201.3,812.4 1159.7,759.6 1117.6,703.5 1075.3,643.7 1032.7,579.7 989.9,511.2 947.1,437.8 904.5,359.1  Z" style="stroke-width: 2.0;  stroke: rgb(82,82,82); fill: rgb(251,106,74); opacity: 0.333;"/>
<path d="M 339.411,2056.239 A 1287.000,1287.000 0.00 0,1 286.9,1929.9 L 286.9,1929.9 372.2,1901.3 454.5,1876.4 534.0,1855.0 610.8,1836.4 684.9,1820.3 756.6,1806.4 825.8,1794.1 892.8,1783.3 957.6,1773.5 1020.4,1764.4 1081.3,1755.8 1140.5,1747.4 1198.0,1738.9 1254.1,1730.2 1309.0,1721.1 1362.7,1711.3 1415.5,1700.9 1467.6,1689.5 1519.1,1677.2 1570.1,1663.8 1621.1,1649.4 1672.0,1633.8 1723.2,1617.1 1774.8,1599.2 1827.1,1580.3 1880.3,1560.4 1934.6,1539.6 1990.3,1518.0 2047.6,1495.7 2106.8,1472.8 2168.1,1449.7 2231.8,1426.3 2298.2,1403.1 2367.5,1380.2 2440.0,1357.9 2516.1,1336.5 2595.9,1316.3 2679.9,1297.6 2768.2,1280.8  A 1287.000,1287.000 0.00 0,0 2740.2,1156.1 L 2740.2,1156.1 2654.0,1181.6 2572.3,1208.5 2494.9,1236.5 2421.4,1265.3 2351.5,1294.7 2284.8,1324.4 2221.1,1354.1 2160.1,1383.7 2101.4,1412.8 2044.9,1441.4 1990.1,1469.4 1936.9,1496.5 1885.0,1522.6 1834.1,1547.8 1784.0,1571.9 1734.4,1594.8 1685.2,1616.6 1636.2,1637.3 1587.0,1656.9 1537.6,1675.4 1487.7,1693.0 1437.1,1709.7 1385.7,1725.6 1333.3,1740.8 1279.7,1755.6 1224.8,1770.1 1168.5,1784.6 1110.6,1799.1 1050.9,1814.1 989.5,1829.7 926.1,1846.3 860.7,1864.2 793.2,1883.6 723.5,1905.1 651.4,1928.9 577.1,1955.5 500.3,1985.3 421.1,2018.7 339.4,2056.2  Z" style="stroke-width: 2.0;  stroke: rgb(82,82,82); fill: rgb(251,106,74); opacity: 0.333;"/>
<path d="M 2205.840,2576.178 A 1287.000,1287.000 0.00 0,1 2191.9,2585.2 L 2191.9,2585.2 2142.6,2510.4 2093.7,2441.0 2045.2,2376.5 1997.2,2316.5 1949.9,2260.6 1903.2,2208.4 1857.2,2159.5 1812.0,2113.6 1767.5,2070.3 1723.7,2029.4 1680.7,1990.6 1638.4,1953.5 1596.7,1918.0 1555.7,1883.7 1515.2,1850.4 1475.1,1818.0 1435.4,1786.2 1395.9,1754.9 1356.6,1724.0 1317.2,1693.2 1277.7,1662.4 1237.8,1631.7 1197.4,1600.8 1156.3,1569.7 1114.2,1538.4 1071.0,1506.8 1026.5,1475.0 980.3,1442.8 932.2,1410.4 882.0,1377.8 829.3,1345.1 773.9,1312.2 715.4,1279.4 653.4,1246.6 587.7,1214.2 517.9,1182.1 443.7,1150.6 364.5,1119.8 280.1,1089.9  A 1287.000,1287.000 0.00 0,0 274.3,1107.6 L 274.3,1107.6 359.1,1136.2 438.7,1165.9 513.4,1196.3 583.7,1227.4 649.8,1258.9 712.2,1290.7 771.2,1322.7 827.1,1354.7 880.2,1386.7 930.9,1418.6 979.4,1450.3 1026.1,1481.8 1071.0,1513.0 1114.6,1544.0 1157.1,1574.7 1198.6,1605.2 1239.5,1635.5 1279.8,1665.7 1319.7,1695.9 1359.5,1726.1 1399.2,1756.5 1439.1,1787.3 1479.2,1818.5 1519.7,1850.4 1560.7,1883.1 1602.2,1916.8 1644.3,1951.8 1687.1,1988.3 1730.6,2026.6 1774.9,2066.9 1819.9,2109.6 1865.7,2154.9 1912.3,2203.1 1959.6,2254.7 2007.7,2310.0 2056.4,2369.4 2105.7,2433.3 2155.6,2502.1 2205.8,2576.2  Z" style="stroke-width: 2.0;  stroke: rgb(82,82,82); fill: rgb(251,106,74); opacity: 0.333;"/>
<path d="M 2653.845,2070.097 A 1287.000,1287.000 0.00 0,1 2266.2,2534.1 L 2266.2,2534.1 2211.4,2462.6 2156.8,2395.8 2102.6,2333.2 2049.0,2274.4 1996.2,2218.9 1944.3,2166.5 1893.5,2116.7 1844.0,2069.3 1795.8,2023.7 1749.0,1979.8 1703.6,1937.2 1659.9,1895.7 1617.6,1854.8 1577.0,1814.5 1537.9,1774.4 1500.4,1734.3 1464.4,1693.9 1429.8,1653.1 1396.5,1611.7 1364.5,1569.4 1333.6,1526.2 1303.7,1481.8 1274.6,1436.2 1246.1,1389.3 1218.1,1340.8 1190.2,1290.8 1162.3,1239.1 1134.2,1185.7 1105.4,1130.5 1075.8,1073.6 1045.0,1014.8 1012.7,954.3 978.5,891.9 942.1,827.8 903.0,762.0 860.9,694.5 815.3,625.3 765.7,554.7 711.7,482.7  A 1287.000,1287.000 0.00 0,0 325.6,973.5 L 325.6,973.5 407.1,1011.7 484.1,1050.6 556.8,1090.1 625.7,1129.9 691.1,1169.5 753.4,1209.0 812.8,1247.9 869.7,1286.1 924.4,1323.5 977.2,1359.8 1028.3,1395.1 1078.2,1429.0 1127.0,1461.6 1174.9,1492.8 1222.3,1522.6 1269.4,1550.8 1316.4,1577.6 1363.5,1603.0 1410.9,1626.9 1458.9,1649.5 1507.5,1670.8 1557.1,1691.0 1607.7,1710.1 1659.4,1728.4 1712.6,1746.0 1767.2,1763.1 1823.4,1780.0 1881.3,1796.8 1941.0,1813.8 2002.7,1831.4 2066.3,1849.7 2132.1,1869.3 2199.9,1890.3 2269.9,1913.1 2342.2,1938.3 2416.7,1966.1 2493.4,1997.0 2572.5,2031.5 2653.8,2070.1  Z" style="stroke-width: 2.0;  stroke: rgb(82,82,82); fill: rgb(251,106,74); opacity: 0.333;"/>
<path d="M 213.258,1474.248 A 1287.000,1287.000 0.00 0,1 214.4,1440.7 L 214.4,1440.7 303.9,1443.5 388.8,1443.4 469.5,1440.9 546.1,1436.3 619.1,1429.8 688.7,1421.7 755.2,1412.3 818.7,1401.7 879.7,1390.2 938.4,1378.0 994.9,1365.2 1049.6,1352.0 1102.6,1338.4 1154.3,1324.6 1204.9,1310.7 1254.4,1296.6 1303.3,1282.4 1351.6,1268.2 1399.6,1253.9 1447.5,1239.4 1495.4,1224.8 1543.5,1209.9 1592.1,1194.7 1641.1,1179.0 1691.0,1162.7 1741.7,1145.6 1793.4,1127.6 1846.3,1108.3 1900.4,1087.7 1956.1,1065.5 2013.2,1041.3 2072.0,1014.9 2132.6,986.0 2195.0,954.3 2259.4,919.3 2325.9,880.8 2394.4,838.3 2465.2,791.3 2538.3,739.5  A 1287.000,1287.000 0.00 0,0 2519.9,715.0 L 2519.9,715.0 2448.1,768.5 2378.4,817.2 2310.9,861.3 2245.4,901.4 2181.8,937.9 2120.1,971.1 2060.2,1001.5 2002.1,1029.3 1945.5,1054.8 1890.4,1078.4 1836.7,1100.3 1784.3,1120.8 1733.0,1140.1 1682.7,1158.4 1633.3,1176.0 1584.6,1192.9 1536.4,1209.3 1488.7,1225.4 1441.1,1241.2 1393.6,1256.8 1346.0,1272.3 1298.0,1287.8 1249.5,1303.2 1200.3,1318.5 1150.1,1333.8 1098.8,1348.9 1046.0,1363.8 991.7,1378.5 935.5,1392.7 877.2,1406.4 816.5,1419.5 753.2,1431.7 687.0,1442.9 617.6,1452.7 544.8,1461.1 468.3,1467.8 387.7,1472.4 302.8,1474.6 213.3,1474.2  Z" style="stroke-width: 2.0;  stroke: rgb(82,82,82); fill: rgb(251,106,74); opacity: 0.333;"/>
<path d="M 1657.506,2777.326 A 1287.000,1287.000 0.00 0,1 1595.5,2783.5 L 1595.5,2783.5 1590.3,2693.6 1588.0,2607.6 1588.2,2525.1 1590.4,2445.9 1594.4,2369.9 1599.7,2296.9 1605.9,2226.6 1612.9,2158.8 1620.2,2093.4 1627.7,2030.2 1635.0,1968.9 1642.0,1909.3 1648.4,1851.3 1654.2,1794.6 1659.1,1739.1 1663.0,1684.5 1665.9,1630.6 1667.6,1577.2 1668.1,1524.2 1667.4,1471.3 1665.4,1418.3 1662.3,1365.0 1658.0,1311.2 1652.6,1256.8 1646.2,1201.4 1639.0,1144.9 1630.9,1087.0 1622.4,1027.7 1613.4,966.6 1604.3,903.6 1595.2,838.4 1586.4,770.9 1578.3,700.7 1571.0,627.9 1565.0,552.0 1560.7,472.9 1558.3,390.5 1558.3,304.4 1561.1,214.4  A 1287.000,1287.000 0.00 0,0 1500.1,213.0 L 1500.1,213.0 1501.6,302.9 1505.6,388.9 1511.9,471.2 1520.1,550.0 1529.6,625.5 1540.3,697.9 1551.8,767.6 1563.7,834.6 1575.9,899.3 1588.0,961.8 1599.9,1022.4 1611.3,1081.2 1622.0,1138.6 1632.0,1194.7 1641.0,1249.7 1649.0,1303.9 1655.8,1357.4 1661.5,1410.5 1666.0,1463.3 1669.2,1516.1 1671.3,1569.1 1672.1,1622.5 1671.8,1676.4 1670.5,1731.1 1668.3,1786.9 1665.3,1843.7 1661.7,1902.0 1657.6,1961.8 1653.2,2023.4 1648.8,2086.9 1644.6,2152.6 1641.0,2220.6 1638.1,2291.1 1636.4,2364.4 1636.1,2440.5 1637.7,2519.6 1641.5,2602.0 1647.9,2687.9 1657.5,2777.3  Z" style="stroke-width: 2.0;  stroke: rgb(82,82,82); fill: rgb(251,106,74); opacity: 0.333;"/>
<path d="M 285.063,1924.615 A 1287.000,1287.000 0.00 0,1 277.1,1901.0 L 277.1,1901.0 363.1,1874.4 446.2,1851.4 526.5,1831.7 604.2,1814.7 679.2,1800.1 751.8,1787.4 821.9,1776.2 889.6,1766.2 955.2,1757.1 1018.7,1748.6 1080.2,1740.2 1139.9,1731.9 1197.9,1723.3 1254.4,1714.2 1309.5,1704.4 1363.3,1693.8 1416.2,1682.1 1468.1,1669.4 1519.3,1655.4 1570.0,1640.0 1620.5,1623.3 1670.8,1605.1 1721.2,1585.5 1771.9,1564.5 1823.2,1542.1 1875.2,1518.4 1928.2,1493.4 1982.6,1467.2 2038.4,1440.0 2096.0,1412.0 2155.6,1383.2 2217.5,1353.9 2282.1,1324.4 2349.5,1294.7 2420.0,1265.3 2494.1,1236.4 2571.9,1208.3 2653.8,1181.3 2740.1,1155.8  A 1287.000,1287.000 0.00 0,0 2733.3,1132.0 L 2733.3,1132.0 2647.4,1159.1 2566.1,1187.7 2488.8,1217.3 2415.3,1247.6 2345.3,1278.4 2278.5,1309.3 2214.6,1340.1 2153.2,1370.6 2094.2,1400.5 2037.1,1429.7 1981.8,1457.9 1928.0,1485.1 1875.5,1511.1 1823.9,1535.9 1773.1,1559.3 1722.8,1581.3 1672.8,1601.8 1622.8,1620.9 1572.7,1638.6 1522.3,1655.0 1471.4,1670.0 1419.7,1683.7 1367.1,1696.4 1313.5,1708.1 1258.6,1718.9 1202.3,1729.1 1144.5,1738.8 1084.9,1748.3 1023.6,1757.8 960.3,1767.6 894.9,1778.0 827.3,1789.3 757.5,1801.8 685.2,1815.9 610.4,1832.0 533.1,1850.4 453.2,1871.7 370.5,1896.3 285.1,1924.6  Z" style="stroke-width: 2.0;  stroke: rgb(82,82,82); fill: rgb(251,106,74); opacity: 0.333;"/>
<path d="M 927.263,347.463 A 1287.000,1287.000 0.00 0,1 945.1,338.8 L 945.1,338.8 982.7,419.0 1016.6,494.0 1046.8,563.9 1073.5,629.1 1097.0,689.7 1117.4,746.2 1134.9,798.6 1149.5,847.3 1161.4,892.4 1170.7,934.1 1177.6,972.6 1182.0,1008.2 1184.0,1040.9 1183.8,1070.9 1181.2,1098.3 1176.4,1123.4 1169.4,1146.1 1160.0,1166.6 1148.4,1184.9 1134.4,1201.2 1118.1,1215.6 1099.3,1228.0 1077.9,1238.5 1053.9,1247.1 1027.2,1253.8 997.6,1258.7 965.0,1261.7 929.2,1262.9 890.0,1262.1 847.4,1259.3 801.0,1254.5 750.6,1247.5 696.1,1238.4 637.2,1227.0 573.7,1213.1 505.1,1196.7 431.4,1177.7 352.1,1155.8 267.0,1131.0  A 1287.000,1287.000 0.00 0,0 261.5,1150.0 L 261.5,1150.0 347.0,1173.6 426.6,1194.2 500.6,1212.1 569.4,1227.4 633.1,1240.3 692.2,1250.8 746.8,1259.1 797.3,1265.3 843.7,1269.4 886.4,1271.5 925.6,1271.7 961.4,1270.0 993.9,1266.5 1023.5,1261.1 1050.1,1254.0 1073.9,1245.0 1095.1,1234.2 1113.7,1221.5 1129.9,1206.9 1143.6,1190.4 1154.9,1171.8 1163.9,1151.2 1170.7,1128.4 1175.1,1103.3 1177.2,1075.8 1177.0,1045.8 1174.5,1013.1 1169.5,977.7 1162.1,939.2 1152.1,897.6 1139.5,852.7 1124.1,804.3 1105.9,752.2 1084.6,696.0 1060.2,635.7 1032.4,571.0 1001.2,501.5 966.2,427.1 927.3,347.5  Z" style="stroke-width: 2.0;  stroke: rgb(82,82,82); fill: rgb(251,106,74); opacity: 0.333;"/>
<path d="M 215.962,1412.734 A 1287.000,1287.000 0.00 0,1 249.1,1197.2 L 249.1,1197.2 336.3,1217.0 419.2,1233.1 498.1,1246.0 573.2,1256.0 644.9,1263.4 713.3,1268.4 778.6,1271.4 841.2,1272.5 901.3,1272.0 959.1,1270.1 1014.8,1266.9 1068.7,1262.6 1120.9,1257.3 1171.8,1251.1 1221.4,1244.2 1270.0,1236.6 1317.8,1228.3 1365.0,1219.3 1411.7,1209.7 1458.2,1199.5 1504.7,1188.6 1551.3,1176.9 1598.1,1164.3 1645.5,1150.8 1693.4,1136.3 1742.1,1120.5 1791.7,1103.4 1842.4,1084.7 1894.3,1064.2 1947.6,1041.7 2002.3,1016.9 2058.7,989.6 2116.8,959.5 2176.7,926.2 2238.6,889.4 2302.6,848.8 2368.8,803.9 2437.3,754.5 2508.1,699.9  A 1287.000,1287.000 0.00 0,0 2371.6,553.1 L 2371.6,553.1 2310.1,617.9 2250.1,677.4 2191.7,732.0 2134.7,782.1 2079.2,828.1 2025.1,870.4 1972.3,909.3 1920.8,945.1 1870.5,978.1 1821.3,1008.8 1773.1,1037.2 1725.9,1063.7 1679.4,1088.6 1633.7,1111.9 1588.5,1133.9 1543.8,1154.9 1499.4,1174.8 1455.2,1193.9 1411.0,1212.2 1366.6,1229.9 1321.9,1247.1 1276.6,1263.7 1230.7,1279.7 1183.9,1295.3 1135.9,1310.4 1086.7,1324.9 1035.9,1338.9 983.4,1352.2 928.9,1364.7 872.1,1376.3 812.8,1386.9 750.8,1396.4 685.8,1404.5 617.4,1411.1 545.5,1415.9 469.7,1418.8 389.7,1419.4 305.2,1417.5 216.0,1412.7  Z" style="stroke-width: 2.0;  stroke: rgb(82,82,82); fill: rgb(251,106,74); opacity: 0.333;"/>
<path d="M 568.117,2387.673 A 1287.000,1287.000 0.00 0,1 499.8,2309.9 L 499.8,2309.9 570.6,2254.5 640.0,2203.6 707.9,2156.7 774.2,2113.5 838.9,2073.4 901.9,2036.2 963.2,2001.3 1022.8,1968.5 1080.7,1937.3 1136.9,1907.4 1191.5,1878.6 1244.4,1850.5 1295.8,1822.8 1345.7,1795.4 1394.1,1767.9 1441.3,1740.1 1487.3,1711.9 1532.2,1683.1 1576.1,1653.5 1619.3,1622.9 1661.9,1591.3 1704.0,1558.6 1746.0,1524.7 1787.8,1489.4 1829.9,1452.9 1872.4,1415.0 1915.6,1375.8 1959.7,1335.2 2005.1,1293.4 2052.0,1250.3 2100.7,1206.1 2151.5,1160.9 2204.8,1114.7 2260.9,1067.7 2320.2,1020.0 2383.1,971.9 2449.8,923.5 2521.0,875.1 2596.9,826.8  A 1287.000,1287.000 0.00 0,0 2542.5,745.3 L 2542.5,745.3 2470.5,799.2 2403.3,852.9 2340.4,906.3 2281.4,959.0 2225.9,1011.0 2173.5,1062.2 2123.9,1112.3 2076.7,1161.3 2031.6,1209.0 1988.1,1255.6 1946.1,1300.7 1905.3,1344.5 1865.2,1386.9 1825.8,1428.0 1786.7,1467.6 1747.6,1506.0 1708.5,1543.1 1669.0,1579.0 1629.1,1613.8 1588.4,1647.6 1546.9,1680.6 1504.4,1712.9 1460.8,1744.6 1416.0,1776.0 1369.9,1807.2 1322.3,1838.5 1273.3,1870.2 1222.8,1902.4 1170.8,1935.5 1117.1,1969.7 1061.9,2005.4 1005.2,2042.9 946.9,2082.6 887.1,2124.7 825.8,2169.8 763.2,2218.2 699.3,2270.4 634.2,2326.7 568.1,2387.7  Z" style="stroke-width: 2.0;  stroke: rgb(82,82,82); fill: rgb(251,106,74); opacity: 0.333;"/>
<path d="M 802.643,418.306 A 1287.000,1287.000 0.00 0,1 826.5,403.3 L 826.5,403.3 874.8,479.3 923.4,550.6 972.0,617.7 1020.3,680.9 1068.1,740.7 1115.2,797.5 1161.5,851.5 1206.7,903.1 1250.8,952.6 1293.6,1000.4 1335.1,1046.8 1375.1,1092.0 1413.6,1136.3 1450.6,1180.1 1486.0,1223.4 1519.9,1266.7 1552.3,1310.0 1583.2,1353.7 1612.7,1397.9 1640.9,1442.7 1667.9,1488.5 1693.9,1535.3 1718.9,1583.2 1743.1,1632.5 1766.9,1683.3 1790.2,1735.5 1813.5,1789.5 1836.9,1845.1 1860.7,1902.6 1885.2,1961.9 1910.7,2023.1 1937.6,2086.2 1966.2,2151.3 1996.9,2218.4 2030.1,2287.4 2066.2,2358.4 2105.6,2431.2 2148.8,2505.9 2196.2,2582.4  A 1287.000,1287.000 0.00 0,0 2222.3,2565.2 L 2222.3,2565.2 2173.0,2489.9 2128.0,2416.2 2086.9,2344.4 2049.1,2274.3 2014.3,2206.1 1982.0,2139.8 1951.8,2075.5 1923.4,2013.0 1896.4,1952.4 1870.5,1893.7 1845.3,1836.9 1820.6,1781.8 1796.1,1728.5 1771.5,1676.8 1746.6,1626.6 1721.1,1577.9 1695.0,1530.5 1668.0,1484.4 1639.9,1439.3 1610.7,1395.0 1580.1,1351.6 1548.2,1308.6 1514.9,1266.0 1480.0,1223.6 1443.6,1181.0 1405.7,1138.1 1366.2,1094.7 1325.2,1050.4 1282.7,1004.9 1238.9,958.1 1193.7,909.5 1147.3,859.0 1099.9,806.0 1051.6,750.3 1002.5,691.6 952.8,629.4 902.8,563.4 852.6,493.2 802.6,418.3  Z" style="stroke-width: 2.0;  stroke: rgb(82,82,82); fill: rgb(251,106,74); opacity: 0.333;"/>
<path d="M 1594.487,2783.527 A 1287.000,1287.000 0.00 0,1 1538.0,2786.4 L 1538.0,2786.4 1535.8,2697.9 1534.6,2615.9 1534.4,2540.1 1535.1,2470.3 1536.7,2406.0 1539.1,2347.1 1542.3,2293.2 1546.4,2244.1 1551.2,2199.6 1556.8,2159.4 1563.1,2123.4 1570.3,2091.3 1578.2,2063.1 1586.9,2038.5 1596.5,2017.5 1606.8,1999.9 1618.1,1985.6 1630.2,1974.6 1643.3,1966.9 1657.5,1962.3 1672.6,1960.9 1688.9,1962.7 1706.4,1967.6 1725.1,1975.8 1745.1,1987.3 1766.6,2002.1 1789.6,2020.3 1814.2,2042.1 1840.4,2067.6 1868.5,2096.8 1898.5,2130.1 1930.6,2167.5 1964.8,2209.3 2001.3,2255.6 2040.2,2306.8 2081.7,2363.0 2125.9,2424.5 2173.0,2491.6 2223.1,2564.6  A 1287.000,1287.000 0.00 0,0 2265.1,2534.9 L 2265.1,2534.9 2212.1,2463.9 2162.4,2398.7 2115.8,2339.0 2072.1,2284.5 2031.2,2234.9 1992.9,2190.1 1957.0,2149.7 1923.6,2113.6 1892.3,2081.6 1863.1,2053.4 1835.9,2029.0 1810.5,2008.2 1786.9,1990.9 1764.9,1977.0 1744.5,1966.3 1725.6,1958.9 1708.0,1954.6 1691.7,1953.5 1676.7,1955.5 1662.9,1960.6 1650.3,1968.9 1638.7,1980.3 1628.1,1995.0 1618.6,2013.0 1610.1,2034.4 1602.5,2059.3 1595.9,2087.8 1590.2,2120.1 1585.5,2156.4 1581.7,2196.7 1578.9,2241.4 1577.0,2290.6 1576.2,2344.6 1576.4,2403.6 1577.7,2467.8 1580.0,2537.6 1583.6,2613.3 1588.4,2695.2 1594.5,2783.5  Z" style="stroke-width: 2.0;  stroke: rgb(82,82,82); fill: rgb(251,106,74); opacity: 0.333;"/>
<path d="M 1519.845,2786.847 A 1287.000,1287.000 0.00 0,1 1174.2,2745.1 L 1174.2,2745.1 1198.4,2658.4 1224.1,2576.3 1251.0,2498.4 1278.8,2424.3 1307.2,2353.7 1335.9,2286.4 1364.6,2222.0 1393.2,2160.2 1421.4,2100.9 1449.0,2043.5 1475.9,1988.0 1501.9,1934.0 1526.9,1881.4 1550.9,1829.7 1573.7,1778.9 1595.3,1728.6 1615.7,1678.7 1634.8,1628.9 1652.8,1579.0 1669.6,1528.9 1685.2,1478.2 1699.9,1426.9 1713.7,1374.8 1726.7,1321.7 1739.1,1267.3 1751.1,1211.7 1762.8,1154.5 1774.5,1095.8 1786.4,1035.3 1798.9,972.9 1812.2,908.5 1826.5,842.0 1842.3,773.3 1860.0,702.2 1879.8,628.8 1902.2,552.9 1927.6,474.5 1956.5,393.4 1989.3,309.7  A 1287.000,1287.000 0.00 0,0 1659.8,223.0 L 1659.8,223.0 1650.1,312.4 1643.5,398.2 1639.6,480.5 1637.9,559.6 1638.0,635.6 1639.7,708.8 1642.5,779.2 1646.1,847.1 1650.2,912.7 1654.6,976.1 1659.0,1037.6 1663.2,1097.4 1666.9,1155.6 1670.1,1212.4 1672.5,1268.0 1674.0,1322.7 1674.5,1376.6 1673.9,1430.0 1672.2,1482.9 1669.3,1535.7 1665.2,1588.6 1660.0,1641.6 1653.6,1695.2 1646.2,1749.4 1637.7,1804.4 1628.4,1860.6 1618.4,1918.0 1607.7,1976.9 1596.7,2037.6 1585.4,2100.2 1574.1,2164.9 1563.1,2232.0 1552.7,2301.7 1543.1,2374.2 1534.7,2449.8 1527.7,2528.6 1522.7,2610.9 1519.9,2696.9 1519.8,2786.8  Z" style="stroke-width: 2.0;  stroke: rgb(82,82,82); fill: rgb(251,106,74); opacity: 0.333;"/>
<path d="M 865.138,380.483 A 1287.000,1287.000 0.00 0,1 876.1,374.3 L 876.1,374.3 921.1,452.3 966.4,525.7 1011.9,594.9 1057.3,660.2 1102.4,722.1 1147.0,780.8 1190.8,836.8 1233.7,890.4 1275.5,941.8 1316.2,991.4 1355.5,1039.5 1393.5,1086.4 1430.0,1132.4 1465.1,1177.6 1498.6,1222.5 1530.6,1267.1 1561.1,1311.8 1590.2,1356.7 1617.8,1402.1 1644.1,1448.1 1669.2,1494.9 1693.2,1542.7 1716.3,1591.7 1738.5,1641.9 1760.2,1693.5 1781.4,1746.7 1802.5,1801.5 1823.7,1858.0 1845.2,1916.3 1867.4,1976.5 1890.5,2038.7 1914.9,2102.8 1940.9,2168.9 1969.0,2237.1 1999.4,2307.3 2032.7,2379.6 2069.3,2453.9 2109.5,2530.2 2154.0,2608.4  A 1287.000,1287.000 0.00 0,0 2164.8,2602.0 L 2164.8,2602.0 2119.6,2524.2 2078.6,2448.3 2041.3,2374.3 2007.3,2302.4 1976.1,2232.5 1947.4,2164.6 1920.7,2098.7 1895.7,2034.8 1872.0,1972.9 1849.2,1912.9 1827.2,1854.8 1805.4,1798.5 1783.8,1743.9 1762.0,1691.0 1739.9,1639.6 1717.1,1589.6 1693.6,1540.8 1669.2,1493.3 1643.6,1446.7 1616.8,1400.9 1588.8,1355.8 1559.3,1311.2 1528.3,1266.8 1495.9,1222.5 1461.9,1178.0 1426.4,1133.1 1389.5,1087.5 1351.0,1041.0 1311.2,993.2 1270.0,944.0 1227.7,893.0 1184.3,839.9 1139.9,784.3 1094.8,726.0 1049.1,664.6 1003.1,599.7 956.9,531.0 910.8,458.1 865.1,380.5  Z" style="stroke-width: 2.0;  stroke: rgb(82,82,82); fill: rgb(251,106,74); opacity: 0.333;"/>
<path d="M 2596.283,825.810 A 1287.000,1287.000 0.00 0,1 2722.9,1098.9 L 2722.9,1098.9 2637.9,1128.3 2557.5,1159.0 2481.3,1190.6 2409.0,1222.9 2340.3,1255.5 2274.8,1288.2 2212.2,1320.8 2152.3,1353.1 2094.7,1384.8 2039.1,1415.9 1985.2,1446.1 1932.9,1475.3 1881.8,1503.4 1831.6,1530.4 1782.2,1556.2 1733.3,1580.7 1684.6,1604.0 1636.0,1626.0 1587.3,1646.9 1538.2,1666.5 1488.5,1685.1 1438.1,1702.7 1386.8,1719.4 1334.5,1735.4 1280.9,1750.8 1226.0,1765.9 1169.6,1780.8 1111.6,1795.8 1051.8,1811.1 990.1,1827.0 926.5,1843.8 860.9,1861.8 793.1,1881.3 723.1,1902.8 650.8,1926.6 576.3,1953.1 499.3,1982.8 419.9,2016.1 338.1,2053.5  A 1287.000,1287.000 0.00 0,0 501.2,2311.7 L 501.2,2311.7 571.9,2256.1 641.2,2205.0 709.0,2158.1 775.3,2114.7 839.9,2074.6 902.8,2037.2 964.1,2002.3 1023.6,1969.3 1081.5,1938.0 1137.6,1908.1 1192.1,1879.2 1245.0,1851.0 1296.3,1823.3 1346.2,1795.7 1394.6,1768.2 1441.7,1740.3 1487.6,1712.1 1532.5,1683.2 1576.4,1653.5 1619.6,1622.9 1662.1,1591.2 1704.2,1558.5 1746.1,1524.5 1787.9,1489.2 1830.0,1452.6 1872.4,1414.7 1915.6,1375.4 1959.7,1334.8 2005.0,1293.0 2051.8,1249.9 2100.4,1205.6 2151.2,1160.3 2204.5,1114.1 2260.6,1067.0 2319.8,1019.3 2382.6,971.1 2449.4,922.7 2520.4,874.2 2596.3,825.8  Z" style="stroke-width: 2.0;  stroke: rgb(82,82,82); fill: rgb(251,106,74); opacity: 0.333;"/>
<path d="M 264.736,1861.236 A 1287.000,1287.000 0.00 0,1 213.2,1479.2 L 213.2,1479.2 303.1,1482.1 389.0,1487.6 471.2,1495.2 549.8,1504.6 625.2,1515.4 697.5,1527.3 767.0,1539.8 833.9,1552.8 898.5,1566.0 960.8,1579.1 1021.3,1591.9 1080.0,1604.1 1137.2,1615.7 1193.2,1626.5 1248.1,1636.3 1302.2,1645.0 1355.6,1652.5 1408.6,1658.9 1461.4,1664.0 1514.2,1667.9 1567.2,1670.5 1620.6,1672.0 1674.5,1672.3 1729.3,1671.6 1785.0,1669.9 1842.0,1667.4 1900.3,1664.3 1960.2,1660.8 2021.9,1656.9 2085.5,1653.1 2151.2,1649.5 2219.3,1646.4 2289.9,1644.1 2363.2,1642.9 2439.3,1643.3 2518.5,1645.4 2600.9,1649.9 2686.7,1657.0 2776.1,1667.2  A 1287.000,1287.000 0.00 0,0 2768.3,1281.2 L 2768.3,1281.2 2679.9,1298.0 2595.8,1316.6 2515.8,1336.8 2439.5,1358.2 2366.7,1380.5 2297.1,1403.3 2230.3,1426.4 2166.2,1449.6 2104.5,1472.5 2044.9,1495.1 1987.1,1517.0 1931.0,1538.2 1876.2,1558.4 1822.6,1577.7 1769.8,1595.8 1717.7,1612.7 1666.1,1628.4 1614.7,1642.9 1563.3,1656.0 1511.8,1668.0 1459.8,1678.7 1407.3,1688.4 1354.0,1697.0 1299.8,1704.7 1244.5,1711.6 1187.8,1717.9 1129.7,1723.8 1070.0,1729.5 1008.4,1735.2 945.0,1741.2 879.5,1747.7 811.7,1755.1 741.6,1763.7 669.0,1773.8 593.8,1785.8 515.9,1800.1 435.2,1817.2 351.5,1837.4 264.7,1861.2  Z" style="stroke-width: 2.0;  stroke: rgb(82,82,82); fill: rgb(251,106,74); opacity: 0.333;"/>
<path d="M 280.516,1088.626 A 1287.000,1287.000 0.00 0,1 325.6,973.6 L 325.6,973.6 407.4,1009.0 485.2,1040.1 559.2,1067.2 629.5,1090.7 696.6,1110.8 760.5,1127.8 821.5,1142.0 879.8,1153.6 935.7,1162.8 989.3,1169.8 1040.9,1174.8 1090.6,1177.9 1138.7,1179.2 1185.3,1178.9 1230.7,1177.0 1275.0,1173.7 1318.3,1168.9 1361.0,1162.6 1403.0,1155.0 1444.7,1145.9 1486.1,1135.4 1527.5,1123.3 1568.9,1109.6 1610.6,1094.3 1652.6,1077.1 1695.2,1058.0 1738.3,1036.8 1782.3,1013.3 1827.1,987.4 1873.0,958.7 1920.0,927.1 1968.2,892.3 2017.8,854.0 2068.8,811.9 2121.4,765.8 2175.7,715.1 2231.7,659.7 2289.5,599.1 2349.2,532.9  A 1287.000,1287.000 0.00 0,0 2254.2,457.1 L 2254.2,457.1 2201.0,528.7 2149.1,594.5 2098.6,654.9 2049.4,710.4 2001.4,761.4 1954.5,808.1 1908.7,850.9 1864.0,890.1 1820.2,926.0 1777.2,958.9 1735.0,989.0 1693.5,1016.5 1652.5,1041.7 1612.0,1064.8 1571.7,1085.8 1531.7,1105.1 1491.7,1122.6 1451.6,1138.5 1411.4,1153.0 1370.7,1166.0 1329.6,1177.6 1287.7,1187.9 1245.0,1196.8 1201.2,1204.4 1156.2,1210.6 1109.8,1215.3 1061.8,1218.6 1012.0,1220.3 960.1,1220.3 906.1,1218.5 849.6,1214.6 790.4,1208.7 728.3,1200.4 663.0,1189.6 594.3,1176.0 522.0,1159.4 445.8,1139.5 365.4,1116.0 280.5,1088.6  Z" style="stroke-width: 2.0;  stroke: rgb(82,82,82); fill: rgb(251,106,74); opacity: 0.333;"/>
</g>
</svg>
