<?xml version="1.0" encoding="utf-8" standalone="no"?>
<!DOCTYPE svg PUBLIC "-//W3C//DTD SVG 1.1//EN" "http://www.w3.org/Graphics/SVG/1.1/DTD/svg11.dtd">
<svg width="3000px" height="3000px" version="1.1" xmlns="http://www.w3.org/2000/svg" xmlns:xlink="http://www.w3.org/1999/xlink">
<g id="ideograms">
<g id="highlighttrack_0">
</g>
<path d="M1500.000,200.000 A1300.000,1300.000 40.000 0,1 1738.323,2777.968 L1747.490,2827.121 A1350.000,1350.000 0.000 0,0 1500.000,150.000 Z" style="stroke-linecap:round;fill:rgb(251,106,74);"/>
<text x="2914.0" y="1369.3" font-size="104.0px" font-family="CMUBright-Roman" style="text-anchor:middle;fill:rgb(0,0,0);" transform="rotate(444.7,2914.0,1369.3)">1</text>
<line x1='1500.0' y1='150.0' x2='1500.0' y2='130.0' style="stroke-width:4.0;stroke:rgb(0,0,0);stroke-linecap:round;fill:none;"/>
<text x="1507.5" y="120.0" font-size="19.5px" font-family="CMUBright-Roman" style="text-anchor:start;fill:rgb(0,0,0);" transform="rotate(270.0,1507.5,120.0)">0</text>
<line x1='1626.2' y1='155.9' x2='1628.1' y2='136.0' style="stroke-width:4.0;stroke:rgb(0,0,0);stroke-linecap:round;fill:none;"/>
<text x="1636.5" y="126.8" font-size="19.5px" font-family="CMUBright-Roman" style="text-anchor:start;fill:rgb(0,0,0);" transform="rotate(275.4,1636.5,126.8)">50</text>
<line x1='1751.4' y1='173.6' x2='1755.1' y2='154.0' style="stroke-width:4.0;stroke:rgb(0,0,0);stroke-linecap:round;fill:none;"/>
<text x="1764.3" y="145.6" font-size="19.5px" font-family="CMUBright-Roman" style="text-anchor:start;fill:rgb(0,0,0);" transform="rotate(280.7,1764.3,145.6)">100</text>
<line x1='1874.3' y1='202.9' x2='1879.9' y2='183.7' style="stroke-width:4.0;stroke:rgb(0,0,0);stroke-linecap:round;fill:none;"/>
<text x="1889.8" y="176.2" font-size="19.5px" font-family="CMUBright-Roman" style="text-anchor:start;fill:rgb(0,0,0);" transform="rotate(286.1,1889.8,176.2)">150</text>
<line x1='1994.0' y1='243.6' x2='2001.3' y2='225.0' style="stroke-width:4.0;stroke:rgb(0,0,0);stroke-linecap:round;fill:none;"/>
<text x="2011.9" y="218.5" font-size="19.5px" font-family="CMUBright-Roman" style="text-anchor:start;fill:rgb(0,0,0);" transform="rotate(291.5,2011.9,218.5)">200</text>
<line x1='2109.3' y1='295.3' x2='2118.3' y2='277.5' style="stroke-width:4.0;stroke:rgb(0,0,0);stroke-linecap:round;fill:none;"/>
<text x="2129.5" y="272.0" font-size="19.5px" font-family="CMUBright-Roman" style="text-anchor:start;fill:rgb(0,0,0);" transform="rotate(296.8,2129.5,272.0)">250</text>
<line x1='2219.3' y1='357.6' x2='2229.9' y2='340.7' style="stroke-width:4.0;stroke:rgb(0,0,0);stroke-linecap:round;fill:none;"/>
<text x="2241.6" y="336.2" font-size="19.5px" font-family="CMUBright-Roman" style="text-anchor:start;fill:rgb(0,0,0);" transform="rotate(302.2,2241.6,336.2)">300</text>
<line x1='2323.0' y1='429.9' x2='2335.2' y2='414.0' style="stroke-width:4.0;stroke:rgb(0,0,0);stroke-linecap:round;fill:none;"/>
<text x="2347.2" y="410.7" font-size="19.5px" font-family="CMUBright-Roman" style="text-anchor:start;fill:rgb(0,0,0);" transform="rotate(307.6,2347.2,410.7)">350</text>
<line x1='2419.4' y1='511.5' x2='2433.1' y2='496.9' style="stroke-width:4.0;stroke:rgb(0,0,0);stroke-linecap:round;fill:none;"/>
<text x="2445.4" y="494.7" font-size="19.5px" font-family="CMUBright-Roman" style="text-anchor:start;fill:rgb(0,0,0);" transform="rotate(312.9,2445.4,494.7)">400</text>
<line x1='2507.9' y1='601.8' x2='2522.8' y2='588.5' style="stroke-width:4.0;stroke:rgb(0,0,0);stroke-linecap:round;fill:none;"/>
<text x="2535.2" y="587.5" font-size="19.5px" font-family="CMUBright-Roman" style="text-anchor:start;fill:rgb(0,0,0);" transform="rotate(318.3,2535.2,587.5)">450</text>
<line x1='2587.4' y1='700.0' x2='2603.5' y2='688.2' style="stroke-width:4.0;stroke:rgb(0,0,0);stroke-linecap:round;fill:none;"/>
<text x="2616.0" y="688.3" font-size="19.5px" font-family="CMUBright-Roman" style="text-anchor:start;fill:rgb(0,0,0);" transform="rotate(323.7,2616.0,688.3)">500</text>
<line x1='2657.5' y1='805.2' x2='2674.6' y2='794.9' style="stroke-width:4.0;stroke:rgb(0,0,0);stroke-linecap:round;fill:none;"/>
<text x="2687.0" y="796.2" font-size="19.5px" font-family="CMUBright-Roman" style="text-anchor:start;fill:rgb(0,0,0);" transform="rotate(329.0,2687.0,796.2)">550</text>
<line x1='2717.4' y1='916.5' x2='2735.4' y2='907.8' style="stroke-width:4.0;stroke:rgb(0,0,0);stroke-linecap:round;fill:none;"/>
<text x="2747.7" y="910.3" font-size="19.5px" font-family="CMUBright-Roman" style="text-anchor:start;fill:rgb(0,0,0);" transform="rotate(334.4,2747.7,910.3)">600</text>
<line x1='2766.6' y1='1032.9' x2='2785.4' y2='1026.0' style="stroke-width:4.0;stroke:rgb(0,0,0);stroke-linecap:round;fill:none;"/>
<text x="2797.3" y="1029.6" font-size="19.5px" font-family="CMUBright-Roman" style="text-anchor:start;fill:rgb(0,0,0);" transform="rotate(339.8,2797.3,1029.6)">650</text>
<line x1='2804.7' y1='1153.4' x2='2824.1' y2='1148.3' style="stroke-width:4.0;stroke:rgb(0,0,0);stroke-linecap:round;fill:none;"/>
<text x="2835.6" y="1152.9" font-size="19.5px" font-family="CMUBright-Roman" style="text-anchor:start;fill:rgb(0,0,0);" transform="rotate(345.1,2835.6,1152.9)">700</text>
<line x1='2831.4' y1='1276.9' x2='2851.2' y2='1273.6' style="stroke-width:4.0;stroke:rgb(0,0,0);stroke-linecap:round;fill:none;"/>
<text x="2862.2" y="1279.4" font-size="19.5px" font-family="CMUBright-Roman" style="text-anchor:start;fill:rgb(0,0,0);" transform="rotate(350.5,2862.2,1279.4)">750</text>
<line x1='2846.5' y1='1402.4' x2='2866.4' y2='1401.0' style="stroke-width:4.0;stroke:rgb(0,0,0);stroke-linecap:round;fill:none;"/>
<text x="2876.9" y="1407.7" font-size="19.5px" font-family="CMUBright-Roman" style="text-anchor:start;fill:rgb(0,0,0);" transform="rotate(355.9,2876.9,1407.7)">800</text>
<line x1='2849.7' y1='1528.8' x2='2869.7' y2='1529.2' style="stroke-width:4.0;stroke:rgb(0,0,0);stroke-linecap:round;fill:none;"/>
<text x="2879.5" y="1536.9" font-size="19.5px" font-family="CMUBright-Roman" style="text-anchor:start;fill:rgb(0,0,0);" transform="rotate(1.2,2879.5,1536.9)">850</text>
<line x1='2841.1' y1='1654.8' x2='2861.0' y2='1657.1' style="stroke-width:4.0;stroke:rgb(0,0,0);stroke-linecap:round;fill:none;"/>
<text x="2870.0" y="1665.7" font-size="19.5px" font-family="CMUBright-Roman" style="text-anchor:start;fill:rgb(0,0,0);" transform="rotate(6.6,2870.0,1665.7)">900</text>
<line x1='2820.7' y1='1779.6' x2='2840.3' y2='1783.7' style="stroke-width:4.0;stroke:rgb(0,0,0);stroke-linecap:round;fill:none;"/>
<text x="2848.5" y="1793.1" font-size="19.5px" font-family="CMUBright-Roman" style="text-anchor:start;fill:rgb(0,0,0);" transform="rotate(12.0,2848.5,1793.1)">950</text>
<line x1='2788.8' y1='1901.9' x2='2807.9' y2='1907.8' style="stroke-width:4.0;stroke:rgb(0,0,0);stroke-linecap:round;fill:none;"/>
<text x="2815.2" y="1917.9" font-size="19.5px" font-family="CMUBright-Roman" style="text-anchor:start;fill:rgb(0,0,0);" transform="rotate(17.3,2815.2,1917.9)">1000</text>
<line x1='2745.6' y1='2020.6' x2='2764.0' y2='2028.3' style="stroke-width:4.0;stroke:rgb(0,0,0);stroke-linecap:round;fill:none;"/>
<text x="2770.3" y="2039.1" font-size="19.5px" font-family="CMUBright-Roman" style="text-anchor:start;fill:rgb(0,0,0);" transform="rotate(22.7,2770.3,2039.1)">1050</text>
<line x1='2691.4' y1='2134.8' x2='2709.1' y2='2144.2' style="stroke-width:4.0;stroke:rgb(0,0,0);stroke-linecap:round;fill:none;"/>
<text x="2714.4" y="2155.5" font-size="19.5px" font-family="CMUBright-Roman" style="text-anchor:start;fill:rgb(0,0,0);" transform="rotate(28.0,2714.4,2155.5)">1100</text>
<line x1='2626.8' y1='2243.5' x2='2643.5' y2='2254.5' style="stroke-width:4.0;stroke:rgb(0,0,0);stroke-linecap:round;fill:none;"/>
<text x="2647.7" y="2266.2" font-size="19.5px" font-family="CMUBright-Roman" style="text-anchor:start;fill:rgb(0,0,0);" transform="rotate(33.4,2647.7,2266.2)">1150</text>
<line x1='2552.4' y1='2345.6' x2='2568.0' y2='2358.1' style="stroke-width:4.0;stroke:rgb(0,0,0);stroke-linecap:round;fill:none;"/>
<text x="2571.0" y="2370.2" font-size="19.5px" font-family="CMUBright-Roman" style="text-anchor:start;fill:rgb(0,0,0);" transform="rotate(38.8,2571.0,2370.2)">1200</text>
<line x1='2468.7' y1='2440.3' x2='2483.0' y2='2454.2' style="stroke-width:4.0;stroke:rgb(0,0,0);stroke-linecap:round;fill:none;"/>
<text x="2485.0" y="2466.6" font-size="19.5px" font-family="CMUBright-Roman" style="text-anchor:start;fill:rgb(0,0,0);" transform="rotate(44.1,2485.0,2466.6)">1250</text>
<line x1='2376.5' y1='2526.8' x2='2389.5' y2='2542.0' style="stroke-width:4.0;stroke:rgb(0,0,0);stroke-linecap:round;fill:none;"/>
<text x="2390.3" y="2554.4" font-size="19.5px" font-family="CMUBright-Roman" style="text-anchor:start;fill:rgb(0,0,0);" transform="rotate(49.5,2390.3,2554.4)">1300</text>
<line x1='2276.7' y1='2604.2' x2='2288.2' y2='2620.6' style="stroke-width:4.0;stroke:rgb(0,0,0);stroke-linecap:round;fill:none;"/>
<text x="2287.8" y="2633.1" font-size="19.5px" font-family="CMUBright-Roman" style="text-anchor:start;fill:rgb(0,0,0);" transform="rotate(54.9,2287.8,2633.1)">1350</text>
<line x1='2170.0' y1='2672.0' x2='2179.9' y2='2689.4' style="stroke-width:4.0;stroke:rgb(0,0,0);stroke-linecap:round;fill:none;"/>
<text x="2178.4" y="2701.8" font-size="19.5px" font-family="CMUBright-Roman" style="text-anchor:start;fill:rgb(0,0,0);" transform="rotate(60.2,2178.4,2701.8)">1400</text>
<line x1='2057.4' y1='2729.5' x2='2065.7' y2='2747.7' style="stroke-width:4.0;stroke:rgb(0,0,0);stroke-linecap:round;fill:none;"/>
<text x="2063.0" y="2759.9" font-size="19.5px" font-family="CMUBright-Roman" style="text-anchor:start;fill:rgb(0,0,0);" transform="rotate(65.6,2063.0,2759.9)">1450</text>
<line x1='1940.0' y1='2776.3' x2='1946.5' y2='2795.2' style="stroke-width:4.0;stroke:rgb(0,0,0);stroke-linecap:round;fill:none;"/>
<text x="1942.7" y="2807.1" font-size="19.5px" font-family="CMUBright-Roman" style="text-anchor:start;fill:rgb(0,0,0);" transform="rotate(71.0,1942.7,2807.1)">1500</text>
<line x1='1818.7' y1='2811.8' x2='1823.5' y2='2831.3' style="stroke-width:4.0;stroke:rgb(0,0,0);stroke-linecap:round;fill:none;"/>
<text x="1818.5" y="2842.7" font-size="19.5px" font-family="CMUBright-Roman" style="text-anchor:start;fill:rgb(0,0,0);" transform="rotate(76.3,1818.5,2842.7)">1550</text>
<g id="highlighttrack_0">
<path d="M2735.403,1095.302 A1300.000,1300.000 40.000 0,1 2745.189,1126.497 L2793.081,1112.131 A1350.000,1350.000 0.000 0,0 2782.918,1079.737 Z" style="stroke-width:4.0;stroke:rgb(0,0,0);stroke-linecap:round;fill:rgb(107,174,214);fill-opacity:0.50;"/>
<path d="M2787.860,1677.246 A1300.000,1300.000 40.000 0,1 2692.120,2018.508 L2737.971,2038.450 A1350.000,1350.000 0.000 0,0 2837.393,1684.063 Z" style="stroke-width:4.0;stroke:rgb(0,0,0);stroke-linecap:round;fill:rgb(107,174,214);fill-opacity:0.50;"/>
<path d="M2153.870,2623.590 A1300.000,1300.000 40.000 0,1 1746.502,2776.416 L1755.983,2825.508 A1350.000,1350.000 0.000 0,0 2179.019,2666.805 Z" style="stroke-width:4.0;stroke:rgb(0,0,0);stroke-linecap:round;fill:rgb(107,174,214);fill-opacity:0.50;"/>
<path d="M2203.266,2593.351 A1300.000,1300.000 40.000 0,1 2171.901,2612.901 L2197.743,2655.705 A1350.000,1350.000 0.000 0,0 2230.314,2635.403 Z" style="stroke-width:4.0;stroke:rgb(0,0,0);stroke-linecap:round;fill:rgb(107,174,214);fill-opacity:0.50;"/>
<path d="M1561.694,201.465 A1300.000,1300.000 40.000 0,1 1655.204,209.298 L1661.174,159.656 A1350.000,1350.000 0.000 0,0 1564.066,151.521 Z" style="stroke-width:4.0;stroke:rgb(0,0,0);stroke-linecap:round;fill:rgb(107,174,214);fill-opacity:0.50;"/>
<path d="M1994.412,297.687 A1300.000,1300.000 40.000 0,1 2250.154,438.271 L2279.006,397.435 A1350.000,1350.000 0.000 0,0 2013.427,251.444 Z" style="stroke-width:4.0;stroke:rgb(0,0,0);stroke-linecap:round;fill:rgb(107,174,214);fill-opacity:0.50;"/>
<path d="M2686.813,2030.543 A1300.000,1300.000 40.000 0,1 2673.014,2060.391 L2718.130,2081.945 A1350.000,1350.000 0.000 0,0 2732.459,2050.949 Z" style="stroke-width:4.0;stroke:rgb(0,0,0);stroke-linecap:round;fill:rgb(107,174,214);fill-opacity:0.50;"/>
<path d="M2752.741,1152.669 A1300.000,1300.000 40.000 0,1 2781.014,1278.632 L2830.284,1270.118 A1350.000,1350.000 0.000 0,0 2800.924,1139.310 Z" style="stroke-width:4.0;stroke:rgb(0,0,0);stroke-linecap:round;fill:rgb(107,174,214);fill-opacity:0.50;"/>
<path d="M2212.971,2587.047 A1300.000,1300.000 40.000 0,1 2198.904,2596.145 L2225.785,2638.304 A1350.000,1350.000 0.000 0,0 2240.393,2628.857 Z" style="stroke-width:4.0;stroke:rgb(0,0,0);stroke-linecap:round;fill:rgb(107,174,214);fill-opacity:0.50;"/>
<path d="M2665.500,2075.856 A1300.000,1300.000 40.000 0,1 2273.899,2544.548 L2303.664,2584.723 A1350.000,1350.000 0.000 0,0 2710.327,2098.004 Z" style="stroke-width:4.0;stroke:rgb(0,0,0);stroke-linecap:round;fill:rgb(107,174,214);fill-opacity:0.50;"/>
<path d="M2530.200,707.101 A1300.000,1300.000 40.000 0,1 2548.784,731.851 L2589.121,702.307 A1350.000,1350.000 0.000 0,0 2569.823,676.605 Z" style="stroke-width:4.0;stroke:rgb(0,0,0);stroke-linecap:round;fill:rgb(107,174,214);fill-opacity:0.50;"/>
<path d="M1500.100,200.000 A1300.000,1300.000 40.000 0,1 1561.689,201.464 L1564.061,151.521 A1350.000,1350.000 0.000 0,0 1500.104,150.000 Z" style="stroke-width:4.0;stroke:rgb(0,0,0);stroke-linecap:round;fill:rgb(107,174,214);fill-opacity:0.50;"/>
<path d="M2745.726,1128.291 A1300.000,1300.000 40.000 0,1 2752.656,1152.361 L2800.835,1138.990 A1350.000,1350.000 0.000 0,0 2793.638,1113.994 Z" style="stroke-width:4.0;stroke:rgb(0,0,0);stroke-linecap:round;fill:rgb(107,174,214);fill-opacity:0.50;"/>
<path d="M2380.400,543.498 A1300.000,1300.000 40.000 0,1 2518.290,691.862 L2557.455,660.780 A1350.000,1350.000 0.000 0,0 2414.262,506.710 Z" style="stroke-width:4.0;stroke:rgb(0,0,0);stroke-linecap:round;fill:rgb(107,174,214);fill-opacity:0.50;"/>
<path d="M2553.028,737.679 A1300.000,1300.000 40.000 0,1 2607.947,819.961 L2650.560,793.805 A1350.000,1350.000 0.000 0,0 2593.529,708.359 Z" style="stroke-width:4.0;stroke:rgb(0,0,0);stroke-linecap:round;fill:rgb(107,174,214);fill-opacity:0.50;"/>
<path d="M2229.637,2575.932 A1300.000,1300.000 40.000 0,1 2203.264,2593.353 L2230.312,2635.405 A1350.000,1350.000 0.000 0,0 2257.700,2617.314 Z" style="stroke-width:4.0;stroke:rgb(0,0,0);stroke-linecap:round;fill:rgb(107,174,214);fill-opacity:0.50;"/>
<path d="M2272.870,2545.310 A1300.000,1300.000 40.000 0,1 2230.435,2575.390 L2258.529,2616.752 A1350.000,1350.000 0.000 0,0 2302.595,2585.514 Z" style="stroke-width:4.0;stroke:rgb(0,0,0);stroke-linecap:round;fill:rgb(107,174,214);fill-opacity:0.50;"/>
<path d="M1661.456,210.065 A1300.000,1300.000 40.000 0,1 1994.283,297.634 L2013.294,251.389 A1350.000,1350.000 0.000 0,0 1667.666,160.452 Z" style="stroke-width:4.0;stroke:rgb(0,0,0);stroke-linecap:round;fill:rgb(107,174,214);fill-opacity:0.50;"/>
<path d="M2171.546,2613.115 A1300.000,1300.000 40.000 0,1 2160.633,2619.627 L2186.042,2662.689 A1350.000,1350.000 0.000 0,0 2197.375,2655.927 Z" style="stroke-width:4.0;stroke:rgb(0,0,0);stroke-linecap:round;fill:rgb(107,174,214);fill-opacity:0.50;"/>
<path d="M2607.357,819.000 A1300.000,1300.000 40.000 0,1 2735.241,1094.810 L2782.750,1079.225 A1350.000,1350.000 0.000 0,0 2649.947,792.808 Z" style="stroke-width:4.0;stroke:rgb(0,0,0);stroke-linecap:round;fill:rgb(107,174,214);fill-opacity:0.50;"/>
<path d="M2781.081,1279.019 A1300.000,1300.000 40.000 0,1 2788.977,1668.937 L2838.553,1675.434 A1350.000,1350.000 0.000 0,0 2830.353,1270.520 Z" style="stroke-width:4.0;stroke:rgb(0,0,0);stroke-linecap:round;fill:rgb(107,174,214);fill-opacity:0.50;"/>
<path d="M2261.826,446.614 A1300.000,1300.000 40.000 0,1 2357.772,523.154 L2390.763,485.583 A1350.000,1350.000 0.000 0,0 2291.127,406.099 Z" style="stroke-width:4.0;stroke:rgb(0,0,0);stroke-linecap:round;fill:rgb(107,174,214);fill-opacity:0.50;"/>
</g>
<g id="highlighttrack_0">
</g>
<path d="M1659.196,2790.216 A1300.000,1300.000 40.000 1,1 1419.968,202.466 L1416.890,152.561 A1350.000,1350.000 0.000 1,0 1665.319,2839.839 Z" style="stroke-linecap:round;fill:rgb(116,196,118);"/>
<text x="14.3" y="1637.3" font-size="104.0px" font-family="CMUBright-Roman" style="text-anchor:middle;fill:rgb(0,0,0);" transform="rotate(84.7,14.3,1637.3)">2</text>
<line x1='1665.3' y1='2839.8' x2='1667.8' y2='2859.7' style="stroke-width:4.0;stroke:rgb(0,0,0);stroke-linecap:round;fill:none;"/>
<text x="1661.5" y="2870.5" font-size="19.5px" font-family="CMUBright-Roman" style="text-anchor:start;fill:rgb(0,0,0);" transform="rotate(83.0,1661.5,2870.5)">0</text>
<line x1='1539.3' y1='2849.4' x2='1539.9' y2='2869.4' style="stroke-width:4.0;stroke:rgb(0,0,0);stroke-linecap:round;fill:none;"/>
<text x="1532.7" y="2879.6" font-size="19.5px" font-family="CMUBright-Roman" style="text-anchor:start;fill:rgb(0,0,0);" transform="rotate(88.3,1532.7,2879.6)">50</text>
<line x1='1412.9' y1='2847.2' x2='1411.6' y2='2867.1' style="stroke-width:4.0;stroke:rgb(0,0,0);stroke-linecap:round;fill:none;"/>
<text x="1418.5" y="2877.6" font-size="19.5px" font-family="CMUBright-Roman" style="text-anchor:end;fill:rgb(0,0,0);" transform="rotate(-86.3,1418.5,2877.6)">100</text>
<line x1='1287.3' y1='2833.1' x2='1284.2' y2='2852.9' style="stroke-width:4.0;stroke:rgb(0,0,0);stroke-linecap:round;fill:none;"/>
<text x="1290.0" y="2863.9" font-size="19.5px" font-family="CMUBright-Roman" style="text-anchor:end;fill:rgb(0,0,0);" transform="rotate(-80.9,1290.0,2863.9)">150</text>
<line x1='1163.6' y1='2807.4' x2='1158.6' y2='2826.8' style="stroke-width:4.0;stroke:rgb(0,0,0);stroke-linecap:round;fill:none;"/>
<text x="1163.4" y="2838.3" font-size="19.5px" font-family="CMUBright-Roman" style="text-anchor:end;fill:rgb(0,0,0);" transform="rotate(-75.6,1163.4,2838.3)">200</text>
<line x1='1042.8' y1='2770.2' x2='1036.0' y2='2789.0' style="stroke-width:4.0;stroke:rgb(0,0,0);stroke-linecap:round;fill:none;"/>
<text x="1039.7" y="2801.0" font-size="19.5px" font-family="CMUBright-Roman" style="text-anchor:end;fill:rgb(0,0,0);" transform="rotate(-70.2,1039.7,2801.0)">250</text>
<line x1='926.0' y1='2721.9' x2='917.5' y2='2740.0' style="stroke-width:4.0;stroke:rgb(0,0,0);stroke-linecap:round;fill:none;"/>
<text x="920.1" y="2752.2" font-size="19.5px" font-family="CMUBright-Roman" style="text-anchor:end;fill:rgb(0,0,0);" transform="rotate(-64.8,920.1,2752.2)">300</text>
<line x1='814.3' y1='2662.9' x2='804.1' y2='2680.1' style="stroke-width:4.0;stroke:rgb(0,0,0);stroke-linecap:round;fill:none;"/>
<text x="805.5" y="2692.5" font-size="19.5px" font-family="CMUBright-Roman" style="text-anchor:end;fill:rgb(0,0,0);" transform="rotate(-59.5,805.5,2692.5)">350</text>
<line x1='708.5' y1='2593.6' x2='696.8' y2='2609.9' style="stroke-width:4.0;stroke:rgb(0,0,0);stroke-linecap:round;fill:none;"/>
<text x="697.0" y="2622.3" font-size="19.5px" font-family="CMUBright-Roman" style="text-anchor:end;fill:rgb(0,0,0);" transform="rotate(-54.1,697.0,2622.3)">400</text>
<line x1='609.7' y1='2514.8' x2='596.5' y2='2529.9' style="stroke-width:4.0;stroke:rgb(0,0,0);stroke-linecap:round;fill:none;"/>
<text x="595.6" y="2542.3" font-size="19.5px" font-family="CMUBright-Roman" style="text-anchor:end;fill:rgb(0,0,0);" transform="rotate(-48.7,595.6,2542.3)">450</text>
<line x1='518.7' y1='2427.1' x2='504.2' y2='2440.9' style="stroke-width:4.0;stroke:rgb(0,0,0);stroke-linecap:round;fill:none;"/>
<text x="502.1" y="2453.2" font-size="19.5px" font-family="CMUBright-Roman" style="text-anchor:end;fill:rgb(0,0,0);" transform="rotate(-43.4,502.1,2453.2)">500</text>
<line x1='436.3' y1='2331.3' x2='420.6' y2='2343.6' style="stroke-width:4.0;stroke:rgb(0,0,0);stroke-linecap:round;fill:none;"/>
<text x="417.3" y="2355.7" font-size="19.5px" font-family="CMUBright-Roman" style="text-anchor:end;fill:rgb(0,0,0);" transform="rotate(-38.0,417.3,2355.7)">550</text>
<line x1='363.2' y1='2228.2' x2='346.4' y2='2239.0' style="stroke-width:4.0;stroke:rgb(0,0,0);stroke-linecap:round;fill:none;"/>
<text x="342.0" y="2250.7" font-size="19.5px" font-family="CMUBright-Roman" style="text-anchor:end;fill:rgb(0,0,0);" transform="rotate(-32.6,342.0,2250.7)">600</text>
<line x1='300.1' y1='2118.7' x2='282.3' y2='2127.9' style="stroke-width:4.0;stroke:rgb(0,0,0);stroke-linecap:round;fill:none;"/>
<text x="276.9" y="2139.1" font-size="19.5px" font-family="CMUBright-Roman" style="text-anchor:end;fill:rgb(0,0,0);" transform="rotate(-27.3,276.9,2139.1)">650</text>
<line x1='247.5' y1='2003.8' x2='229.0' y2='2011.2' style="stroke-width:4.0;stroke:rgb(0,0,0);stroke-linecap:round;fill:none;"/>
<text x="222.5" y="2021.9" font-size="19.5px" font-family="CMUBright-Roman" style="text-anchor:end;fill:rgb(0,0,0);" transform="rotate(-21.9,222.5,2021.9)">700</text>
<line x1='205.9' y1='1884.4' x2='186.7' y2='1890.1' style="stroke-width:4.0;stroke:rgb(0,0,0);stroke-linecap:round;fill:none;"/>
<text x="179.3" y="1900.2" font-size="19.5px" font-family="CMUBright-Roman" style="text-anchor:end;fill:rgb(0,0,0);" transform="rotate(-16.5,179.3,1900.2)">750</text>
<line x1='175.6' y1='1761.7' x2='156.0' y2='1765.6' style="stroke-width:4.0;stroke:rgb(0,0,0);stroke-linecap:round;fill:none;"/>
<text x="147.7" y="1774.9" font-size="19.5px" font-family="CMUBright-Roman" style="text-anchor:end;fill:rgb(0,0,0);" transform="rotate(-11.2,147.7,1774.9)">800</text>
<line x1='156.9' y1='1636.7' x2='137.0' y2='1638.8' style="stroke-width:4.0;stroke:rgb(0,0,0);stroke-linecap:round;fill:none;"/>
<text x="127.9" y="1647.2" font-size="19.5px" font-family="CMUBright-Roman" style="text-anchor:end;fill:rgb(0,0,0);" transform="rotate(-5.8,127.9,1647.2)">850</text>
<line x1='150.0' y1='1510.5' x2='130.0' y2='1510.7' style="stroke-width:4.0;stroke:rgb(0,0,0);stroke-linecap:round;fill:none;"/>
<text x="120.1" y="1518.3" font-size="19.5px" font-family="CMUBright-Roman" style="text-anchor:end;fill:rgb(0,0,0);" transform="rotate(-0.4,120.1,1518.3)">900</text>
<line x1='155.0' y1='1384.3' x2='135.0' y2='1382.5' style="stroke-width:4.0;stroke:rgb(0,0,0);stroke-linecap:round;fill:none;"/>
<text x="124.5" y="1389.2" font-size="19.5px" font-family="CMUBright-Roman" style="text-anchor:end;fill:rgb(0,0,0);" transform="rotate(4.9,124.5,1389.2)">950</text>
<line x1='171.7' y1='1259.0' x2='152.0' y2='1255.4' style="stroke-width:4.0;stroke:rgb(0,0,0);stroke-linecap:round;fill:none;"/>
<text x="140.9" y="1261.0" font-size="19.5px" font-family="CMUBright-Roman" style="text-anchor:end;fill:rgb(0,0,0);" transform="rotate(10.3,140.9,1261.0)">1000</text>
<line x1='200.0' y1='1135.8' x2='180.8' y2='1130.4' style="stroke-width:4.0;stroke:rgb(0,0,0);stroke-linecap:round;fill:none;"/>
<text x="169.2" y="1135.0" font-size="19.5px" font-family="CMUBright-Roman" style="text-anchor:end;fill:rgb(0,0,0);" transform="rotate(15.7,169.2,1135.0)">1050</text>
<line x1='239.8' y1='1015.9' x2='221.1' y2='1008.7' style="stroke-width:4.0;stroke:rgb(0,0,0);stroke-linecap:round;fill:none;"/>
<text x="209.1" y="1012.1" font-size="19.5px" font-family="CMUBright-Roman" style="text-anchor:end;fill:rgb(0,0,0);" transform="rotate(21.0,209.1,1012.1)">1100</text>
<line x1='290.6' y1='900.1' x2='272.7' y2='891.2' style="stroke-width:4.0;stroke:rgb(0,0,0);stroke-linecap:round;fill:none;"/>
<text x="260.4" y="893.5" font-size="19.5px" font-family="CMUBright-Roman" style="text-anchor:end;fill:rgb(0,0,0);" transform="rotate(26.4,260.4,893.5)">1150</text>
<line x1='352.0' y1='789.7' x2='335.0' y2='779.1' style="stroke-width:4.0;stroke:rgb(0,0,0);stroke-linecap:round;fill:none;"/>
<text x="322.6" y="780.3" font-size="19.5px" font-family="CMUBright-Roman" style="text-anchor:end;fill:rgb(0,0,0);" transform="rotate(31.7,322.6,780.3)">1200</text>
<line x1='423.5' y1='685.4' x2='407.5' y2='673.3' style="stroke-width:4.0;stroke:rgb(0,0,0);stroke-linecap:round;fill:none;"/>
<text x="395.0" y="673.3" font-size="19.5px" font-family="CMUBright-Roman" style="text-anchor:end;fill:rgb(0,0,0);" transform="rotate(37.1,395.0,673.3)">1250</text>
<line x1='504.4' y1='588.3' x2='489.6' y2='574.8' style="stroke-width:4.0;stroke:rgb(0,0,0);stroke-linecap:round;fill:none;"/>
<text x="477.2" y="573.6" font-size="19.5px" font-family="CMUBright-Roman" style="text-anchor:end;fill:rgb(0,0,0);" transform="rotate(42.5,477.2,573.6)">1300</text>
<line x1='594.0' y1='499.2' x2='580.5' y2='484.4' style="stroke-width:4.0;stroke:rgb(0,0,0);stroke-linecap:round;fill:none;"/>
<text x="568.3" y="482.0" font-size="19.5px" font-family="CMUBright-Roman" style="text-anchor:end;fill:rgb(0,0,0);" transform="rotate(47.8,568.3,482.0)">1350</text>
<line x1='691.5' y1='418.9' x2='679.6' y2='402.8' style="stroke-width:4.0;stroke:rgb(0,0,0);stroke-linecap:round;fill:none;"/>
<text x="667.6" y="399.3" font-size="19.5px" font-family="CMUBright-Roman" style="text-anchor:end;fill:rgb(0,0,0);" transform="rotate(53.2,667.6,399.3)">1400</text>
<line x1='796.2' y1='348.0' x2='785.8' y2='330.9' style="stroke-width:4.0;stroke:rgb(0,0,0);stroke-linecap:round;fill:none;"/>
<text x="774.2" y="326.3" font-size="19.5px" font-family="CMUBright-Roman" style="text-anchor:end;fill:rgb(0,0,0);" transform="rotate(58.6,774.2,326.3)">1450</text>
<line x1='907.0' y1='287.2' x2='898.2' y2='269.2' style="stroke-width:4.0;stroke:rgb(0,0,0);stroke-linecap:round;fill:none;"/>
<text x="887.1" y="263.6" font-size="19.5px" font-family="CMUBright-Roman" style="text-anchor:end;fill:rgb(0,0,0);" transform="rotate(63.9,887.1,263.6)">1500</text>
<line x1='1023.0' y1='237.1' x2='1015.9' y2='218.4' style="stroke-width:4.0;stroke:rgb(0,0,0);stroke-linecap:round;fill:none;"/>
<text x="1005.4" y="211.7" font-size="19.5px" font-family="CMUBright-Roman" style="text-anchor:end;fill:rgb(0,0,0);" transform="rotate(69.3,1005.4,211.7)">1550</text>
<line x1='1143.2' y1='198.0' x2='1137.9' y2='178.7' style="stroke-width:4.0;stroke:rgb(0,0,0);stroke-linecap:round;fill:none;"/>
<text x="1128.0" y="171.1" font-size="19.5px" font-family="CMUBright-Roman" style="text-anchor:end;fill:rgb(0,0,0);" transform="rotate(74.7,1128.0,171.1)">1600</text>
<line x1='1266.5' y1='170.3' x2='1263.1' y2='150.6' style="stroke-width:4.0;stroke:rgb(0,0,0);stroke-linecap:round;fill:none;"/>
<text x="1254.0" y="142.1" font-size="19.5px" font-family="CMUBright-Roman" style="text-anchor:end;fill:rgb(0,0,0);" transform="rotate(80.0,1254.0,142.1)">1650</text>
<line x1='1391.9' y1='154.3' x2='1390.3' y2='134.4' style="stroke-width:4.0;stroke:rgb(0,0,0);stroke-linecap:round;fill:none;"/>
<text x="1382.0" y="125.1" font-size="19.5px" font-family="CMUBright-Roman" style="text-anchor:end;fill:rgb(0,0,0);" transform="rotate(85.4,1382.0,125.1)">1700</text>
<g id="highlighttrack_0">
<path d="M264.303,1903.798 A1300.000,1300.000 40.000 0,1 252.835,1866.852 L204.867,1880.962 A1350.000,1350.000 0.000 0,0 216.776,1919.329 Z" style="stroke-width:4.0;stroke:rgb(0,0,0);stroke-linecap:round;fill:rgb(107,174,214);fill-opacity:0.50;"/>
<path d="M841.762,2621.037 A1300.000,1300.000 40.000 0,1 565.306,2403.519 L529.356,2438.270 A1350.000,1350.000 0.000 0,0 816.445,2664.153 Z" style="stroke-width:4.0;stroke:rgb(0,0,0);stroke-linecap:round;fill:rgb(107,174,214);fill-opacity:0.50;"/>
<path d="M976.996,309.846 A1300.000,1300.000 40.000 0,1 1407.080,203.325 L1403.506,153.453 A1350.000,1350.000 0.000 0,0 956.880,264.071 Z" style="stroke-width:4.0;stroke:rgb(0,0,0);stroke-linecap:round;fill:rgb(107,174,214);fill-opacity:0.50;"/>
<path d="M816.605,394.120 A1300.000,1300.000 40.000 0,1 857.804,369.697 L833.104,326.224 A1350.000,1350.000 0.000 0,0 790.321,351.586 Z" style="stroke-width:4.0;stroke:rgb(0,0,0);stroke-linecap:round;fill:rgb(107,174,214);fill-opacity:0.50;"/>
<path d="M710.044,467.542 A1300.000,1300.000 40.000 0,1 795.562,407.403 L768.468,365.380 A1350.000,1350.000 0.000 0,0 679.661,427.832 Z" style="stroke-width:4.0;stroke:rgb(0,0,0);stroke-linecap:round;fill:rgb(107,174,214);fill-opacity:0.50;"/>
<path d="M1133.185,2747.176 A1300.000,1300.000 40.000 0,1 846.690,2623.916 L821.563,2667.143 A1350.000,1350.000 0.000 0,0 1119.077,2795.144 Z" style="stroke-width:4.0;stroke:rgb(0,0,0);stroke-linecap:round;fill:rgb(107,174,214);fill-opacity:0.50;"/>
<path d="M898.449,347.552 A1300.000,1300.000 40.000 0,1 927.785,332.708 L905.777,287.812 A1350.000,1350.000 0.000 0,0 875.312,303.227 Z" style="stroke-width:4.0;stroke:rgb(0,0,0);stroke-linecap:round;fill:rgb(107,174,214);fill-opacity:0.50;"/>
<path d="M327.688,2061.857 A1300.000,1300.000 40.000 0,1 274.678,1934.265 L227.550,1950.968 A1350.000,1350.000 0.000 0,0 282.599,2083.467 Z" style="stroke-width:4.0;stroke:rgb(0,0,0);stroke-linecap:round;fill:rgb(107,174,214);fill-opacity:0.50;"/>
<path d="M261.892,1103.657 A1300.000,1300.000 40.000 0,1 267.751,1085.800 L220.356,1069.870 A1350.000,1350.000 0.000 0,0 214.272,1088.413 Z" style="stroke-width:4.0;stroke:rgb(0,0,0);stroke-linecap:round;fill:rgb(107,174,214);fill-opacity:0.50;"/>
<path d="M313.748,968.204 A1300.000,1300.000 40.000 0,1 703.760,472.380 L673.136,432.856 A1350.000,1350.000 0.000 0,0 268.123,947.751 Z" style="stroke-width:4.0;stroke:rgb(0,0,0);stroke-linecap:round;fill:rgb(107,174,214);fill-opacity:0.50;"/>
<path d="M200.260,1473.988 A1300.000,1300.000 40.000 0,1 201.378,1440.149 L151.432,1437.847 A1350.000,1350.000 0.000 0,0 150.270,1472.987 Z" style="stroke-width:4.0;stroke:rgb(0,0,0);stroke-linecap:round;fill:rgb(107,174,214);fill-opacity:0.50;"/>
<path d="M1659.097,2790.228 A1300.000,1300.000 40.000 0,1 1596.479,2796.415 L1600.189,2846.277 A1350.000,1350.000 0.000 0,0 1665.216,2839.852 Z" style="stroke-width:4.0;stroke:rgb(0,0,0);stroke-linecap:round;fill:rgb(107,174,214);fill-opacity:0.50;"/>
<path d="M272.791,1928.904 A1300.000,1300.000 40.000 0,1 264.726,1905.090 L217.215,1920.670 A1350.000,1350.000 0.000 0,0 225.591,1945.400 Z" style="stroke-width:4.0;stroke:rgb(0,0,0);stroke-linecap:round;fill:rgb(107,174,214);fill-opacity:0.50;"/>
<path d="M921.475,335.823 A1300.000,1300.000 40.000 0,1 939.470,327.053 L917.911,281.939 A1350.000,1350.000 0.000 0,0 899.224,291.047 Z" style="stroke-width:4.0;stroke:rgb(0,0,0);stroke-linecap:round;fill:rgb(107,174,214);fill-opacity:0.50;"/>
<path d="M248.983,1146.510 A1300.000,1300.000 40.000 0,1 254.574,1127.289 L206.673,1112.953 A1350.000,1350.000 0.000 0,0 200.867,1132.914 Z" style="stroke-width:4.0;stroke:rgb(0,0,0);stroke-linecap:round;fill:rgb(107,174,214);fill-opacity:0.50;"/>
<path d="M202.992,1411.852 A1300.000,1300.000 40.000 0,1 236.486,1194.170 L187.889,1182.407 A1350.000,1350.000 0.000 0,0 153.107,1408.462 Z" style="stroke-width:4.0;stroke:rgb(0,0,0);stroke-linecap:round;fill:rgb(107,174,214);fill-opacity:0.50;"/>
<path d="M558.704,2396.639 A1300.000,1300.000 40.000 0,1 489.718,2318.126 L450.861,2349.592 A1350.000,1350.000 0.000 0,0 522.500,2431.125 Z" style="stroke-width:4.0;stroke:rgb(0,0,0);stroke-linecap:round;fill:rgb(107,174,214);fill-opacity:0.50;"/>
<path d="M795.599,407.380 A1300.000,1300.000 40.000 0,1 819.657,392.240 L793.490,349.633 A1350.000,1350.000 0.000 0,0 768.507,365.356 Z" style="stroke-width:4.0;stroke:rgb(0,0,0);stroke-linecap:round;fill:rgb(107,174,214);fill-opacity:0.50;"/>
<path d="M1595.442,2796.492 A1300.000,1300.000 40.000 0,1 1538.359,2799.434 L1539.834,2849.412 A1350.000,1350.000 0.000 0,0 1599.112,2846.357 Z" style="stroke-width:4.0;stroke:rgb(0,0,0);stroke-linecap:round;fill:rgb(107,174,214);fill-opacity:0.50;"/>
<path d="M1520.045,2799.845 A1300.000,1300.000 40.000 0,1 1170.938,2757.664 L1158.281,2806.035 A1350.000,1350.000 0.000 0,0 1520.816,2849.840 Z" style="stroke-width:4.0;stroke:rgb(0,0,0);stroke-linecap:round;fill:rgb(107,174,214);fill-opacity:0.50;"/>
<path d="M858.723,369.176 A1300.000,1300.000 40.000 0,1 869.850,362.938 L845.614,319.204 A1350.000,1350.000 0.000 0,0 834.058,325.683 Z" style="stroke-width:4.0;stroke:rgb(0,0,0);stroke-linecap:round;fill:rgb(107,174,214);fill-opacity:0.50;"/>
<path d="M491.140,2319.879 A1300.000,1300.000 40.000 0,1 326.345,2059.047 L281.204,2080.549 A1350.000,1350.000 0.000 0,0 452.338,2351.413 Z" style="stroke-width:4.0;stroke:rgb(0,0,0);stroke-linecap:round;fill:rgb(107,174,214);fill-opacity:0.50;"/>
<path d="M252.258,1864.884 A1300.000,1300.000 40.000 0,1 200.170,1479.000 L150.176,1478.193 A1350.000,1350.000 0.000 0,0 204.268,1878.919 Z" style="stroke-width:4.0;stroke:rgb(0,0,0);stroke-linecap:round;fill:rgb(107,174,214);fill-opacity:0.50;"/>
<path d="M268.198,1084.471 A1300.000,1300.000 40.000 0,1 313.700,968.311 L268.073,947.862 A1350.000,1350.000 0.000 0,0 220.821,1068.489 Z" style="stroke-width:4.0;stroke:rgb(0,0,0);stroke-linecap:round;fill:rgb(107,174,214);fill-opacity:0.50;"/>
</g>
</g>
<g id="track_0">
<path d="M 270.8,1881.5 L 333.9,1862.0 396.9,1842.4 459.9,1822.8 522.9,1803.2 585.9,1783.7 648.9,1764.1 712.0,1744.5 775.0,1724.9 838.0,1705.3 901.0,1685.7 964.1,1666.1 1027.1,1646.4 1090.1,1626.8 1153.1,1607.2 1216.1,1587.6 1279.2,1567.9 1342.2,1548.3 1405.2,1528.6 1468.2,1509.0 1531.2,1489.3 1594.2,1469.6 1657.3,1449.9 1720.3,1430.3 1783.3,1410.6 1846.3,1390.9 1909.3,1371.2 1972.3,1351.5 2035.3,1331.8 2098.3,1312.1 2161.3,1292.4 2224.2,1272.6 2287.2,1252.9 2350.2,1233.2 2413.2,1213.5 2476.2,1193.7 2539.1,1174.0 2602.1,1154.3 2665.0,1134.5 2728.0,1114.8  " style="stroke-opacity: 1.000000; stroke-width: 15.0; stroke: rgb(251,106,74); fill: none" />
<path d="M 2739.2,1847.6 L 2684.0,1832.8 2628.0,1819.0 2571.3,1806.4 2514.0,1795.2 2456.2,1785.3 2397.9,1776.9 2339.3,1770.2 2280.4,1765.0 2221.4,1761.7 2162.3,1760.1 2103.2,1760.3 2044.2,1762.5 1985.4,1766.6 1926.8,1772.7 1868.4,1780.7 1810.5,1790.8 1753.0,1802.9 1696.0,1817.1 1639.6,1833.3 1583.8,1851.5 1528.7,1871.7 1474.3,1893.9 1420.7,1918.0 1368.0,1944.0 1316.1,1971.8 1265.2,2001.5 1215.2,2032.9 1166.3,2066.0 1118.4,2100.6 1071.6,2136.7 1026.0,2174.3 981.5,2213.1 938.1,2253.1 896.0,2294.2 855.1,2336.3 815.5,2379.2 777.1,2422.8 740.0,2466.9 704.2,2511.5  " style="stroke-opacity: 1.000000; stroke-width: 15.0; stroke: rgb(251,106,74); fill: none" />
<path d="M 1952.1,2705.0 L 1929.3,2644.0 1906.6,2582.8 1884.0,2521.5 1861.5,2460.0 1839.1,2398.3 1816.9,2336.5 1794.9,2274.5 1772.9,2212.4 1751.2,2150.2 1729.6,2087.8 1708.2,2025.3 1686.9,1962.6 1665.8,1899.9 1645.0,1837.0 1624.3,1774.0 1603.8,1710.9 1583.5,1647.8 1563.4,1584.5 1543.6,1521.2 1523.9,1457.8 1504.4,1394.4 1485.2,1330.9 1466.2,1267.3 1447.4,1203.8 1428.8,1140.1 1410.4,1076.5 1392.2,1012.8 1374.3,949.2 1356.6,885.5 1339.0,821.8 1321.7,758.2 1304.7,694.6 1287.8,631.0 1271.1,567.5 1254.6,504.0 1238.3,440.6 1222.2,377.2 1206.3,313.9 1190.6,250.7  " style="stroke-opacity: 1.000000; stroke-width: 15.0; stroke: rgb(251,106,74); fill: none" />
<path d="M 2180.8,2592.2 L 2146.0,2536.3 2111.2,2480.4 2076.4,2424.5 2041.6,2368.5 2006.9,2312.5 1972.1,2256.4 1937.4,2200.3 1902.7,2144.2 1868.0,2088.0 1833.4,2031.8 1798.8,1975.6 1764.2,1919.3 1729.6,1863.0 1695.1,1806.7 1660.6,1750.4 1626.1,1694.0 1591.7,1637.6 1557.3,1581.2 1522.9,1524.7 1488.6,1468.3 1454.3,1411.8 1420.0,1355.3 1385.8,1298.7 1351.6,1242.2 1317.5,1185.6 1283.4,1129.0 1249.3,1072.4 1215.3,1015.8 1181.3,959.2 1147.4,902.6 1113.5,846.0 1079.6,789.3 1045.8,732.7 1012.0,676.1 978.3,619.4 944.6,562.8 910.9,506.2 877.3,449.5 843.7,392.9  " style="stroke-opacity: 1.000000; stroke-width: 15.0; stroke: rgb(251,106,74); fill: none" />
<path d="M 759.7,447.2 L 789.1,488.3 819.1,528.7 849.6,568.1 880.5,606.3 911.6,643.0 942.9,677.8 974.2,710.7 1005.5,741.3 1036.6,769.5 1067.4,795.1 1097.9,817.9 1128.0,837.8 1157.6,854.7 1186.6,868.4 1215.0,878.9 1242.6,886.0 1269.5,889.7 1295.6,890.1 1320.8,886.9 1345.1,880.4 1368.4,870.3 1390.8,856.9 1412.1,840.1 1432.4,819.9 1451.6,796.6 1469.7,770.1 1486.7,740.6 1502.6,708.2 1517.4,673.1 1531.1,635.5 1543.7,595.4 1555.3,553.2 1565.7,509.0 1575.1,463.1 1583.5,415.8 1590.9,367.2 1597.3,317.8 1602.8,267.8 1607.4,217.5  " style="stroke-opacity: 1.000000; stroke-width: 15.0; stroke: rgb(251,106,74); fill: none" />
<path d="M 991.4,2682.2 L 1017.2,2622.3 1043.2,2562.3 1069.4,2502.3 1095.7,2442.3 1122.3,2382.2 1148.9,2322.1 1175.8,2262.0 1202.8,2201.9 1230.0,2141.8 1257.4,2081.7 1285.0,2021.6 1312.7,1961.6 1340.6,1901.6 1368.7,1841.6 1397.0,1781.7 1425.4,1721.8 1454.0,1662.0 1482.8,1602.3 1511.7,1542.6 1540.8,1483.0 1570.1,1423.5 1599.6,1364.1 1629.1,1304.8 1658.9,1245.6 1688.8,1186.5 1718.8,1127.5 1749.0,1068.6 1779.3,1009.8 1809.8,951.1 1840.3,892.6 1871.0,834.2 1901.8,775.9 1932.7,717.8 1963.7,659.8 1994.8,602.0 2026.0,544.3 2057.3,486.8 2088.6,429.4 2120.0,372.2  " style="stroke-opacity: 1.000000; stroke-width: 15.0; stroke: rgb(251,106,74); fill: none" />
<path d="M 2668.2,2040.1 L 2613.1,2014.2 2558.0,1987.3 2502.8,1959.4 2447.6,1930.6 2392.6,1900.7 2337.8,1869.7 2283.2,1837.8 2228.9,1804.8 2174.9,1770.7 2121.4,1735.6 2068.4,1699.5 2015.9,1662.3 1964.0,1624.0 1912.7,1584.8 1862.1,1544.5 1812.2,1503.2 1763.0,1461.0 1714.6,1417.8 1667.1,1373.6 1620.4,1328.5 1574.6,1282.6 1529.7,1235.8 1485.7,1188.1 1442.7,1139.7 1400.7,1090.6 1359.6,1040.7 1319.6,990.2 1280.5,939.0 1242.5,887.3 1205.6,835.1 1169.6,782.4 1134.7,729.3 1100.8,675.9 1068.0,622.1 1036.2,568.2 1005.4,514.1 975.6,459.9 946.8,405.8 918.9,351.6  " style="stroke-opacity: 1.000000; stroke-width: 15.0; stroke: rgb(251,106,74); fill: none" />
<path d="M 311.5,1993.8 L 371.3,1969.1 431.3,1944.5 491.6,1920.1 552.1,1895.8 612.9,1871.8 673.9,1847.9 735.1,1824.3 796.6,1800.8 858.2,1777.6 920.1,1754.7 982.1,1732.0 1044.3,1709.5 1106.7,1687.3 1169.3,1665.4 1232.0,1643.8 1294.9,1622.5 1357.9,1601.5 1421.0,1580.7 1484.3,1560.3 1547.6,1540.2 1611.1,1520.4 1674.6,1501.0 1738.2,1481.8 1801.9,1463.0 1865.6,1444.5 1929.3,1426.3 1993.1,1408.4 2056.9,1390.9 2120.7,1373.7 2184.4,1356.8 2248.2,1340.2 2311.9,1323.9 2375.6,1307.9 2439.2,1292.2 2502.7,1276.9 2566.1,1261.8 2629.5,1247.0 2692.7,1232.4 2755.8,1218.1  " style="stroke-opacity: 1.000000; stroke-width: 15.0; stroke: rgb(251,106,74); fill: none" />
<path d="M 277.1,1098.8 L 334.8,1118.1 392.6,1138.4 450.6,1159.7 508.6,1182.0 566.6,1205.3 624.6,1229.8 682.4,1255.2 740.1,1281.8 797.5,1309.5 854.5,1338.2 911.2,1368.1 967.5,1399.1 1023.4,1431.2 1078.7,1464.4 1133.4,1498.7 1187.6,1534.1 1241.1,1570.6 1293.9,1608.1 1346.0,1646.7 1397.3,1686.2 1447.8,1726.8 1497.6,1768.4 1546.4,1810.8 1594.4,1854.2 1641.5,1898.4 1687.7,1943.5 1732.9,1989.3 1777.2,2035.9 1820.5,2083.1 1862.9,2131.0 1904.2,2179.5 1944.6,2228.5 1983.9,2278.0 2022.2,2327.8 2059.6,2378.0 2095.9,2428.5 2131.2,2479.1 2165.5,2529.9 2198.9,2580.7  " style="stroke-opacity: 1.000000; stroke-width: 15.0; stroke: rgb(251,106,74); fill: none" />
<path d="M 488.4,704.3 L 540.1,745.0 591.8,785.7 643.5,826.5 695.2,867.4 746.9,908.2 798.6,949.2 850.2,990.2 901.9,1031.2 953.5,1072.3 1005.1,1113.5 1056.7,1154.7 1108.3,1195.9 1159.9,1237.3 1211.4,1278.6 1262.9,1320.0 1314.4,1361.5 1365.9,1403.0 1417.3,1444.5 1468.7,1486.1 1520.1,1527.8 1571.4,1569.4 1622.7,1611.2 1673.9,1652.9 1725.1,1694.7 1776.3,1736.6 1827.4,1778.4 1878.5,1820.3 1929.5,1862.3 1980.5,1904.3 2031.4,1946.3 2082.3,1988.3 2133.1,2030.3 2183.9,2072.4 2234.7,2114.5 2285.4,2156.6 2336.0,2198.7 2386.6,2240.9 2437.2,2283.0 2487.6,2325.2  " style="stroke-opacity: 1.000000; stroke-width: 15.0; stroke: rgb(251,106,74); fill: none" />
<path d="M 2529.2,727.2 L 2480.3,763.4 2430.5,799.2 2379.9,834.6 2328.4,869.4 2276.0,903.6 2222.8,937.2 2168.8,970.0 2114.0,1002.1 2058.4,1033.4 2002.2,1063.7 1945.2,1093.1 1887.5,1121.6 1829.3,1149.0 1770.4,1175.4 1710.9,1200.7 1650.9,1224.9 1590.4,1248.0 1529.4,1269.9 1467.9,1290.6 1406.1,1310.1 1343.9,1328.3 1281.4,1345.4 1218.6,1361.3 1155.6,1375.9 1092.3,1389.3 1029.0,1401.4 965.5,1412.4 901.9,1422.2 838.4,1430.7 774.9,1438.2 711.5,1444.4 648.2,1449.6 585.1,1453.7 522.3,1456.7 459.7,1458.7 397.5,1459.8 335.8,1459.9 274.5,1459.1 213.7,1457.5  " style="stroke-opacity: 1.000000; stroke-width: 15.0; stroke: rgb(251,106,74); fill: none" />
<path d="M 1626.5,2780.8 L 1620.2,2716.0 1614.1,2651.1 1608.0,2586.0 1602.2,2520.9 1596.5,2455.5 1591.0,2390.1 1585.7,2324.5 1580.6,2258.9 1575.7,2193.1 1571.0,2127.3 1566.5,2061.3 1562.2,1995.3 1558.1,1929.2 1554.3,1863.1 1550.6,1796.9 1547.2,1730.7 1544.1,1664.4 1541.1,1598.1 1538.4,1531.8 1535.9,1465.4 1533.7,1399.1 1531.7,1332.8 1529.9,1266.4 1528.3,1200.1 1527.0,1133.9 1525.9,1067.6 1525.0,1001.4 1524.4,935.3 1524.0,869.2 1523.7,803.2 1523.7,737.2 1523.9,671.4 1524.3,605.6 1524.9,539.9 1525.7,474.4 1526.7,408.9 1527.8,343.6 1529.1,278.4 1530.6,213.4  " style="stroke-opacity: 1.000000; stroke-width: 15.0; stroke: rgb(251,106,74); fill: none" />
<path d="M 2736.8,1143.9 L 2673.7,1162.1 2610.6,1180.4 2547.4,1198.7 2484.3,1217.1 2421.1,1235.6 2357.8,1254.2 2294.6,1272.9 2231.4,1291.6 2168.1,1310.4 2104.9,1329.4 2041.6,1348.4 1978.3,1367.4 1915.1,1386.6 1851.8,1405.9 1788.6,1425.2 1725.3,1444.7 1662.1,1464.2 1598.9,1483.8 1535.8,1503.5 1472.6,1523.2 1409.5,1543.1 1346.4,1563.0 1283.3,1583.1 1220.3,1603.2 1157.3,1623.3 1094.4,1643.6 1031.5,1663.9 968.6,1684.3 905.8,1704.8 843.1,1725.3 780.4,1745.9 717.7,1766.6 655.2,1787.4 592.6,1808.1 530.2,1829.0 467.8,1849.9 405.5,1870.8 343.2,1891.8 281.0,1912.8  " style="stroke-opacity: 1.000000; stroke-width: 15.0; stroke: rgb(251,106,74); fill: none" />
<path d="M 264.2,1140.5 L 313.3,1154.3 362.5,1167.0 411.7,1178.6 460.5,1188.8 508.7,1197.6 556.0,1204.7 602.4,1210.1 647.5,1213.7 691.1,1215.4 733.2,1215.0 773.5,1212.5 811.9,1207.9 848.2,1201.1 882.3,1192.1 914.1,1180.7 943.6,1167.1 970.6,1151.1 995.0,1132.9 1016.9,1112.4 1036.1,1089.6 1052.6,1064.6 1066.4,1037.4 1077.5,1008.1 1086.0,976.8 1091.8,943.5 1094.9,908.3 1095.5,871.4 1093.5,832.8 1089.1,792.6 1082.3,751.1 1073.3,708.4 1062.1,664.5 1048.9,619.8 1033.8,574.3 1017.0,528.3 998.7,481.9 979.0,435.5 958.0,389.1 936.2,343.1  " style="stroke-opacity: 1.000000; stroke-width: 15.0; stroke: rgb(251,106,74); fill: none" />
<path d="M 228.0,1304.3 L 286.5,1312.8 345.7,1320.3 405.5,1326.7 465.8,1332.1 526.6,1336.2 587.8,1339.1 649.3,1340.7 711.0,1340.9 773.0,1339.7 835.0,1337.0 897.1,1332.9 959.2,1327.2 1021.2,1320.0 1083.0,1311.2 1144.7,1300.8 1206.1,1288.8 1267.2,1275.2 1328.0,1260.0 1388.3,1243.2 1448.2,1224.8 1507.6,1204.8 1566.4,1183.3 1624.6,1160.2 1682.2,1135.7 1739.0,1109.6 1795.2,1082.2 1850.5,1053.4 1905.1,1023.2 1958.8,991.8 2011.6,959.1 2063.5,925.4 2114.5,890.5 2164.5,854.7 2213.5,817.9 2261.5,780.4 2308.5,742.1 2354.3,703.2 2399.1,663.7 2442.7,623.8  " style="stroke-opacity: 1.000000; stroke-width: 15.0; stroke: rgb(251,106,74); fill: none" />
<path d="M 2570.5,785.5 L 2516.5,821.7 2462.4,858.0 2408.4,894.6 2354.3,931.5 2300.3,968.6 2246.3,1005.9 2192.3,1043.4 2138.4,1081.2 2084.5,1119.2 2030.7,1157.4 1977.0,1195.9 1923.3,1234.6 1869.8,1273.5 1816.3,1312.7 1763.0,1352.1 1709.7,1391.7 1656.6,1431.5 1603.7,1471.5 1550.9,1511.7 1498.2,1552.2 1445.7,1592.8 1393.3,1633.6 1341.1,1674.6 1289.1,1715.8 1237.3,1757.2 1185.7,1798.7 1134.2,1840.4 1083.0,1882.2 1031.9,1924.2 981.1,1966.3 930.5,2008.5 880.0,2050.8 829.8,2093.3 779.8,2135.8 730.0,2178.4 680.5,2221.1 631.2,2263.9 582.1,2306.7 533.2,2349.5  " style="stroke-opacity: 1.000000; stroke-width: 15.0; stroke: rgb(251,106,74); fill: none" />
<path d="M 2209.3,2573.9 L 2173.1,2518.9 2136.8,2464.0 2100.6,2408.9 2064.3,2353.9 2028.1,2298.8 1991.9,2243.7 1955.7,2188.5 1919.5,2133.3 1883.4,2078.1 1847.3,2022.8 1811.2,1967.6 1775.1,1912.2 1739.1,1856.9 1703.1,1801.5 1667.1,1746.1 1631.2,1690.6 1595.2,1635.2 1559.4,1579.7 1523.5,1524.2 1487.7,1468.6 1451.9,1413.1 1416.2,1357.5 1380.5,1301.9 1344.8,1246.2 1309.2,1190.6 1273.6,1134.9 1238.0,1079.3 1202.5,1023.6 1167.0,967.9 1131.6,912.2 1096.2,856.5 1060.9,800.8 1025.6,745.1 990.3,689.3 955.0,633.6 919.9,577.9 884.7,522.2 849.6,466.5 814.5,410.7  " style="stroke-opacity: 1.000000; stroke-width: 15.0; stroke: rgb(251,106,74); fill: none" />
<path d="M 2244.3,2550.0 L 2215.0,2509.3 2185.3,2469.2 2155.2,2430.1 2124.9,2392.2 2094.7,2355.8 2064.4,2321.2 2034.4,2288.5 2004.7,2258.1 1975.4,2230.1 1946.6,2204.7 1918.4,2182.1 1890.9,2162.3 1864.2,2145.7 1838.4,2132.1 1813.5,2121.8 1789.5,2114.9 1766.6,2111.3 1744.8,2111.2 1724.2,2114.5 1704.7,2121.2 1686.5,2131.4 1669.4,2145.0 1653.7,2162.0 1639.2,2182.3 1626.0,2205.8 1614.1,2232.5 1603.5,2262.1 1594.1,2294.6 1586.0,2329.9 1579.2,2367.6 1573.5,2407.8 1569.0,2450.1 1565.7,2494.3 1563.4,2540.2 1562.2,2587.5 1561.9,2636.0 1562.5,2685.3 1564.0,2735.2 1566.2,2785.3  " style="stroke-opacity: 1.000000; stroke-width: 15.0; stroke: rgb(251,106,74); fill: none" />
<path d="M 1827.5,255.4 L 1811.0,318.2 1794.7,381.2 1778.6,444.4 1762.6,507.8 1746.8,571.4 1731.1,635.1 1715.6,699.0 1700.4,763.1 1685.3,827.2 1670.5,891.6 1655.8,956.0 1641.4,1020.6 1627.2,1085.3 1613.3,1150.0 1599.6,1214.9 1586.1,1279.9 1572.9,1344.9 1559.9,1410.0 1547.2,1475.2 1534.7,1540.4 1522.5,1605.7 1510.6,1671.0 1498.9,1736.4 1487.5,1801.7 1476.3,1867.1 1465.4,1932.4 1454.7,1997.8 1444.3,2063.1 1434.2,2128.4 1424.3,2193.7 1414.6,2258.9 1405.2,2324.1 1396.0,2389.2 1387.1,2454.2 1378.4,2519.1 1369.9,2583.9 1361.6,2648.6 1353.5,2713.2 1345.6,2777.7  " style="stroke-opacity: 1.000000; stroke-width: 15.0; stroke: rgb(251,106,74); fill: none" />
<path d="M 870.6,377.4 L 902.8,434.8 935.1,492.2 967.3,549.6 999.7,607.0 1032.1,664.4 1064.5,721.8 1097.0,779.2 1129.5,836.6 1162.1,894.0 1194.7,951.4 1227.4,1008.8 1260.1,1066.2 1292.9,1123.5 1325.7,1180.9 1358.6,1238.2 1391.5,1295.5 1424.4,1352.8 1457.5,1410.1 1490.5,1467.3 1523.6,1524.5 1556.8,1581.7 1590.0,1638.9 1623.2,1696.0 1656.5,1753.1 1689.8,1810.2 1723.1,1867.2 1756.5,1924.2 1789.9,1981.2 1823.4,2038.1 1856.9,2095.0 1890.4,2151.9 1923.9,2208.7 1957.5,2265.5 1991.1,2322.2 2024.7,2378.9 2058.4,2435.6 2092.1,2492.2 2125.7,2548.7 2159.4,2605.2  " style="stroke-opacity: 1.000000; stroke-width: 15.0; stroke: rgb(251,106,74); fill: none" />
<path d="M 412.0,2187.4 L 467.0,2152.8 522.2,2118.2 577.6,2083.7 633.3,2049.3 689.1,2015.0 745.1,1980.8 801.4,1946.7 857.8,1912.7 914.4,1878.9 971.2,1845.3 1028.2,1811.8 1085.3,1778.5 1142.6,1745.3 1200.1,1712.4 1257.7,1679.6 1315.5,1647.0 1373.4,1614.6 1431.5,1582.4 1489.7,1550.4 1548.0,1518.7 1606.4,1487.1 1664.9,1455.8 1723.5,1424.7 1782.3,1393.8 1841.0,1363.2 1899.9,1332.8 1958.8,1302.6 2017.8,1272.7 2076.9,1243.0 2135.9,1213.5 2195.0,1184.3 2254.2,1155.2 2313.3,1126.5 2372.4,1097.9 2431.5,1069.6 2490.6,1041.5 2549.7,1013.7 2608.7,986.0 2667.6,958.6  " style="stroke-opacity: 1.000000; stroke-width: 15.0; stroke: rgb(251,106,74); fill: none" />
<path d="M 224.6,1672.2 L 289.1,1663.5 353.8,1655.0 418.7,1646.7 483.6,1638.4 548.7,1630.4 614.0,1622.5 679.3,1614.8 744.7,1607.2 810.3,1599.8 875.9,1592.7 941.6,1585.7 1007.4,1578.9 1073.3,1572.3 1139.2,1565.9 1205.2,1559.7 1271.2,1553.7 1337.3,1548.0 1403.4,1542.4 1469.6,1537.1 1535.8,1532.0 1601.9,1527.1 1668.1,1522.4 1734.3,1517.9 1800.5,1513.7 1866.6,1509.6 1932.7,1505.8 1998.8,1502.2 2064.9,1498.8 2130.9,1495.6 2196.9,1492.6 2262.8,1489.8 2328.6,1487.2 2394.3,1484.7 2460.0,1482.5 2525.6,1480.5 2591.0,1478.6 2656.4,1476.9 2721.6,1475.3 2786.7,1473.9  " style="stroke-opacity: 1.000000; stroke-width: 15.0; stroke: rgb(251,106,74); fill: none" />
<path d="M 2302.6,493.9 L 2266.9,537.7 2229.9,581.0 2191.5,623.7 2151.9,665.6 2111.1,706.6 2069.1,746.6 2025.8,785.3 1981.4,822.7 1935.9,858.6 1889.2,893.0 1841.6,925.8 1792.9,956.8 1743.2,986.0 1692.6,1013.3 1641.1,1038.6 1588.8,1061.9 1535.7,1083.1 1481.9,1102.2 1427.4,1119.2 1372.3,1133.9 1316.6,1146.5 1260.5,1156.9 1203.9,1165.1 1146.9,1171.1 1089.7,1175.0 1032.2,1176.7 974.6,1176.3 916.9,1173.8 859.3,1169.3 801.7,1162.8 744.3,1154.5 687.1,1144.3 630.3,1132.4 573.9,1118.9 518.0,1103.9 462.8,1087.4 408.2,1069.6 354.5,1050.6 301.7,1030.6  " style="stroke-opacity: 1.000000; stroke-width: 15.0; stroke: rgb(251,106,74); fill: none" />
</g>
</svg>
