<?xml version="1.0" encoding="UTF-8" standalone="no"?>
<!-- Generated by graphviz version 2.28.0 (20110507.0327)
 -->

<!-- Title: G Pages: 1 -->

<svg
   xmlns:dc="http://purl.org/dc/elements/1.1/"
   xmlns:cc="http://creativecommons.org/ns#"
   xmlns:rdf="http://www.w3.org/1999/02/22-rdf-syntax-ns#"
   xmlns:svg="http://www.w3.org/2000/svg"
   xmlns="http://www.w3.org/2000/svg"
   xmlns:sodipodi="http://sodipodi.sourceforge.net/DTD/sodipodi-0.dtd"
   xmlns:inkscape="http://www.inkscape.org/namespaces/inkscape"
   sodipodi:docname="graph1.pdf"
   inkscape:version="0.48.2 r9819"
   version="1.1"
   id="svg2"
   viewBox="0 0 560 184"
   height="230"
   width="700">
  <sodipodi:namedview
     pagecolor="#ffffff"
     bordercolor="#666666"
     borderopacity="1"
     objecttolerance="10"
     gridtolerance="10"
     guidetolerance="10"
     inkscape:pageopacity="0"
     inkscape:pageshadow="2"
     inkscape:window-width="1366"
     inkscape:window-height="706"
     id="namedview266"
     showgrid="false"
     inkscape:zoom="0.44102292"
     inkscape:cx="530.38462"
     inkscape:cy="263.51931"
     inkscape:window-x="-8"
     inkscape:window-y="-8"
     inkscape:window-maximized="1"
     inkscape:current-layer="svg2" />
  <metadata
     id="metadata270">
    <rdf:RDF>
      <cc:Work
         rdf:about="">
        <dc:format>image/svg+xml</dc:format>
        <dc:type
           rdf:resource="http://purl.org/dc/dcmitype/StillImage" />
        <dc:title></dc:title>
      </cc:Work>
    </rdf:RDF>
  </metadata>
  <defs
     id="defs268" />
  <g
     transform="translate(12.317333,182.92534)"
     id="node1"
     class="node">
    <title
       id="title10">TA</title>
    <ellipse
       cx="27"
       cy="-57"
       rx="27"
       ry="18"
       id="ellipse12"
       d="m 54,-57 c 0,9.941125 -12.088312,18 -27,18 -14.911688,0 -27,-8.058875 -27,-18 0,-9.941125 12.088312,-18 27,-18 14.911688,0 27,8.058875 27,18 z"
       sodipodi:cx="27"
       sodipodi:cy="-57"
       sodipodi:rx="27"
       sodipodi:ry="18"
       style="fill:none;stroke:#000000" />
    <text
       x="27"
       y="-53.299999"
       font-size="14.00"
       id="text14"
       style="font-size:14px;text-anchor:middle;font-family:'Times New Roman,serif'">TA</text>
  </g>
  <g
     transform="translate(41.130667,258.12534)"
     id="node3"
     class="node">
    <title
       id="title17">AC</title>
    <ellipse
       cx="131"
       cy="-131"
       rx="27"
       ry="18"
       id="ellipse19"
       d="m 158,-131 c 0,9.94113 -12.08831,18 -27,18 -14.91169,0 -27,-8.05887 -27,-18 0,-9.94113 12.08831,-18 27,-18 14.91169,0 27,8.05887 27,18 z"
       sodipodi:cx="131"
       sodipodi:cy="-131"
       sodipodi:rx="27"
       sodipodi:ry="18"
       style="fill:none;stroke:#000000" />
    <text
       x="131"
       y="-127.3"
       font-size="14.00"
       id="text21"
       style="font-size:14px;text-anchor:middle;font-family:'Times New Roman,serif'">AC</text>
  </g>
  <g
     id="g4045"
     transform="matrix(0.85070237,0.5653556,-0.5545659,0.86725374,113.72269,-80.52571)">
    <path
       d="M 66.4994,189.7943 C 74.7042,182.1811 85.1674,172.9779 95.2,165.6 c 9.0468,-6.653 19.4138,-13.212 28.858,-18.822"
       id="path26"
       inkscape:connector-curvature="0"
       style="fill:none;stroke:#0000ff" />
    <polygon
       transform="translate(23.2,261.6)"
       points="109.556,-119.882 102.672,-111.828 99.152,-117.879 99.152,-117.879 "
       id="polygon28"
       style="fill:#0000ff;stroke:#0000ff" />
  </g>
  <text
     style="font-size:14px;text-anchor:middle;font-family:'Times New Roman,serif'"
     id="text30"
     font-size="14.00"
     y="110.84531"
     x="105.05932">1</text>
  <text
     style="font-size:14px;text-anchor:middle;font-family:'Times New Roman,serif'"
     id="text39"
     font-size="14.00"
     y="144.93791"
     x="104.09732">15</text>
  <g
     transform="translate(41.130667,258.12534)"
     id="node5"
     class="node">
    <title
       id="title42">CC</title>
    <ellipse
       cx="229"
       cy="-135"
       rx="27"
       ry="18"
       id="ellipse44"
       d="m 256,-135 c 0,9.94113 -12.08831,18 -27,18 -14.91169,0 -27,-8.05887 -27,-18 0,-9.94113 12.08831,-18 27,-18 14.91169,0 27,8.05887 27,18 z"
       sodipodi:cx="229"
       sodipodi:cy="-135"
       sodipodi:rx="27"
       sodipodi:ry="18"
       style="fill:none;stroke:#000000" />
    <text
       x="229"
       y="-131.3"
       font-size="14.00"
       id="text46"
       style="font-size:14px;text-anchor:middle;font-family:'Times New Roman,serif'">CC</text>
  </g>
  <g
     transform="translate(41.130667,258.12534)"
     id="edge4"
     class="edge">
    <title
       id="title49">AC-&gt;CC</title>
    <path
       d="m 157.979,-132.082 c 10.459,-0.436 22.698,-0.946 33.992,-1.417"
       id="path51"
       inkscape:connector-curvature="0"
       style="fill:none;stroke:#0000ff" />
    <polygon
       points="191.863,-136.997 191.863,-136.997 202,-133.917 192.155,-130.003 "
       id="polygon53"
       style="fill:#0000ff;stroke:#0000ff" />
    <text
       x="180"
       y="-136.8"
       font-size="14.00"
       id="text55"
       style="font-size:14px;text-anchor:middle;font-family:'Times New Roman,serif'">2</text>
  </g>
  <g
     transform="translate(41.130667,258.12534)"
     id="node7"
     class="node">
    <title
       id="title58">CT</title>
    <ellipse
       cx="333"
       cy="-115"
       rx="27"
       ry="18"
       id="ellipse60"
       d="m 360,-115 c 0,9.94113 -12.08831,18 -27,18 -14.91169,0 -27,-8.05887 -27,-18 0,-9.94113 12.08831,-18 27,-18 14.91169,0 27,8.05887 27,18 z"
       sodipodi:cx="333"
       sodipodi:cy="-115"
       sodipodi:rx="27"
       sodipodi:ry="18"
       style="fill:none;stroke:#000000" />
    <text
       x="333"
       y="-111.3"
       font-size="14.00"
       id="text62"
       style="font-size:14px;text-anchor:middle;font-family:'Times New Roman,serif'">CT</text>
  </g>
  <g
     transform="translate(41.130667,258.12534)"
     id="edge24"
     class="edge">
    <title
       id="title65">AC-&gt;CT</title>
    <path
       d="m 149.959,-117.98 c 13.553,8.984 33.009,20.1473 52.041,24.98 33.051,8.3924 71.657,-0.432 98.161,-9.278"
       id="path67"
       inkscape:connector-curvature="0"
       style="fill:none;stroke:#ff0000" />
    <polygon
       points="299.095,-105.613 299.095,-105.613 309.69,-105.633 301.42,-99.0104 "
       id="polygon69"
       style="fill:#ff0000;stroke:#ff0000" />
    <text
       x="229"
       y="-96.800003"
       font-size="14.00"
       id="text71"
       style="font-size:14px;text-anchor:middle;font-family:'Times New Roman,serif'">14</text>
  </g>
  <g
     transform="translate(41.130667,258.12534)"
     id="edge6"
     class="edge">
    <title
       id="title90">CC-&gt;CT</title>
    <path
       d="m 255.213,-130.056 c 12.505,2.452 27.817,5.454 41.469,8.131"
       id="path92"
       inkscape:connector-curvature="0"
       style="fill:none;stroke:#0000ff" />
    <polygon
       points="297.583,-125.315 297.583,-125.315 306.723,-119.956 296.236,-118.446 "
       id="polygon94"
       style="fill:#0000ff;stroke:#0000ff" />
    <text
       x="281"
       y="-129.8"
       font-size="14.00"
       id="text96"
       style="font-size:14px;text-anchor:middle;font-family:'Times New Roman,serif'">3</text>
  </g>
  <g
     transform="translate(41.130667,258.12534)"
     id="node9"
     class="node">
    <title
       id="title99">TG</title>
    <ellipse
       cx="437"
       cy="-115"
       rx="27"
       ry="18"
       id="ellipse101"
       d="m 464,-115 c 0,9.94113 -12.08831,18 -27,18 -14.91169,0 -27,-8.05887 -27,-18 0,-9.94113 12.08831,-18 27,-18 14.91169,0 27,8.05887 27,18 z"
       sodipodi:cx="437"
       sodipodi:cy="-115"
       sodipodi:rx="27"
       sodipodi:ry="18"
       style="fill:none;stroke:#000000" />
    <text
       x="437"
       y="-111.3"
       font-size="14.00"
       id="text103"
       style="font-size:14px;text-anchor:middle;font-family:'Times New Roman,serif'">TG</text>
  </g>
  <g
     transform="translate(41.130667,258.12534)"
     id="edge26"
     class="edge">
    <title
       id="title106">CT-&gt;TG</title>
    <path
       d="m 360.003,-115 c 12.016,0 26.491,0 39.571,0"
       id="path108"
       inkscape:connector-curvature="0"
       style="fill:none;stroke:#ff0000" />
    <polygon
       points="399.69,-118.5 399.69,-118.5 409.69,-115 399.69,-111.5 "
       id="polygon110"
       style="fill:#ff0000;stroke:#ff0000" />
    <text
       x="385"
       y="-118.8"
       font-size="14.00"
       id="text112"
       style="font-size:14px;text-anchor:middle;font-family:'Times New Roman,serif'">13</text>
  </g>
  <g
     transform="translate(41.130667,258.12534)"
     id="edge8"
     class="edge">
    <title
       id="title115">CT-&gt;TG</title>
    <path
       d="M 348.633,-100.035 C 359.999,-90.2817 376.4,-80.188 392,-85 c 6.886,-2.124 13.657,-5.7353 19.745,-9.7314"
       id="path117"
       inkscape:connector-curvature="0"
       style="fill:none;stroke:#0000ff" />
    <polygon
       points="409.945,-97.7474 409.945,-97.7474 420.11,-100.733 414.025,-92.0599 "
       id="polygon119"
       style="fill:#0000ff;stroke:#0000ff" />
    <text
       x="385"
       y="-88.800003"
       font-size="14.00"
       id="text121"
       style="font-size:14px;text-anchor:middle;font-family:'Times New Roman,serif'">4</text>
  </g>
  <path
     style="fill:none;stroke:#0000ff;stroke-width:1;stroke-miterlimit:4;stroke-dasharray:2, 2;stroke-dashoffset:0"
     inkscape:connector-curvature="0"
     id="path133"
     d="m 500.43667,153.77834 c 13.05,6.5249 29.96,14.98 44.39,22.1948" />
  <polygon
     style="fill:#0000ff;stroke:#0000ff"
     id="polygon135"
     points="512.754,-77.623 502.244,-78.9647 505.375,-85.2257 505.375,-85.2257 "
     transform="translate(41.130667,258.12534)" />
  <path
     style="fill:none;stroke:#ff0000;stroke-width:1;stroke-miterlimit:4;stroke-dasharray:3, 3;stroke-dashoffset:0"
     inkscape:connector-curvature="0"
     id="path149"
     d="m 499.96167,132.27634 c 13.209,-6.88 30.511,-15.891 45.185,-23.534" />
  <polygon
     style="fill:#ff0000;stroke:#ff0000"
     id="polygon151"
     points="513.21,-154.172 505.958,-146.448 502.724,-152.657 502.724,-152.657 "
     transform="translate(41.130667,258.12534)" />
  <text
     xml:space="preserve"
     style="font-size:32px;font-style:normal;font-weight:normal;line-height:125%;letter-spacing:0px;word-spacing:0px;fill:#000000;fill-opacity:1;stroke:none;font-family:Sans"
     x="5.0773392"
     y="27.574762"
     id="text3984"
     sodipodi:linespacing="125%"><tspan
       sodipodi:role="line"
       id="tspan3986"
       x="5.0773392"
       y="27.574762"
       style="font-size:17.60000038px">5' <tspan
   style="font-size:17.60000038px;fill:#0000ff"
   id="tspan3990">TACCTG </tspan>... TCAGTA 3'</tspan><tspan
       sodipodi:role="line"
       x="5.0773392"
       y="49.574764"
       id="tspan3988"
       style="font-size:17.60000038px">3' ATGGAC ... A<tspan
   style="font-size:17.60000038px;fill:#ff0000"
   id="tspan3992">GTCAT </tspan>5'</tspan></text>
  <path
     style="fill:none;stroke:#ff0000;stroke-width:1.2021755"
     inkscape:connector-curvature="0"
     id="path35-0"
     d="m 60.129839,137.36178 c 11.541027,5.91607 25.623876,11.59498 39.059255,12.96778 15.081156,1.54094 31.601566,-1.47607 45.432396,-5.3668" />
  <polygon
     style="fill:#ff0000;stroke:#ff0000"
     id="polygon37-9"
     points="111.55,-108.306 111.55,-108.306 120.137,-114.511 117.294,-104.305 "
     transform="matrix(0.76604444,0.64278761,-0.64278761,0.76604444,-12.154611,151.66323)" />
</svg>
