<?xml version="1.0" encoding="UTF-8" standalone="no"?>
<!-- Generated by graphviz version 2.28.0 (20110507.0327)
 -->

<!-- Title: G Pages: 1 -->

<svg
   xmlns:dc="http://purl.org/dc/elements/1.1/"
   xmlns:cc="http://creativecommons.org/ns#"
   xmlns:rdf="http://www.w3.org/1999/02/22-rdf-syntax-ns#"
   xmlns:svg="http://www.w3.org/2000/svg"
   xmlns="http://www.w3.org/2000/svg"
   xmlns:sodipodi="http://sodipodi.sourceforge.net/DTD/sodipodi-0.dtd"
   xmlns:inkscape="http://www.inkscape.org/namespaces/inkscape"
   sodipodi:docname="graph1.pdf"
   inkscape:version="0.48.2 r9819"
   version="1.1"
   id="svg2"
   viewBox="0 0 956.4 360"
   height="450"
   width="1195.5">
  <sodipodi:namedview
     pagecolor="#ffffff"
     bordercolor="#666666"
     borderopacity="1"
     objecttolerance="10"
     gridtolerance="10"
     guidetolerance="10"
     inkscape:pageopacity="0"
     inkscape:pageshadow="2"
     inkscape:window-width="1366"
     inkscape:window-height="706"
     id="namedview266"
     showgrid="false"
     inkscape:zoom="0.6237006"
     inkscape:cx="768.42882"
     inkscape:cy="278.74629"
     inkscape:window-x="-8"
     inkscape:window-y="-8"
     inkscape:window-maximized="1"
     inkscape:current-layer="svg2" />
  <metadata
     id="metadata270">
    <rdf:RDF>
      <cc:Work
         rdf:about="">
        <dc:format>image/svg+xml</dc:format>
        <dc:type
           rdf:resource="http://purl.org/dc/dcmitype/StillImage" />
        <dc:title></dc:title>
      </cc:Work>
    </rdf:RDF>
  </metadata>
  <defs
     id="defs268" />
  <polygon
     transform="matrix(0.99110863,0,0,1.3468286,5.3041164,350.98217)"
     points="-4,5 -4,-246 959,-246 959,5 -4,5 "
     id="polygon7"
     style="fill:#ffffff;stroke:#ffffff" />
  <g
     transform="translate(0.8,352.8)"
     id="node1"
     class="node">
    <title
       id="title10">TA</title>
    <ellipse
       cx="27"
       cy="-57"
       rx="27"
       ry="18"
       id="ellipse12"
       d="m 54,-57 c 0,9.941125 -12.088312,18 -27,18 -14.911688,0 -27,-8.058875 -27,-18 0,-9.941125 12.088312,-18 27,-18 14.911688,0 27,8.058875 27,18 z"
       sodipodi:cx="27"
       sodipodi:cy="-57"
       sodipodi:rx="27"
       sodipodi:ry="18"
       style="fill:none;stroke:#000000" />
    <text
       x="27"
       y="-53.299999"
       font-size="14.00"
       id="text14"
       style="font-size:14px;text-anchor:middle;font-family:'Times New Roman,serif'">TA</text>
  </g>
  <g
     transform="translate(0.8,352.8)"
     id="node3"
     class="node">
    <title
       id="title17">AC</title>
    <ellipse
       cx="131"
       cy="-131"
       rx="27"
       ry="18"
       id="ellipse19"
       d="m 158,-131 c 0,9.94113 -12.08831,18 -27,18 -14.91169,0 -27,-8.05887 -27,-18 0,-9.94113 12.08831,-18 27,-18 14.91169,0 27,8.05887 27,18 z"
       sodipodi:cx="131"
       sodipodi:cy="-131"
       sodipodi:rx="27"
       sodipodi:ry="18"
       style="fill:none;stroke:#000000" />
    <text
       x="131"
       y="-127.3"
       font-size="14.00"
       id="text21"
       style="font-size:14px;text-anchor:middle;font-family:'Times New Roman,serif'">AC</text>
  </g>
  <g
     transform="translate(0.8,352.8)"
     id="edge2"
     class="edge">
    <title
       id="title24">TA-&gt;AC</title>
    <path
       d="M 43.2994,-71.8057 C 51.5042,-79.4189 61.9674,-88.6221 72,-96 c 9.0468,-6.653 19.4138,-13.212 28.858,-18.822"
       id="path26"
       inkscape:connector-curvature="0"
       style="fill:none;stroke:#0000ff" />
    <polygon
       points="102.672,-111.828 99.152,-117.879 99.152,-117.879 109.556,-119.882 "
       id="polygon28"
       style="fill:#0000ff;stroke:#0000ff" />
    <text
       x="79"
       y="-108.8"
       font-size="14.00"
       id="text30"
       style="font-size:14px;text-anchor:middle;font-family:'Times New Roman,serif'">1</text>
  </g>
  <g
     transform="translate(0.8,352.8)"
     id="edge22"
     class="edge">
    <title
       id="title33">TA-&gt;AC</title>
    <path
       d="M 52.8369,-62.2994 C 63.6747,-65.4049 76.1318,-70.1092 86,-77 c 11.077,-7.7349 20.866,-19.0028 28.381,-29.247"
       id="path35"
       inkscape:connector-curvature="0"
       style="fill:none;stroke:#ff0000" />
    <polygon
       points="117.294,-104.305 111.55,-108.306 111.55,-108.306 120.137,-114.511 "
       id="polygon37"
       style="fill:#ff0000;stroke:#ff0000" />
    <text
       x="79"
       y="-80.800003"
       font-size="14.00"
       id="text39"
       style="font-size:14px;text-anchor:middle;font-family:'Times New Roman,serif'">12</text>
  </g>
  <g
     transform="translate(0.8,352.8)"
     id="node5"
     class="node">
    <title
       id="title42">CC</title>
    <ellipse
       cx="229"
       cy="-135"
       rx="27"
       ry="18"
       id="ellipse44"
       d="m 256,-135 c 0,9.94113 -12.08831,18 -27,18 -14.91169,0 -27,-8.05887 -27,-18 0,-9.94113 12.08831,-18 27,-18 14.91169,0 27,8.05887 27,18 z"
       sodipodi:cx="229"
       sodipodi:cy="-135"
       sodipodi:rx="27"
       sodipodi:ry="18"
       style="fill:none;stroke:#000000" />
    <text
       x="229"
       y="-131.3"
       font-size="14.00"
       id="text46"
       style="font-size:14px;text-anchor:middle;font-family:'Times New Roman,serif'">CC</text>
  </g>
  <g
     transform="translate(0.8,352.8)"
     id="edge4"
     class="edge">
    <title
       id="title49">AC-&gt;CC</title>
    <path
       d="m 157.979,-132.082 c 10.459,-0.436 22.698,-0.946 33.992,-1.417"
       id="path51"
       inkscape:connector-curvature="0"
       style="fill:none;stroke:#0000ff" />
    <polygon
       points="192.155,-130.003 191.863,-136.997 191.863,-136.997 202,-133.917 "
       id="polygon53"
       style="fill:#0000ff;stroke:#0000ff" />
    <text
       x="180"
       y="-136.8"
       font-size="14.00"
       id="text55"
       style="font-size:14px;text-anchor:middle;font-family:'Times New Roman,serif'">2</text>
  </g>
  <g
     transform="translate(0.8,352.8)"
     id="node7"
     class="node">
    <title
       id="title58">CT</title>
    <ellipse
       cx="333"
       cy="-115"
       rx="27"
       ry="18"
       id="ellipse60"
       d="m 360,-115 c 0,9.94113 -12.08831,18 -27,18 -14.91169,0 -27,-8.05887 -27,-18 0,-9.94113 12.08831,-18 27,-18 14.91169,0 27,8.05887 27,18 z"
       sodipodi:cx="333"
       sodipodi:cy="-115"
       sodipodi:rx="27"
       sodipodi:ry="18"
       style="fill:none;stroke:#000000" />
    <text
       x="333"
       y="-111.3"
       font-size="14.00"
       id="text62"
       style="font-size:14px;text-anchor:middle;font-family:'Times New Roman,serif'">CT</text>
  </g>
  <g
     transform="translate(0.8,352.8)"
     id="edge24"
     class="edge">
    <title
       id="title65">AC-&gt;CT</title>
    <path
       d="m 149.959,-117.98 c 13.553,8.984 33.009,20.1473 52.041,24.98 33.051,8.3924 71.657,-0.432 98.161,-9.278"
       id="path67"
       inkscape:connector-curvature="0"
       style="fill:none;stroke:#ff0000" />
    <polygon
       points="301.42,-99.0104 299.095,-105.613 299.095,-105.613 309.69,-105.633 "
       id="polygon69"
       style="fill:#ff0000;stroke:#ff0000" />
    <text
       x="229"
       y="-96.800003"
       font-size="14.00"
       id="text71"
       style="font-size:14px;text-anchor:middle;font-family:'Times New Roman,serif'">11</text>
  </g>
  <g
     transform="translate(0.8,352.8)"
     id="node15"
     class="node">
    <title
       id="title74">CA</title>
    <ellipse
       cx="731"
       cy="-164"
       rx="27"
       ry="18"
       id="ellipse76"
       d="m 758,-164 c 0,9.94113 -12.08831,18 -27,18 -14.91169,0 -27,-8.05887 -27,-18 0,-9.94113 12.08831,-18 27,-18 14.91169,0 27,8.05887 27,18 z"
       sodipodi:cx="731"
       sodipodi:cy="-164"
       sodipodi:rx="27"
       sodipodi:ry="18"
       style="fill:none;stroke:#000000" />
    <text
       x="731"
       y="-160.3"
       font-size="14.00"
       id="text78"
       style="font-size:14px;text-anchor:middle;font-family:'Times New Roman,serif'">CA</text>
  </g>
  <g
     transform="translate(0.8,352.8)"
     id="edge32"
     class="edge">
    <title
       id="title81">AC-&gt;CA</title>
    <path
       d="M 139.557,-148.163 C 153.016,-175.776 183.924,-227 228,-227 c 0,0 0,0 406,0 30.177,0 58.232,22.028 76.123,40.033"
       id="path83"
       inkscape:connector-curvature="0"
       style="fill:none;stroke:#ff0000" />
    <polygon
       points="707.721,-184.414 712.797,-189.234 712.797,-189.234 717.145,-179.573 "
       id="polygon85"
       style="fill:#ff0000;stroke:#ff0000" />
    <text
       x="437"
       y="-230.8"
       font-size="14.00"
       id="text87"
       style="font-size:14px;text-anchor:middle;font-family:'Times New Roman,serif'">7</text>
  </g>
  <g
     transform="translate(0.8,352.8)"
     id="edge6"
     class="edge">
    <title
       id="title90">CC-&gt;CT</title>
    <path
       d="m 255.213,-130.056 c 12.505,2.452 27.817,5.454 41.469,8.131"
       id="path92"
       inkscape:connector-curvature="0"
       style="fill:none;stroke:#0000ff" />
    <polygon
       points="296.236,-118.446 297.583,-125.315 297.583,-125.315 306.723,-119.956 "
       id="polygon94"
       style="fill:#0000ff;stroke:#0000ff" />
    <text
       x="281"
       y="-129.8"
       font-size="14.00"
       id="text96"
       style="font-size:14px;text-anchor:middle;font-family:'Times New Roman,serif'">3</text>
  </g>
  <g
     transform="translate(0.8,352.8)"
     id="node9"
     class="node">
    <title
       id="title99">TG</title>
    <ellipse
       cx="437"
       cy="-115"
       rx="27"
       ry="18"
       id="ellipse101"
       d="m 464,-115 c 0,9.94113 -12.08831,18 -27,18 -14.91169,0 -27,-8.05887 -27,-18 0,-9.94113 12.08831,-18 27,-18 14.91169,0 27,8.05887 27,18 z"
       sodipodi:cx="437"
       sodipodi:cy="-115"
       sodipodi:rx="27"
       sodipodi:ry="18"
       style="fill:none;stroke:#000000" />
    <text
       x="437"
       y="-111.3"
       font-size="14.00"
       id="text103"
       style="font-size:14px;text-anchor:middle;font-family:'Times New Roman,serif'">TG</text>
  </g>
  <g
     transform="translate(0.8,352.8)"
     id="edge26"
     class="edge">
    <title
       id="title106">CT-&gt;TG</title>
    <path
       d="m 360.003,-115 c 12.016,0 26.491,0 39.571,0"
       id="path108"
       inkscape:connector-curvature="0"
       style="fill:none;stroke:#ff0000" />
    <polygon
       points="399.69,-111.5 399.69,-118.5 399.69,-118.5 409.69,-115 "
       id="polygon110"
       style="fill:#ff0000;stroke:#ff0000" />
    <text
       x="385"
       y="-118.8"
       font-size="14.00"
       id="text112"
       style="font-size:14px;text-anchor:middle;font-family:'Times New Roman,serif'">10</text>
  </g>
  <g
     transform="translate(0.8,352.8)"
     id="edge8"
     class="edge">
    <title
       id="title115">CT-&gt;TG</title>
    <path
       d="M 348.633,-100.035 C 359.999,-90.2817 376.4,-80.188 392,-85 c 6.886,-2.124 13.657,-5.7353 19.745,-9.7314"
       id="path117"
       inkscape:connector-curvature="0"
       style="fill:none;stroke:#0000ff" />
    <polygon
       points="414.025,-92.0599 409.945,-97.7474 409.945,-97.7474 420.11,-100.733 "
       id="polygon119"
       style="fill:#0000ff;stroke:#0000ff" />
    <text
       x="385"
       y="-88.800003"
       font-size="14.00"
       id="text121"
       style="font-size:14px;text-anchor:middle;font-family:'Times New Roman,serif'">4</text>
  </g>
  <g
     transform="translate(0.8,352.8)"
     id="node11"
     class="node">
    <title
       id="title124">GT</title>
    <ellipse
       cx="535"
       cy="-67"
       rx="27"
       ry="18"
       id="ellipse126"
       d="m 562,-67 c 0,9.941125 -12.08831,18 -27,18 -14.91169,0 -27,-8.058875 -27,-18 0,-9.941125 12.08831,-18 27,-18 14.91169,0 27,8.058875 27,18 z"
       sodipodi:cx="535"
       sodipodi:cy="-67"
       sodipodi:rx="27"
       sodipodi:ry="18"
       style="fill:none;stroke:#000000" />
    <text
       x="535"
       y="-63.299999"
       font-size="14.00"
       id="text128"
       style="font-size:14px;text-anchor:middle;font-family:'Times New Roman,serif'">GT</text>
  </g>
  <g
     transform="translate(0.8,352.8)"
     id="edge10"
     class="edge">
    <title
       id="title131">TG-&gt;GT</title>
    <path
       d="m 459.306,-104.347 c 13.05,6.5249 29.96,14.98 44.39,22.1948"
       id="path133"
       inkscape:connector-curvature="0"
       style="fill:none;stroke:#0000ff" />
    <polygon
       points="502.244,-78.9647 505.375,-85.2257 505.375,-85.2257 512.754,-77.623 "
       id="polygon135"
       style="fill:#0000ff;stroke:#0000ff" />
    <text
       x="486"
       y="-95.800003"
       font-size="14.00"
       id="text137"
       style="font-size:14px;text-anchor:middle;font-family:'Times New Roman,serif'">5</text>
  </g>
  <g
     transform="translate(0.8,352.8)"
     id="node24"
     class="node">
    <title
       id="title140">GA</title>
    <ellipse
       cx="535"
       cy="-165"
       rx="27"
       ry="18"
       id="ellipse142"
       d="m 562,-165 c 0,9.94113 -12.08831,18 -27,18 -14.91169,0 -27,-8.05887 -27,-18 0,-9.94113 12.08831,-18 27,-18 14.91169,0 27,8.05887 27,18 z"
       sodipodi:cx="535"
       sodipodi:cy="-165"
       sodipodi:rx="27"
       sodipodi:ry="18"
       style="fill:none;stroke:#000000" />
    <text
       x="535"
       y="-161.3"
       font-size="14.00"
       id="text144"
       style="font-size:14px;text-anchor:middle;font-family:'Times New Roman,serif'">GA</text>
  </g>
  <g
     transform="translate(0.8,352.8)"
     id="edge28"
     class="edge">
    <title
       id="title147">TG-&gt;GA</title>
    <path
       d="m 458.831,-125.849 c 13.209,-6.88 30.511,-15.891 45.185,-23.534"
       id="path149"
       inkscape:connector-curvature="0"
       style="fill:none;stroke:#ff0000" />
    <polygon
       points="505.958,-146.448 502.724,-152.657 502.724,-152.657 513.21,-154.172 "
       id="polygon151"
       style="fill:#ff0000;stroke:#ff0000" />
    <text
       x="486"
       y="-144.8"
       font-size="14.00"
       id="text153"
       style="font-size:14px;text-anchor:middle;font-family:'Times New Roman,serif'">9</text>
  </g>
  <g
     transform="translate(0.8,352.8)"
     id="edge40"
     class="edge">
    <title
       id="title156">GT-&gt;TA</title>
    <path
       d="M 512.82,-56.694 C 493.726,-48.3586 464.638,-38 438,-38 c -308,0 -308,0 -308,0 -23.009,0 -48.4507,-4.7303 -68.1695,-9.4704"
       id="path158"
       inkscape:connector-curvature="0"
       style="fill:none;stroke:#ff0000" />
    <polygon
       points="62.6358,-50.8768 60.9262,-44.0888 60.9262,-44.0888 52.0838,-49.9251 "
       id="polygon160"
       style="fill:#ff0000;stroke:#ff0000" />
    <text
       x="281"
       y="-41.799999"
       font-size="14.00"
       id="text162"
       style="font-size:14px;text-anchor:middle;font-family:'Times New Roman,serif'">3</text>
  </g>
  <g
     transform="translate(0.8,352.8)"
     id="edge20"
     class="edge">
    <title
       id="title165">GT-&gt;TA</title>
    <path
       d="M 521.932,-51.1219 C 505.368,-31.3091 473.568,0 438,0 130,0 130,0 130,0 99.6474,0 69.9313,-19.4717 50.4763,-35.6537"
       id="path167"
       inkscape:connector-curvature="0"
       style="fill:none;stroke:#0000ff" />
    <polygon
       points="52.6411,-38.4093 48.0526,-33.1229 48.0526,-33.1229 42.7948,-42.3211 "
       id="polygon169"
       style="fill:#0000ff;stroke:#0000ff" />
    <text
       x="281"
       y="-3.8"
       font-size="14.00"
       id="text171"
       style="font-size:14px;text-anchor:middle;font-family:'Times New Roman,serif'">10</text>
  </g>
  <g
     transform="translate(0.8,352.8)"
     id="node13"
     class="node">
    <title
       id="title174">TC</title>
    <ellipse
       cx="633"
       cy="-152"
       rx="27"
       ry="18"
       id="ellipse176"
       d="m 660,-152 c 0,9.94113 -12.08831,18 -27,18 -14.91169,0 -27,-8.05887 -27,-18 0,-9.94113 12.08831,-18 27,-18 14.91169,0 27,8.05887 27,18 z"
       sodipodi:cx="633"
       sodipodi:cy="-152"
       sodipodi:rx="27"
       sodipodi:ry="18"
       style="fill:none;stroke:#000000" />
    <text
       x="633"
       y="-148.3"
       font-size="14.00"
       id="text178"
       style="font-size:14px;text-anchor:middle;font-family:'Times New Roman,serif'">TC</text>
  </g>
  <g
     transform="translate(0.8,352.8)"
     id="edge12"
     class="edge">
    <title
       id="title181">GT-&gt;TC</title>
    <path
       d="m 547.483,-83.506 c 8.241,-11.1206 20.053,-25.677 32.517,-36.494 6.79,-5.893 14.788,-11.393 22.449,-16.115"
       id="path183"
       inkscape:connector-curvature="0"
       style="fill:none;stroke:#0000ff" />
    <polygon
       points="604.361,-133.179 600.804,-139.208 600.804,-139.208 611.195,-141.276 "
       id="polygon185"
       style="fill:#0000ff;stroke:#0000ff" />
    <text
       x="584"
       y="-129.8"
       font-size="14.00"
       id="text187"
       style="font-size:14px;text-anchor:middle;font-family:'Times New Roman,serif'">6</text>
  </g>
  <g
     transform="translate(0.8,352.8)"
     id="edge14"
     class="edge">
    <title
       id="title190">TC-&gt;CA</title>
    <path
       d="m 659.726,-155.216 c 10.546,-1.318 22.935,-2.867 34.349,-4.293"
       id="path192"
       inkscape:connector-curvature="0"
       style="fill:none;stroke:#0000ff" />
    <polygon
       points="694.714,-156.062 693.846,-163.008 693.846,-163.008 704.203,-160.775 "
       id="polygon194"
       style="fill:#0000ff;stroke:#0000ff" />
    <text
       x="682"
       y="-161.8"
       font-size="14.00"
       id="text196"
       style="font-size:14px;text-anchor:middle;font-family:'Times New Roman,serif'">7</text>
  </g>
  <g
     transform="translate(0.8,352.8)"
     id="node17"
     class="node">
    <title
       id="title199">AG</title>
    <ellipse
       cx="829"
       cy="-124"
       rx="27"
       ry="18"
       id="ellipse201"
       d="m 856,-124 c 0,9.94113 -12.08831,18 -27,18 -14.91169,0 -27,-8.05887 -27,-18 0,-9.94113 12.08831,-18 27,-18 14.91169,0 27,8.05887 27,18 z"
       sodipodi:cx="829"
       sodipodi:cy="-124"
       sodipodi:rx="27"
       sodipodi:ry="18"
       style="fill:none;stroke:#000000" />
    <text
       x="829"
       y="-120.3"
       font-size="14.00"
       id="text203"
       style="font-size:14px;text-anchor:middle;font-family:'Times New Roman,serif'">AG</text>
  </g>
  <g
     transform="translate(0.8,352.8)"
     id="edge34"
     class="edge">
    <title
       id="title206">CA-&gt;AG</title>
    <path
       d="m 758.024,-161.791 c 8.505,1.319 17.85,3.426 25.976,6.791 6.729,2.786 13.439,6.749 19.517,10.914"
       id="path208"
       inkscape:connector-curvature="0"
       style="fill:none;stroke:#ff0000" />
    <polygon
       points="801.764,-141.032 805.897,-146.682 805.897,-146.682 811.901,-137.953 "
       id="polygon210"
       style="fill:#ff0000;stroke:#ff0000" />
    <text
       x="780"
       y="-160.8"
       font-size="14.00"
       id="text212"
       style="font-size:14px;text-anchor:middle;font-family:'Times New Roman,serif'">6</text>
  </g>
  <g
     transform="translate(0.8,352.8)"
     id="edge16"
     class="edge">
    <title
       id="title215">CA-&gt;AG</title>
    <path
       d="m 751.732,-152.137 c 7.443,4.179 16.09,8.69 24.268,12.137 5.632,2.374 11.738,4.57 17.72,6.526"
       id="path217"
       inkscape:connector-curvature="0"
       style="fill:none;stroke:#0000ff" />
    <polygon
       points="792.975,-130.04 795.051,-136.726 795.051,-136.726 803.563,-130.418 "
       id="polygon219"
       style="fill:#0000ff;stroke:#0000ff" />
    <text
       x="780"
       y="-143.8"
       font-size="14.00"
       id="text221"
       style="font-size:14px;text-anchor:middle;font-family:'Times New Roman,serif'">8</text>
  </g>
  <g
     transform="translate(0.8,352.8)"
     id="edge18"
     class="edge">
    <title
       id="title224">AG-&gt;GT</title>
    <path
       d="M 802.592,-119.498 C 757.616,-111.459 661.083,-93.8914 580,-77 c -3.046,0.6346 -6.206,1.3129 -9.371,2.0063"
       id="path226"
       inkscape:connector-curvature="0"
       style="fill:none;stroke:#0000ff" />
    <polygon
       points="569.631,-78.3573 571.155,-71.5253 571.155,-71.5253 560.633,-72.7636 "
       id="polygon228"
       style="fill:#0000ff;stroke:#0000ff" />
    <text
       x="682"
       y="-100.8"
       font-size="14.00"
       id="text230"
       style="font-size:14px;text-anchor:middle;font-family:'Times New Roman,serif'">9</text>
  </g>
  <g
     transform="translate(-0.8,352.8)"
     id="node29"
     class="node">
    <title
       id="title233">GG</title>
    <ellipse
       cx="927"
       cy="-86"
       rx="27"
       ry="18"
       id="ellipse235"
       d="m 954,-86 c 0,9.941125 -12.08831,18 -27,18 -14.91169,0 -27,-8.058875 -27,-18 0,-9.941125 12.08831,-18 27,-18 14.91169,0 27,8.058875 27,18 z"
       sodipodi:cx="927"
       sodipodi:cy="-86"
       sodipodi:rx="27"
       sodipodi:ry="18"
       style="fill:none;stroke:#000000" />
    <text
       x="927"
       y="-82.300003"
       font-size="14.00"
       id="text237"
       style="font-size:14px;text-anchor:middle;font-family:'Times New Roman,serif'">GG</text>
  </g>
  <g
     transform="translate(0.8,352.8)"
     id="edge36"
     class="edge">
    <title
       id="title240">AG-&gt;GG</title>
    <path
       d="m 852.751,-114.995 c 12.314,4.875 27.728,10.976 41.235,16.3227"
       id="path242"
       inkscape:connector-curvature="0"
       style="fill:none;stroke:#ff0000" />
    <polygon
       points="892.826,-95.367 895.403,-101.876 895.403,-101.876 903.413,-94.9408 "
       id="polygon244"
       style="fill:#ff0000;stroke:#ff0000" />
    <text
       x="878"
       y="-109.8"
       font-size="14.00"
       id="text246"
       style="font-size:14px;text-anchor:middle;font-family:'Times New Roman,serif'">5</text>
  </g>
  <g
     transform="translate(0.8,352.8)"
     id="edge30"
     class="edge">
    <title
       id="title249">GA-&gt;AC</title>
    <path
       d="M 509.325,-171.416 C 490.044,-175.867 462.5,-181 438,-181 c -210,0 -210,0 -210,0 -26.929,0 -53.792,15.668 -72.224,29.462"
       id="path251"
       inkscape:connector-curvature="0"
       style="fill:none;stroke:#ff0000" />
    <polygon
       points="153.396,-154.119 157.715,-148.611 157.715,-148.611 147.686,-145.194 "
       id="polygon253"
       style="fill:#ff0000;stroke:#ff0000" />
    <text
       x="333"
       y="-184.8"
       font-size="14.00"
       id="text255"
       style="font-size:14px;text-anchor:middle;font-family:'Times New Roman,serif'">8</text>
  </g>
  <g
     transform="translate(0.8,352.8)"
     id="edge38"
     class="edge">
    <title
       id="title258">GG-&gt;GT</title>
    <path
       d="M 903.09,-77.3047 C 883.868,-70.7915 855.536,-63 830,-63 c -198,0 -198,0 -198,0 -19.801,0 -41.879,-0.86 -59.866,-1.7825"
       id="path260"
       inkscape:connector-curvature="0"
       style="fill:none;stroke:#ff0000" />
    <polygon
       points="572.239,-68.2818 571.861,-61.292 571.861,-61.292 562.065,-65.3268 "
       id="polygon262"
       style="fill:#ff0000;stroke:#ff0000" />
    <text
       x="731"
       y="-66.800003"
       font-size="14.00"
       id="text264"
       style="font-size:14px;text-anchor:middle;font-family:'Times New Roman,serif'">4</text>
  </g>
  <text
     xml:space="preserve"
     style="font-size:32px;font-style:normal;font-weight:normal;line-height:125%;letter-spacing:0px;word-spacing:0px;fill:#000000;fill-opacity:1;stroke:none;font-family:Sans"
     x="-0.053327776"
     y="24.649321"
     id="text3984"
     sodipodi:linespacing="125%"><tspan
       sodipodi:role="line"
       id="tspan3986"
       x="-0.053327776"
       y="24.649321">5' <tspan
   style="fill:#0000ff"
   id="tspan3990">TACCTG</tspan>TCAGTA 3'</tspan><tspan
       sodipodi:role="line"
       x="-0.053327776"
       y="64.649323"
       id="tspan3988">3' ATGGACA<tspan
   style="fill:#ff0000"
   id="tspan3992">GTCAT </tspan>5'</tspan></text>
</svg>
