<?xml version="1.0" encoding="UTF-8" standalone="no"?>
<!-- Generated by graphviz version 2.28.0 (20110507.0327)
 -->

<!-- Title: G Pages: 1 -->

<svg
   xmlns:dc="http://purl.org/dc/elements/1.1/"
   xmlns:cc="http://creativecommons.org/ns#"
   xmlns:rdf="http://www.w3.org/1999/02/22-rdf-syntax-ns#"
   xmlns:svg="http://www.w3.org/2000/svg"
   xmlns="http://www.w3.org/2000/svg"
   xmlns:sodipodi="http://sodipodi.sourceforge.net/DTD/sodipodi-0.dtd"
   xmlns:inkscape="http://www.inkscape.org/namespaces/inkscape"
   width="700"
   height="170"
   viewBox="0 0 560 136"
   id="svg2"
   version="1.1"
   inkscape:version="0.48.2 r9819"
   sodipodi:docname="graph2.pdf">
  <sodipodi:namedview
     pagecolor="#ffffff"
     bordercolor="#666666"
     borderopacity="1"
     objecttolerance="10"
     gridtolerance="10"
     guidetolerance="10"
     inkscape:pageopacity="0"
     inkscape:pageshadow="2"
     inkscape:window-width="1366"
     inkscape:window-height="706"
     id="namedview284"
     showgrid="false"
     inkscape:zoom="0.87657864"
     inkscape:cx="316.58426"
     inkscape:cy="60.459343"
     inkscape:window-x="-8"
     inkscape:window-y="-8"
     inkscape:window-maximized="1"
     inkscape:current-layer="svg2"
     showguides="true"
     inkscape:guide-bbox="true" />
  <metadata
     id="metadata288">
    <rdf:RDF>
      <cc:Work
         rdf:about="">
        <dc:format>image/svg+xml</dc:format>
        <dc:type
           rdf:resource="http://purl.org/dc/dcmitype/StillImage" />
        <dc:title></dc:title>
      </cc:Work>
    </rdf:RDF>
  </metadata>
  <defs
     id="defs286" />
  <g
     id="node1"
     class="node"
     transform="matrix(0.98587974,0,0,1,10.645406,155.25781)">
    <title
       id="title10">TA</title>
    <ellipse
       style="fill:none;stroke:#000000"
       sodipodi:ry="18"
       sodipodi:rx="27"
       sodipodi:cy="-55"
       sodipodi:cx="27"
       cx="27"
       cy="-55"
       rx="27"
       ry="18"
       id="ellipse12"
       d="m 54,-55 c 0,9.941125 -12.088312,18 -27,18 -14.911688,0 -27,-8.058875 -27,-18 0,-9.941125 12.088312,-18 27,-18 14.911688,0 27,8.058875 27,18 z" />
    <text
       style="font-size:14px;text-anchor:middle;font-family:'Times New Roman,serif'"
       x="27"
       y="-51.299999"
       font-size="14.00"
       id="text14">TA</text>
  </g>
  <g
     id="node3"
     class="node"
     transform="matrix(0.98587974,0,0,1,11.783323,216.95893)">
    <title
       id="title17">AC</title>
    <ellipse
       style="fill:none;stroke:#000000"
       sodipodi:ry="18"
       sodipodi:rx="27"
       sodipodi:cy="-113"
       sodipodi:cx="131"
       cx="131"
       cy="-113"
       rx="27"
       ry="18"
       id="ellipse19"
       d="m 158,-113 c 0,9.94113 -12.08831,18 -27,18 -14.91169,0 -27,-8.05887 -27,-18 0,-9.94113 12.08831,-18 27,-18 14.91169,0 27,8.05887 27,18 z" />
    <text
       style="font-size:14px;text-anchor:middle;font-family:'Times New Roman,serif'"
       x="131"
       y="-109.3"
       font-size="14.00"
       id="text21">AC</text>
  </g>
  <g
     id="node5"
     class="node"
     transform="matrix(0.98587974,0,0,1,13.383323,196.15893)">
    <title
       id="title42">CC</title>
    <ellipse
       style="fill:none;stroke:#000000"
       sodipodi:ry="18"
       sodipodi:rx="27"
       sodipodi:cy="-91"
       sodipodi:cx="235"
       cx="235"
       cy="-91"
       rx="27"
       ry="18"
       id="ellipse44"
       d="m 262,-91 c 0,9.941125 -12.08831,18 -27,18 -14.91169,0 -27,-8.058875 -27,-18 0,-9.94113 12.08831,-18 27,-18 14.91169,0 27,8.05887 27,18 z" />
    <text
       style="font-size:14px;text-anchor:middle;font-family:'Times New Roman,serif'"
       x="235"
       y="-87.300003"
       font-size="14.00"
       id="text46">CC</text>
  </g>
  <g
     id="node7"
     class="node"
     transform="matrix(0.98587974,0,0,1,13.383323,196.15893)">
    <title
       id="title83">CT</title>
    <ellipse
       style="fill:none;stroke:#000000"
       sodipodi:ry="18"
       sodipodi:rx="27"
       sodipodi:cy="-87"
       sodipodi:cx="339"
       cx="339"
       cy="-87"
       rx="27"
       ry="18"
       id="ellipse85"
       d="m 366,-87 c 0,9.941125 -12.08831,18 -27,18 -14.91169,0 -27,-8.058875 -27,-18 0,-9.941125 12.08831,-18 27,-18 14.91169,0 27,8.058875 27,18 z" />
    <text
       style="font-size:14px;text-anchor:middle;font-family:'Times New Roman,serif'"
       x="339"
       y="-83.300003"
       font-size="14.00"
       id="text87">CT</text>
  </g>
  <g
     id="edge28"
     class="edge"
     transform="matrix(0.98587974,0,0,1,13.383323,196.15893)">
    <title
       id="title90">CC-&gt;CT</title>
    <path
       style="fill:none;stroke:#ff0000"
       inkscape:connector-curvature="0"
       d="M 262.001,-92.2653 C 272.01,-92.5382 283.543,-92.5922 294,-92 c 2.713,0.1536 5.515,0.3602 8.331,0.6021"
       id="path92" />
    <polygon
       style="fill:#ff0000;stroke:#ff0000"
       points="302.841,-94.8647 302.841,-94.8647 312.449,-90.3985 302.153,-87.8986 "
       id="polygon94" />
    <text
       style="font-size:14px;text-anchor:middle;font-family:'Times New Roman,serif'"
       x="287"
       y="-95.800003"
       font-size="14.00"
       id="text96">14</text>
  </g>
  <g
     id="edge6"
     class="edge"
     transform="matrix(0.98587974,0,0,1,13.383323,196.15893)">
    <title
       id="title99">CC-&gt;CT</title>
    <path
       style="fill:none;stroke:#0000ff"
       inkscape:connector-curvature="0"
       d="m 258.971,-82.2238 c 6.681,2.149 14.058,4.1415 21.029,5.2238 7.863,1.2208 16.309,0.7735 24.257,-0.44"
       id="path101" />
    <polygon
       style="fill:#0000ff;stroke:#0000ff"
       points="303.841,-80.9247 303.841,-80.9247 314.325,-79.4008 305.179,-74.0538 "
       id="polygon103" />
    <text
       style="font-size:14px;text-anchor:middle;font-family:'Times New Roman,serif'"
       x="287"
       y="-80.800003"
       font-size="14.00"
       id="text105">3</text>
  </g>
  <g
     id="node9"
     class="node"
     transform="matrix(0.98587974,0,0,1,13.383323,196.15893)">
    <title
       id="title108">TG</title>
    <ellipse
       style="fill:none;stroke:#000000"
       sodipodi:ry="18"
       sodipodi:rx="27"
       sodipodi:cy="-91"
       sodipodi:cx="443"
       cx="443"
       cy="-91"
       rx="27"
       ry="18"
       id="ellipse110"
       d="m 470,-91 c 0,9.941125 -12.08831,18 -27,18 -14.91169,0 -27,-8.058875 -27,-18 0,-9.94113 12.08831,-18 27,-18 14.91169,0 27,8.05887 27,18 z" />
    <text
       style="font-size:14px;text-anchor:middle;font-family:'Times New Roman,serif'"
       x="443"
       y="-87.300003"
       font-size="14.00"
       id="text112">TG</text>
  </g>
  <g
     id="edge30"
     class="edge"
     transform="matrix(0.98587974,0,0,1,13.383323,196.15893)">
    <title
       id="title115">CT-&gt;TG</title>
    <path
       style="fill:none;stroke:#ff0000"
       inkscape:connector-curvature="0"
       d="m 366.046,-88.9957 c 5.9,-0.3909 12.14,-0.7561 17.954,-1.0043 6.963,-0.2972 14.4,-0.5068 21.546,-0.6544"
       id="path117" />
    <polygon
       style="fill:#ff0000;stroke:#ff0000"
       points="405.659,-94.1568 405.659,-94.1568 415.717,-90.8294 405.779,-87.1578 "
       id="polygon119" />
    <text
       style="font-size:14px;text-anchor:middle;font-family:'Times New Roman,serif'"
       x="391"
       y="-93.800003"
       font-size="14.00"
       id="text121">13</text>
  </g>
  <g
     id="edge8"
     class="edge"
     transform="matrix(0.98587974,0,0,1,13.383323,196.15893)">
    <title
       id="title124">CT-&gt;TG</title>
    <path
       style="fill:none;stroke:#0000ff"
       inkscape:connector-curvature="0"
       d="m 362.804,-78.2219 c 10.663,3.0604 23.55,5.2736 35.196,3.2219 4.028,-0.7095 8.171,-1.7582 12.23,-2.9853"
       id="path126" />
    <polygon
       style="fill:#0000ff;stroke:#0000ff"
       points="409.436,-81.4118 409.436,-81.4118 420.031,-81.3114 411.686,-74.7831 "
       id="polygon128" />
    <text
       style="font-size:14px;text-anchor:middle;font-family:'Times New Roman,serif'"
       x="391"
       y="-78.800003"
       font-size="14.00"
       id="text130">4</text>
  </g>
  <path
     id="path142"
     d="m 473.06552,114.90013 c 12.42307,5.513 28.15771,12.4957 41.80919,18.5537"
     inkscape:connector-curvature="0"
     style="fill:none;stroke:#0000ff;stroke-width:0.9928;stroke-miterlimit:4;stroke-dasharray:1.9856, 1.9856;stroke-dashoffset:0" />
  <polygon
     id="polygon144"
     points="517.855,-58.6884 507.291,-59.4901 510.096,-65.9032 510.096,-65.9032 "
     style="fill:#0000ff;stroke:#0000ff"
     transform="matrix(0.98587974,0,0,1,13.383323,196.15893)" />
  <g
     id="edge32"
     class="edge"
     transform="matrix(0.98587974,0,0,1,13.383323,196.15893)"
     style="stroke-width:0.99988443;stroke-miterlimit:4;stroke-dasharray:1.99976882, 1.99976882;stroke-dashoffset:0">
    <title
       id="title156">TG-&gt;GA</title>
    <path
       style="fill:none;stroke:#ff0000;stroke-width:0.99988443;stroke-miterlimit:4;stroke-dasharray:1.99976882, 1.99976882;stroke-dashoffset:0"
       inkscape:connector-curvature="0"
       d="m 466.751,-99.7685 c 12.225,-4.7115 27.504,-10.6005 40.941,-15.7795"
       id="path158" />
    <polygon
       style="fill:#ff0000;stroke:#ff0000;stroke-width:0.99988443;stroke-miterlimit:4;stroke-dasharray:1.99976882, 1.99976882;stroke-dashoffset:0"
       points="506.49,-118.836 506.49,-118.836 517.08,-119.166 509.008,-112.304 "
       id="polygon160" />
  </g>
  <text
     xml:space="preserve"
     style="font-size:32px;font-style:normal;font-weight:normal;line-height:125%;letter-spacing:0px;word-spacing:0px;fill:#000000;fill-opacity:1;stroke:none;font-family:Sans"
     x="8.6555414"
     y="22.13999"
     id="text3138"
     sodipodi:linespacing="125%"><tspan
       sodipodi:role="line"
       id="tspan3140"
       x="8.6555414"
       y="22.13999"
       style="font-size:17.60000038px">5' <tspan
   style="font-size:17.60000038px;fill:#0000ff"
   id="tspan3144">TACCTG</tspan> ... CAGGTA 3'</tspan><tspan
       sodipodi:role="line"
       x="8.6555414"
       y="44.139988"
       id="tspan3142"
       style="font-size:17.60000038px">3' ATGGAC ... <tspan
   style="font-size:17.60000038px;fill:#ff0000"
   id="tspan3146">GTCCAT</tspan> 5'</tspan></text>
  <g
     id="edge28-1"
     class="edge"
     transform="matrix(0.98587976,0,0,1,-90.609255,191.55215)">
    <title
       id="title90-7">CC-&gt;CT</title>
    <path
       style="fill:none;stroke:#ff0000"
       inkscape:connector-curvature="0"
       d="M 262.001,-92.2653 C 272.01,-92.5382 283.543,-92.5922 294,-92 c 2.713,0.1536 5.515,0.3602 8.331,0.6021"
       id="path92-4" />
    <polygon
       style="fill:#ff0000;stroke:#ff0000"
       points="312.449,-90.3985 302.153,-87.8986 302.841,-94.8647 302.841,-94.8647 "
       id="polygon94-0" />
    <text
       style="font-size:14px;text-anchor:middle;font-family:'Times New Roman,serif'"
       x="287"
       y="-95.800003"
       font-size="14.00"
       id="text96-9">15</text>
  </g>
  <g
     id="edge6-4"
     class="edge"
     transform="matrix(0.98587976,0,0,1,-90.609255,191.55215)">
    <title
       id="title99-8">CC-&gt;CT</title>
    <path
       style="fill:none;stroke:#0000ff"
       inkscape:connector-curvature="0"
       d="m 258.971,-82.2238 c 6.681,2.149 14.058,4.1415 21.029,5.2238 7.863,1.2208 16.309,0.7735 24.257,-0.44"
       id="path101-8" />
    <polygon
       style="fill:#0000ff;stroke:#0000ff"
       points="314.325,-79.4008 305.179,-74.0538 303.841,-80.9247 303.841,-80.9247 "
       id="polygon103-2" />
    <text
       style="font-size:14px;text-anchor:middle;font-family:'Times New Roman,serif'"
       x="287"
       y="-80.800003"
       font-size="14.00"
       id="text105-4">2</text>
  </g>
  <path
     id="path92-1"
     d="m 64.390586,97.172897 c 9.867671,-0.2729 21.237822,-0.3269 31.547167,0.2653 2.67469,0.1536 5.437127,0.3602 8.213357,0.6021"
     inkscape:connector-curvature="0"
     style="fill:none;stroke:#ff0000;stroke-width:0.9929148" />
  <polygon
     id="polygon94-7"
     points="312.449,-90.3985 302.153,-87.8986 302.841,-94.8647 302.841,-94.8647 "
     style="fill:#ff0000;stroke:#ff0000"
     transform="matrix(0.98587976,0,0,1,-193.9109,189.4382)" />
  <text
     id="text96-1"
     font-size="14.00"
     y="92.974792"
     x="89.671928"
     style="font-size:13.90080738px;text-anchor:middle;font-family:'Times New Roman,serif'"
     transform="scale(0.99291476,1.0071358)">16</text>
  <g
     id="edge6-1"
     class="edge"
     transform="matrix(0.98587976,0,0,1,-193.9109,189.4382)">
    <title
       id="title99-5">CC-&gt;CT</title>
    <path
       style="fill:none;stroke:#0000ff"
       inkscape:connector-curvature="0"
       d="m 258.971,-82.2238 c 6.681,2.149 14.058,4.1415 21.029,5.2238 7.863,1.2208 16.309,0.7735 24.257,-0.44"
       id="path101-2" />
    <polygon
       style="fill:#0000ff;stroke:#0000ff"
       points="303.841,-80.9247 303.841,-80.9247 314.325,-79.4008 305.179,-74.0538 "
       id="polygon103-7" />
    <text
       style="font-size:14px;text-anchor:middle;font-family:'Times New Roman,serif'"
       x="287"
       y="-80.800003"
       font-size="14.00"
       id="text105-6">1</text>
  </g>
</svg>
