<?xml version="1.0" encoding="UTF-8" standalone="no"?>
<!-- Generated by graphviz version 2.28.0 (20110507.0327)
 -->

<!-- Title: G Pages: 1 -->

<svg
   xmlns:dc="http://purl.org/dc/elements/1.1/"
   xmlns:cc="http://creativecommons.org/ns#"
   xmlns:rdf="http://www.w3.org/1999/02/22-rdf-syntax-ns#"
   xmlns:svg="http://www.w3.org/2000/svg"
   xmlns="http://www.w3.org/2000/svg"
   xmlns:sodipodi="http://sodipodi.sourceforge.net/DTD/sodipodi-0.dtd"
   xmlns:inkscape="http://www.inkscape.org/namespaces/inkscape"
   width="1195.5"
   height="386"
   viewBox="0 0 956.4 308.8"
   id="svg2"
   version="1.1"
   inkscape:version="0.48.2 r9819"
   sodipodi:docname="graph2.pdf">
  <sodipodi:namedview
     pagecolor="#ffffff"
     bordercolor="#666666"
     borderopacity="1"
     objecttolerance="10"
     gridtolerance="10"
     guidetolerance="10"
     inkscape:pageopacity="0"
     inkscape:pageshadow="2"
     inkscape:window-width="1366"
     inkscape:window-height="706"
     id="namedview284"
     showgrid="false"
     inkscape:zoom="0.87657865"
     inkscape:cx="634.76099"
     inkscape:cy="259.73564"
     inkscape:window-x="-8"
     inkscape:window-y="-8"
     inkscape:window-maximized="1"
     inkscape:current-layer="svg2"
     showguides="true"
     inkscape:guide-bbox="true" />
  <metadata
     id="metadata288">
    <rdf:RDF>
      <cc:Work
         rdf:about="">
        <dc:format>image/svg+xml</dc:format>
        <dc:type
           rdf:resource="http://purl.org/dc/dcmitype/StillImage" />
        <dc:title></dc:title>
      </cc:Work>
    </rdf:RDF>
  </metadata>
  <defs
     id="defs286" />
  <g
     transform="matrix(0.98587974,0,0,1,3.943519,301.6)"
     class="graph"
     id="graph1">
    <title
       id="title5">G</title>
    <polygon
       id="polygon7"
       points="-4,5 -4,-209 965,-209 965,5 -4,5 "
       style="fill:#ffffff;stroke:#ffffff" />
    <!-- TA -->
    <g
       class="node"
       id="node1">
      <title
         id="title10">TA</title>
      <ellipse
         d="m 54,-55 c 0,9.941125 -12.088312,18 -27,18 -14.911688,0 -27,-8.058875 -27,-18 0,-9.941125 12.088312,-18 27,-18 14.911688,0 27,8.058875 27,18 z"
         id="ellipse12"
         ry="18"
         rx="27"
         cy="-55"
         cx="27"
         sodipodi:cx="27"
         sodipodi:cy="-55"
         sodipodi:rx="27"
         sodipodi:ry="18"
         style="fill:none;stroke:#000000" />
      <text
         id="text14"
         font-size="14.00"
         y="-51.299999"
         x="27"
         style="font-size:14px;text-anchor:middle;font-family:'Times New Roman,serif'">TA</text>
    </g>
    <!-- AC -->
    <g
       class="node"
       id="node3">
      <title
         id="title17">AC</title>
      <ellipse
         d="m 158,-113 c 0,9.94113 -12.08831,18 -27,18 -14.91169,0 -27,-8.05887 -27,-18 0,-9.94113 12.08831,-18 27,-18 14.91169,0 27,8.05887 27,18 z"
         id="ellipse19"
         ry="18"
         rx="27"
         cy="-113"
         cx="131"
         sodipodi:cx="131"
         sodipodi:cy="-113"
         sodipodi:rx="27"
         sodipodi:ry="18"
         style="fill:none;stroke:#000000" />
      <text
         id="text21"
         font-size="14.00"
         y="-109.3"
         x="131"
         style="font-size:14px;text-anchor:middle;font-family:'Times New Roman,serif'">AC</text>
    </g>
    <!-- TA&#45;&GT;AC -->
    <g
       class="edge"
       id="edge2">
      <title
         id="title24">TA-&gt;AC</title>
      <path
         id="path26"
         d="M 43.883,-69.5162 C 51.9047,-76.3426 62.0319,-84.2296 72,-90 c 7.7489,-4.4857 16.5403,-8.4724 24.8933,-11.815"
         inkscape:connector-curvature="0"
         style="fill:none;stroke:#0000ff" />
      <polygon
         id="polygon28"
         points="106.409,-105.434 98.3062,-98.6075 95.8178,-105.15 95.8178,-105.15 "
         style="fill:#0000ff;stroke:#0000ff" />
      <text
         id="text30"
         font-size="14.00"
         y="-100.8"
         x="79"
         style="font-size:14px;text-anchor:middle;font-family:'Times New Roman,serif'">1</text>
    </g>
    <!-- TA&#45;&GT;AC -->
    <g
       class="edge"
       id="edge24">
      <title
         id="title33">TA-&gt;AC</title>
      <path
         id="path35"
         d="M 53.323,-59.1478 C 63.8896,-61.5833 76.004,-65.3341 86,-71 c 8.7709,-4.9714 17.119,-12.076 24.14,-19.0313"
         inkscape:connector-curvature="0"
         style="fill:none;stroke:#ff0000" />
      <polygon
         id="polygon37"
         points="117.195,-97.4119 112.816,-87.7647 107.755,-92.6016 107.755,-92.6016 "
         style="fill:#ff0000;stroke:#ff0000" />
      <text
         id="text39"
         font-size="14.00"
         y="-74.800003"
         x="79"
         style="font-size:14px;text-anchor:middle;font-family:'Times New Roman,serif'">13</text>
    </g>
    <!-- CC -->
    <g
       class="node"
       id="node5">
      <title
         id="title42">CC</title>
      <ellipse
         d="m 262,-91 c 0,9.941125 -12.08831,18 -27,18 -14.91169,0 -27,-8.058875 -27,-18 0,-9.94113 12.08831,-18 27,-18 14.91169,0 27,8.05887 27,18 z"
         id="ellipse44"
         ry="18"
         rx="27"
         cy="-91"
         cx="235"
         sodipodi:cx="235"
         sodipodi:cy="-91"
         sodipodi:rx="27"
         sodipodi:ry="18"
         style="fill:none;stroke:#000000" />
      <text
         id="text46"
         font-size="14.00"
         y="-87.300003"
         x="235"
         style="font-size:14px;text-anchor:middle;font-family:'Times New Roman,serif'">CC</text>
    </g>
    <!-- AC&#45;&GT;CC -->
    <g
       class="edge"
       id="edge4">
      <title
         id="title49">AC-&gt;CC</title>
      <path
         id="path51"
         d="m 156.952,-107.618 c 12.596,2.716 28.089,6.058 41.871,9.0307"
         inkscape:connector-curvature="0"
         style="fill:none;stroke:#0000ff" />
      <polygon
         id="polygon53"
         points="208.952,-96.4025 198.439,-95.0896 199.915,-101.932 199.915,-101.932 "
         style="fill:#0000ff;stroke:#0000ff" />
      <text
         id="text55"
         font-size="14.00"
         y="-106.8"
         x="183"
         style="font-size:14px;text-anchor:middle;font-family:'Times New Roman,serif'">2</text>
    </g>
    <!-- AC&#45;&GT;CC -->
    <g
       class="edge"
       id="edge26">
      <title
         id="title58">AC-&gt;CC</title>
      <path
         id="path60"
         d="m 147.333,-98.1336 c 7.891,6.6188 18.068,13.6869 28.667,17.1336 8.083,2.6284 17.036,2.493 25.441,1.1123"
         inkscape:connector-curvature="0"
         style="fill:none;stroke:#ff0000" />
      <polygon
         id="polygon62"
         points="211.326,-82.0872 202.325,-76.4987 200.805,-83.3315 200.805,-83.3315 "
         style="fill:#ff0000;stroke:#ff0000" />
      <text
         id="text64"
         font-size="14.00"
         y="-84.800003"
         x="183"
         style="font-size:14px;text-anchor:middle;font-family:'Times New Roman,serif'">12</text>
    </g>
    <!-- CA -->
    <g
       class="node"
       id="node15">
      <title
         id="title67">CA</title>
      <ellipse
         d="m 764,-136 c 0,9.94113 -12.08831,18 -27,18 -14.91169,0 -27,-8.05887 -27,-18 0,-9.94113 12.08831,-18 27,-18 14.91169,0 27,8.05887 27,18 z"
         id="ellipse69"
         ry="18"
         rx="27"
         cy="-136"
         cx="737"
         sodipodi:cx="737"
         sodipodi:cy="-136"
         sodipodi:rx="27"
         sodipodi:ry="18"
         style="fill:none;stroke:#000000" />
      <text
         id="text71"
         font-size="14.00"
         y="-132.3"
         x="737"
         style="font-size:14px;text-anchor:middle;font-family:'Times New Roman,serif'">CA</text>
    </g>
    <!-- AC&#45;&GT;CA -->
    <g
       class="edge"
       id="edge36">
      <title
         id="title74">AC-&gt;CA</title>
      <path
         id="path76"
         d="M 143.072,-129.33 C 159.86,-151.932 194.062,-190 234,-190 c 0,0 0,0 406,0 27.859,0 55.1,17.489 73.405,32.561"
         inkscape:connector-curvature="0"
         style="fill:none;stroke:#ff0000" />
      <polygon
         id="polygon78"
         points="721.156,-150.756 711.297,-154.635 715.868,-159.937 715.868,-159.937 "
         style="fill:#ff0000;stroke:#ff0000" />
      <text
         id="text80"
         font-size="14.00"
         y="-193.8"
         x="443"
         style="font-size:14px;text-anchor:middle;font-family:'Times New Roman,serif'">7</text>
    </g>
    <!-- CT -->
    <g
       class="node"
       id="node7">
      <title
         id="title83">CT</title>
      <ellipse
         d="m 366,-87 c 0,9.941125 -12.08831,18 -27,18 -14.91169,0 -27,-8.058875 -27,-18 0,-9.941125 12.08831,-18 27,-18 14.91169,0 27,8.058875 27,18 z"
         id="ellipse85"
         ry="18"
         rx="27"
         cy="-87"
         cx="339"
         sodipodi:cx="339"
         sodipodi:cy="-87"
         sodipodi:rx="27"
         sodipodi:ry="18"
         style="fill:none;stroke:#000000" />
      <text
         id="text87"
         font-size="14.00"
         y="-83.300003"
         x="339"
         style="font-size:14px;text-anchor:middle;font-family:'Times New Roman,serif'">CT</text>
    </g>
    <!-- CC&#45;&GT;CT -->
    <g
       class="edge"
       id="edge28">
      <title
         id="title90">CC-&gt;CT</title>
      <path
         id="path92"
         d="M 262.001,-92.2653 C 272.01,-92.5382 283.543,-92.5922 294,-92 c 2.713,0.1536 5.515,0.3602 8.331,0.6021"
         inkscape:connector-curvature="0"
         style="fill:none;stroke:#ff0000" />
      <polygon
         id="polygon94"
         points="312.449,-90.3985 302.153,-87.8986 302.841,-94.8647 302.841,-94.8647 "
         style="fill:#ff0000;stroke:#ff0000" />
      <text
         id="text96"
         font-size="14.00"
         y="-95.800003"
         x="287"
         style="font-size:14px;text-anchor:middle;font-family:'Times New Roman,serif'">11</text>
    </g>
    <!-- CC&#45;&GT;CT -->
    <g
       class="edge"
       id="edge6">
      <title
         id="title99">CC-&gt;CT</title>
      <path
         id="path101"
         d="m 258.971,-82.2238 c 6.681,2.149 14.058,4.1415 21.029,5.2238 7.863,1.2208 16.309,0.7735 24.257,-0.44"
         inkscape:connector-curvature="0"
         style="fill:none;stroke:#0000ff" />
      <polygon
         id="polygon103"
         points="314.325,-79.4008 305.179,-74.0538 303.841,-80.9247 303.841,-80.9247 "
         style="fill:#0000ff;stroke:#0000ff" />
      <text
         id="text105"
         font-size="14.00"
         y="-80.800003"
         x="287"
         style="font-size:14px;text-anchor:middle;font-family:'Times New Roman,serif'">3</text>
    </g>
    <!-- TG -->
    <g
       class="node"
       id="node9">
      <title
         id="title108">TG</title>
      <ellipse
         d="m 470,-91 c 0,9.941125 -12.08831,18 -27,18 -14.91169,0 -27,-8.058875 -27,-18 0,-9.94113 12.08831,-18 27,-18 14.91169,0 27,8.05887 27,18 z"
         id="ellipse110"
         ry="18"
         rx="27"
         cy="-91"
         cx="443"
         sodipodi:cx="443"
         sodipodi:cy="-91"
         sodipodi:rx="27"
         sodipodi:ry="18"
         style="fill:none;stroke:#000000" />
      <text
         id="text112"
         font-size="14.00"
         y="-87.300003"
         x="443"
         style="font-size:14px;text-anchor:middle;font-family:'Times New Roman,serif'">TG</text>
    </g>
    <!-- CT&#45;&GT;TG -->
    <g
       class="edge"
       id="edge30">
      <title
         id="title115">CT-&gt;TG</title>
      <path
         id="path117"
         d="m 366.046,-88.9957 c 5.9,-0.3909 12.14,-0.7561 17.954,-1.0043 6.963,-0.2972 14.4,-0.5068 21.546,-0.6544"
         inkscape:connector-curvature="0"
         style="fill:none;stroke:#ff0000" />
      <polygon
         id="polygon119"
         points="415.717,-90.8294 405.779,-87.1578 405.659,-94.1568 405.659,-94.1568 "
         style="fill:#ff0000;stroke:#ff0000" />
      <text
         id="text121"
         font-size="14.00"
         y="-93.800003"
         x="391"
         style="font-size:14px;text-anchor:middle;font-family:'Times New Roman,serif'">10</text>
    </g>
    <!-- CT&#45;&GT;TG -->
    <g
       class="edge"
       id="edge8">
      <title
         id="title124">CT-&gt;TG</title>
      <path
         id="path126"
         d="m 362.804,-78.2219 c 10.663,3.0604 23.55,5.2736 35.196,3.2219 4.028,-0.7095 8.171,-1.7582 12.23,-2.9853"
         inkscape:connector-curvature="0"
         style="fill:none;stroke:#0000ff" />
      <polygon
         id="polygon128"
         points="420.031,-81.3114 411.686,-74.7831 409.436,-81.4118 409.436,-81.4118 "
         style="fill:#0000ff;stroke:#0000ff" />
      <text
         id="text130"
         font-size="14.00"
         y="-78.800003"
         x="391"
         style="font-size:14px;text-anchor:middle;font-family:'Times New Roman,serif'">4</text>
    </g>
    <!-- GT -->
    <g
       class="node"
       id="node11">
      <title
         id="title133">GT</title>
      <ellipse
         d="m 568,-49 c 0,9.941125 -12.08831,18 -27,18 -14.91169,0 -27,-8.058875 -27,-18 0,-9.941125 12.08831,-18 27,-18 14.91169,0 27,8.058875 27,18 z"
         id="ellipse135"
         ry="18"
         rx="27"
         cy="-49"
         cx="541"
         sodipodi:cx="541"
         sodipodi:cy="-49"
         sodipodi:rx="27"
         sodipodi:ry="18"
         style="fill:none;stroke:#000000" />
      <text
         id="text137"
         font-size="14.00"
         y="-45.299999"
         x="541"
         style="font-size:14px;text-anchor:middle;font-family:'Times New Roman,serif'">GT</text>
    </g>
    <!-- TG&#45;&GT;GT -->
    <g
       class="edge"
       id="edge10">
      <title
         id="title140">TG-&gt;GT</title>
      <path
         id="path142"
         d="m 466.266,-81.2588 c 12.601,5.513 28.561,12.4957 42.408,18.5537"
         inkscape:connector-curvature="0"
         style="fill:none;stroke:#0000ff" />
      <polygon
         id="polygon144"
         points="517.855,-58.6884 507.291,-59.4901 510.096,-65.9032 510.096,-65.9032 "
         style="fill:#0000ff;stroke:#0000ff" />
      <text
         id="text146"
         font-size="14.00"
         y="-74.800003"
         x="492"
         style="font-size:14px;text-anchor:middle;font-family:'Times New Roman,serif'">5</text>
    </g>
    <!-- GA -->
    <g
       class="node"
       id="node27">
      <title
         id="title149">GA</title>
      <ellipse
         d="m 568,-128 c 0,9.94113 -12.08831,18 -27,18 -14.91169,0 -27,-8.05887 -27,-18 0,-9.94113 12.08831,-18 27,-18 14.91169,0 27,8.05887 27,18 z"
         id="ellipse151"
         ry="18"
         rx="27"
         cy="-128"
         cx="541"
         sodipodi:cx="541"
         sodipodi:cy="-128"
         sodipodi:rx="27"
         sodipodi:ry="18"
         style="fill:none;stroke:#000000" />
      <text
         id="text153"
         font-size="14.00"
         y="-124.3"
         x="541"
         style="font-size:14px;text-anchor:middle;font-family:'Times New Roman,serif'">GA</text>
    </g>
    <!-- TG&#45;&GT;GA -->
    <g
       class="edge"
       id="edge32">
      <title
         id="title156">TG-&gt;GA</title>
      <path
         id="path158"
         d="m 466.751,-99.7685 c 12.225,-4.7115 27.504,-10.6005 40.941,-15.7795"
         inkscape:connector-curvature="0"
         style="fill:none;stroke:#ff0000" />
      <polygon
         id="polygon160"
         points="517.08,-119.166 509.008,-112.304 506.49,-118.836 506.49,-118.836 "
         style="fill:#ff0000;stroke:#ff0000" />
      <text
         id="text162"
         font-size="14.00"
         y="-113.8"
         x="492"
         style="font-size:14px;text-anchor:middle;font-family:'Times New Roman,serif'">9</text>
    </g>
    <!-- GT&#45;&GT;TA -->
    <g
       class="edge"
       id="edge22">
      <title
         id="title165">GT-&gt;TA</title>
      <path
         id="path167"
         d="M 514.825,-44.5259 C 495.512,-41.4805 468.157,-38 444,-38 c -314,0 -314,0 -314,0 -22.674,0 -47.8027,-4.1379 -67.4447,-8.3308"
         inkscape:connector-curvature="0"
         style="fill:none;stroke:#0000ff" />
      <polygon
         id="polygon169"
         points="52.5427,-48.573 63.0658,-49.803 61.5361,-42.9722 61.5361,-42.9722 "
         style="fill:#0000ff;stroke:#0000ff" />
      <text
         id="text171"
         font-size="14.00"
         y="-41.799999"
         x="287"
         style="font-size:14px;text-anchor:middle;font-family:'Times New Roman,serif'">11</text>
    </g>
    <!-- GT&#45;&GT;TA -->
    <g
       class="edge"
       id="edge44">
      <title
         id="title174">GT-&gt;TA</title>
      <path
         id="path176"
         d="M 523.937,-34.8272 C 505.831,-20.3556 474.875,0 444,0 130,0 130,0 130,0 100.073,0 70.4871,-18.5694 50.9496,-34.1284"
         inkscape:connector-curvature="0"
         style="fill:none;stroke:#ff0000" />
      <polygon
         id="polygon178"
         points="43.2199,-40.5494 53.1486,-36.8518 48.6757,-31.4673 48.6757,-31.4673 "
         style="fill:#ff0000;stroke:#ff0000" />
      <text
         id="text180"
         font-size="14.00"
         y="-3.8"
         x="287"
         style="font-size:14px;text-anchor:middle;font-family:'Times New Roman,serif'">3</text>
    </g>
    <!-- TC -->
    <g
       class="node"
       id="node13">
      <title
         id="title183">TC</title>
      <ellipse
         d="m 666,-133 c 0,9.94113 -12.08831,18 -27,18 -14.91169,0 -27,-8.05887 -27,-18 0,-9.94113 12.08831,-18 27,-18 14.91169,0 27,8.05887 27,18 z"
         id="ellipse185"
         ry="18"
         rx="27"
         cy="-133"
         cx="639"
         sodipodi:cx="639"
         sodipodi:cy="-133"
         sodipodi:rx="27"
         sodipodi:ry="18"
         style="fill:none;stroke:#000000" />
      <text
         id="text187"
         font-size="14.00"
         y="-129.3"
         x="639"
         style="font-size:14px;text-anchor:middle;font-family:'Times New Roman,serif'">TC</text>
    </g>
    <!-- GT&#45;&GT;TC -->
    <g
       class="edge"
       id="edge12">
      <title
         id="title190">GT-&gt;TC</title>
      <path
         id="path192"
         d="M 557.763,-63.5787 C 566.095,-71.221 576.531,-80.6948 586,-89 c 8.985,-7.881 18.98,-16.397 27.787,-23.818"
         inkscape:connector-curvature="0"
         style="fill:none;stroke:#0000ff" />
      <polygon
         id="polygon194"
         points="621.478,-119.276 616.071,-110.165 611.569,-115.526 611.569,-115.526 "
         style="fill:#0000ff;stroke:#0000ff" />
      <text
         id="text196"
         font-size="14.00"
         y="-98.800003"
         x="590"
         style="font-size:14px;text-anchor:middle;font-family:'Times New Roman,serif'">6</text>
    </g>
    <!-- TC&#45;&GT;CA -->
    <g
       class="edge"
       id="edge14">
      <title
         id="title199">TC-&gt;CA</title>
      <path
         id="path201"
         d="m 665.979,-133.812 c 10.459,-0.327 22.698,-0.709 33.992,-1.062"
         inkscape:connector-curvature="0"
         style="fill:none;stroke:#0000ff" />
      <polygon
         id="polygon203"
         points="710,-135.188 700.114,-131.377 699.896,-138.373 699.896,-138.373 "
         style="fill:#0000ff;stroke:#0000ff" />
      <text
         id="text205"
         font-size="14.00"
         y="-137.8"
         x="688"
         style="font-size:14px;text-anchor:middle;font-family:'Times New Roman,serif'">7</text>
    </g>
    <!-- AG -->
    <g
       class="node"
       id="node17">
      <title
         id="title208">AG</title>
      <ellipse
         d="m 862,-133 c 0,9.94113 -12.08831,18 -27,18 -14.91169,0 -27,-8.05887 -27,-18 0,-9.94113 12.08831,-18 27,-18 14.91169,0 27,8.05887 27,18 z"
         id="ellipse210"
         ry="18"
         rx="27"
         cy="-133"
         cx="835"
         sodipodi:cx="835"
         sodipodi:cy="-133"
         sodipodi:rx="27"
         sodipodi:ry="18"
         style="fill:none;stroke:#000000" />
      <text
         id="text212"
         font-size="14.00"
         y="-129.3"
         x="835"
         style="font-size:14px;text-anchor:middle;font-family:'Times New Roman,serif'">AG</text>
    </g>
    <!-- CA&#45;&GT;AG -->
    <g
       class="edge"
       id="edge38">
      <title
         id="title215">CA-&gt;AG</title>
      <path
         id="path217"
         d="m 763.979,-135.188 c 10.459,0.327 22.698,0.709 33.992,1.062"
         inkscape:connector-curvature="0"
         style="fill:none;stroke:#ff0000" />
      <polygon
         id="polygon219"
         points="808,-133.812 797.896,-130.627 798.114,-137.623 798.114,-137.623 "
         style="fill:#ff0000;stroke:#ff0000" />
      <text
         id="text221"
         font-size="14.00"
         y="-137.8"
         x="786"
         style="font-size:14px;text-anchor:middle;font-family:'Times New Roman,serif'">6</text>
    </g>
    <!-- CA&#45;&GT;AG -->
    <g
       class="edge"
       id="edge16">
      <title
         id="title224">CA-&gt;AG</title>
      <path
         id="path226"
         d="m 757.907,-124.192 c 7.318,3.71 15.838,7.323 24.093,9.192 7.645,1.731 15.731,0.503 23.19,-1.964"
         inkscape:connector-curvature="0"
         style="fill:none;stroke:#0000ff" />
      <polygon
         id="polygon228"
         points="814.544,-120.777 806.605,-113.761 803.963,-120.244 803.963,-120.244 "
         style="fill:#0000ff;stroke:#0000ff" />
      <text
         id="text230"
         font-size="14.00"
         y="-118.8"
         x="786"
         style="font-size:14px;text-anchor:middle;font-family:'Times New Roman,serif'">8</text>
    </g>
    <!-- GG -->
    <g
       class="node"
       id="node19">
      <title
         id="title233">GG</title>
      <ellipse
         d="m 960,-91 c 0,9.941125 -12.08831,18 -27,18 -14.91169,0 -27,-8.058875 -27,-18 0,-9.94113 12.08831,-18 27,-18 14.91169,0 27,8.05887 27,18 z"
         id="ellipse235"
         ry="18"
         rx="27"
         cy="-91"
         cx="933"
         sodipodi:cx="933"
         sodipodi:cy="-91"
         sodipodi:rx="27"
         sodipodi:ry="18"
         style="fill:none;stroke:#000000" />
      <text
         id="text237"
         font-size="14.00"
         y="-87.300003"
         x="933"
         style="font-size:14px;text-anchor:middle;font-family:'Times New Roman,serif'">GG</text>
    </g>
    <!-- AG&#45;&GT;GG -->
    <g
       class="edge"
       id="edge40">
      <title
         id="title240">AG-&gt;GG</title>
      <path
         id="path242"
         d="m 862.083,-130.932 c 8.51,1.31 17.842,3.447 25.917,6.932 7.112,3.07 14.135,7.508 20.412,12.139"
         inkscape:connector-curvature="0"
         style="fill:none;stroke:#ff0000" />
      <polygon
         id="polygon244"
         points="916.446,-105.537 906.423,-108.973 910.753,-114.473 910.753,-114.473 "
         style="fill:#ff0000;stroke:#ff0000" />
      <text
         id="text246"
         font-size="14.00"
         y="-129.8"
         x="884"
         style="font-size:14px;text-anchor:middle;font-family:'Times New Roman,serif'">5</text>
    </g>
    <!-- AG&#45;&GT;GG -->
    <g
       class="edge"
       id="edge18">
      <title
         id="title249">AG-&gt;GG</title>
      <path
         id="path251"
         d="m 855.798,-121.29 c 7.451,4.162 16.085,8.701 24.202,12.29 5.906,2.611 12.318,5.098 18.558,7.345"
         inkscape:connector-curvature="0"
         style="fill:none;stroke:#0000ff" />
      <polygon
         id="polygon253"
         points="908.123,-98.3393 897.529,-98.3075 899.821,-104.921 899.821,-104.921 "
         style="fill:#0000ff;stroke:#0000ff" />
      <text
         id="text255"
         font-size="14.00"
         y="-112.8"
         x="884"
         style="font-size:14px;text-anchor:middle;font-family:'Times New Roman,serif'">9</text>
    </g>
    <!-- GG&#45;&GT;GT -->
    <g
       class="edge"
       id="edge42">
      <title
         id="title258">GG-&gt;GT</title>
      <path
         id="path260"
         d="M 907.325,-84.5844 C 888.044,-80.1331 860.5,-75 836,-75 c -198,0 -198,0 -198,0 -22.101,0 -46.1,6.4996 -64.575,12.9994"
         inkscape:connector-curvature="0"
         style="fill:none;stroke:#ff0000" />
      <polygon
         id="polygon262"
         points="564.043,-58.5338 572.21,-65.2829 574.636,-58.7168 574.636,-58.7168 "
         style="fill:#ff0000;stroke:#ff0000" />
      <text
         id="text264"
         font-size="14.00"
         y="-78.800003"
         x="737"
         style="font-size:14px;text-anchor:middle;font-family:'Times New Roman,serif'">4</text>
    </g>
    <!-- GG&#45;&GT;GT -->
    <g
       class="edge"
       id="edge20">
      <title
         id="title267">GG-&gt;GT</title>
      <path
         id="path269"
         d="M 919.932,-75.1219 C 903.368,-55.3091 871.568,-24 836,-24 c -198,0 -198,0 -198,0 -21.797,0 -45.506,-6.1104 -63.909,-12.2894"
         inkscape:connector-curvature="0"
         style="fill:none;stroke:#0000ff" />
      <polygon
         id="polygon271"
         points="564.459,-39.6909 575.054,-39.6612 572.723,-33.0607 572.723,-33.0607 "
         style="fill:#0000ff;stroke:#0000ff" />
      <text
         id="text273"
         font-size="14.00"
         y="-27.799999"
         x="737"
         style="font-size:14px;text-anchor:middle;font-family:'Times New Roman,serif'">10</text>
    </g>
    <!-- GA&#45;&GT;AC -->
    <g
       class="edge"
       id="edge34">
      <title
         id="title276">GA-&gt;AC</title>
      <path
         id="path278"
         d="M 515.325,-134.416 C 496.044,-138.867 468.5,-144 444,-144 c -210,0 -210,0 -210,0 -24.7,0 -51.366,8.424 -71.237,16.49"
         inkscape:connector-curvature="0"
         style="fill:none;stroke:#ff0000" />
      <polygon
         id="polygon280"
         points="153.316,-123.495 161.15,-130.628 163.888,-124.185 163.888,-124.185 "
         style="fill:#ff0000;stroke:#ff0000" />
      <text
         id="text282"
         font-size="14.00"
         y="-147.8"
         x="339"
         style="font-size:14px;text-anchor:middle;font-family:'Times New Roman,serif'">8</text>
    </g>
  </g>
  <text
     xml:space="preserve"
     style="font-size:32px;font-style:normal;font-weight:normal;line-height:125%;letter-spacing:0px;word-spacing:0px;fill:#000000;fill-opacity:1;stroke:none;font-family:Sans"
     x="0.26620796"
     y="30.566681"
     id="text3138"
     sodipodi:linespacing="125%"><tspan
       sodipodi:role="line"
       id="tspan3140"
       x="0.26620796"
       y="30.566681">5' <tspan
   style="fill:#0000ff"
   id="tspan3144">TACCTG</tspan>TCAGGTA 3'</tspan><tspan
       sodipodi:role="line"
       x="0.26620796"
       y="70.566681"
       id="tspan3142">3' ATGGACA<tspan
   style="fill:#ff0000"
   id="tspan3146">GTCCAT</tspan> 5'</tspan></text>
</svg>
