<?xml version="1.0" encoding="UTF-8" standalone="no"?>
<!-- Generated by graphviz version 2.28.0 (20110507.0327)
 -->

<!-- Title: G Pages: 1 -->

<svg
   xmlns:dc="http://purl.org/dc/elements/1.1/"
   xmlns:cc="http://creativecommons.org/ns#"
   xmlns:rdf="http://www.w3.org/1999/02/22-rdf-syntax-ns#"
   xmlns:svg="http://www.w3.org/2000/svg"
   xmlns="http://www.w3.org/2000/svg"
   xmlns:sodipodi="http://sodipodi.sourceforge.net/DTD/sodipodi-0.dtd"
   xmlns:inkscape="http://www.inkscape.org/namespaces/inkscape"
   width="668pt"
   height="134pt"
   viewBox="0.00 0.00 668.00 134.00"
   id="svg2"
   version="1.1"
   inkscape:version="0.48.2 r9819"
   sodipodi:docname="simpleGraph.pdf">
  <metadata
     id="metadata184">
    <rdf:RDF>
      <cc:Work
         rdf:about="">
        <dc:format>image/svg+xml</dc:format>
        <dc:type
           rdf:resource="http://purl.org/dc/dcmitype/StillImage" />
        <dc:title></dc:title>
      </cc:Work>
    </rdf:RDF>
  </metadata>
  <defs
     id="defs182" />
  <sodipodi:namedview
     pagecolor="#ffffff"
     bordercolor="#666666"
     borderopacity="1"
     objecttolerance="10"
     gridtolerance="10"
     guidetolerance="10"
     inkscape:pageopacity="0"
     inkscape:pageshadow="2"
     inkscape:window-width="640"
     inkscape:window-height="480"
     id="namedview180"
     showgrid="false"
     inkscape:zoom="0.4491018"
     inkscape:cx="417.5"
     inkscape:cy="83.75"
     inkscape:window-x="0"
     inkscape:window-y="0"
     inkscape:window-maximized="0"
     inkscape:current-layer="svg2" />
  <g
     id="graph1"
     class="graph"
     transform="scale(1 1) rotate(0) translate(4 130)">
    <title
       id="title5">G</title>
    <polygon
       fill="white"
       stroke="white"
       points="-4,5 -4,-130 665,-130 665,5 -4,5"
       id="polygon7" />
    <!-- AC -->
    <g
       id="node1"
       class="node">
      <title
         id="title10">AC</title>
      <ellipse
         fill="none"
         stroke="black"
         cx="27"
         cy="-33"
         rx="27"
         ry="18"
         id="ellipse12"
         d="m 54,-33 c 0,9.941125 -12.088312,18 -27,18 -14.911688,0 -27,-8.058875 -27,-18 0,-9.941125 12.088312,-18 27,-18 14.911688,0 27,8.058875 27,18 z" />
      <text
         text-anchor="middle"
         x="27"
         y="-29.3"
         font-family="Times New Roman,serif"
         font-size="14.00"
         id="text14">AC</text>
    </g>
    <!-- CT -->
    <g
       id="node3"
       class="node">
      <title
         id="title17">CT</title>
      <ellipse
         fill="none"
         stroke="black"
         cx="125"
         cy="-68"
         rx="27"
         ry="18"
         id="ellipse19"
         d="m 152,-68 c 0,9.941125 -12.08831,18 -27,18 -14.91169,0 -27,-8.058875 -27,-18 0,-9.941125 12.08831,-18 27,-18 14.91169,0 27,8.058875 27,18 z" />
      <text
         text-anchor="middle"
         x="125"
         y="-64.3"
         font-family="Times New Roman,serif"
         font-size="14.00"
         id="text21">CT</text>
    </g>
    <!-- AC&#45;&gt;CT -->
    <g
       id="edge2"
       class="edge">
      <title
         id="title24">AC-&gt;CT</title>
      <path
         fill="none"
         stroke="BLUE"
         d="M51.2389,-41.4725C63.2666,-45.8576 78.1507,-51.2841 91.3172,-56.0844"
         id="path26" />
      <polygon
         fill="BLUE"
         stroke="BLUE"
         points="90.3811,-59.4684 100.975,-59.6055 92.7789,-52.8919 90.3811,-59.4684"
         id="polygon28" />
      <text
         text-anchor="middle"
         x="76"
         y="-54.8"
         font-family="Times New Roman,serif"
         font-size="14.00"
         id="text30">1</text>
    </g>
    <!-- AC&#45;&gt;CT -->
    <g
       id="edge16"
       class="edge">
      <title
         id="title33">AC-&gt;CT</title>
      <path
         fill="none"
         stroke="BLUE"
         d="M52.9537,-27.503C61.7362,-26.6148 71.5248,-26.8468 80,-30 88.7031,-33.2379 96.8334,-39.0563 103.679,-45.1823"
         id="path35" />
      <polygon
         fill="BLUE"
         stroke="BLUE"
         points="101.471,-47.9179 111.081,-52.3787 106.351,-42.8987 101.471,-47.9179"
         id="polygon37" />
      <text
         text-anchor="middle"
         x="76"
         y="-33.8"
         font-family="Times New Roman,serif"
         font-size="14.00"
         id="text39">8</text>
    </g>
    <!-- TG -->
    <g
       id="node5"
       class="node">
      <title
         id="title42">TG</title>
      <ellipse
         fill="none"
         stroke="black"
         cx="223"
         cy="-108"
         rx="27"
         ry="18"
         id="ellipse44"
         d="m 250,-108 c 0,9.941125 -12.08831,18 -27,18 -14.91169,0 -27,-8.058875 -27,-18 0,-9.94113 12.08831,-18 27,-18 14.91169,0 27,8.05887 27,18 z" />
      <text
         text-anchor="middle"
         x="223"
         y="-104.3"
         font-family="Times New Roman,serif"
         font-size="14.00"
         id="text46">TG</text>
    </g>
    <!-- CT&#45;&gt;TG -->
    <g
       id="edge4"
       class="edge">
      <title
         id="title49">CT-&gt;TG</title>
      <path
         fill="none"
         stroke="BLUE"
         d="M148.266,-77.2773C160.656,-82.4402 176.295,-88.9564 189.979,-94.6579"
         id="path51" />
      <polygon
         fill="BLUE"
         stroke="BLUE"
         points="188.946,-98.019 199.523,-98.6344 191.638,-91.5574 188.946,-98.019"
         id="polygon53" />
      <text
         text-anchor="middle"
         x="174"
         y="-92.8"
         font-family="Times New Roman,serif"
         font-size="14.00"
         id="text55">2</text>
    </g>
    <!-- TT -->
    <g
       id="node17"
       class="node">
      <title
         id="title58">TT</title>
      <ellipse
         fill="none"
         stroke="black"
         cx="223"
         cy="-54"
         rx="27"
         ry="18"
         id="ellipse60"
         d="m 250,-54 c 0,9.941125 -12.08831,18 -27,18 -14.91169,0 -27,-8.058875 -27,-18 0,-9.941125 12.08831,-18 27,-18 14.91169,0 27,8.058875 27,18 z" />
      <text
         text-anchor="middle"
         x="223"
         y="-50.3"
         font-family="Times New Roman,serif"
         font-size="14.00"
         id="text62">TT</text>
    </g>
    <!-- CT&#45;&gt;TT -->
    <g
       id="edge18"
       class="edge">
      <title
         id="title65">CT-&gt;TT</title>
      <path
         fill="none"
         stroke="BLUE"
         d="M151.474,-64.285C162.106,-62.7345 174.646,-60.9059 186.18,-59.2238"
         id="path67" />
      <polygon
         fill="BLUE"
         stroke="BLUE"
         points="187.017,-62.6389 196.407,-57.7323 186.006,-55.7121 187.017,-62.6389"
         id="polygon69" />
      <text
         text-anchor="middle"
         x="174"
         y="-64.8"
         font-family="Times New Roman,serif"
         font-size="14.00"
         id="text71">9</text>
    </g>
    <!-- GC -->
    <g
       id="node7"
       class="node">
      <title
         id="title74">GC</title>
      <ellipse
         fill="none"
         stroke="black"
         cx="327"
         cy="-108"
         rx="27"
         ry="18"
         id="ellipse76"
         d="m 354,-108 c 0,9.941125 -12.08831,18 -27,18 -14.91169,0 -27,-8.058875 -27,-18 0,-9.94113 12.08831,-18 27,-18 14.91169,0 27,8.05887 27,18 z" />
      <text
         text-anchor="middle"
         x="327"
         y="-104.3"
         font-family="Times New Roman,serif"
         font-size="14.00"
         id="text78">GC</text>
    </g>
    <!-- TG&#45;&gt;GC -->
    <g
       id="edge6"
       class="edge">
      <title
         id="title81">TG-&gt;GC</title>
      <path
         fill="none"
         stroke="BLUE"
         d="M250.003,-108C262.019,-108 276.494,-108 289.574,-108"
         id="path83" />
      <polygon
         fill="BLUE"
         stroke="BLUE"
         points="289.69,-111.5 299.69,-108 289.69,-104.5 289.69,-111.5"
         id="polygon85" />
      <text
         text-anchor="middle"
         x="275"
         y="-111.8"
         font-family="Times New Roman,serif"
         font-size="14.00"
         id="text87">3</text>
    </g>
    <!-- CA -->
    <g
       id="node9"
       class="node">
      <title
         id="title90">CA</title>
      <ellipse
         fill="none"
         stroke="black"
         cx="431"
         cy="-66"
         rx="27"
         ry="18"
         id="ellipse92"
         d="m 458,-66 c 0,9.941125 -12.08831,18 -27,18 -14.91169,0 -27,-8.058875 -27,-18 0,-9.941125 12.08831,-18 27,-18 14.91169,0 27,8.058875 27,18 z" />
      <text
         text-anchor="middle"
         x="431"
         y="-62.3"
         font-family="Times New Roman,serif"
         font-size="14.00"
         id="text94">CA</text>
    </g>
    <!-- GC&#45;&gt;CA -->
    <g
       id="edge8"
       class="edge">
      <title
         id="title97">GC-&gt;CA</title>
      <path
         fill="none"
         stroke="BLUE"
         d="M350.384,-98.7829C364.468,-92.9838 382.856,-85.4122 398.412,-79.0069"
         id="path99" />
      <polygon
         fill="BLUE"
         stroke="BLUE"
         points="399.754,-82.2395 407.668,-75.1956 397.088,-75.7668 399.754,-82.2395"
         id="polygon101" />
      <text
         text-anchor="middle"
         x="379"
         y="-92.8"
         font-family="Times New Roman,serif"
         font-size="14.00"
         id="text103">4</text>
    </g>
    <!-- AT -->
    <g
       id="node11"
       class="node">
      <title
         id="title106">AT</title>
      <ellipse
         fill="none"
         stroke="black"
         cx="535"
         cy="-46"
         rx="27"
         ry="18"
         id="ellipse108"
         d="m 562,-46 c 0,9.941125 -12.08831,18 -27,18 -14.91169,0 -27,-8.058875 -27,-18 0,-9.941125 12.08831,-18 27,-18 14.91169,0 27,8.058875 27,18 z" />
      <text
         text-anchor="middle"
         x="535"
         y="-42.3"
         font-family="Times New Roman,serif"
         font-size="14.00"
         id="text110">AT</text>
    </g>
    <!-- CA&#45;&gt;AT -->
    <g
       id="edge24"
       class="edge">
      <title
         id="title113">CA-&gt;AT</title>
      <path
         fill="none"
         stroke="BLUE"
         d="M457.138,-61.3137C467.343,-59.3901 479.241,-57.1206 490,-55 492.869,-54.4346 495.841,-53.8417 498.825,-53.2416"
         id="path115" />
      <polygon
         fill="BLUE"
         stroke="BLUE"
         points="499.778,-56.6197 508.883,-51.2023 498.387,-49.7593 499.778,-56.6197"
         id="polygon117" />
      <text
         text-anchor="middle"
         x="483"
         y="-60.8"
         font-family="Times New Roman,serif"
         font-size="14.00"
         id="text119">12</text>
    </g>
    <!-- CA&#45;&gt;AT -->
    <g
       id="edge10"
       class="edge">
      <title
         id="title122">CA-&gt;AT</title>
      <path
         fill="none"
         stroke="BLUE"
         d="M449.423,-52.7873C457.138,-47.7361 466.585,-42.5737 476,-40 483.536,-37.9397 491.8,-37.6671 499.668,-38.2914"
         id="path124" />
      <polygon
         fill="BLUE"
         stroke="BLUE"
         points="499.329,-41.7763 509.689,-39.554 500.205,-34.8312 499.329,-41.7763"
         id="polygon126" />
      <text
         text-anchor="middle"
         x="483"
         y="-43.8"
         font-family="Times New Roman,serif"
         font-size="14.00"
         id="text128">5</text>
    </g>
    <!-- TA -->
    <g
       id="node13"
       class="node">
      <title
         id="title131">TA</title>
      <ellipse
         fill="none"
         stroke="black"
         cx="633"
         cy="-19"
         rx="27"
         ry="18"
         id="ellipse133"
         d="m 660,-19 c 0,9.9411255 -12.08831,18 -27,18 -14.91169,0 -27,-8.0588745 -27,-18 0,-9.941125 12.08831,-18 27,-18 14.91169,0 27,8.058875 27,18 z" />
      <text
         text-anchor="middle"
         x="633"
         y="-15.3"
         font-family="Times New Roman,serif"
         font-size="14.00"
         id="text135">TA</text>
    </g>
    <!-- AT&#45;&gt;TA -->
    <g
       id="edge12"
       class="edge">
      <title
         id="title138">AT-&gt;TA</title>
      <path
         fill="none"
         stroke="BLUE"
         d="M560.225,-39.1868C571.708,-35.9571 585.62,-32.0444 598.127,-28.5268"
         id="path140" />
      <polygon
         fill="BLUE"
         stroke="BLUE"
         points="599.104,-31.8879 607.783,-25.8111 597.209,-25.1493 599.104,-31.8879"
         id="polygon142" />
      <text
         text-anchor="middle"
         x="584"
         y="-36.8"
         font-family="Times New Roman,serif"
         font-size="14.00"
         id="text144">6</text>
    </g>
    <!-- TA&#45;&gt;AC -->
    <g
       id="edge14"
       class="edge">
      <title
         id="title147">TA-&gt;AC</title>
      <path
         fill="none"
         stroke="BLUE"
         d="M608.192,-11.5997C588.922,-6.26482 560.975,-0 536,-0 124,-0 124,-0 124,-0 100.738,-0 75.943,-8.77264 57.3798,-17.2717"
         id="path149" />
      <polygon
         fill="BLUE"
         stroke="BLUE"
         points="55.7793,-14.1576 48.2817,-21.6433 58.811,-20.467 55.7793,-14.1576"
         id="polygon151" />
      <text
         text-anchor="middle"
         x="327"
         y="-3.8"
         font-family="Times New Roman,serif"
         font-size="14.00"
         id="text153">7</text>
    </g>
    <!-- TC -->
    <g
       id="node19"
       class="node">
      <title
         id="title156">TC</title>
      <ellipse
         fill="none"
         stroke="black"
         cx="327"
         cy="-54"
         rx="27"
         ry="18"
         id="ellipse158"
         d="m 354,-54 c 0,9.941125 -12.08831,18 -27,18 -14.91169,0 -27,-8.058875 -27,-18 0,-9.941125 12.08831,-18 27,-18 14.91169,0 27,8.058875 27,18 z" />
      <text
         text-anchor="middle"
         x="327"
         y="-50.3"
         font-family="Times New Roman,serif"
         font-size="14.00"
         id="text160">TC</text>
    </g>
    <!-- TT&#45;&gt;TC -->
    <g
       id="edge20"
       class="edge">
      <title
         id="title163">TT-&gt;TC</title>
      <path
         fill="none"
         stroke="BLUE"
         d="M250.003,-54C262.019,-54 276.494,-54 289.574,-54"
         id="path165" />
      <polygon
         fill="BLUE"
         stroke="BLUE"
         points="289.69,-57.5001 299.69,-54 289.69,-50.5001 289.69,-57.5001"
         id="polygon167" />
      <text
         text-anchor="middle"
         x="275"
         y="-57.8"
         font-family="Times New Roman,serif"
         font-size="14.00"
         id="text169">10</text>
    </g>
    <!-- TC&#45;&gt;CA -->
    <g
       id="edge22"
       class="edge">
      <title
         id="title172">TC-&gt;CA</title>
      <path
         fill="none"
         stroke="BLUE"
         d="M353.739,-57.0281C365.94,-58.4635 380.721,-60.2025 394.01,-61.7659"
         id="path174" />
      <polygon
         fill="BLUE"
         stroke="BLUE"
         points="393.929,-65.2804 404.269,-62.9729 394.747,-58.3283 393.929,-65.2804"
         id="polygon176" />
      <text
         text-anchor="middle"
         x="379"
         y="-63.8"
         font-family="Times New Roman,serif"
         font-size="14.00"
         id="text178">11</text>
    </g>
  </g>
</svg>
