<?xml version="1.0" encoding="UTF-8" standalone="no"?>
<!-- Created with Inkscape (http://www.inkscape.org/) -->

<svg
   xmlns:osb="http://www.openswatchbook.org/uri/2009/osb"
   xmlns:dc="http://purl.org/dc/elements/1.1/"
   xmlns:cc="http://creativecommons.org/ns#"
   xmlns:rdf="http://www.w3.org/1999/02/22-rdf-syntax-ns#"
   xmlns:svg="http://www.w3.org/2000/svg"
   xmlns="http://www.w3.org/2000/svg"
   xmlns:sodipodi="http://sodipodi.sourceforge.net/DTD/sodipodi-0.dtd"
   xmlns:inkscape="http://www.inkscape.org/namespaces/inkscape"
   id="svg2985"
   version="1.1"
   inkscape:version="0.48.2 r9819"
   width="317.5"
   height="60"
   xml:space="preserve"
   sodipodi:docname="syntenyBlocks.pdf"><metadata
     id="metadata2991"><rdf:RDF><cc:Work
         rdf:about=""><dc:format>image/svg+xml</dc:format><dc:type
           rdf:resource="http://purl.org/dc/dcmitype/StillImage" /><dc:title></dc:title></cc:Work></rdf:RDF></metadata><defs
     id="defs2989"><linearGradient
       inkscape:collect="always"
       id="linearGradient7170"
       osb:paint="gradient"><stop
         style="stop-color:#000000;stop-opacity:1;"
         offset="0"
         id="stop7172" /><stop
         style="stop-color:#000000;stop-opacity:0;"
         offset="1"
         id="stop7174" /></linearGradient><clipPath
       clipPathUnits="userSpaceOnUse"
       id="clipPath3335"><path
         d="m 76.932,422.419 471.005,0 0,-364.082 -471.005,0 0,364.082 z"
         id="path3337" /></clipPath></defs><sodipodi:namedview
     pagecolor="#ffffff"
     bordercolor="#666666"
     borderopacity="1"
     objecttolerance="10"
     gridtolerance="10"
     guidetolerance="10"
     inkscape:pageopacity="0"
     inkscape:pageshadow="2"
     inkscape:window-width="1366"
     inkscape:window-height="706"
     id="namedview2987"
     showgrid="false"
     inkscape:zoom="3.7984252"
     inkscape:cx="55.968171"
     inkscape:cy="42.959416"
     inkscape:window-x="-8"
     inkscape:window-y="-8"
     inkscape:window-maximized="1"
     inkscape:current-layer="g2993" /><g
     id="g2993"
     inkscape:groupmode="layer"
     inkscape:label="pg_0002"
     transform="matrix(1.25,0,0,-1.25,-226.25,186.25)"><path
       inkscape:connector-curvature="0"
       id="path3341"
       style="fill:#d8d1e6;fill-opacity:1;fill-rule:evenodd;stroke:#000000;stroke-width:0.17;stroke-linecap:butt;stroke-linejoin:miter;stroke-miterlimit:4;stroke-opacity:1;stroke-dasharray:none"
       d="m 191.76227,135.62718 -0.059,-10.158 7.495,-0.058 0.088,10.218 -7.524,-0.002 z" /><path
       inkscape:connector-curvature="0"
       id="path3343"
       style="fill:#d8d1e6;fill-opacity:1;fill-rule:evenodd;stroke:#000000;stroke-width:0.17;stroke-linecap:butt;stroke-linejoin:miter;stroke-miterlimit:4;stroke-opacity:1;stroke-dasharray:none"
       d="m 201.63727,125.33218 -0.079,-10.159 10.226,-0.058 0.119,10.218 -10.266,-0.001 z" /><path
       inkscape:connector-curvature="0"
       id="path3345"
       style="fill:#d8d1e6;fill-opacity:1;fill-rule:evenodd;stroke:#000000;stroke-width:0.17;stroke-linecap:butt;stroke-linejoin:miter;stroke-miterlimit:4;stroke-opacity:1;stroke-dasharray:none"
       d="m 214.32927,125.33218 -0.037,-10.159 4.882,-0.058 0.058,10.218 -4.903,-0.001 z" /><path
       inkscape:connector-curvature="0"
       id="path3347"
       style="fill:#d8d1e6;fill-opacity:1;fill-rule:evenodd;stroke:#000000;stroke-width:0.17;stroke-linecap:butt;stroke-linejoin:miter;stroke-miterlimit:4;stroke-opacity:1;stroke-dasharray:none"
       d="m 231.98927,125.33218 -0.038,-10.159 4.884,-0.058 0.056,10.218 -4.902,-0.001 z" /><path
       inkscape:connector-curvature="0"
       id="path3349"
       style="fill:#d8d1e6;fill-opacity:1;fill-rule:evenodd;stroke:#000000;stroke-width:0.17;stroke-linecap:butt;stroke-linejoin:miter;stroke-miterlimit:4;stroke-opacity:1;stroke-dasharray:none"
       d="m 249.58827,125.33218 -0.098,-10.159 12.601,-0.058 0.148,10.218 -12.651,-0.001 z" /><path
       inkscape:connector-curvature="0"
       id="path3351"
       style="fill:#d8d1e6;fill-opacity:1;fill-rule:evenodd;stroke:#000000;stroke-width:0.17;stroke-linecap:butt;stroke-linejoin:miter;stroke-miterlimit:4;stroke-opacity:1;stroke-dasharray:none"
       d="m 264.60427,125.33218 -0.096,-10.159 12.6,-0.058 0.148,10.218 -12.652,-0.001 z" /><path
       inkscape:connector-curvature="0"
       id="path3353"
       style="fill:#d8d1e6;fill-opacity:1;fill-rule:evenodd;stroke:#000000;stroke-width:0.17;stroke-linecap:butt;stroke-linejoin:miter;stroke-miterlimit:4;stroke-opacity:1;stroke-dasharray:none"
       d="m 299.88527,125.33218 -0.059,-10.159 7.497,-0.058 0.087,10.218 -7.525,-0.001 z" /><path
       inkscape:connector-curvature="0"
       id="path3355"
       style="fill:#d8d1e6;fill-opacity:1;fill-rule:evenodd;stroke:#000000;stroke-width:0.17;stroke-linecap:butt;stroke-linejoin:miter;stroke-miterlimit:4;stroke-opacity:1;stroke-dasharray:none"
       d="m 325.11327,125.33218 -0.059,-10.159 7.497,-0.058 0.088,10.218 -7.526,-0.001 z" /><path
       inkscape:connector-curvature="0"
       id="path3357"
       style="fill:#d8d1e6;fill-opacity:1;fill-rule:evenodd;stroke:#000000;stroke-width:0.17;stroke-linecap:butt;stroke-linejoin:miter;stroke-miterlimit:4;stroke-opacity:1;stroke-dasharray:none"
       d="m 350.10127,125.33218 -0.058,-10.159 7.495,-0.058 0.087,10.218 -7.524,-0.001 z" /><path
       inkscape:connector-curvature="0"
       id="path3359"
       style="fill:#d8d1e6;fill-opacity:1;fill-rule:evenodd;stroke:#000000;stroke-width:0.17;stroke-linecap:butt;stroke-linejoin:miter;stroke-miterlimit:4;stroke-opacity:1;stroke-dasharray:none"
       d="m 214.38027,135.62718 -0.039,-10.158 5.014,-0.058 0.059,10.218 -5.034,-0.002 z" /><path
       inkscape:connector-curvature="0"
       id="path3361"
       style="fill:#d8d1e6;fill-opacity:1;fill-rule:evenodd;stroke:#000000;stroke-width:0.17;stroke-linecap:butt;stroke-linejoin:miter;stroke-miterlimit:4;stroke-opacity:1;stroke-dasharray:none"
       d="m 221.93027,135.62718 -0.058,-10.158 7.495,-0.058 0.088,10.218 -7.525,-0.002 z" /><path
       inkscape:connector-curvature="0"
       id="path3363"
       style="fill:#d8d1e6;fill-opacity:1;fill-rule:evenodd;stroke:#000000;stroke-width:0.17;stroke-linecap:butt;stroke-linejoin:miter;stroke-miterlimit:4;stroke-opacity:1;stroke-dasharray:none"
       d="m 239.50327,135.62718 -0.058,-10.158 7.495,-0.058 0.088,10.218 -7.525,-0.002 z" /><path
       inkscape:connector-curvature="0"
       id="path3365"
       style="fill:#d8d1e6;fill-opacity:1;fill-rule:evenodd;stroke:#000000;stroke-width:0.17;stroke-linecap:butt;stroke-linejoin:miter;stroke-miterlimit:4;stroke-opacity:1;stroke-dasharray:none"
       d="m 279.82527,135.62718 -0.038,-10.158 4.971,-0.058 0.057,10.218 -4.99,-0.002 z" /><path
       inkscape:connector-curvature="0"
       id="path3367"
       style="fill:#d8d1e6;fill-opacity:1;fill-rule:evenodd;stroke:#000000;stroke-width:0.17;stroke-linecap:butt;stroke-linejoin:miter;stroke-miterlimit:4;stroke-opacity:1;stroke-dasharray:none"
       d="m 287.51127,135.62718 -0.076,-10.158 9.913,-0.058 0.116,10.218 -9.953,-0.002 z" /><path
       inkscape:connector-curvature="0"
       id="path3369"
       style="fill:#d8d1e6;fill-opacity:1;fill-rule:evenodd;stroke:#000000;stroke-width:0.17;stroke-linecap:butt;stroke-linejoin:miter;stroke-miterlimit:4;stroke-opacity:1;stroke-dasharray:none"
       d="m 312.51527,135.62718 -0.077,-10.158 10.057,-0.058 0.119,10.218 -10.099,-0.002 z" /><path
       inkscape:connector-curvature="0"
       id="path3371"
       style="fill:#d8d1e6;fill-opacity:1;fill-rule:evenodd;stroke:#000000;stroke-width:0.17;stroke-linecap:butt;stroke-linejoin:miter;stroke-miterlimit:4;stroke-opacity:1;stroke-dasharray:none"
       d="m 325.29027,135.62718 -0.057,-10.158 7.296,-0.058 0.086,10.218 -7.325,-0.002 z" /><path
       inkscape:connector-curvature="0"
       id="path3373"
       style="fill:#d8d1e6;fill-opacity:1;fill-rule:evenodd;stroke:#000000;stroke-width:0.17;stroke-linecap:butt;stroke-linejoin:miter;stroke-miterlimit:4;stroke-opacity:1;stroke-dasharray:none"
       d="m 335.32927,135.62718 -0.095,-10.158 12.384,-0.058 0.145,10.218 -12.434,-0.002 z" /><path
       inkscape:connector-curvature="0"
       id="path3375"
       style="fill:#d8d1e6;fill-opacity:1;fill-rule:evenodd;stroke:#000000;stroke-width:0.17;stroke-linecap:butt;stroke-linejoin:miter;stroke-miterlimit:4;stroke-opacity:1;stroke-dasharray:none"
       d="m 360.16827,135.62718 -0.078,-10.158 10.202,-0.058 0.121,10.218 -10.245,-0.002 z" /><path
       inkscape:connector-curvature="0"
       id="path4003"
       style="fill:#e42284;fill-opacity:1;fill-rule:evenodd;stroke:#000000;stroke-width:0.5;stroke-linecap:butt;stroke-linejoin:miter;stroke-miterlimit:4;stroke-opacity:1;stroke-dasharray:none"
       d="m 374.41427,125.46918 -187.742,0" /><path
       inkscape:connector-curvature="0"
       id="path4005"
       style="fill:#e42284;fill-opacity:1;fill-rule:evenodd;stroke:#000000;stroke-width:0.25400001;stroke-linecap:butt;stroke-linejoin:miter;stroke-miterlimit:4;stroke-opacity:1;stroke-dasharray:none"
       d="m 347.65227,127.97318 0,-5.019 -10.061,0 -2.516,2.508 2.516,2.511 10.061,0 z" /><path
       inkscape:connector-curvature="0"
       id="path4007"
       style="fill:#e42284;fill-opacity:1;fill-rule:evenodd;stroke:#000000;stroke-width:0.255;stroke-linecap:butt;stroke-linejoin:miter;stroke-miterlimit:4;stroke-opacity:1;stroke-dasharray:none"
       d="m 332.56027,127.98318 0,-5.029 -5.031,0 -2.515,2.515 2.515,2.514 5.031,0 z" /><path
       inkscape:connector-curvature="0"
       id="path4009"
       style="fill:#e42284;fill-opacity:1;fill-rule:evenodd;stroke:#000000;stroke-width:0.255;stroke-linecap:butt;stroke-linejoin:miter;stroke-miterlimit:4;stroke-opacity:1;stroke-dasharray:none"
       d="m 199.24927,127.98318 0,-5.029 -5.03,0 -2.516,2.515 2.516,2.514 5.03,0 z" /><path
       inkscape:connector-curvature="0"
       id="path4011"
       style="fill:#e42284;fill-opacity:1;fill-rule:evenodd;stroke:#000000;stroke-width:0.255;stroke-linecap:butt;stroke-linejoin:miter;stroke-miterlimit:4;stroke-opacity:1;stroke-dasharray:none"
       d="m 312.43827,127.98318 0,-5.029 8.174,0 1.887,2.515 -1.887,2.514 -8.174,0 z" /><path
       inkscape:connector-curvature="0"
       id="path4013"
       style="fill:#e42284;fill-opacity:1;fill-rule:evenodd;stroke:#000000;stroke-width:0.255;stroke-linecap:butt;stroke-linejoin:miter;stroke-miterlimit:4;stroke-opacity:1;stroke-dasharray:none"
       d="m 350.16827,127.98318 0,-5.029 5.659,0 1.886,2.515 -1.886,2.514 -5.659,0 z" /><path
       inkscape:connector-curvature="0"
       id="path4015"
       style="fill:#e42284;fill-opacity:1;fill-rule:evenodd;stroke:#000000;stroke-width:0.255;stroke-linecap:butt;stroke-linejoin:miter;stroke-miterlimit:4;stroke-opacity:1;stroke-dasharray:none"
       d="m 239.49427,127.98318 0,-5.029 5.66,0 1.886,2.515 -1.886,2.514 -5.66,0 z" /><path
       inkscape:connector-curvature="0"
       id="path4017"
       style="fill:#e42284;fill-opacity:1;fill-rule:evenodd;stroke:#000000;stroke-width:0.255;stroke-linecap:butt;stroke-linejoin:miter;stroke-miterlimit:4;stroke-opacity:1;stroke-dasharray:none"
       d="m 221.88727,127.98318 0,-5.029 5.66,0 1.886,2.515 -1.886,2.514 -5.66,0 z" /><path
       inkscape:connector-curvature="0"
       id="path4019"
       style="fill:#e42284;fill-opacity:1;fill-rule:evenodd;stroke:#000000;stroke-width:0.255;stroke-linecap:butt;stroke-linejoin:miter;stroke-miterlimit:4;stroke-opacity:1;stroke-dasharray:none"
       d="m 279.73927,127.98318 0,-5.029 3.144,0 1.886,2.515 -1.886,2.514 -3.144,0 z" /><path
       inkscape:connector-curvature="0"
       id="path4021"
       style="fill:#e42284;fill-opacity:1;fill-rule:evenodd;stroke:#000000;stroke-width:0.255;stroke-linecap:butt;stroke-linejoin:miter;stroke-miterlimit:4;stroke-opacity:1;stroke-dasharray:none"
       d="m 262.13227,127.98318 0,-5.029 -10.062,0 -2.515,2.515 2.515,2.514 10.062,0 z" /><path
       inkscape:connector-curvature="0"
       id="path4023"
       style="fill:#e42284;fill-opacity:1;fill-rule:evenodd;stroke:#000000;stroke-width:0.255;stroke-linecap:butt;stroke-linejoin:miter;stroke-miterlimit:4;stroke-opacity:1;stroke-dasharray:none"
       d="m 277.22427,127.98318 0,-5.029 -10.062,0 -2.515,2.515 2.515,2.514 10.062,0 z" /><path
       inkscape:connector-curvature="0"
       id="path4025"
       style="fill:#e42284;fill-opacity:1;fill-rule:evenodd;stroke:#000000;stroke-width:0.255;stroke-linecap:butt;stroke-linejoin:miter;stroke-miterlimit:4;stroke-opacity:1;stroke-dasharray:none"
       d="m 297.34527,127.98318 0,-5.029 -7.544,0 -2.516,2.515 2.516,2.514 7.544,0 z" /><path
       inkscape:connector-curvature="0"
       id="path4027"
       style="fill:#e42284;fill-opacity:1;fill-rule:evenodd;stroke:#000000;stroke-width:0.255;stroke-linecap:butt;stroke-linejoin:miter;stroke-miterlimit:4;stroke-opacity:1;stroke-dasharray:none"
       d="m 370.29027,127.98318 0,-5.029 -7.546,0 -2.516,2.515 2.516,2.514 7.546,0 z" /><path
       inkscape:connector-curvature="0"
       id="path4029"
       style="fill:#e42284;fill-opacity:1;fill-rule:evenodd;stroke:#000000;stroke-width:0.255;stroke-linecap:butt;stroke-linejoin:miter;stroke-miterlimit:4;stroke-opacity:1;stroke-dasharray:none"
       d="m 219.37227,127.98318 0,-5.029 -2.515,0 -2.516,2.515 2.516,2.514 2.515,0 z" /><path
       inkscape:connector-curvature="0"
       id="path4031"
       style="fill:#e42284;fill-opacity:1;fill-rule:evenodd;stroke:#000000;stroke-width:0.255;stroke-linecap:butt;stroke-linejoin:miter;stroke-miterlimit:4;stroke-opacity:1;stroke-dasharray:none"
       d="m 236.97927,127.98318 0,-5.029 -2.515,0 -2.516,2.515 2.516,2.514 2.515,0 z" /><path
       inkscape:connector-curvature="0"
       id="path4033"
       style="fill:#e42284;fill-opacity:1;fill-rule:evenodd;stroke:#000000;stroke-width:0.255;stroke-linecap:butt;stroke-linejoin:miter;stroke-miterlimit:4;stroke-opacity:1;stroke-dasharray:none"
       d="m 307.40727,127.98318 0,-5.029 -5.031,0 -2.514,2.515 2.514,2.514 5.031,0 z" /><path
       inkscape:connector-curvature="0"
       id="path4035"
       style="fill:#e42284;fill-opacity:1;fill-rule:evenodd;stroke:#000000;stroke-width:0.255;stroke-linecap:butt;stroke-linejoin:miter;stroke-miterlimit:4;stroke-opacity:1;stroke-dasharray:none"
       d="m 211.82527,127.98318 0,-5.029 -7.545,0 -2.516,2.515 2.516,2.514 7.545,0 z" /><path
       inkscape:connector-curvature="0"
       id="path4127"
       style="fill:#e42284;fill-opacity:1;fill-rule:evenodd;stroke:#000000;stroke-width:0.5;stroke-linecap:butt;stroke-linejoin:miter;stroke-miterlimit:4;stroke-opacity:1;stroke-dasharray:none"
       d="m 374.47327,135.62718 -187.742,0" /><path
       inkscape:connector-curvature="0"
       id="path4129"
       style="fill:#8a68a6;fill-opacity:1;fill-rule:evenodd;stroke:#000000;stroke-width:0.25400001;stroke-linecap:butt;stroke-linejoin:miter;stroke-miterlimit:4;stroke-opacity:1;stroke-dasharray:none"
       d="m 347.71127,138.13118 0,-5.019 -10.062,0 -2.516,2.51 2.516,2.509 10.062,0 z" /><path
       inkscape:connector-curvature="0"
       id="path4131"
       style="fill:#8a68a6;fill-opacity:1;fill-rule:evenodd;stroke:#000000;stroke-width:0.255;stroke-linecap:butt;stroke-linejoin:miter;stroke-miterlimit:4;stroke-opacity:1;stroke-dasharray:none"
       d="m 332.61827,138.14418 0,-5.032 -5.03,0 -2.515,2.515 2.515,2.517 5.03,0 z" /><path
       inkscape:connector-curvature="0"
       id="path4133"
       style="fill:#8a68a6;fill-opacity:1;fill-rule:evenodd;stroke:#000000;stroke-width:0.255;stroke-linecap:butt;stroke-linejoin:miter;stroke-miterlimit:4;stroke-opacity:1;stroke-dasharray:none"
       d="m 199.30727,138.14418 0,-5.032 -5.03,0 -2.515,2.515 2.515,2.517 5.03,0 z" /><path
       inkscape:connector-curvature="0"
       id="path4135"
       style="fill:#8a68a6;fill-opacity:1;fill-rule:evenodd;stroke:#000000;stroke-width:0.255;stroke-linecap:butt;stroke-linejoin:miter;stroke-miterlimit:4;stroke-opacity:1;stroke-dasharray:none"
       d="m 312.49627,138.14418 0,-5.032 8.174,0 1.887,2.515 -1.887,2.517 -8.174,0 z" /><path
       inkscape:connector-curvature="0"
       id="path4137"
       style="fill:#8a68a6;fill-opacity:1;fill-rule:evenodd;stroke:#000000;stroke-width:0.255;stroke-linecap:butt;stroke-linejoin:miter;stroke-miterlimit:4;stroke-opacity:1;stroke-dasharray:none"
       d="m 239.55227,138.14418 0,-5.032 5.659,0 1.887,2.515 -1.887,2.517 -5.659,0 z" /><path
       inkscape:connector-curvature="0"
       id="path4139"
       style="fill:#8a68a6;fill-opacity:1;fill-rule:evenodd;stroke:#000000;stroke-width:0.255;stroke-linecap:butt;stroke-linejoin:miter;stroke-miterlimit:4;stroke-opacity:1;stroke-dasharray:none"
       d="m 221.94527,138.14418 0,-5.032 5.659,0 1.887,2.515 -1.887,2.517 -5.659,0 z" /><path
       inkscape:connector-curvature="0"
       id="path4141"
       style="fill:#8a68a6;fill-opacity:1;fill-rule:evenodd;stroke:#000000;stroke-width:0.255;stroke-linecap:butt;stroke-linejoin:miter;stroke-miterlimit:4;stroke-opacity:1;stroke-dasharray:none"
       d="m 279.79727,138.14418 0,-5.032 3.144,0 1.887,2.515 -1.887,2.517 -3.144,0 z" /><path
       inkscape:connector-curvature="0"
       id="path4143"
       style="fill:#8a68a6;fill-opacity:1;fill-rule:evenodd;stroke:#000000;stroke-width:0.255;stroke-linecap:butt;stroke-linejoin:miter;stroke-miterlimit:4;stroke-opacity:1;stroke-dasharray:none"
       d="m 297.40527,138.14418 0,-5.032 -7.547,0 -2.515,2.515 2.515,2.517 7.547,0 z" /><path
       inkscape:connector-curvature="0"
       id="path4145"
       style="fill:#8a68a6;fill-opacity:1;fill-rule:evenodd;stroke:#000000;stroke-width:0.255;stroke-linecap:butt;stroke-linejoin:miter;stroke-miterlimit:4;stroke-opacity:1;stroke-dasharray:none"
       d="m 370.34827,138.14418 0,-5.032 -7.546,0 -2.515,2.515 2.515,2.517 7.546,0 z" /><path
       inkscape:connector-curvature="0"
       id="path4147"
       style="fill:#8a68a6;fill-opacity:1;fill-rule:evenodd;stroke:#000000;stroke-width:0.255;stroke-linecap:butt;stroke-linejoin:miter;stroke-miterlimit:4;stroke-opacity:1;stroke-dasharray:none"
       d="m 219.43027,138.14418 0,-5.032 -2.515,0 -2.515,2.515 2.515,2.517 2.515,0 z" /><path
       inkscape:connector-curvature="0"
       id="path4149"
       style="fill:#000000;fill-opacity:1;fill-rule:nonzero;stroke:none"
       d="m 196.97227,140.65818 -0.511,0 0,3.048 -1.104,0 0,0.408 c 0.582,0 1.11,0.156 1.224,0.798 l 0.391,0 0,-4.254" /><path
       inkscape:connector-curvature="0"
       id="path4151"
       style="fill:#000000;fill-opacity:1;fill-rule:nonzero;stroke:none"
       d="m 218.22327,143.08818 c 0.078,-0.006 0.15,-0.006 0.222,-0.006 0.432,0 0.81,0.234 0.81,0.696 0,0.445 -0.324,0.684 -0.756,0.684 -0.558,0 -0.798,-0.426 -0.804,-0.924 l -0.51,0 c 0.03,0.811 0.462,1.374 1.314,1.374 0.737,0 1.296,-0.353 1.296,-1.14 0,-0.372 -0.264,-0.696 -0.588,-0.846 l 0,-0.012 c 0.516,-0.114 0.768,-0.521 0.768,-1.032 0,-0.852 -0.666,-1.296 -1.464,-1.296 -0.864,0 -1.434,0.511 -1.416,1.387 l 0.51,0 c 0.018,-0.553 0.324,-0.937 0.906,-0.937 0.498,0 0.924,0.306 0.924,0.822 0,0.535 -0.402,0.816 -0.906,0.816 -0.102,0 -0.21,-0.006 -0.306,-0.018 l 0,0.432" /><path
       inkscape:connector-curvature="0"
       id="path4153"
       style="fill:#000000;fill-opacity:1;fill-rule:nonzero;stroke:none"
       d="m 226.13627,142.10418 0.576,0 0,-0.45 -0.576,0 0,-0.996 -0.48,0 0,0.996 -1.866,0 0,0.492 1.938,2.766 0.408,0 0,-2.808 z m -0.48,0 0,2.082 -0.012,0 -1.416,-2.082 1.428,0" /><path
       inkscape:connector-curvature="0"
       id="path4155"
       style="fill:#000000;fill-opacity:1;fill-rule:nonzero;stroke:none"
       d="m 242.94527,142.94418 c 0.582,0 0.859,-0.438 0.859,-0.966 0,-0.503 -0.306,-0.942 -0.859,-0.942 -0.557,0 -0.881,0.42 -0.881,0.948 0,0.535 0.312,0.96 0.881,0.96 z m 1.279,0.882 c -0.06,0.691 -0.498,1.086 -1.2,1.086 -1.212,0 -1.566,-1.11 -1.566,-2.28 0,-0.894 0.204,-2.046 1.463,-2.046 1.075,0 1.423,0.81 1.423,1.429 0,0.785 -0.487,1.379 -1.302,1.379 -0.462,0 -0.822,-0.167 -1.062,-0.558 l -0.013,0.013 c 0.025,0.653 0.162,1.613 1.033,1.613 0.401,0 0.666,-0.252 0.713,-0.636 l 0.511,0" /><path
       inkscape:connector-curvature="0"
       id="path4157"
       style="fill:#000000;fill-opacity:1;fill-rule:nonzero;stroke:none"
       d="m 282.81027,143.49018 c 0,-0.504 -0.336,-0.935 -0.87,-0.935 -0.492,0 -0.84,0.431 -0.84,0.899 0,0.523 0.228,1.008 0.834,1.008 0.57,0 0.876,-0.449 0.876,-0.972 z m -2.16,-1.805 c 0.066,-0.733 0.576,-1.099 1.29,-1.099 1.033,0 1.476,0.822 1.476,2.292 0,1.608 -0.666,2.034 -1.458,2.034 -0.822,0 -1.398,-0.563 -1.398,-1.386 0,-0.84 0.48,-1.422 1.344,-1.422 0.414,0 0.792,0.228 0.985,0.588 l 0.011,-0.011 c -0.03,-1.099 -0.336,-1.645 -0.96,-1.645 -0.408,0 -0.744,0.234 -0.779,0.649 l -0.511,0" /><path
       inkscape:connector-curvature="0"
       id="path4159"
       style="fill:#000000;fill-opacity:1;fill-rule:nonzero;stroke:none"
       d="m 292.05427,140.65818 -0.511,0 0,3.048 -1.104,0 0,0.408 c 0.582,0 1.11,0.156 1.224,0.798 l 0.391,0 0,-4.254" /><path
       inkscape:connector-curvature="0"
       id="path4161"
       style="fill:#000000;fill-opacity:1;fill-rule:nonzero;stroke:none"
       d="m 294.58527,144.91218 c 1.332,0 1.416,-1.224 1.416,-2.166 0,-0.935 -0.084,-2.16 -1.416,-2.16 -1.332,0 -1.416,1.225 -1.416,2.16 0,0.942 0.084,2.166 1.416,2.166 z m 0,-3.876 c 0.87,0 0.876,1.08 0.876,1.716 0,0.63 -0.006,1.71 -0.876,1.71 -0.87,0 -0.876,-1.08 -0.876,-1.71 0,-0.636 0.006,-1.716 0.876,-1.716" /><path
       inkscape:connector-curvature="0"
       id="path4163"
       style="fill:#000000;fill-opacity:1;fill-rule:nonzero;stroke:none"
       d="m 317.48727,144.91218 -0.39,0 c -0.114,-0.642 -0.642,-0.798 -1.224,-0.798 l 0,-0.408 1.104,0 0,-3.048 0.51,0 0,4.254" /><path
       inkscape:connector-curvature="0"
       id="path4165"
       style="fill:#000000;fill-opacity:1;fill-rule:nonzero;stroke:none"
       d="m 318.61427,143.40618 c -0.042,0.864 0.468,1.506 1.368,1.506 0.744,0 1.332,-0.432 1.332,-1.224 0,-0.75 -0.504,-1.127 -1.032,-1.458 -0.534,-0.324 -1.092,-0.594 -1.194,-1.122 l 2.184,0 0,-0.45 -2.778,0 c 0.084,1.008 0.594,1.368 1.194,1.74 0.72,0.444 1.086,0.708 1.086,1.296 0,0.462 -0.372,0.768 -0.822,0.768 -0.594,0 -0.846,-0.546 -0.828,-1.056 l -0.51,0" /><path
       inkscape:connector-curvature="0"
       id="path4167"
       style="fill:#000000;fill-opacity:1;fill-rule:nonzero;stroke:none"
       d="m 329.50527,140.65818 -0.51,0 0,3.048 -1.104,0 0,0.408 c 0.582,0 1.11,0.156 1.224,0.798 l 0.39,0 0,-4.254" /><path
       inkscape:connector-curvature="0"
       id="path4169"
       style="fill:#000000;fill-opacity:1;fill-rule:nonzero;stroke:none"
       d="m 331.67527,143.08818 c 0.078,-0.006 0.15,-0.006 0.222,-0.006 0.432,0 0.81,0.234 0.81,0.696 0,0.445 -0.324,0.684 -0.756,0.684 -0.558,0 -0.798,-0.426 -0.804,-0.924 l -0.51,0 c 0.03,0.811 0.462,1.374 1.314,1.374 0.738,0 1.296,-0.353 1.296,-1.14 0,-0.372 -0.264,-0.696 -0.588,-0.846 l 0,-0.012 c 0.516,-0.114 0.768,-0.521 0.768,-1.032 0,-0.852 -0.666,-1.296 -1.464,-1.296 -0.864,0 -1.434,0.511 -1.416,1.387 l 0.51,0 c 0.018,-0.553 0.324,-0.937 0.906,-0.937 0.498,0 0.924,0.306 0.924,0.822 0,0.535 -0.402,0.816 -0.906,0.816 -0.102,0 -0.21,-0.006 -0.306,-0.018 l 0,0.432" /><path
       inkscape:connector-curvature="0"
       id="path4171"
       style="fill:#000000;fill-opacity:1;fill-rule:nonzero;stroke:none"
       d="m 341.80127,140.65818 -0.509,0 0,3.048 -1.104,0 0,0.408 c 0.582,0 1.109,0.156 1.224,0.798 l 0.389,0 0,-4.254" /><path
       inkscape:connector-curvature="0"
       id="path4173"
       style="fill:#000000;fill-opacity:1;fill-rule:nonzero;stroke:none"
       d="m 345.17827,142.10418 0.576,0 0,-0.45 -0.576,0 0,-0.996 -0.479,0 0,0.996 -1.866,0 0,0.492 1.938,2.766 0.407,0 0,-2.808 z m -0.479,0 0,2.082 -0.012,0 -1.416,-2.082 1.428,0" /><path
       inkscape:connector-curvature="0"
       id="path4175"
       style="fill:#000000;fill-opacity:1;fill-rule:nonzero;stroke:none"
       d="m 365.27727,140.65818 -0.51,0 0,3.048 -1.103,0 0,0.408 c 0.581,0 1.109,0.156 1.223,0.798 l 0.39,0 0,-4.254" /><path
       inkscape:connector-curvature="0"
       id="path4177"
       style="fill:#000000;fill-opacity:1;fill-rule:nonzero;stroke:none"
       d="m 366.97427,141.98418 c 0,-0.528 0.324,-0.948 0.882,-0.948 0.552,0 0.858,0.439 0.858,0.942 0,0.528 -0.276,0.966 -0.858,0.966 -0.57,0 -0.882,-0.425 -0.882,-0.96 z m 1.65,1.842 c -0.048,0.384 -0.312,0.636 -0.714,0.636 -0.87,0 -1.008,-0.96 -1.032,-1.613 l 0.012,-0.013 c 0.24,0.391 0.6,0.558 1.062,0.558 0.816,0 1.302,-0.594 1.302,-1.379 0,-0.619 -0.348,-1.429 -1.422,-1.429 -1.26,0 -1.464,1.152 -1.464,2.046 0,1.17 0.354,2.28 1.566,2.28 0.702,0 1.14,-0.395 1.2,-1.086 l -0.51,0" /><path
       inkscape:connector-curvature="0"
       id="path4179"
       style="fill:#e42284;fill-opacity:1;fill-rule:evenodd;stroke:#000000;stroke-width:0.5;stroke-linecap:butt;stroke-linejoin:miter;stroke-miterlimit:4;stroke-opacity:1;stroke-dasharray:none"
       d="m 374.38627,115.04718 -187.742,0" /><path
       inkscape:connector-curvature="0"
       id="path4181"
       style="fill:#ea817a;fill-opacity:1;fill-rule:evenodd;stroke:#000000;stroke-width:0.255;stroke-linecap:butt;stroke-linejoin:miter;stroke-miterlimit:4;stroke-opacity:1;stroke-dasharray:none"
       d="m 332.53227,117.56318 0,-5.031 -5.03,0 -2.516,2.515 2.516,2.516 5.03,0 z" /><path
       inkscape:connector-curvature="0"
       id="path4183"
       style="fill:#ea817a;fill-opacity:1;fill-rule:evenodd;stroke:#000000;stroke-width:0.255;stroke-linecap:butt;stroke-linejoin:miter;stroke-miterlimit:4;stroke-opacity:1;stroke-dasharray:none"
       d="m 350.13927,117.56318 0,-5.031 5.659,0 1.886,2.515 -1.886,2.516 -5.659,0 z" /><path
       inkscape:connector-curvature="0"
       id="path4185"
       style="fill:#ea817a;fill-opacity:1;fill-rule:evenodd;stroke:#000000;stroke-width:0.255;stroke-linecap:butt;stroke-linejoin:miter;stroke-miterlimit:4;stroke-opacity:1;stroke-dasharray:none"
       d="m 262.10327,117.56318 0,-5.031 -10.061,0 -2.515,2.515 2.515,2.516 10.061,0 z" /><path
       inkscape:connector-curvature="0"
       id="path4187"
       style="fill:#ea817a;fill-opacity:1;fill-rule:evenodd;stroke:#000000;stroke-width:0.255;stroke-linecap:butt;stroke-linejoin:miter;stroke-miterlimit:4;stroke-opacity:1;stroke-dasharray:none"
       d="m 277.19527,117.56318 0,-5.031 -10.061,0 -2.515,2.515 2.515,2.516 10.061,0 z" /><path
       inkscape:connector-curvature="0"
       id="path4189"
       style="fill:#ea817a;fill-opacity:1;fill-rule:evenodd;stroke:#000000;stroke-width:0.255;stroke-linecap:butt;stroke-linejoin:miter;stroke-miterlimit:4;stroke-opacity:1;stroke-dasharray:none"
       d="m 219.34327,117.56318 0,-5.031 -2.515,0 -2.515,2.515 2.515,2.516 2.515,0 z" /><path
       inkscape:connector-curvature="0"
       id="path4191"
       style="fill:#ea817a;fill-opacity:1;fill-rule:evenodd;stroke:#000000;stroke-width:0.255;stroke-linecap:butt;stroke-linejoin:miter;stroke-miterlimit:4;stroke-opacity:1;stroke-dasharray:none"
       d="m 236.95027,117.56318 0,-5.031 -2.515,0 -2.515,2.515 2.515,2.516 2.515,0 z" /><path
       inkscape:connector-curvature="0"
       id="path4193"
       style="fill:#ea817a;fill-opacity:1;fill-rule:evenodd;stroke:#000000;stroke-width:0.255;stroke-linecap:butt;stroke-linejoin:miter;stroke-miterlimit:4;stroke-opacity:1;stroke-dasharray:none"
       d="m 307.37927,117.56318 0,-5.031 -5.032,0 -2.514,2.515 2.514,2.516 5.032,0 z" /><path
       inkscape:connector-curvature="0"
       id="path4195"
       style="fill:#ea817a;fill-opacity:1;fill-rule:evenodd;stroke:#000000;stroke-width:0.255;stroke-linecap:butt;stroke-linejoin:miter;stroke-miterlimit:4;stroke-opacity:1;stroke-dasharray:none"
       d="m 211.79827,117.56318 0,-5.031 -7.546,0 -2.515,2.515 2.515,2.516 7.546,0 z" /><path
       inkscape:connector-curvature="0"
       id="path4197"
       style="fill:#000000;fill-opacity:1;fill-rule:nonzero;stroke:none"
       d="m 206.47127,109.96918 c -0.042,0.864 0.468,1.506 1.368,1.506 0.744,0 1.332,-0.432 1.332,-1.224 0,-0.75 -0.504,-1.128 -1.032,-1.458 -0.534,-0.324 -1.092,-0.595 -1.194,-1.122 l 2.184,0 0,-0.45 -2.778,0 c 0.084,1.008 0.594,1.368 1.194,1.74 0.72,0.443 1.086,0.708 1.086,1.296 0,0.462 -0.372,0.768 -0.822,0.768 -0.594,0 -0.846,-0.546 -0.828,-1.056 l -0.51,0" /><path
       inkscape:connector-curvature="0"
       id="path4199"
       style="fill:#000000;fill-opacity:1;fill-rule:nonzero;stroke:none"
       d="m 218.13627,109.65118 c 0.078,-0.006 0.15,-0.006 0.222,-0.006 0.432,0 0.81,0.234 0.81,0.696 0,0.444 -0.324,0.684 -0.756,0.684 -0.558,0 -0.798,-0.426 -0.804,-0.924 l -0.51,0 c 0.03,0.81 0.462,1.374 1.314,1.374 0.738,0 1.296,-0.354 1.296,-1.14 0,-0.372 -0.264,-0.696 -0.588,-0.847 l 0,-0.011 c 0.516,-0.115 0.768,-0.522 0.768,-1.033 0,-0.851 -0.666,-1.295 -1.464,-1.295 -0.864,0 -1.434,0.51 -1.416,1.386 l 0.51,0 c 0.018,-0.552 0.324,-0.936 0.906,-0.936 0.498,0 0.924,0.305 0.924,0.822 0,0.534 -0.402,0.815 -0.906,0.815 -0.102,0 -0.21,-0.005 -0.306,-0.017 l 0,0.432" /><path
       inkscape:connector-curvature="0"
       id="path4201"
       style="fill:#000000;fill-opacity:1;fill-rule:nonzero;stroke:none"
       d="m 236.41727,110.95318 -1.716,0 -0.228,-1.224 0.012,-0.012 c 0.186,0.21 0.504,0.306 0.792,0.306 0.756,0 1.374,-0.486 1.374,-1.458 0,-0.72 -0.498,-1.416 -1.488,-1.416 -0.738,0 -1.338,0.45 -1.356,1.218 l 0.51,0 c 0.03,-0.438 0.384,-0.768 0.894,-0.768 0.486,0 0.9,0.33 0.9,1.008 0,0.564 -0.39,0.965 -0.96,0.965 -0.324,0 -0.594,-0.161 -0.792,-0.401 l -0.438,0.023 0.396,2.208 2.1,0 0,-0.449" /><path
       inkscape:connector-curvature="0"
       id="path4203"
       style="fill:#000000;fill-opacity:1;fill-rule:nonzero;stroke:none"
       d="m 257.33227,110.96518 c -0.858,-0.853 -1.554,-2.412 -1.632,-3.744 l -0.57,0 c 0.096,1.44 0.786,2.754 1.68,3.702 l -2.232,0 0,0.479 2.754,0 0,-0.437" /><path
       inkscape:connector-curvature="0"
       id="path4205"
       style="fill:#000000;fill-opacity:1;fill-rule:nonzero;stroke:none"
       d="m 271.26827,108.42118 c 0,0.492 0.396,0.815 0.9,0.815 0.48,0 0.876,-0.347 0.876,-0.809 0,-0.474 -0.36,-0.828 -0.87,-0.828 -0.528,0 -0.906,0.312 -0.906,0.822 z m -0.39,1.968 c 0,-0.384 0.24,-0.738 0.594,-0.882 -0.474,-0.168 -0.744,-0.559 -0.744,-1.063 0,-0.87 0.63,-1.295 1.446,-1.295 0.786,0 1.41,0.474 1.41,1.295 0,0.529 -0.246,0.901 -0.756,1.063 0.348,0.156 0.588,0.504 0.588,0.882 0,0.54 -0.36,1.086 -1.29,1.086 -0.654,0 -1.248,-0.384 -1.248,-1.086 z m 0.54,-0.018 c 0,0.426 0.336,0.654 0.744,0.654 0.414,0 0.714,-0.228 0.714,-0.654 0,-0.432 -0.3,-0.684 -0.702,-0.684 -0.42,0 -0.756,0.215 -0.756,0.684" /><path
       inkscape:connector-curvature="0"
       id="path4207"
       style="fill:#000000;fill-opacity:1;fill-rule:nonzero;stroke:none"
       d="m 304.41027,107.22118 -0.51,0 0,3.048 -1.104,0 0,0.408 c 0.582,0 1.11,0.156 1.224,0.798 l 0.39,0 0,-4.254" /><path
       inkscape:connector-curvature="0"
       id="path4209"
       style="fill:#000000;fill-opacity:1;fill-rule:nonzero;stroke:none"
       d="m 307.11927,107.22118 -0.51,0 0,3.048 -1.104,0 0,0.408 c 0.582,0 1.11,0.156 1.224,0.798 l 0.39,0 0,-4.254" /><path
       inkscape:connector-curvature="0"
       id="path4211"
       style="fill:#000000;fill-opacity:1;fill-rule:nonzero;stroke:none"
       d="m 329.41927,107.22118 -0.51,0 0,3.048 -1.104,0 0,0.408 c 0.582,0 1.11,0.156 1.224,0.798 l 0.39,0 0,-4.254" /><path
       inkscape:connector-curvature="0"
       id="path4213"
       style="fill:#000000;fill-opacity:1;fill-rule:nonzero;stroke:none"
       d="m 331.58927,109.21918 c 0.096,0.012 0.204,0.017 0.306,0.017 0.504,0 0.906,-0.281 0.906,-0.815 0,-0.517 -0.426,-0.822 -0.924,-0.822 -0.582,0 -0.888,0.384 -0.906,0.936 l -0.51,0 c -0.018,-0.876 0.552,-1.386 1.416,-1.386 0.798,0 1.464,0.444 1.464,1.295 0,0.511 -0.252,0.918 -0.768,1.033 l 0,0.011 c 0.324,0.151 0.588,0.475 0.588,0.847 0,0.786 -0.558,1.14 -1.296,1.14 -0.852,0 -1.284,-0.564 -1.314,-1.374 l 0.51,0 c 0.006,0.498 0.246,0.924 0.804,0.924 0.432,0 0.756,-0.24 0.756,-0.684 0,-0.462 -0.378,-0.696 -0.81,-0.696 -0.072,0 -0.144,0 -0.222,0.006 l 0,-0.432" /><path
       inkscape:connector-curvature="0"
       id="path4215"
       style="fill:#000000;fill-opacity:1;fill-rule:nonzero;stroke:none"
       d="m 353.45427,111.47518 -0.39,0 c -0.114,-0.642 -0.642,-0.798 -1.224,-0.798 l 0,-0.408 1.104,0 0,-3.048 0.51,0 0,4.254" /><path
       inkscape:connector-curvature="0"
       id="path4217"
       style="fill:#000000;fill-opacity:1;fill-rule:nonzero;stroke:none"
       d="m 357.13627,110.95318 -1.716,0 -0.228,-1.224 0.012,-0.012 c 0.186,0.21 0.503,0.306 0.792,0.306 0.755,0 1.374,-0.486 1.374,-1.458 0,-0.72 -0.498,-1.416 -1.488,-1.416 -0.738,0 -1.339,0.45 -1.356,1.218 l 0.51,0 c 0.03,-0.438 0.384,-0.768 0.894,-0.768 0.485,0 0.9,0.33 0.9,1.008 0,0.564 -0.39,0.965 -0.96,0.965 -0.324,0 -0.594,-0.161 -0.792,-0.401 l -0.438,0.023 0.396,2.208 2.1,0 0,-0.449" /><path
       inkscape:connector-curvature="0"
       id="path4383"
       style="fill:#000000;fill-opacity:1;fill-rule:nonzero;stroke:none"
       d="m 379.55727,137.23518 c 0.018,0.679 -0.399,0.889 -0.991,0.889 -0.423,0 -0.997,-0.192 -0.997,-0.702 0,-0.414 0.307,-0.582 0.7,-0.69 l 0.581,-0.156 c 0.537,-0.144 1.039,-0.39 1.039,-1.158 0,-0.882 -0.9,-1.302 -1.68,-1.302 -1.04,0 -1.77,0.456 -1.698,1.506 l 0.574,0 c -0.036,-0.774 0.448,-1.026 1.148,-1.026 0.538,0 1.082,0.246 1.082,0.822 0,0.438 -0.345,0.594 -0.768,0.708 l -0.586,0.156 c -0.513,0.138 -0.967,0.45 -0.967,1.079 0,0.828 0.804,1.242 1.572,1.242 0.851,0 1.594,-0.414 1.564,-1.368 l -0.573,0" /><path
       inkscape:connector-curvature="0"
       id="path4385"
       style="fill:#000000;fill-opacity:1;fill-rule:nonzero;stroke:none"
       d="m 380.42627,134.21818 0.671,0 0.146,0.666 -0.671,0 -0.146,-0.666" /><path
       inkscape:connector-curvature="0"
       id="path4387"
       style="fill:#000000;fill-opacity:1;fill-rule:nonzero;stroke:none"
       d="m 386.33327,136.33618 c -0.024,0.72 -0.464,1.056 -1.172,1.056 -1.118,0 -1.728,-0.924 -1.728,-1.909 0,-0.834 0.435,-1.337 1.287,-1.337 0.719,0 1.245,0.396 1.426,1.086 l -0.514,0 c -0.144,-0.379 -0.471,-0.636 -0.912,-0.636 -0.574,0 -0.773,0.408 -0.773,0.887 0,0.679 0.422,1.458 1.214,1.458 0.399,0 0.659,-0.227 0.659,-0.605 l 0.513,0" /><path
       inkscape:connector-curvature="0"
       id="path4389"
       style="fill:#000000;fill-opacity:1;fill-rule:nonzero;stroke:none"
       d="m 389.49327,135.61618 c 0.019,0.084 0.049,0.24 0.049,0.402 0,0.876 -0.405,1.374 -1.323,1.374 -0.858,0 -1.607,-0.81 -1.607,-1.998 0,-0.541 0.29,-1.248 1.323,-1.248 0.683,0 1.251,0.36 1.414,1.043 l -0.514,0 c -0.145,-0.383 -0.453,-0.593 -0.9,-0.593 -0.417,0 -0.81,0.27 -0.81,0.75 0,0.09 0.006,0.179 0.018,0.27 l 2.35,0 z m -2.278,0.449 c 0.152,0.481 0.478,0.876 1.082,0.876 0.569,0 0.768,-0.437 0.732,-0.876 l -1.814,0" /><path
       inkscape:connector-curvature="0"
       id="path4391"
       style="fill:#000000;fill-opacity:1;fill-rule:nonzero;stroke:none"
       d="m 389.76627,134.21818 0.514,0 0.295,1.374 c 0.048,0.234 0.122,0.528 0.26,0.725 0.163,0.247 0.381,0.433 0.665,0.505 0.12,0.03 0.181,0.03 0.308,0.03 0.049,0 0.102,0 0.151,-0.006 l 0.121,0.546 c -0.06,0.012 -0.121,0 -0.181,0 -0.526,0 -0.895,-0.312 -1.136,-0.739 l -0.013,0 0.152,0.666 -0.484,0 -0.652,-3.101" /><path
       inkscape:connector-curvature="0"
       id="path4393"
       style="fill:#000000;fill-opacity:1;fill-rule:nonzero;stroke:none"
       d="m 394.28527,136.06518 c 0.037,0.439 -0.163,0.876 -0.731,0.876 -0.604,0 -0.931,-0.395 -1.081,-0.876 l 1.812,0 z m -1.885,-0.449 c -0.012,-0.091 -0.018,-0.18 -0.018,-0.27 0,-0.48 0.393,-0.75 0.81,-0.75 0.447,0 0.756,0.21 0.9,0.593 l 0.514,0 c -0.163,-0.683 -0.732,-1.043 -1.414,-1.043 -1.033,0 -1.324,0.707 -1.324,1.248 0,1.188 0.749,1.998 1.608,1.998 0.918,0 1.323,-0.498 1.323,-1.374 0,-0.162 -0.03,-0.318 -0.048,-0.402 l -2.351,0" /><path
       inkscape:connector-curvature="0"
       id="path4395"
       style="fill:#000000;fill-opacity:1;fill-rule:nonzero;stroke:none"
       d="m 396.30427,134.21818 -0.55,0 -0.447,3.101 0.544,0 0.265,-2.579 0.012,0 1.354,2.579 0.556,0 -1.734,-3.101" /><path
       inkscape:connector-curvature="0"
       id="path4397"
       style="fill:#000000;fill-opacity:1;fill-rule:nonzero;stroke:none"
       d="m 399.34927,138.50218 -0.52,0 -0.132,-0.624 0.519,0 0.133,0.624 z m -1.42,-4.284 0.514,0 0.652,3.101 -0.514,0 -0.652,-3.101" /><path
       inkscape:connector-curvature="0"
       id="path4399"
       style="fill:#000000;fill-opacity:1;fill-rule:nonzero;stroke:none"
       d="m 401.44627,136.40818 c 0.024,0.354 -0.29,0.533 -0.647,0.533 -0.314,0 -0.664,-0.084 -0.664,-0.395 0,-0.288 0.41,-0.402 0.821,-0.57 0.411,-0.168 0.828,-0.384 0.828,-0.87 0,-0.69 -0.67,-0.96 -1.275,-0.96 -0.713,0 -1.269,0.257 -1.263,1.049 l 0.514,0 c -0.024,-0.462 0.368,-0.599 0.798,-0.599 0.332,0 0.713,0.12 0.713,0.473 0,0.301 -0.411,0.421 -0.823,0.589 -0.417,0.161 -0.827,0.372 -0.827,0.84 0,0.576 0.58,0.894 1.16,0.894 0.581,0 1.178,-0.258 1.178,-0.984 l -0.513,0" /><path
       inkscape:connector-curvature="0"
       id="path4401"
       style="fill:#000000;fill-opacity:1;fill-rule:nonzero;stroke:none"
       d="m 403.59727,138.50218 -0.52,0 -0.132,-0.624 0.519,0 0.133,0.624 z m -1.42,-4.284 0.514,0 0.652,3.101 -0.514,0 -0.652,-3.101" /><path
       inkscape:connector-curvature="0"
       id="path4403"
       style="fill:#000000;fill-opacity:1;fill-rule:nonzero;stroke:none"
       d="m 404.00227,135.02718 c 0,0.397 0.326,0.511 0.695,0.565 0.375,0.048 0.779,0.078 1.002,0.21 l 0.013,0 c -0.072,-0.288 -0.102,-0.564 -0.272,-0.798 -0.181,-0.276 -0.477,-0.408 -0.876,-0.408 -0.29,0 -0.562,0.144 -0.562,0.431 z m 0.38,1.357 c 0.061,0.402 0.447,0.557 0.841,0.557 0.271,0 0.628,-0.071 0.628,-0.407 0,-0.414 -0.241,-0.444 -0.785,-0.492 -0.69,-0.06 -1.577,-0.12 -1.577,-1.021 0,-0.635 0.434,-0.875 0.954,-0.875 0.526,0 0.828,0.162 1.046,0.45 l 0.011,-0.012 c -0.03,-0.27 0.121,-0.438 0.406,-0.438 0.09,0 0.235,0.03 0.314,0.072 l 0.078,0.378 c -0.048,-0.018 -0.115,-0.042 -0.163,-0.042 -0.085,0 -0.151,0.048 -0.151,0.192 0,0.144 0.06,0.318 0.085,0.443 l 0.199,0.847 c 0.036,0.168 0.096,0.39 0.096,0.564 0,0.63 -0.538,0.792 -1.141,0.792 -0.665,0 -1.251,-0.318 -1.354,-1.008 l 0.513,0" /><path
       inkscape:connector-curvature="0"
       id="path4405"
       style="fill:#000000;fill-opacity:1;fill-rule:nonzero;stroke:none"
       d="m 407.35027,136.06518 c 0.15,0.481 0.476,0.876 1.081,0.876 0.568,0 0.767,-0.437 0.731,-0.876 l -1.812,0 z m 2.277,-0.449 c 0.019,0.084 0.049,0.24 0.049,0.402 0,0.876 -0.405,1.374 -1.323,1.374 -0.859,0 -1.608,-0.81 -1.608,-1.998 0,-0.541 0.29,-1.248 1.324,-1.248 0.682,0 1.25,0.36 1.414,1.043 l -0.514,0 c -0.145,-0.383 -0.453,-0.593 -0.9,-0.593 -0.417,0 -0.81,0.27 -0.81,0.75 0,0.09 0.006,0.179 0.018,0.27 l 2.35,0" /><path
       inkscape:connector-curvature="0"
       id="path4407"
       style="fill:#000000;fill-opacity:1;fill-rule:nonzero;stroke:none"
       d="m 414.98727,136.32418 c -0.078,0.39 -0.35,0.617 -0.773,0.617 -0.743,0 -0.973,-0.582 -0.973,-1.211 0,-0.57 0.26,-1.134 0.912,-1.134 0.496,0 0.792,0.288 0.859,0.756 l 0.525,0 c -0.115,-0.756 -0.592,-1.206 -1.378,-1.206 -0.954,0 -1.462,0.66 -1.462,1.584 0,0.93 0.484,1.662 1.475,1.662 0.707,0 1.274,-0.33 1.347,-1.068 l -0.532,0" /><path
       inkscape:connector-curvature="0"
       id="path4409"
       style="fill:#000000;fill-opacity:1;fill-rule:nonzero;stroke:none"
       d="m 416.48527,135.76618 c 0,0.755 0.436,1.175 0.974,1.175 0.537,0 0.973,-0.42 0.973,-1.175 0,-0.75 -0.436,-1.17 -0.973,-1.17 -0.538,0 -0.974,0.42 -0.974,1.17 z m -0.542,0 c 0,-0.907 0.525,-1.62 1.516,-1.62 0.99,0 1.517,0.713 1.517,1.62 0,0.912 -0.527,1.626 -1.517,1.626 -0.991,0 -1.516,-0.714 -1.516,-1.626" /><path
       inkscape:connector-curvature="0"
       id="path4411"
       style="fill:#000000;fill-opacity:1;fill-rule:nonzero;stroke:none"
       d="m 422.01527,135.79618 c 0,-0.607 -0.236,-1.2 -0.937,-1.2 -0.707,0 -0.984,0.564 -0.984,1.175 0,0.582 0.266,1.17 0.954,1.17 0.665,0 0.967,-0.563 0.967,-1.145 z m -2.417,-2.767 0.513,0 0,1.603 0.012,0 c 0.231,-0.366 0.69,-0.486 1.01,-0.486 0.955,0 1.426,0.738 1.426,1.614 0,0.876 -0.478,1.632 -1.439,1.632 -0.428,0 -0.827,-0.15 -0.997,-0.493 l -0.012,0 0,0.42 -0.513,0 0,-4.29" /><path
       inkscape:connector-curvature="0"
       id="path4413"
       style="fill:#000000;fill-opacity:1;fill-rule:nonzero;stroke:none"
       d="m 424.39027,133.80418 c -0.236,-0.606 -0.447,-0.828 -0.906,-0.828 -0.122,0 -0.243,0.011 -0.357,0.053 l 0,0.469 c 0.097,-0.03 0.199,-0.072 0.302,-0.072 0.212,0 0.326,0.101 0.423,0.282 l 0.212,0.527 -1.24,3.084 0.58,0 0.914,-2.537 0.011,0 0.876,2.537 0.544,0 -1.359,-3.515" /><path
       inkscape:connector-curvature="0"
       id="path4415"
       style="fill:#000000;fill-opacity:1;fill-rule:nonzero;stroke:none"
       d="m 427.94927,134.21818 -0.513,0 0,3.048 -1.113,0 0,0.408 c 0.586,0 1.119,0.156 1.233,0.798 l 0.393,0 0,-4.254" /><path
       inkscape:connector-curvature="0"
       id="path4417"
       style="fill:#000000;fill-opacity:1;fill-rule:nonzero;stroke:none"
       d="m 379.55727,115.59618 c 0.018,0.678 -0.399,0.889 -0.991,0.889 -0.423,0 -0.997,-0.193 -0.997,-0.703 0,-0.414 0.307,-0.582 0.7,-0.69 l 0.581,-0.155 c 0.537,-0.145 1.039,-0.391 1.039,-1.159 0,-0.881 -0.9,-1.301 -1.68,-1.301 -1.04,0 -1.77,0.455 -1.698,1.506 l 0.574,0 c -0.036,-0.775 0.448,-1.027 1.148,-1.027 0.538,0 1.082,0.246 1.082,0.822 0,0.438 -0.345,0.594 -0.768,0.708 l -0.586,0.157 c -0.513,0.137 -0.967,0.449 -0.967,1.079 0,0.828 0.804,1.242 1.572,1.242 0.851,0 1.594,-0.414 1.564,-1.368 l -0.573,0" /><path
       inkscape:connector-curvature="0"
       id="path4419"
       style="fill:#000000;fill-opacity:1;fill-rule:nonzero;stroke:none"
       d="m 380.42627,112.57818 0.671,0 0.146,0.666 -0.671,0 -0.146,-0.666" /><path
       inkscape:connector-curvature="0"
       id="path4421"
       style="fill:#000000;fill-opacity:1;fill-rule:nonzero;stroke:none"
       d="m 385.82027,114.69618 c 0,0.378 -0.26,0.606 -0.659,0.606 -0.792,0 -1.214,-0.779 -1.214,-1.458 0,-0.48 0.199,-0.888 0.773,-0.888 0.441,0 0.768,0.258 0.912,0.636 l 0.514,0 c -0.181,-0.69 -0.707,-1.086 -1.426,-1.086 -0.852,0 -1.287,0.504 -1.287,1.338 0,0.984 0.61,1.908 1.728,1.908 0.708,0 1.148,-0.336 1.172,-1.056 l -0.513,0" /><path
       inkscape:connector-curvature="0"
       id="path4423"
       style="fill:#000000;fill-opacity:1;fill-rule:nonzero;stroke:none"
       d="m 387.21527,114.42618 c 0.152,0.48 0.478,0.876 1.082,0.876 0.569,0 0.768,-0.438 0.732,-0.876 l -1.814,0 z m 2.278,-0.449 c 0.019,0.084 0.049,0.239 0.049,0.401 0,0.876 -0.405,1.374 -1.323,1.374 -0.858,0 -1.607,-0.809 -1.607,-1.998 0,-0.54 0.29,-1.248 1.323,-1.248 0.683,0 1.251,0.36 1.414,1.044 l -0.514,0 c -0.145,-0.384 -0.453,-0.594 -0.9,-0.594 -0.417,0 -0.81,0.271 -0.81,0.75 0,0.09 0.006,0.18 0.018,0.271 l 2.35,0" /><path
       inkscape:connector-curvature="0"
       id="path4425"
       style="fill:#000000;fill-opacity:1;fill-rule:nonzero;stroke:none"
       d="m 389.76627,112.57818 0.514,0 0.295,1.374 c 0.048,0.235 0.122,0.529 0.26,0.726 0.163,0.246 0.381,0.432 0.665,0.505 0.12,0.029 0.181,0.029 0.308,0.029 0.049,0 0.102,0 0.151,-0.006 l 0.121,0.546 c -0.06,0.012 -0.121,0 -0.181,0 -0.526,0 -0.895,-0.311 -1.136,-0.738 l -0.013,0 0.152,0.666 -0.484,0 -0.652,-3.102" /><path
       inkscape:connector-curvature="0"
       id="path4427"
       style="fill:#000000;fill-opacity:1;fill-rule:nonzero;stroke:none"
       d="m 394.75127,113.97718 c 0.018,0.084 0.048,0.239 0.048,0.401 0,0.876 -0.405,1.374 -1.323,1.374 -0.859,0 -1.608,-0.809 -1.608,-1.998 0,-0.54 0.291,-1.248 1.324,-1.248 0.682,0 1.251,0.36 1.414,1.044 l -0.514,0 c -0.144,-0.384 -0.453,-0.594 -0.9,-0.594 -0.417,0 -0.81,0.271 -0.81,0.75 0,0.09 0.006,0.18 0.018,0.271 l 2.351,0 z m -2.278,0.449 c 0.15,0.48 0.477,0.876 1.081,0.876 0.568,0 0.768,-0.438 0.731,-0.876 l -1.812,0" /><path
       inkscape:connector-curvature="0"
       id="path4429"
       style="fill:#000000;fill-opacity:1;fill-rule:nonzero;stroke:none"
       d="m 396.30427,112.57818 -0.55,0 -0.447,3.102 0.544,0 0.265,-2.579 0.012,0 1.354,2.579 0.556,0 -1.734,-3.102" /><path
       inkscape:connector-curvature="0"
       id="path4431"
       style="fill:#000000;fill-opacity:1;fill-rule:nonzero;stroke:none"
       d="m 399.34927,116.86218 -0.52,0 -0.132,-0.624 0.519,0 0.133,0.624 z m -1.42,-4.284 0.514,0 0.652,3.102 -0.514,0 -0.652,-3.102" /><path
       inkscape:connector-curvature="0"
       id="path4433"
       style="fill:#000000;fill-opacity:1;fill-rule:nonzero;stroke:none"
       d="m 401.95927,114.76918 c 0,0.725 -0.597,0.983 -1.178,0.983 -0.58,0 -1.16,-0.317 -1.16,-0.893 0,-0.468 0.41,-0.679 0.827,-0.84 0.412,-0.168 0.823,-0.288 0.823,-0.589 0,-0.354 -0.381,-0.474 -0.713,-0.474 -0.43,0 -0.822,0.138 -0.798,0.6 l -0.514,0 c -0.006,-0.792 0.55,-1.05 1.263,-1.05 0.605,0 1.275,0.271 1.275,0.96 0,0.486 -0.417,0.702 -0.828,0.87 -0.411,0.168 -0.821,0.282 -0.821,0.57 0,0.312 0.35,0.396 0.664,0.396 0.357,0 0.671,-0.18 0.647,-0.533 l 0.513,0" /><path
       inkscape:connector-curvature="0"
       id="path4435"
       style="fill:#000000;fill-opacity:1;fill-rule:nonzero;stroke:none"
       d="m 402.17727,112.57818 0.514,0 0.652,3.102 -0.514,0 -0.652,-3.102 z m 1.42,4.284 -0.52,0 -0.132,-0.624 0.519,0 0.133,0.624" /><path
       inkscape:connector-curvature="0"
       id="path4437"
       style="fill:#000000;fill-opacity:1;fill-rule:nonzero;stroke:none"
       d="m 404.38227,114.74418 c 0.061,0.403 0.447,0.558 0.841,0.558 0.271,0 0.628,-0.071 0.628,-0.407 0,-0.414 -0.241,-0.445 -0.785,-0.493 -0.69,-0.06 -1.577,-0.12 -1.577,-1.02 0,-0.636 0.434,-0.876 0.954,-0.876 0.526,0 0.828,0.162 1.046,0.45 l 0.011,-0.012 c -0.03,-0.27 0.121,-0.438 0.406,-0.438 0.09,0 0.235,0.03 0.314,0.072 l 0.078,0.378 c -0.048,-0.017 -0.115,-0.042 -0.163,-0.042 -0.085,0 -0.151,0.048 -0.151,0.193 0,0.143 0.06,0.317 0.085,0.443 l 0.199,0.847 c 0.036,0.168 0.096,0.389 0.096,0.563 0,0.63 -0.538,0.792 -1.141,0.792 -0.665,0 -1.251,-0.317 -1.354,-1.008 l 0.513,0 z m -0.38,-1.356 c 0,0.396 0.326,0.511 0.695,0.564 0.375,0.048 0.779,0.078 1.002,0.21 l 0.013,0 c -0.072,-0.288 -0.102,-0.564 -0.272,-0.798 -0.181,-0.276 -0.477,-0.408 -0.876,-0.408 -0.29,0 -0.562,0.145 -0.562,0.432" /><path
       inkscape:connector-curvature="0"
       id="path4439"
       style="fill:#000000;fill-opacity:1;fill-rule:nonzero;stroke:none"
       d="m 407.35027,114.42618 c 0.15,0.48 0.476,0.876 1.081,0.876 0.568,0 0.767,-0.438 0.731,-0.876 l -1.812,0 z m 2.277,-0.449 c 0.019,0.084 0.049,0.239 0.049,0.401 0,0.876 -0.405,1.374 -1.323,1.374 -0.859,0 -1.608,-0.809 -1.608,-1.998 0,-0.54 0.29,-1.248 1.324,-1.248 0.682,0 1.25,0.36 1.414,1.044 l -0.514,0 c -0.145,-0.384 -0.453,-0.594 -0.9,-0.594 -0.417,0 -0.81,0.271 -0.81,0.75 0,0.09 0.006,0.18 0.018,0.271 l 2.35,0" /><path
       inkscape:connector-curvature="0"
       id="path4441"
       style="fill:#000000;fill-opacity:1;fill-rule:nonzero;stroke:none"
       d="m 414.98727,114.68518 c -0.078,0.389 -0.35,0.617 -0.773,0.617 -0.743,0 -0.973,-0.582 -0.973,-1.212 0,-0.569 0.26,-1.134 0.912,-1.134 0.496,0 0.792,0.288 0.859,0.756 l 0.525,0 c -0.115,-0.756 -0.592,-1.206 -1.378,-1.206 -0.954,0 -1.462,0.66 -1.462,1.584 0,0.931 0.484,1.662 1.475,1.662 0.707,0 1.274,-0.33 1.347,-1.067 l -0.532,0" /><path
       inkscape:connector-curvature="0"
       id="path4443"
       style="fill:#000000;fill-opacity:1;fill-rule:nonzero;stroke:none"
       d="m 416.48527,114.12618 c 0,0.756 0.436,1.176 0.974,1.176 0.537,0 0.973,-0.42 0.973,-1.176 0,-0.75 -0.436,-1.17 -0.973,-1.17 -0.538,0 -0.974,0.42 -0.974,1.17 z m -0.542,0 c 0,-0.906 0.525,-1.62 1.516,-1.62 0.99,0 1.517,0.714 1.517,1.62 0,0.912 -0.527,1.626 -1.517,1.626 -0.991,0 -1.516,-0.714 -1.516,-1.626" /><path
       inkscape:connector-curvature="0"
       id="path4445"
       style="fill:#000000;fill-opacity:1;fill-rule:nonzero;stroke:none"
       d="m 422.01527,114.15618 c 0,-0.606 -0.236,-1.2 -0.937,-1.2 -0.707,0 -0.984,0.565 -0.984,1.176 0,0.582 0.266,1.17 0.954,1.17 0.665,0 0.967,-0.564 0.967,-1.146 z m -2.417,-2.766 0.513,0 0,1.602 0.012,0 c 0.231,-0.366 0.69,-0.486 1.01,-0.486 0.955,0 1.426,0.738 1.426,1.614 0,0.876 -0.478,1.632 -1.439,1.632 -0.428,0 -0.827,-0.149 -0.997,-0.492 l -0.012,0 0,0.42 -0.513,0 0,-4.29" /><path
       inkscape:connector-curvature="0"
       id="path4447"
       style="fill:#000000;fill-opacity:1;fill-rule:nonzero;stroke:none"
       d="m 424.39027,112.16418 c -0.236,-0.605 -0.447,-0.828 -0.906,-0.828 -0.122,0 -0.243,0.012 -0.357,0.054 l 0,0.469 c 0.097,-0.031 0.199,-0.073 0.302,-0.073 0.212,0 0.326,0.102 0.423,0.283 l 0.212,0.527 -1.24,3.084 0.58,0 0.914,-2.537 0.011,0 0.876,2.537 0.544,0 -1.359,-3.516" /><path
       inkscape:connector-curvature="0"
       id="path4449"
       style="fill:#000000;fill-opacity:1;fill-rule:nonzero;stroke:none"
       d="m 426.06427,115.32618 c -0.042,0.865 0.471,1.506 1.378,1.506 0.748,0 1.341,-0.432 1.341,-1.223 0,-0.75 -0.507,-1.128 -1.04,-1.458 -0.538,-0.325 -1.099,-0.595 -1.202,-1.123 l 2.199,0 0,-0.45 -2.797,0 c 0.084,1.008 0.598,1.368 1.203,1.741 0.724,0.443 1.093,0.707 1.093,1.295 0,0.462 -0.375,0.768 -0.828,0.768 -0.598,0 -0.852,-0.546 -0.834,-1.056 l -0.513,0" /><path
       inkscape:connector-curvature="0"
       id="path4451"
       style="fill:#000000;fill-opacity:1;fill-rule:nonzero;stroke:none"
       d="m 376.46227,123.53318 0.574,0 0.309,1.447 0.864,0.725 1.178,-2.172 0.635,0 -1.384,2.52 2.079,1.764 -0.767,0 -2.442,-2.124 -0.013,0.012 0.455,2.112 -0.575,0 -0.913,-4.284" /><path
       inkscape:connector-curvature="0"
       id="path4453"
       style="fill:#000000;fill-opacity:1;fill-rule:nonzero;stroke:none"
       d="m 380.68727,124.19918 0.67,0 -0.145,-0.666 -0.671,0 0.146,0.666" /><path
       inkscape:connector-curvature="0"
       id="path4455"
       style="fill:#000000;fill-opacity:1;fill-rule:nonzero;stroke:none"
       d="m 386.29727,123.53318 -0.544,0 -0.157,2.412 -0.012,0 -1.118,-2.412 -0.544,0 -0.368,3.102 0.544,0 0.193,-2.466 0.012,0 1.124,2.466 0.58,0 0.152,-2.466 0.011,0 1.185,2.466 0.555,0 -1.613,-3.102" /><path
       inkscape:connector-curvature="0"
       id="path4457"
       style="fill:#000000;fill-opacity:1;fill-rule:nonzero;stroke:none"
       d="m 388.90727,123.91118 c 0.399,0 0.696,0.132 0.876,0.408 0.17,0.234 0.2,0.51 0.273,0.798 l -0.013,0 c -0.223,-0.132 -0.628,-0.162 -1.003,-0.21 -0.368,-0.053 -0.694,-0.168 -0.694,-0.564 0,-0.287 0.272,-0.432 0.561,-0.432 z m -0.695,1.788 c 0.104,0.691 0.69,1.008 1.355,1.008 0.603,0 1.141,-0.162 1.141,-0.792 0,-0.174 -0.06,-0.395 -0.096,-0.563 l -0.2,-0.847 c -0.024,-0.126 -0.085,-0.3 -0.085,-0.443 0,-0.145 0.067,-0.193 0.152,-0.193 0.048,0 0.114,0.025 0.163,0.042 l -0.079,-0.378 c -0.078,-0.042 -0.223,-0.072 -0.314,-0.072 -0.284,0 -0.435,0.168 -0.405,0.438 l -0.012,0.012 c -0.218,-0.288 -0.519,-0.45 -1.046,-0.45 -0.519,0 -0.954,0.24 -0.954,0.876 0,0.9 0.888,0.96 1.578,1.02 0.543,0.048 0.785,0.079 0.785,0.493 0,0.336 -0.357,0.407 -0.628,0.407 -0.394,0 -0.781,-0.155 -0.841,-0.558 l -0.514,0" /><path
       inkscape:connector-curvature="0"
       id="path4459"
       style="fill:#000000;fill-opacity:1;fill-rule:nonzero;stroke:none"
       d="m 391.90527,127.81718 0.513,0 -0.906,-4.284 -0.514,0 0.907,4.284" /><path
       inkscape:connector-curvature="0"
       id="path4461"
       style="fill:#000000;fill-opacity:1;fill-rule:nonzero;stroke:none"
       d="m 393.70527,126.63518 0.622,0 -0.096,-0.449 -0.622,0 -0.387,-1.825 c -0.006,-0.072 -0.019,-0.131 -0.019,-0.204 0,-0.162 0.152,-0.21 0.309,-0.21 0.102,0 0.199,0.025 0.296,0.054 l -0.091,-0.468 c -0.12,-0.024 -0.241,-0.036 -0.362,-0.036 -0.381,0 -0.701,0.109 -0.701,0.504 0,0.09 0.012,0.162 0.03,0.258 l 0.411,1.927 -0.525,0 0.096,0.449 0.526,0 0.193,0.919 0.514,0 -0.194,-0.919" /><path
       inkscape:connector-curvature="0"
       id="path4463"
       style="fill:#000000;fill-opacity:1;fill-rule:nonzero;stroke:none"
       d="m 395.66327,127.81718 -0.519,0 -0.133,-0.624 0.52,0 0.132,0.624 z m -1.42,-4.284 0.514,0 0.652,3.102 -0.513,0 -0.653,-3.102" /><path
       inkscape:connector-curvature="0"
       id="path4465"
       style="fill:#000000;fill-opacity:1;fill-rule:nonzero;stroke:none"
       d="m 396.23827,126.63518 0.513,0 -0.653,-3.102 -0.514,0 0.654,3.102 z m 0.633,0.558 -0.519,0 0.133,0.624 0.519,0 -0.133,-0.624" /><rect
       style="fill:none;stroke:#000000;stroke-width:0.70300001;stroke-linecap:round;stroke-linejoin:round;stroke-miterlimit:9.19999981;stroke-opacity:1;stroke-dasharray:none;stroke-dashoffset:0"
       id="rect5952"
       width="311.18158"
       height="53.179935"
       x="3.6857381"
       y="3.1343284"
       transform="matrix(0.8,0,0,-0.8,181,149)"
       ry="10.267413" /></g></svg>